<?xml version="1.0" encoding="utf-8"?>
<!-- Generator: Adobe Illustrator 16.0.0, SVG Export Plug-In . SVG Version: 6.00 Build 0)  -->
<!DOCTYPE svg PUBLIC "-//W3C//DTD SVG 1.1//EN" "http://www.w3.org/Graphics/SVG/1.1/DTD/svg11.dtd">
<svg version="1.1" id="Layer_1" xmlns="http://www.w3.org/2000/svg" xmlns:xlink="http://www.w3.org/1999/xlink" x="0px" y="0px"
	 width="512px" height="504px" viewBox="0 0 512 504" enable-background="new 0 0 512 504" xml:space="preserve">
<g>
	<path fill="#FFB0B8" d="M94.52,2.46c1.94-2.46,5.28-0.62,6.24,1.76c3.24,6.41,8.08,12.061,14.16,15.92c2.12,1.45,4.68,2.7,5.59,5.3
		c0.94,2.79-1.29,5.4-3.55,6.71c-5.57,3.19-9.92,8.19-13.15,13.67c-2.26,3.75-2.439,8.43-5.05,11.99c-0.87,1.24-2.73,1.2-3.57-0.06
		c-2.45-3.37-2.71-7.76-4.729-11.36c-3.311-6-8.09-11.26-14.08-14.66c-2.82-1.58-4.311-5.65-1.811-8.19c3.03-3,7.2-4.62,10.091-7.82
		C89,12.13,91.42,6.99,94.52,2.46z"/>
</g>
<g>
	<path fill="#CCCCDE" d="M352.15,13.16c5.851-0.03,11.71,0.02,17.561,0.01c0.85,5.56,1.739,11.11,2.609,16.66
		c1.78,1.05,3.93,1.1,5.82,1.89c3.99-4.17,7.63-8.66,11.399-13.02c5.141,2.83,10.19,5.81,15.261,8.78
		c-1.761,5.5-4.88,10.8-5.78,16.43c1.38,1.24,2.66,2.59,3.94,3.95c5.449-1.88,10.88-3.81,16.34-5.69
		c2.88,5.11,5.95,10.11,8.72,15.28c-4.37,3.47-8.69,7-13.03,10.52c-0.08,2.01,0.94,3.87,1.13,5.86c5.551,1.73,11.44,2.23,17.11,3.53
		c0.05,5.86,0.02,11.71,0.02,17.56c-5.42,0.9-10.869,1.66-16.279,2.6c-1.78,1.06-1.21,3.73-2.11,5.44l0.25,0.95
		c4.19,3.67,8.43,7.27,12.641,10.91c-0.841,1.47-1.69,2.93-2.53,4.39c-1.99,3.46-3.99,6.91-5.97,10.38
		c-1.311-2.34-2.511-4.74-3.801-7.09c1.96-1.74,3.49-3.95,4.46-6.39c-3.529-4.16-9.149-6.39-11.909-11.12
		c1.199-4.19,2.38-8.38,3.329-12.63c5.2-1,10.48-1.52,15.671-2.56c0.409-2.49,0.479-5.05-0.04-7.53
		c-5.24-1.07-10.62-1.52-15.71-3.23c-0.891-4.38-2.66-8.54-3.28-12.97c3.83-3.63,8.319-6.48,12.149-10.13
		c-1.17-2.09-1.859-5.25-4.199-6.15c-5,1.34-9.57,4.06-14.71,4.94c-2.921-3.15-5.98-6.14-9.29-8.87
		c0.55-5.49,4.159-10.35,5.189-15.83c-1.85-1.4-3.99-2.32-6.17-3.04c-4.23,3.3-6.6,8.729-11.01,11.66
		c-4.25-1.53-8.62-2.63-13.03-3.59c-0.82-5.23-1.26-10.52-2.3-15.71c-2.44-0.08-4.87-0.07-7.3-0.03c-1.04,5.24-2.2,10.45-3.3,15.67
		c-3.28,1.16-6.851,1.37-9.961,3.03c-0.97,0.21-1.93,0.4-2.899,0.57c-0.55-0.49-1.101-0.98-1.63-1.49
		c-2.86-3.76-5.76-7.53-9.15-10.84c-2.08,1.13-4.22,2.22-5.979,3.83c1.909,4.94,3.39,10.03,5.1,15.03
		c-3.21,3.18-6.38,6.41-9.57,9.61c-5.02-1.81-10.06-3.57-15-5.6c-1.399,1.96-2.59,4.05-3.64,6.22c3.69,3.47,7.32,7.08,11.56,9.9
		c0.101,1.24,0.19,2.48,0.271,3.72c-2.18,3.09-1.94,7.07-3.53,10.39c-5.13,0.88-10.25,1.85-15.399,2.59
		c-0.03,2.36,0,4.72-0.021,7.08c4.99,1.91,10.521,2.05,15.75,3.08c0.15,0.79,0.45,2.37,0.601,3.15
		c-6.591-0.06-13.181,0.15-19.761-0.33c-0.699-0.18-2.109-0.54-2.81-0.72c0-5.82-0.01-11.64,0.01-17.45c5.65-1.06,11.38-1.65,17-2.8
		c0.53-1.95,1.03-3.91,1.44-5.89c-4.221-3.85-8.65-7.46-12.91-11.25c1.4-2.56,2.91-5.06,4.359-7.6c1.46-2.53,2.931-5.06,4.381-7.6
		c5.359,2.03,10.699,4.11,16.05,6.16c1.34-1.62,3.3-2.79,4.229-4.71c-1.84-5.31-3.71-10.62-5.51-15.94
		c5.03-2.96,10.11-5.86,15.17-8.78c3.7,4.42,7.11,9.09,10.98,13.35c1.89-0.71,3.96-0.92,5.81-1.79
		C350.039,24.34,351.039,18.74,352.15,13.16z"/>
	<path fill="#CCCCDE" d="M323.369,72.38c4.881-13.11,16.971-22.95,30.601-25.67c4.93-0.51,9.93-0.4,14.81,0.54
		c18.98,3.97,33.721,23.38,31.07,42.85c-1.24,14.52-11.41,27.58-24.89,32.86c-6.851,2.67-14.23,2.82-21.471,2.67
		c-0.93-2.28-1.77-4.59-2.64-6.89c7.66,1.06,15.84,1.54,23.06-1.74c10.601-4.31,18.46-14.62,19.78-25.98
		c0.21-5.94,0.64-12.19-2.02-17.71c-2.16-4.3-4.261-8.85-8.07-11.96c-3.42-2.67-6.87-5.49-11.04-6.89
		c-7.28-2.23-15.271-3.07-22.58-0.5c-7.89,3.02-15.13,8.42-18.94,16.11c-4.75,7.47-4.949,16.81-2.909,25.19
		c-2.07-0.03-4.141-0.03-6.2-0.01C320.44,87.7,320.02,79.51,323.369,72.38z"/>
	<g>
		<path fill="#CCCCDE" d="M354.22,67.22c5.51-1.5,11.56-0.85,16.569,1.92c3.82,2.99,6.94,6.94,8.75,11.46
			c1.811,7.51-1.02,15.97-7.319,20.56c-4.72,3.79-11.21,4.93-17.021,3.63c-5.529-2.63-11.46-6.54-12.989-12.86
			c-2.021-6.13-1.2-13.59,3.3-18.46C347.9,70.79,350.73,68.31,354.22,67.22z M354.61,73.68c-5.88,2.35-9.24,9.87-6.77,15.72
			c3.149-2.35,5.67-5.4,8.52-8.08c2.48-2.76,5.74-4.96,7.57-8.23C361.13,71.24,357.449,72.52,354.61,73.68z M349.19,93.27
			c1.54,2.49,4.01,4.71,6.88,5.49c5.07-0.04,11.45,1.02,14.88-3.73c3.58-3.66,2.9-8.97,2.601-13.62c-1.04-2.65-2.41-6.02-5.521-6.66
			C361.38,80.51,355.369,87.02,349.19,93.27z"/>
	</g>
	<g>
		<path fill="#CCCCDE" d="M105.83,246.84c3.47,2.73,8.14,1.04,12.189,1.39c0.811,4.16,0.141,8.57,0.26,12.831
			c-0.439-0.25-1.31-0.74-1.75-0.98c-2.199-1.6-5.09,0.27-7.34-1.189c-1.68-0.671-3.439-2.591-5.26-1.171
			c-4.2,2.15-8.4,4.32-12.42,6.79c-5.64,3.44-11.4,6.68-17.07,10.061c-1.39,0.88-2.949,1.459-4.609,1.56
			c0.66-1.06,1.46-2.04,2.55-2.68c10.229-6.54,21.21-11.88,31.21-18.771C103.82,251.93,104.02,249.07,105.83,246.84z M110.21,250.21
			c0.01,1.14-0.851,3.39,1.05,3.44c2.33,0.83,3.37-1.74,2.59-3.61C112.63,249.84,111.42,249.89,110.21,250.21z"/>
	</g>
	<path fill="#CCCCDE" d="M82.67,296.63c1.17-0.101,2.34-0.21,3.51-0.28c0.45,1.44,1.67,3.041,0.64,4.541
		c-1.829,3.68-4,7.199-6.119,10.719c-1.511,0.021-3.12,0.19-4.351-0.869c-0.75-2.43,0.68-4.631,1.73-6.7
		C79.48,301.5,80.78,298.859,82.67,296.63z"/>
	<path fill="#CCCCDE" d="M386.99,345.58c13.59-4.75,29-4.109,42.011,2.12c16.199,7.46,28.689,23.88,29.02,42.05
		c16.38,7.98,28.51,25.72,26.82,44.32c-1.351,19.33-16.67,35.689-34.891,40.989c-5.16,1.591-10.569,2.25-15.97,2.28
		c-24.34,0.01-48.68,0-73.01,0c-4.88,0.29-9.73-0.76-14.47-1.85c-12.58-4.04-23.66-13.65-27.83-26.391
		c-3.721-10.819-1.54-23.14,5.01-32.43c-0.78-3.45-1.5-6.93-1.3-10.5c2.04,0,4.069-0.05,6.12-0.02c-0.62,5,3.51,10.58-0.49,14.82
		c-5.061,6.97-5.74,16.079-4.36,24.329c1.82,6.49,5.34,12.73,10.561,17.101c1.149,0.909,2.35,1.77,3.569,2.609
		c2.811,1.94,5.931,3.4,9.181,4.44c1.829,0.49,3.68,0.93,5.56,1.28c4.7,0.649,9.47,0.649,14.21,0.51c1.67-0.03,3.35,0.01,5.021,0.05
		c5.01,0.12,10.02,0.17,15.029-0.06c1.63-0.03,3.28,0.01,4.931,0.06c5.01,0.12,10.029,0.17,15.04-0.07
		c1.649-0.02,3.3,0.021,4.96,0.07c4.989,0.12,10,0.17,14.989-0.07c1.66-0.02,3.32,0.03,4.98,0.08c10.21,0.7,20.38-2.32,29.12-7.47
		c12.33-7.69,19.3-22.59,18.12-36.96c-0.33-2.38-0.92-4.72-1.57-7.03c-1.07-3.6-2.69-7.029-4.88-10.08
		c-0.7-0.98-1.4-1.939-2.12-2.88c-2.08-2.72-4.6-5.069-7.36-7.06c-1.2-0.87-2.42-1.711-3.67-2.49c-2.67-1.891-7.06-2.54-7.479-6.42
		c0.08-2.67,0.08-5.37-0.49-7.99c-0.61-2.8-1.521-5.529-2.67-8.141c-0.73-1.59-1.51-3.149-2.351-4.67
		c-1.619-2.67-3.529-5.159-5.72-7.39c-1.03-1-2.09-1.96-3.16-2.899c-2.689-2.42-5.71-4.471-8.989-5.99
		c-1.141-0.54-2.271-1.07-3.421-1.58c-3.77-1.65-7.779-2.75-11.88-3.2c-4.09-0.62-8.239-1.09-12.35-0.45
		c-4.75,0.291-9.28,1.771-13.74,3.311C387.03,349.8,386.98,347.689,386.99,345.58z"/>
	<path fill="#CCCCDE" d="M75.11,352.07c12.521-6.24,27.341-7.67,40.801-3.83c0.59,0.18,1.779,0.55,2.38,0.73
		c0.08,1.989,0.09,3.989,0.069,6c-3-0.891-6.04-1.69-9.14-2.101c-1.93-0.31-3.86-0.62-5.8-0.761
		c-14.63-0.56-29.75,4.601-40.11,15.15c-10.6,10.37-15.79,25.561-15.16,40.23c0.141,1.92,0.431,3.83,0.73,5.74
		c0.55,4.069,1.66,8.069,3.33,11.829c0.51,1.15,1.05,2.301,1.6,3.45c6.33,12.84,18.431,22.75,32.311,26.33
		c9.04,2.79,18.859,2.48,28,0.351c21.75-5.48,38.59-26.421,38.76-48.95c1.99-0.01,4-0.061,6-0.07
		c-0.38,13.71-5.94,27.13-15.141,37.271c-8.789,9.699-20.819,16.54-33.779,18.64c-12.04,2.07-24.73,0.07-35.59-5.53
		C53.19,446.01,39.5,421.82,42.49,398.18C44.53,378.561,57.44,360.68,75.11,352.07z"/>
	<path fill="#CCCCDE" d="M77.39,420.41c1.17-0.65,2.68-0.42,3.5,0.67c5.851,6.28,14.48,10.84,23.24,9.689
		c6.649-1.109,11.97-5.55,16.95-9.77c2.34-2.38,6.68,0.99,4.64,3.78c-5.88,6.489-14.01,10.91-22.69,12.2
		c-10.59,0.399-20.89-4.881-27.479-13C75.49,422.54,76.08,421.1,77.39,420.41z"/>
</g>
<g>
	<path fill="#FFFFFF" d="M357.3,19.32c2.43-0.04,4.859-0.05,7.3,0.03c1.04,5.19,1.479,10.48,2.3,15.71
		c4.41,0.96,8.78,2.06,13.03,3.59c4.41-2.93,6.779-8.36,11.01-11.66c2.18,0.72,4.32,1.64,6.17,3.04
		c-1.03,5.479-4.64,10.34-5.189,15.83c3.31,2.73,6.369,5.72,9.29,8.87c5.14-0.88,9.71-3.6,14.71-4.94
		c2.34,0.9,3.029,4.06,4.199,6.15c-3.83,3.65-8.319,6.5-12.149,10.13c0.62,4.43,2.39,8.59,3.28,12.97
		c5.09,1.71,10.47,2.16,15.71,3.23c0.52,2.48,0.449,5.04,0.04,7.53c-5.19,1.04-10.471,1.56-15.671,2.56
		c-0.949,4.25-2.13,8.44-3.329,12.63c2.76,4.73,8.38,6.96,11.909,11.12c-0.97,2.44-2.5,4.65-4.46,6.39c-1.739-3-3.489-6-4.84-9.2
		c-0.8-1.8-3.189-2.87-4.88-1.57c-15.19,8.6-30.37,17.22-45.63,25.7c-3.34-3.23-5.16-7.48-6.61-11.8c7.24,0.15,14.62,0,21.471-2.67
		c13.479-5.28,23.649-18.34,24.89-32.86c2.65-19.47-12.09-38.88-31.07-42.85c-4.88-0.94-9.88-1.05-14.81-0.54
		c-13.63,2.72-25.72,12.56-30.601,25.67c-3.35,7.13-2.93,15.32-1.439,22.87c-3.811,0.05-7.63,0.03-11.43,0.01
		c-0.15-0.78-0.45-2.36-0.601-3.15c-5.229-1.03-10.76-1.17-15.75-3.08c0.021-2.36-0.01-4.72,0.021-7.08
		c5.149-0.74,10.27-1.71,15.399-2.59c1.59-3.32,1.351-7.3,3.53-10.39c7.81-6.77,14.71-14.5,22.11-21.69
		c3.05-2.99,6.17-5.91,8.829-9.26c3.11-1.66,6.681-1.87,9.961-3.03C355.1,29.77,356.26,24.56,357.3,19.32z"/>
	<path fill="#FFFFFF" d="M330.36,26.26c3.391,3.31,6.29,7.08,9.15,10.84c-3.601,5.42-8.931,9.34-13.271,14.12
		c-4.39,4.75-9.54,8.82-13.41,14.03c-4.239-2.82-7.869-6.43-11.56-9.9c1.05-2.17,2.24-4.26,3.64-6.22c4.94,2.03,9.98,3.79,15,5.6
		c3.19-3.2,6.36-6.43,9.57-9.61c-1.71-5-3.19-10.09-5.1-15.03C326.14,28.48,328.28,27.39,330.36,26.26z"/>
	<path fill="#FFFFFF" d="M387.07,351.91c4.46-1.54,8.99-3.02,13.74-3.311c2.37,0.17,4.729,0.45,7.09,0.771
		c-6.79,7.11-13.72,14.13-20.899,20.851C386.97,364.109,386.97,358.01,387.07,351.91z"/>
	<path fill="#FFFFFF" d="M413.159,349.05c4.101,0.45,8.11,1.55,11.88,3.2c-12.539,12.8-25.17,25.529-38.039,38
		c-0.021-5.02-0.03-10.04,0.01-15.05C395.949,366.721,404.73,358.04,413.159,349.05z"/>
	<path fill="#FFFFFF" d="M428.46,353.83c3.279,1.52,6.3,3.57,8.989,5.99c-32.88,33.35-66.239,66.239-99.22,99.5
		c-1.21,1.189-2.62,2.14-4.02,3.08c-5.221-4.37-8.74-10.61-10.561-17.101c-1.38-8.25-0.7-17.36,4.36-24.33
		c4-4.239-0.13-9.819,0.489-14.819c18.83-0.021,37.671,0.189,56.49-0.101c3.74-2.159,1.3-7.38,2.021-10.87
		c1.989-1.729,3.949-3.51,5.779-5.41C404.56,377.68,416.84,366.07,428.46,353.83z"/>
	<path fill="#FFFFFF" d="M431.74,370.79c2.87-2.78,5.42-5.96,8.87-8.069c2.19,2.229,4.101,4.719,5.72,7.389
		c-0.64,1.07-1.229,2.19-2.069,3.121c-29.37,29.31-58.7,58.67-88.04,88.02c-2.971,2.86-5.49,6.33-9.261,8.2
		c-3.25-1.04-6.369-2.5-9.18-4.44c3.96-4.439,8.32-8.5,12.46-12.77C377.449,425.13,404.539,397.91,431.74,370.79z"/>
	<path fill="#FFFFFF" d="M444.78,377.71c1.19-1.12,2.55-2.03,3.9-2.931c1.149,2.611,2.06,5.341,2.67,8.141
		c-0.3,1.891-0.6,3.95-2.12,5.311c-22.96,23.02-46.01,45.979-68.979,69c-4.551,4.63-9.41,8.97-13.521,14.01
		c-4.74,0.14-9.51,0.14-14.21-0.51c2.83-4.19,6.8-7.381,10.27-11.011C390.1,432.37,417.5,405.09,444.78,377.71z"/>
	<path fill="#FFFFFF" d="M384.289,458.24c22.561-22.4,44.82-45.1,67.551-67.33c0.42,3.88,4.81,4.529,7.479,6.42
		c-1.1,1.55-2.229,3.07-3.56,4.42c-14.721,14.62-29.33,29.33-44.021,43.97c-8.21,8.61-17.13,16.55-24.96,25.511
		c-5.01,0.229-10.02,0.18-15.029,0.06C375.51,466.55,380.13,462.6,384.289,458.24z"/>
	<path fill="#FFFFFF" d="M405.76,456.77c19.109-18.939,37.899-38.229,57.229-56.949c2.761,1.99,5.28,4.34,7.36,7.06
		c-14.62,15.18-29.771,29.84-44.57,44.84c-6.3,6.53-13.149,12.57-19.029,19.5c-5.011,0.24-10.03,0.19-15.04,0.07
		C395.949,466.04,401.14,461.68,405.76,456.77z"/>
	<path fill="#FFFFFF" d="M472.47,409.76c2.189,3.051,3.81,6.48,4.88,10.08c-11.42,12.09-23.49,23.55-35.15,35.42
		c-5.13,5.351-10.729,10.271-15.5,15.96c-4.989,0.24-10,0.19-14.989,0.07c5.42-6.41,11.699-12.021,17.55-18.03
		C443.579,438.68,458.369,424.56,472.47,409.76z"/>
	<path fill="#FFFFFF" d="M477.31,425.35c0.53,0.5,1.06,1.011,1.61,1.521c1.18,14.37-5.79,29.27-18.12,36.96
		c-8.74,5.15-18.91,8.17-29.12,7.47c1.76-2.09,3.6-4.109,5.56-6.02C450.59,451.97,463.86,438.56,477.31,425.35z"/>
</g>
<g opacity="0.2">
	<path fill="#2CC73B" d="M108.82,82.82C134.92,49.38,176.47,28.18,219.01,28c27.59-0.95,55.43,6.58,78.819,21.22
		c-1.449,2.54-2.959,5.04-4.359,7.6c4.26,3.79,8.689,7.4,12.91,11.25c-0.41,1.98-0.91,3.94-1.44,5.89c-5.62,1.15-11.35,1.74-17,2.8
		c-0.02,5.81-0.01,11.63-0.01,17.45c0.7,0.18,2.11,0.54,2.811,0.72c-2.511,0.62-5.11,0.28-7.66,0.35
		c-39.351,0.03-78.7-0.05-118.051,0.04c-1.35-0.19-2.18,0.99-2.68,2.06c-5.6,13.48-10.189,27.41-16.38,40.64
		c-14.67-7.61-29.28-15.32-43.9-23.01c-1.979-1.01-4.52-3.33-6.68-1.46c-3.63,4.42-6.51,9.41-10.13,13.85
		C89.9,111.14,98.48,96.14,108.82,82.82z"/>
	<g>
		<path fill="#2CC73B" d="M419.25,129.59c1.979-3.47,3.979-6.92,5.97-10.38c34.21,20.79,59.09,56.35,66.35,95.77
			c2.181,11.15,2.931,22.6,2.24,33.93c-1.36,17.311-9.74,33.16-20.36,46.57C459.32,313.46,442.119,328.9,429,347.7
			c-13.011-6.229-28.421-6.87-42.011-2.12c0.061-32.439-0.08-64.88,0.07-97.33c4.3,0.01,8.62,0.14,12.93-0.07
			c1.761-0.31,2.88-2.5,2.021-4.1c-4.7-13.05-9.61-26.02-14.3-39.07c16.89-10.92,33.93-21.63,50.869-32.49
			c1.551-0.81,2.811-2.78,1.62-4.43C433.28,155.22,426.21,142.44,419.25,129.59z M453.329,213.28c-1.09,0.57-1.569,1.76-2.18,2.75
			c-2.29,4.49-5.979,8.19-10.25,10.82c-1.5,0.94-3.27,2.11-3.31,4.1c-0.08,2.32,2.18,3.52,3.83,4.64
			c5.159,3.28,8.649,8.71,10.34,14.52c0.67,1.34,1.14,3.93,3.22,3.4c1.46-1.28,1.93-3.3,2.61-5.05c1.76-5.49,5.5-10.37,10.449-13.36
			c1.551-0.92,3.08-2.21,3.19-4.16c-0.29-2.1-2.1-3.3-3.74-4.33c-4.3-2.66-7.88-6.5-10.149-11.03
			C456.699,214.12,455.079,212.22,453.329,213.28z"/>
	</g>
	<path fill="#2CC73B" d="M16.7,278.7c0.899-3.011,2.35-5.82,4.34-8.261c2.939,13.23,8.62,25.891,16.87,36.66
		c18.35,24.76,49.609,39.471,80.439,37c0.01,1.58,0.03,3.16,0.04,4.75c-0.62-0.16-1.86-0.459-2.479-0.609
		c-13.46-3.84-28.28-2.41-40.801,3.83c-17.67,8.609-30.58,26.49-32.619,46.109c-0.051-0.51-0.15-1.529-0.2-2.039
		C17.58,368.88,3.73,331.891,5.36,295.05c0.57-6.96,2.471-13.75,5.17-20.17c1.061,2.17,1.561,4.601,2.851,6.67
		C15.34,283.09,16.11,280.08,16.7,278.7z"/>
	<path fill="#2CC73B" d="M158.88,406.17c54.5,0,109-0.01,163.5,0c-0.2,3.57,0.52,7.051,1.3,10.5c-6.55,9.29-8.73,21.61-5.01,32.43
		c4.17,12.74,15.25,22.351,27.829,26.391c-2.06,2.069-4.96,2.99-7.46,4.439c-14.819,7.23-30.8,12.551-47.26,14.11
		c2.08-8.41,7.601-15.771,14.601-20.771c2.949-1.729,6.989-4.189,6.04-8.239c-1.431-3.91-5.78-5.25-8.771-7.69
		c-4.75-3.95-9.109-8.609-11.77-14.25c-0.97-2.09-3.24-4.7-5.771-3.32c-2.659,1.62-3.38,4.891-5.08,7.32
		c-3.51,5.04-7.92,9.51-13.189,12.71c-2.04,1.311-4.3,2.73-5.09,5.17c-0.851,2.811,1.319,5.41,3.59,6.761
		c8.51,5.029,14.9,13.529,17.32,23.13c-11.03,1.199-22.601,0.239-32.591-4.931c-17.739-9.12-30.069-25.68-47.199-35.71
		c-12.75-7.939-27.931-11.76-42.92-11.14c-5.71,0.62-11.471,0.55-17.21,0.36C152.94,433.3,158.5,419.88,158.88,406.17z"/>
</g>
<g>
	<path fill="#FFFFFF" d="M339.51,37.1c0.529,0.51,1.08,1,1.63,1.49c0.97-0.17,1.93-0.36,2.899-0.57
		c-2.659,3.35-5.779,6.27-8.829,9.26c-7.4,7.19-14.301,14.92-22.11,21.69c-0.08-1.24-0.17-2.48-0.271-3.72
		c3.87-5.21,9.021-9.28,13.41-14.03C330.579,46.44,335.909,42.52,339.51,37.1z"/>
	<path fill="#FFFFFF" d="M400.81,348.6c4.11-0.64,8.26-0.17,12.35,0.45c-8.43,8.99-17.21,17.671-26.149,26.15
		c0-1.671-0.01-3.32-0.01-4.979c7.18-6.721,14.109-13.74,20.899-20.851C405.539,349.05,403.18,348.77,400.81,348.6z"/>
	<path fill="#FFFFFF" d="M425.039,352.25c1.15,0.51,2.28,1.04,3.421,1.58c-11.62,12.24-23.9,23.85-35.671,35.939
		c-1.829,1.9-3.789,3.681-5.779,5.41c0-1.65-0.01-3.289-0.01-4.93C399.869,377.779,412.5,365.05,425.039,352.25z"/>
	<path fill="#FFFFFF" d="M437.449,359.82c1.07,0.939,2.13,1.9,3.16,2.9c-3.45,2.109-6,5.289-8.87,8.069
		c-27.2,27.12-54.29,54.34-81.5,81.45c-4.14,4.27-8.5,8.33-12.46,12.77c-1.22-0.84-2.42-1.7-3.569-2.609
		c1.399-0.94,2.81-1.891,4.02-3.08C371.21,426.06,404.57,393.17,437.449,359.82z"/>
	<path fill="#FFFFFF" d="M446.329,370.109c0.841,1.521,1.62,3.08,2.351,4.67c-1.351,0.9-2.71,1.811-3.9,2.931
		c-27.279,27.38-54.68,54.66-81.99,82.01c-3.47,3.63-7.439,6.82-10.27,11.011c-1.88-0.351-3.73-0.79-5.56-1.28
		c3.77-1.87,6.29-5.34,9.26-8.2c29.34-29.35,58.67-58.71,88.04-88.02C445.1,372.3,445.69,371.18,446.329,370.109z"/>
	<path fill="#FFFFFF" d="M451.35,382.92c0.57,2.62,0.57,5.32,0.49,7.99c-22.73,22.23-44.99,44.93-67.551,67.33
		c-4.159,4.359-8.779,8.31-12.54,13.05c-1.67-0.04-3.35-0.08-5.02-0.05c4.11-5.04,8.97-9.38,13.52-14.01
		c22.971-23.021,46.021-45.98,68.98-69C450.75,386.87,451.05,384.811,451.35,382.92z"/>
	<path fill="#FFFFFF" d="M459.32,397.33c1.25,0.779,2.47,1.62,3.67,2.49c-19.33,18.72-38.12,38.01-57.229,56.949
		c-4.62,4.91-9.811,9.271-14.05,14.521c-1.65-0.05-3.301-0.09-4.931-0.06c7.83-8.961,16.75-16.9,24.96-25.511
		c14.69-14.64,29.3-29.35,44.021-43.97C457.09,400.4,458.22,398.88,459.32,397.33z"/>
	<path fill="#FFFFFF" d="M470.35,406.88c0.72,0.94,1.42,1.899,2.12,2.88c-14.101,14.8-28.891,28.92-43.21,43.5
		c-5.851,6.01-12.13,11.62-17.55,18.03c-1.66-0.05-3.311-0.09-4.96-0.07c5.88-6.93,12.729-12.97,19.029-19.5
		C440.579,436.72,455.73,422.06,470.35,406.88z"/>
	<path fill="#FFFFFF" d="M477.35,419.84c0.65,2.311,1.24,4.65,1.57,7.03c-0.551-0.51-1.08-1.021-1.61-1.521
		c-13.45,13.21-26.72,26.62-40.07,39.931c-1.96,1.91-3.8,3.93-5.56,6.02c-1.66-0.05-3.32-0.1-4.98-0.08
		c4.771-5.689,10.37-10.609,15.5-15.96C453.86,443.39,465.93,431.93,477.35,419.84z"/>
</g>
<g>
	<g>
		<path fill="#F0F0FF" d="M349.98,53.96c7.31-2.57,15.3-1.73,22.58,0.5c4.17,1.4,7.62,4.22,11.04,6.89
			c3.81,3.11,5.91,7.66,8.07,11.96c2.659,5.52,2.229,11.77,2.02,17.71c-1.32,11.36-9.18,21.67-19.78,25.98
			c-7.22,3.28-15.399,2.8-23.06,1.74c-2.4-6.39-5.03-12.7-7.35-19.11c-0.29-1.77-1.011-3.68-2.9-4.24
			c-4.15-0.29-8.311-0.01-12.47-0.13c-2.04-8.38-1.841-17.72,2.909-25.19C334.85,62.38,342.09,56.98,349.98,53.96z M354.22,67.22
			c-3.49,1.09-6.32,3.57-8.71,6.25c-4.5,4.87-5.32,12.33-3.3,18.46c1.529,6.32,7.46,10.23,12.989,12.86
			c5.811,1.3,12.301,0.16,17.021-3.63c6.3-4.59,9.13-13.05,7.319-20.56c-1.81-4.52-4.93-8.47-8.75-11.46
			C365.78,66.37,359.73,65.72,354.22,67.22z"/>
	</g>
</g>
<g>
	<path fill="#DBDBED" d="M354.61,73.68c2.84-1.16,6.521-2.44,9.32-0.59c-1.83,3.27-5.09,5.47-7.57,8.23
		c-2.85,2.68-5.37,5.73-8.52,8.08C345.369,83.55,348.73,76.03,354.61,73.68z"/>
	<path fill="#DBDBED" d="M349.19,93.27c6.18-6.25,12.19-12.76,18.84-18.52c3.11,0.64,4.48,4.01,5.521,6.66
		c0.3,4.65,0.979,9.96-2.601,13.62c-3.43,4.75-9.81,3.69-14.88,3.73C353.199,97.98,350.73,95.76,349.19,93.27z"/>
</g>
<g>
	<g>
		<path fill="#6E6E96" d="M162.35,97.38c0.5-1.07,1.33-2.25,2.68-2.06c39.351-0.09,78.7-0.01,118.051-0.04
			c2.55-0.07,5.149,0.27,7.66-0.35c6.579,0.48,13.169,0.27,19.76,0.33c3.8,0.02,7.619,0.04,11.43-0.01c2.06-0.02,4.13-0.02,6.2,0.01
			c4.159,0.12,8.319-0.16,12.47,0.13c1.89,0.56,2.61,2.47,2.9,4.24c2.319,6.41,4.949,12.72,7.35,19.11c0.87,2.3,1.71,4.61,2.64,6.89
			c1.45,4.32,3.271,8.57,6.61,11.8c15.26-8.48,30.439-17.1,45.63-25.7c1.69-1.3,4.08-0.23,4.88,1.57c1.351,3.2,3.101,6.2,4.84,9.2
			c1.29,2.35,2.49,4.75,3.801,7.09c6.96,12.85,14.029,25.63,20.949,38.5c1.19,1.65-0.069,3.62-1.62,4.43
			c-16.939,10.86-33.979,21.57-50.869,32.49c4.689,13.05,9.6,26.02,14.3,39.07c0.859,1.6-0.26,3.79-2.021,4.1
			c-4.31,0.21-8.63,0.08-12.93,0.07c-0.15,32.45-0.01,64.891-0.07,97.33c-0.01,2.109,0.04,4.22,0.08,6.33
			c-0.1,6.1-0.1,12.199-0.069,18.311c0,1.659,0.01,3.309,0.01,4.979c-0.04,5.01-0.03,10.03-0.01,15.05c0,1.641,0.01,3.279,0.01,4.93
			c-0.721,3.49,1.72,8.711-2.021,10.87c-18.819,0.29-37.66,0.08-56.489,0.101c-2.051-0.03-4.08,0.02-6.12,0.02
			c-54.5-0.01-109,0-163.5,0c-2,0.01-4.01,0.061-6,0.07c-9.65-0.2-19.29,0.029-28.94-0.07c-1.659-0.13-3.8,0.45-4.949-1.13
			c-0.971-1.11-0.601-2.67-0.69-4c0.11-12.11,0.01-24.229,0.05-36.351c0-1.649-0.02-3.289-0.02-4.93c0.01-1.6,0.02-3.199,0.029-4.79
			c0.021-2.01,0.011-4.01-0.069-6c-0.601-0.18-1.79-0.55-2.38-0.729c0.62,0.15,1.859,0.449,2.479,0.609
			c-0.01-1.59-0.03-3.17-0.04-4.75c-0.04-2.029-0.05-4.05-0.02-6.06c0-0.81,0.01-2.41,0.02-3.21c0-1.98,0-3.971,0.01-5.939
			c0.021-2.07,0-4.131-0.039-6.19c-0.021-2.2,0.029-4.4,0.029-6.601c-0.02-10.47-0.01-20.939,0-31.41c0-1.64-0.02-3.289-0.02-4.93
			c0.04-5.029,0.02-10.06,0.02-15.08c-0.029-1.21-0.06-2.42-0.069-3.619c-0.12-4.261,0.55-8.67-0.261-12.831
			c-4.05-0.35-8.72,1.34-12.189-1.39c0.08-0.73,0.229-2.19,0.31-2.92c3.69-12.79,7.73-25.48,11.47-38.26l0.23-0.67
			c-1.1-0.76-2.19-1.51-3.28-2.26c-3-2.05-6-4.09-9-6.14c-0.96-0.66-1.91-1.31-2.859-1.96c-2.91-1.96-5.79-3.94-8.681-5.92
			c-1.51-1.04-3.02-2.08-4.54-3.09c-0.92-0.62-1.84-1.22-2.75-1.85c-2.05-1.48-4.13-2.9-6.25-4.27c-2.729-1.82-5.35-3.77-8.1-5.56
			c-1.65-1.09-3.31-2.15-4.94-3.28c-1.979-1.46-4.05-2.78-6.029-4.24c-1.24-0.89-1.7-2.77-0.69-4.01
			c8.07-11.75,16.61-23.17,24.54-35.01c3.62-4.44,6.5-9.43,10.13-13.85c2.16-1.87,4.7,0.45,6.68,1.46
			c14.62,7.69,29.23,15.4,43.9,23.01C152.16,124.79,156.75,110.86,162.35,97.38z M167.12,101.47
			c-7.65,19.79-15.42,39.54-23.141,59.31c37.01-0.03,74.03-0.03,111.04,0c35.17-0.15,70.36,0.22,105.52-0.19
			c-7.609-19.64-15.109-39.33-22.8-58.95c-1.489-0.66-3.189-0.28-4.76-0.4C277.7,101.43,222.37,100.99,167.12,101.47z
			 M368.63,139.64c-2.16,1.38-4.98,2.04-6.351,4.37c7.37,18.48,15.44,36.71,23.01,55.12c2.65-1.19,4.971-2.99,7.421-4.54
			c13.619-8.49,27.029-17.3,40.609-25.84c-1.54-4.59-4.52-8.64-6.6-13.03l-0.26,0.25c0.06-1.47-1.181-2.57-1.73-3.84
			c-1.62-2.94-3.22-5.88-4.82-8.83c-0.72-1.42-1.479-2.8-2.26-4.17c-1.63-2.93-3.22-5.88-4.82-8.82c-0.72-1.37-1.439-2.73-2.14-4.1
			l-0.09,0.13c-1.391-2.7-2.78-5.42-4.43-7.97C393.72,125.57,381.07,132.42,368.63,139.64z M98.12,119.93
			c-10.19,14.37-20.431,28.71-30.54,43.14c8.939,6.88,18.649,12.89,27.93,19.39c0.96,0.73,1.95,1.43,2.98,2.08
			c2.909,1.95,5.77,3.97,8.699,5.9c4.21,2.95,8.431,5.89,12.801,8.61c7.51-17.3,14.579-34.77,22.029-52.09
			c0.34-1.22,1.44-2.42,0.91-3.74c-1.91-1-3.84-1.94-5.74-2.94C124.18,133.48,111.3,126.4,98.12,119.93z M142.57,166.93
			c-0.01,8.69-0.06,17.38-0.02,26.08c0.09,2.61-0.19,5.27,0.27,7.86c73.021-0.1,146.03,0.05,219.05-0.08
			c0.021-2.58,0.11-5.17,0.16-7.75c-0.01-8.72-0.069-17.43-0.04-26.14C288.86,166.91,215.69,166.88,142.57,166.93z M368.03,175.15
			c-0.04,5.95-0.02,11.91,0.09,17.86c-0.14,2.46-0.109,4.92-0.08,7.39c3.681,0.06,7.37,0.08,11.061-0.06
			c-1-2.42-1.96-4.84-3.01-7.23c-2.53-6.03-5.15-12.03-7.53-18.12L368.03,175.15z M129.62,192.55l-0.19-0.03
			c-1.03,2.67-2.21,5.29-3.229,7.97c3.399-0.1,6.8-0.05,10.21-0.05c0.27-8.28-0.091-16.57,0.27-24.86
			C134.2,181.18,131.89,186.86,129.62,192.55z M123.41,207.26c-3.431,11.69-7.11,23.31-10.511,35.02
			c94.03,0,188.05,0.04,282.07-0.02c-4.311-11.77-8.66-23.52-12.98-35.29c-0.5-0.06-1.479-0.17-1.97-0.23
			c-49.68,0.59-99.37,0.09-149.06,0.33c-34.3-0.24-68.62,0.26-102.92-0.34C126.55,206.98,124.62,206.15,123.41,207.26z
			 M124.34,248.29c-0.19,50.53-0.1,101.069-0.03,151.61c1.49,0.459,3.07,0.24,4.61,0.289c83.979-0.08,167.96,0.07,251.949-0.069
			c0.23-7.45,0.19-14.899,0.07-22.341c0.1-40.609,0.03-81.209,0.03-121.809c0.08-2.57,0.1-5.151-0.04-7.721
			C295.4,248.34,209.87,248.25,124.34,248.29z"/>
	</g>
	<g>
		<path fill="#6E6E96" d="M293.72,283.68c4.08-3.42,10.859-4.039,14.96-0.369c3.83,4.01,2.53,10.569-1.141,14.229
			c-18.56,20.14-36.959,40.42-55.489,60.58c-3.53,4.11-10.79,4.33-14.34,0.159c-8.99-10.409-17.641-21.1-26.681-31.479
			c-3.689-4.55-3.829-12.069,0.521-16.229c3.979-3.291,10.2-3.67,14.47-0.7c5.061,3.31,9.78,7.159,15,10.239
			c2.521,1.591,5.86,0.86,8.04-0.989C263.95,307.32,278.84,295.5,293.72,283.68z M297.35,288.45
			c-14.91,11.75-29.62,23.729-44.6,35.38c-4.75,3.8-12.03,3.8-16.92,0.26c-4.63-3.359-9.33-6.609-14.08-9.79
			c-2.021-1.45-4.641-0.71-6.4,0.761c-1.479,2-2.04,4.939-0.24,6.949c8.471,10.471,17.351,20.61,25.92,31.01
			c1.171,1.271,2.591,3.36,4.61,2.61c1.21-0.739,2.15-1.83,3.12-2.85c18.31-20.05,36.68-40.05,55.01-60.07
			c1.85-1.55,2.43-4.729-0.19-5.819C301.4,285.83,299.07,287.141,297.35,288.45z"/>
	</g>
</g>
<g>
	<path fill="#C5EEFF" d="M167.12,101.47c55.25-0.48,110.58-0.04,165.859-0.23c1.57,0.12,3.27-0.26,4.76,0.4
		c7.69,19.62,15.19,39.31,22.8,58.95c-35.159,0.41-70.35,0.04-105.52,0.19c-37.01-0.03-74.03-0.03-111.04,0
		C151.7,141.01,159.47,121.26,167.12,101.47z"/>
</g>
<g>
	<path fill="#FFEBC5" d="M368.63,139.64c12.439-7.22,25.09-14.07,37.54-21.27c1.649,2.55,3.04,5.27,4.43,7.97
		c-3.1,4.59-7.49,8.05-11.26,12.04c-7.21,6.87-13.86,14.35-21.34,20.92C373.96,153.19,372.76,145.72,368.63,139.64z"/>
	<path fill="#FFEBC5" d="M98.12,119.93c13.18,6.47,26.06,13.55,39.069,20.35c-13.66,14.28-28.109,27.81-41.68,42.18
		c-9.28-6.5-18.99-12.51-27.93-19.39C77.69,148.64,87.93,134.3,98.12,119.93z"/>
	<path fill="#FFEBC5" d="M400.68,141.66c4.1-3.74,7.439-8.33,12.149-11.35c1.601,2.94,3.19,5.89,4.82,8.82
		c-0.99,1.48-1.99,2.96-3.24,4.23c-9.42,9.27-18.689,18.69-28.069,27.99c-0.66,0.65-1.41,1.16-2.23,1.56
		c-2.29-2.85-3.59-6.36-4.399-9.88C386.21,155.47,393.75,148.83,400.68,141.66z"/>
	<path fill="#FFEBC5" d="M410.619,151.7c2.98-2.92,5.601-6.31,9.29-8.4c1.601,2.95,3.2,5.89,4.82,8.83
		c-1.02,1.48-2.07,2.95-3.34,4.22c-8.07,7.96-16.021,16.03-24.04,24.03c-2.37,2.35-4.57,4.91-7.36,6.77
		c-1.989-3.08-3.42-6.52-4.26-10.09c0.73-1.04,1.5-2.07,2.41-2.97C395.659,166.65,403.15,159.18,410.619,151.7z"/>
	<path fill="#FFEBC5" d="M122.17,160.13c2.91-2.85,5.54-6.05,9-8.27c-1.53,4.62-4.03,8.83-5.98,13.28c-4.359,9.4-8.83,19.59-18,25.3
		c-2.93-1.93-5.79-3.95-8.699-5.9c0.97-1.36,1.96-2.71,3.13-3.9C108.52,173.85,115.32,166.96,122.17,160.13z"/>
	<path fill="#FFEBC5" d="M426.46,155.97l0.26-0.25c2.08,4.39,5.06,8.44,6.6,13.03c-13.58,8.54-26.99,17.35-40.609,25.84
		c-0.271-1.21-0.54-2.41-0.801-3.62c0.96-1.67,2.33-3.03,3.7-4.36C405.99,176.5,416.03,166.04,426.46,155.97z"/>
	<path fill="#FFEBC5" d="M123.41,207.26c1.21-1.11,3.14-0.28,4.63-0.53c34.3,0.6,68.62,0.1,102.92,0.34
		c49.689-0.24,99.38,0.26,149.06-0.33c0.49,0.06,1.47,0.17,1.97,0.229c4.32,11.771,8.67,23.521,12.98,35.29
		c-94.021,0.06-188.04,0.02-282.07,0.02C116.3,230.57,119.98,218.95,123.41,207.26z"/>
</g>
<g>
	<path fill="#FFEBC5" d="M410.6,126.34l0.09-0.13c0.7,1.37,1.42,2.73,2.14,4.1c-4.71,3.02-8.05,7.61-12.149,11.35
		c-6.93,7.17-14.47,13.81-20.97,21.37c0.81,3.52,2.109,7.03,4.399,9.88c0.82-0.4,1.57-0.91,2.23-1.56
		c9.38-9.3,18.649-18.72,28.069-27.99c1.25-1.27,2.25-2.75,3.24-4.23c0.78,1.37,1.54,2.75,2.26,4.17c-3.689,2.09-6.31,5.48-9.29,8.4
		c-7.47,7.48-14.96,14.95-22.479,22.39c-0.91,0.9-1.68,1.93-2.41,2.97c0.84,3.57,2.271,7.01,4.26,10.09
		c2.79-1.86,4.99-4.42,7.36-6.77c8.02-8,15.97-16.07,24.04-24.03c1.27-1.27,2.32-2.74,3.34-4.22c0.55,1.27,1.79,2.37,1.73,3.84
		c-10.431,10.07-20.471,20.53-30.851,30.64c-1.37,1.33-2.74,2.69-3.7,4.36c0.261,1.21,0.53,2.41,0.801,3.62
		c-2.45,1.55-4.771,3.35-7.421,4.54c-7.569-18.41-15.64-36.64-23.01-55.12c1.37-2.33,4.19-2.99,6.351-4.37
		c4.13,6.08,5.329,13.55,9.369,19.66c7.48-6.57,14.131-14.05,21.341-20.92C403.11,134.39,407.5,130.93,410.6,126.34z"/>
</g>
<g>
	<path fill="#EAD9BE" d="M137.19,140.28c1.9,1,3.83,1.94,5.74,2.94c0.53,1.32-0.57,2.52-0.91,3.74
		c-7.45,17.32-14.52,34.79-22.029,52.09c-4.37-2.72-8.591-5.66-12.801-8.61c9.17-5.71,13.641-15.9,18-25.3
		c1.95-4.45,4.45-8.66,5.98-13.28c-3.46,2.22-6.09,5.42-9,8.27c-6.851,6.83-13.65,13.72-20.55,20.51c-1.17,1.19-2.16,2.54-3.13,3.9
		c-1.03-0.65-2.021-1.35-2.98-2.08C109.08,168.09,123.53,154.56,137.19,140.28z"/>
</g>
<g>
	<path fill="#ADCBE0" d="M142.57,166.93c73.12-0.05,146.29-0.02,219.42-0.03c-0.029,8.71,0.03,17.42,0.04,26.14
		c-8.359,0.04-16.7-0.54-25.05,0.06c-9.96-0.73-19.94,0.43-29.9-0.35c-10.029,0.67-20.05-0.3-30.069,0.35
		c-7.33-0.56-14.66-0.12-21.99-0.03c-9.01-0.79-18.04,0.56-27.05-0.3c-7.32,0.39-14.63,0.27-21.95-0.02
		c-8.33,0.91-16.67-0.43-25.01,0.24c-6.36,0.43-12.72-0.66-19.07-0.04c-6.46,0.58-12.93-0.66-19.39,0.06
		C142.51,184.31,142.56,175.62,142.57,166.93z"/>
</g>
<g>
	<path fill="#CBCBDD" d="M19.14,253.42c-0.91-33.69,18.55-67,48.3-82.76c1.63,1.13,3.29,2.19,4.94,3.28
		c-19.91,11.02-36.61,29.12-43.32,51.14c-2.189,8.89-4.439,17.88-4.14,27.12c-0.601-2.33-0.51-4.88-1.601-7.04
		c-0.43,3.14-0.109,6.35-0.729,9.47c-0.65,1.3-2.13,1.899-3.2,2.81C19.31,256.09,19.24,254.76,19.14,253.42z"/>
</g>
<g>
	<path fill="#E0ECFF" d="M72.38,173.94c2.75,1.79,5.37,3.74,8.1,5.56c-9.46,5.96-19.2,11.86-26.56,20.46
		c-4.851,5.68-9.19,11.88-12.62,18.53c-3.87,9.06-6.13,18.75-7.48,28.479c0.48,6.31,0.341,12.7,1.44,18.95
		c2.01,6.17,3.05,12.76,6.32,18.45c2.359,4.26,4.06,8.979,7.43,12.601c3.03,3.329,5.25,7.399,8.82,10.239
		c3.52,2.81,6.47,6.34,10.449,8.56c4.5,2.521,8.631,5.811,13.591,7.431c4.399,1.43,8.59,3.6,13.17,4.399
		c7.739,0.94,15.529,3.061,23.319,1.291c-0.01,1.969-0.01,3.959-0.01,5.939c-3.32,0.029-6.67,0.09-9.95-0.48
		c-5.359-1-11.04,0.36-16.18-1.869c-4.6-2.131-9.97-1.78-14.37-4.461c-4.62-2.779-10.12-4.029-14.17-7.72
		c-3.32-3.079-7.979-4.46-10.729-8.21c-1.73-2.279-3.9-4.15-6.11-5.949c-3.68-2.851-4.53-8.23-9.04-10.15
		c-7.63-13.32-12.67-28.33-12.88-43.79c-0.3-9.24,1.95-18.23,4.14-27.12C35.77,203.06,52.47,184.96,72.38,173.94z"/>
</g>
<g>
	<path fill="#FDEAC4" d="M368.03,175.15l0.53-0.16c2.38,6.09,5,12.09,7.53,18.12c-2.66-0.03-5.32-0.06-7.971-0.1
		C368.01,187.06,367.99,181.1,368.03,175.15z"/>
	<path fill="#FDEAC4" d="M129.62,192.55c2.27-5.69,4.58-11.37,7.06-16.97c-0.36,8.29,0,16.58-0.27,24.86
		c-0.2-2.34-0.341-4.68-0.57-7.02C133.77,193.13,131.69,192.85,129.62,192.55z"/>
</g>
<g>
	<path fill="#C6C6D9" d="M80.48,179.5c2.12,1.37,4.2,2.79,6.25,4.27c-5.58,2.6-11.3,5.05-16.25,8.77
		c-6.229,4.68-11.83,10.21-16.62,16.35c-5.31,6.79-8.779,14.81-11.33,22.99c-0.939,2.98-1.319,6.1-1.729,9.19
		c-0.771,5.07-0.771,10.22-0.62,15.34c0.1,1.67,0.33,3.34,0.58,5c0.49,4.029,1.22,8.04,2.57,11.89c0.41,1.181,0.859,2.351,1.29,3.54
		c1.18,3.721,2.899,7.24,4.79,10.641c0.68,1.14,1.42,2.25,2.189,3.34c1.36,1.859,2.73,3.71,4.141,5.539
		C70.24,315.01,94.78,325.7,118.32,322.7c0.04,2.06,0.061,4.12,0.04,6.19c-7.79,1.77-15.58-0.351-23.319-1.291
		c-4.58-0.799-8.771-2.97-13.17-4.399c-4.96-1.62-9.091-4.91-13.591-7.431c-3.979-2.219-6.93-5.75-10.449-8.56
		c-3.57-2.84-5.79-6.909-8.82-10.239c-3.37-3.621-5.07-8.341-7.43-12.601c-3.271-5.69-4.311-12.28-6.32-18.45
		c-1.1-6.25-0.96-12.64-1.44-18.95c1.351-9.73,3.61-19.42,7.48-28.48c3.43-6.65,7.77-12.85,12.62-18.53
		C61.28,191.36,71.02,185.46,80.48,179.5z"/>
</g>
<g>
	<g>
		<path fill="#F9FDFF" d="M86.73,183.77c0.91,0.63,1.83,1.23,2.75,1.85c-0.5,0.4-1.51,1.19-2.01,1.59c0.31,0.53,0.62,1.06,0.93,1.6
			c-1.34,1.61-2.8,3.98-0.56,5.6c2.28-1.66,4.229-3.69,6.18-5.7c2.891,1.98,5.771,3.96,8.681,5.92
			c-16.561,17.46-34.03,34.07-50.86,51.29c-2.271,2.87-6.53,1.66-9.13,3.97c0.26,1.49,0.5,2.99,0.79,4.48
			c-1.05,0.76-2.17,1.42-3.32,2.04c-0.15-5.12-0.15-10.27,0.62-15.34c1.46-0.93,3.58-1.29,4.27-3.08c1.24-2.95,4.08-4.6,6.29-6.72
			c2.4-2.22,4.28-4.95,6.851-6.99c2.63,0.54,5.979,4.19,8.109,1.09c0.87-0.97,0.87-2.61-0.14-3.47c-3.09-3.21-7.229-5.12-11.31-6.71
			c-2.16-1.07-3.74,1.67-3.41,3.54c1.149,1.52,2.49,2.87,3.689,4.36c-1.8,2.02-3.899,3.88-6.38,5.01c-0.52-0.14-1.04-0.3-1.55-0.47
			c-0.22,2.69-1.57,4.95-3.93,6.28c-0.19-0.51-0.57-1.52-0.761-2.03c2.551-8.18,6.021-16.2,11.33-22.99
			c4.79-6.14,10.391-11.67,16.62-16.35C75.43,188.82,81.15,186.37,86.73,183.77z M75.72,193.01c1.22,4.9,3.75,9.48,7.3,13.11
			c2.05,0.79,4.44-0.84,4.19-3.08c-1.76-4.44-3.71-8.92-7.22-12.29C78.29,190.31,76.01,191.11,75.72,193.01z"/>
	</g>
	<path fill="#F9FDFF" d="M105.56,196.59c3,2.05,6,4.09,9,6.14c-15.27,15.68-30.93,30.99-46.34,46.55
		c-4.979,4.701-9.479,9.93-14.71,14.371c-0.62-1.15-1.25-2.291-1.87-3.43c-3.189-0.83-7.37-0.07-7.99,3.76
		c2.141,2.42,5.44,1.25,8.21,1.17c-2.359,3.18-5.239,5.939-8.529,8.149c-1.351-3.85-2.08-7.86-2.57-11.89
		c3.2-2.631,5.69-7.18,10.37-6.971c2.76-0.6,7.54,1.121,8.46-2.569c0.34-2.64-2.66-3.36-4.43-4.38c0.47-0.62,0.96-1.22,1.47-1.8
		C72.91,229.29,89.39,213.09,105.56,196.59z"/>
	<path fill="#F9FDFF" d="M109.76,212.75c2.42-2.57,5-5,7.85-7.09c-3.739,12.78-7.779,25.47-11.47,38.26
		c-0.08,0.73-0.229,2.19-0.31,2.92c-1.811,2.23-2.011,5.09-2.24,7.84c-10,6.891-20.98,12.23-31.21,18.771
		c-1.09,0.64-1.89,1.62-2.55,2.68c1.66-0.101,3.22-0.68,4.609-1.56c5.67-3.381,11.431-6.62,17.07-10.061
		c-0.09,2.11-2,3.33-3.28,4.75c-6.93,6.68-13.489,13.77-20.58,20.28c-2.72-0.5-5.81-1.13-7.75,1.42
		c-2.699,1.74-0.949,4.729-0.08,6.97c-1.369-0.51-2.739-1-4.079-1.57c-1.41-1.83-2.78-3.68-4.141-5.539
		c0.311-0.49,0.95-1.471,1.271-1.961c4.909-2.27,9.779-4.75,14.12-8c0.96-2.109-0.9-4.909-3.011-5.239
		c-3.47,1.47-6.38,3.95-9.569,5.92c-2.48,1.31-2.271,4.899-5,5.94c-1.891-3.4-3.61-6.92-4.79-10.641
		c3.739-0.79,9.47,0.75,11.189-3.75c-0.83-1.27-1.6-2.561-2.42-3.83C72.06,250.31,91.01,231.62,109.76,212.75z"/>
</g>
<g>
	<path fill="#E8E9EE" d="M89.48,185.62c1.521,1.01,3.03,2.05,4.54,3.09c-1.95,2.01-3.899,4.04-6.18,5.7
		c-2.24-1.62-0.78-3.99,0.56-5.6c-0.31-0.54-0.62-1.07-0.93-1.6C87.97,186.81,88.98,186.02,89.48,185.62z"/>
</g>
<g>
	<path fill="#E7E7F0" d="M75.72,193.01c0.29-1.9,2.57-2.7,4.271-2.26c3.51,3.37,5.46,7.85,7.22,12.29
		c0.25,2.24-2.141,3.87-4.19,3.08C79.47,202.49,76.94,197.91,75.72,193.01z"/>
	<path fill="#E7E7F0" d="M51.46,218.73c-0.33-1.87,1.25-4.61,3.41-3.54c4.08,1.59,8.22,3.5,11.31,6.71c1.01,0.86,1.01,2.5,0.14,3.47
		c-2.13,3.1-5.479-0.55-8.109-1.09c-2.57,2.04-4.45,4.77-6.851,6.99c-2.21,2.12-5.05,3.77-6.29,6.72
		c-0.689,1.79-2.81,2.15-4.27,3.08c0.41-3.09,0.79-6.21,1.729-9.19c0.19,0.51,0.57,1.52,0.761,2.03c2.359-1.33,3.71-3.59,3.93-6.28
		c0.51,0.17,1.03,0.33,1.55,0.47c2.48-1.13,4.58-2.99,6.38-5.01C53.95,221.6,52.61,220.25,51.46,218.73z"/>
</g>
<g>
	<path fill="#E3D3BB" d="M129.43,192.52l0.19,0.03c2.069,0.3,4.149,0.58,6.22,0.87c0.229,2.34,0.37,4.68,0.57,7.02
		c-3.41,0-6.811-0.05-10.21,0.05C127.22,197.81,128.4,195.19,129.43,192.52z"/>
	<path fill="#E3D3BB" d="M368.119,193.01c2.65,0.04,5.311,0.07,7.971,0.1c1.05,2.39,2.01,4.81,3.01,7.23
		c-3.69,0.14-7.38,0.12-11.061,0.06C368.01,197.93,367.98,195.47,368.119,193.01z"/>
</g>
<g>
	<path fill="#A1B9D1" d="M142.55,193.01c6.46-0.72,12.93,0.52,19.39-0.06c6.351-0.62,12.71,0.47,19.07,0.04
		c8.34-0.67,16.68,0.67,25.01-0.24c7.32,0.29,14.63,0.41,21.95,0.02c9.01,0.86,18.04-0.49,27.05,0.3
		c7.33-0.09,14.66-0.53,21.99,0.03c10.02-0.65,20.04,0.32,30.069-0.35c9.96,0.78,19.94-0.38,29.9,0.35
		c8.35-0.6,16.69-0.02,25.05-0.06c-0.05,2.58-0.14,5.17-0.16,7.75c-73.02,0.13-146.029-0.02-219.05,0.08
		C142.36,198.28,142.64,195.62,142.55,193.01z"/>
</g>
<g>
	<path fill="#F9FDFF" d="M102.7,194.63c0.949,0.65,1.899,1.3,2.859,1.96c-16.17,16.5-32.649,32.7-48.93,49.1
		c-0.51,0.58-1,1.18-1.47,1.8c1.77,1.02,4.77,1.74,4.43,4.38c-0.92,3.69-5.7,1.97-8.46,2.569c-4.68-0.209-7.17,4.341-10.37,6.971
		c-0.25-1.66-0.48-3.33-0.58-5c1.15-0.62,2.271-1.28,3.32-2.04c-0.29-1.49-0.53-2.99-0.79-4.48c2.6-2.31,6.859-1.1,9.13-3.97
		C68.67,228.7,86.14,212.09,102.7,194.63z"/>
</g>
<g>
	<path fill="#F9FDFF" d="M114.56,202.73c1.09,0.75,2.181,1.5,3.28,2.26l-0.23,0.67c-2.85,2.09-5.43,4.52-7.85,7.09
		c-18.75,18.87-37.7,37.56-56.37,56.51c0.82,1.27,1.59,2.561,2.42,3.83c-1.72,4.5-7.45,2.96-11.189,3.75
		c-0.431-1.189-0.88-2.359-1.29-3.54c3.29-2.21,6.17-4.97,8.529-8.149c-2.77,0.08-6.069,1.25-8.21-1.17
		c0.62-3.83,4.801-4.59,7.99-3.761c0.62,1.14,1.25,2.28,1.87,3.431c5.23-4.44,9.73-9.67,14.71-14.371
		C83.63,233.72,99.29,218.41,114.56,202.73z"/>
</g>
<g>
	<path fill="#7FE5FF" d="M453.329,213.28c1.75-1.06,3.37,0.84,4.011,2.3c2.27,4.53,5.85,8.37,10.149,11.03
		c1.641,1.03,3.45,2.23,3.74,4.33c-0.11,1.95-1.64,3.24-3.19,4.16c-4.949,2.99-8.689,7.87-10.449,13.36
		c-0.681,1.75-1.15,3.77-2.61,5.05c-2.08,0.53-2.55-2.06-3.22-3.4c-1.69-5.81-5.181-11.24-10.34-14.52
		c-1.65-1.12-3.91-2.32-3.83-4.64c0.04-1.99,1.81-3.16,3.31-4.1c4.271-2.63,7.96-6.33,10.25-10.82
		C451.76,215.04,452.24,213.85,453.329,213.28z"/>
</g>
<g>
	<path fill="#C4C4D5" d="M23.32,245.16c1.091,2.16,1,4.71,1.601,7.04c0.21,15.46,5.25,30.47,12.88,43.79
		c2.52,4.42,4.99,8.97,8.6,12.63c4.091,3.94,7.57,8.62,12.591,11.479c3.93,3.211,8.06,6.18,12.77,8.17
		c6.93,4.25,14.89,6.17,22.64,8.28c7.94,0.96,15.92,2.05,23.931,1.49c-0.03,2.01-0.021,4.03,0.02,6.06
		c-30.83,2.471-62.09-12.24-80.439-37c-8.25-10.77-13.931-23.43-16.87-36.66c-0.891-4.279-1.431-8.64-1.65-13
		c1.07-0.91,2.55-1.51,3.2-2.81C23.21,251.51,22.89,248.3,23.32,245.16z"/>
</g>
<g>
	<path fill="#9ADFC0" d="M11.42,250.42c0.88-1.22,1.609-3.55,3.58-2.9c1.93,1.46,2.7,4,4.14,5.9c0.101,1.34,0.17,2.67,0.25,4.02
		c0.22,4.36,0.76,8.721,1.65,13c-1.99,2.44-3.44,5.25-4.34,8.261c-0.591,1.38-1.36,4.39-3.32,2.85c-1.29-2.069-1.79-4.5-2.851-6.67
		c-1.88-4.05-5.25-7.17-9-9.47c-2.159-1.33-1.68-4.61,0.511-5.6C5.87,257.51,9.27,254.38,11.42,250.42z"/>
</g>
<g>
	<path fill="#E1C9B8" d="M124.34,248.29c85.53-0.04,171.06,0.05,256.59-0.04c0.14,2.57,0.12,5.15,0.04,7.721
		c-9.01-0.141-18.01,0.529-27.01-0.011c-10.33,0.601-20.65-0.3-30.971,0.31c-8.649-0.75-17.319,0.381-25.97-0.25
		c-5-0.27-9.99,0.371-14.99,0.221c-9.359-0.641-18.72,0.39-28.069-0.27c-10,0.68-19.99-0.421-29.98,0.289
		c-6.67-0.34-13.34-0.34-20.01,0.02c-9.99-0.709-19.99,0.311-29.979-0.319c-9.681,0.649-19.36-0.39-29.03,0.31
		c-6.55-0.01-13.12-0.74-19.66,0.07c-1.04,6.84,0.09,13.76-0.18,20.631c-0.58,9.02,0.479,18.029-0.21,27.039
		c0.619,10.641-0.28,21.27,0.27,31.9c-0.76,8.359,0.44,16.72-0.22,25.07c-0.41,5.68,0.58,11.34,0.12,17.01
		c-0.2,2.99-0.28,6,0.08,8.99c9.279-0.461,18.55,0.629,27.83-0.221c7.319,0.59,14.63,0.18,21.949,0.04
		c8,1.07,16.021-0.569,24.03,0.271c6.36,0.51,12.72-0.74,19.08-0.09c6.65,0.619,13.29-0.621,19.93,0.02
		c7.011,0.68,14.011-0.76,21.011,0.04c6.329,0.61,12.659-0.78,18.989-0.03c5.681,0.631,11.351-0.33,17.04-0.18
		c9.33,0.87,18.66-0.609,28,0.34c9.31-0.92,18.62,0.49,27.93-0.33c6.66-0.35,13.37,1.061,19.99-0.08c3.98-2.119,6.47-6.229,10-8.979
		c0.12,7.44,0.16,14.89-0.07,22.34c-83.989,0.14-167.97-0.011-251.949,0.069c-1.54-0.049-3.12,0.17-4.61-0.289
		C124.24,349.359,124.15,298.82,124.34,248.29z"/>
	<path fill="#E1C9B8" d="M252.05,358.12c18.53-20.16,36.93-40.44,55.489-60.58c0.5,1.75,0.25,3.64-0.899,5.09
		c-3.24,4.351-6.98,8.31-10.85,12.11c-7.641,8.71-15.49,17.24-23.45,25.66c-3.03,3.899-6.54,7.359-9.98,10.879
		c-4.59,5.4-9.26,10.82-14.71,15.381c-4.25,1.92-8.08-1.78-10.39-4.96c-2.61-4.011-6.04-7.351-9.06-11.021
		c-2.891-4.65-7.341-8-10.5-12.439c-2.25-3.1-4.891-5.94-6.83-9.26c0.04-0.541,0.119-1.631,0.159-2.181
		c9.04,10.38,17.69,21.07,26.681,31.479C241.26,362.45,248.52,362.23,252.05,358.12z"/>
</g>
<g>
	<path fill="#EAEAF9" d="M110.21,250.21c1.21-0.32,2.42-0.37,3.64-0.17c0.78,1.87-0.26,4.44-2.59,3.61
		C109.36,253.6,110.22,251.35,110.21,250.21z"/>
</g>
<g>
	<g>
		<path fill="#F5D8BD" d="M125.3,256.34c6.54-0.811,13.11-0.08,19.66-0.07c9.67-0.699,19.35,0.34,29.03-0.31
			c9.989,0.63,19.989-0.39,29.979,0.319c6.67-0.359,13.34-0.359,20.01-0.02c9.99-0.71,19.98,0.391,29.98-0.289
			c9.35,0.659,18.71-0.371,28.069,0.27c5,0.15,9.99-0.49,14.99-0.221c8.65,0.631,17.32-0.5,25.97,0.25
			c10.32-0.609,20.641,0.291,30.971-0.31c9,0.54,18-0.13,27.01,0.011c0,40.6,0.069,81.199-0.03,121.81
			c-3.53,2.75-6.02,6.86-10,8.979c-6.62,1.141-13.33-0.27-19.99,0.08c-9.31,0.82-18.62-0.59-27.93,0.33
			c-9.34-0.949-18.67,0.53-28-0.34c-5.689-0.15-11.359,0.811-17.04,0.18c-6.33-0.75-12.66,0.641-18.989,0.03
			c-7-0.8-14,0.64-21.011-0.04c-6.64-0.641-13.279,0.6-19.93-0.02c-6.36-0.65-12.72,0.6-19.08,0.09
			c-8.01-0.84-16.03,0.8-24.03-0.271c-7.319,0.14-14.63,0.55-21.949-0.04c-9.28,0.85-18.551-0.24-27.83,0.221
			c-0.36-2.99-0.28-6-0.08-8.99c0.46-5.67-0.53-11.33-0.12-17.01c0.66-8.351-0.54-16.711,0.22-25.07
			c-0.55-10.631,0.35-21.26-0.27-31.9c0.689-9.01-0.37-18.02,0.21-27.039C125.39,270.1,124.26,263.18,125.3,256.34z M293.72,283.68
			c-14.88,11.82-29.77,23.641-44.66,35.44c-2.18,1.851-5.52,2.58-8.04,0.989c-5.22-3.08-9.939-6.93-15-10.239
			c-4.27-2.97-10.49-2.591-14.47,0.7c-4.35,4.16-4.21,11.68-0.521,16.229c-0.039,0.55-0.119,1.64-0.159,2.181
			c1.939,3.319,4.58,6.16,6.83,9.26c3.159,4.439,7.609,7.79,10.5,12.439c3.02,3.67,6.449,7.01,9.06,11.021
			c2.31,3.18,6.14,6.88,10.39,4.96c5.45-4.561,10.12-9.98,14.71-15.381c3.44-3.52,6.95-6.979,9.98-10.879
			c7.96-8.42,15.81-16.95,23.45-25.66c3.869-3.801,7.609-7.76,10.85-12.11c1.149-1.45,1.399-3.34,0.899-5.09
			c3.671-3.66,4.971-10.22,1.141-14.229C304.579,279.641,297.8,280.26,293.72,283.68z"/>
	</g>
</g>
<g>
	<path fill="#F2FAFF" d="M103.93,257.721c1.82-1.421,3.58,0.5,5.26,1.17c2.25,1.459,5.141-0.41,7.34,1.189
		c-1.34,2.09-2.909,4.029-4.729,5.73c-13.771,13.5-27.13,27.439-41.04,40.789c-0.88-0.3-1.75-0.58-2.63-0.859
		c2.85-1.17,6.27-3.061,6.42-6.54c-0.03-2.351-2.66-2.8-4.5-2.271c-2.4,1.57-2.91,4.521-3.73,7.051
		c-1.8-0.681-3.199-2.03-4.119-3.69c11.409-11.61,23.06-22.99,34.5-34.569C99.31,263.25,101.95,260.76,103.93,257.721z"/>
	<path fill="#F2FAFF" d="M112.19,270.2c1.91-2,3.99-3.82,6.16-5.521c0,5.021,0.021,10.051-0.02,15.08
		c-9.931,8.53-18.4,18.641-28.23,27.301c-1.96,1.719-3.46,3.859-5.189,5.799c-1.551,0.181-2.86-0.629-4.21-1.25
		c2.119-3.52,4.29-7.039,6.119-10.719c1.03-1.5-0.189-3.101-0.64-4.541C94.78,287.57,103.59,278.99,112.19,270.2z"/>
	<path fill="#F2FAFF" d="M97.17,305.17c7.2-6.68,13.58-14.25,21.18-20.48c-0.01,10.471-0.02,20.94,0,31.41
		c-0.81-0.02-2.439-0.05-3.25-0.06c-0.27-3.66-0.04-7.319,0.03-10.97c-1.28-1.32-3.22-1.19-4.851-0.76
		c-1.25,1.14-1.09,2.959-1.39,4.489c-1.27,1.28-2.6,2.53-4.04,3.64c-1.27-0.619-2.54-1.239-3.85-1.77
		c-2.76-0.199-2.8,3.221-3.641,5.04c-1.699,0.229-3.43,0.2-5.14,0.07C92.68,311.82,94.02,307.8,97.17,305.17z"/>
</g>
<g>
	<path fill="#F9FDFF" d="M91.51,264.51c4.02-2.47,8.22-4.64,12.42-6.789c-1.979,3.039-4.62,5.529-7.229,8
		C85.26,277.3,73.61,288.68,62.2,300.29c0.92,1.66,2.319,3.01,4.119,3.69c0.82-2.53,1.33-5.48,3.73-7.051
		c1.84-0.529,4.47-0.08,4.5,2.271c-0.15,3.479-3.57,5.37-6.42,6.54c0.88,0.279,1.75,0.56,2.63,0.859
		c13.91-13.35,27.27-27.289,41.04-40.789c1.82-1.701,3.39-3.641,4.729-5.73c0.44,0.24,1.311,0.73,1.75,0.98
		c0.011,1.199,0.04,2.41,0.07,3.619c-2.17,1.7-4.25,3.521-6.16,5.521c-8.6,8.79-17.41,17.37-26.01,26.149
		c-1.17,0.07-2.34,0.18-3.51,0.28c-1.891,2.229-3.19,4.87-4.59,7.41c-1.051,2.069-2.48,4.271-1.73,6.7
		c1.23,1.06,2.84,0.89,4.351,0.869c1.35,0.621,2.659,1.431,4.21,1.25c1.729-1.939,3.229-4.08,5.189-5.799
		c9.83-8.66,18.3-18.771,28.23-27.301c0,1.641,0.02,3.29,0.02,4.93c-7.6,6.23-13.979,13.801-21.18,20.48
		c-3.15,2.63-4.49,6.65-4.95,10.609c1.71,0.131,3.44,0.16,5.14-0.069c0.841-1.819,0.881-5.239,3.641-5.04
		c1.31,0.53,2.58,1.15,3.85,1.77c1.44-1.109,2.771-2.359,4.04-3.64c0.17,3.351,0.061,6.729,0.32,10.08
		c1.859,3.681,7.05,0.83,5.89-2.84c0.811,0.01,2.44,0.04,3.25,0.06c0,2.2-0.05,4.4-0.03,6.601c-23.54,3-48.079-7.69-62.579-26.341
		c1.34,0.57,2.71,1.061,4.079,1.57c-0.869-2.24-2.619-5.229,0.08-6.97c1.94-2.55,5.03-1.92,7.75-1.42
		c7.091-6.511,13.65-13.601,20.58-20.28C89.51,267.84,91.42,266.62,91.51,264.51z"/>
</g>
<g>
	<path fill="#DDDDE5" d="M54.41,281.54c3.189-1.97,6.1-4.45,9.569-5.92c2.11,0.33,3.971,3.13,3.011,5.239
		c-4.341,3.25-9.211,5.73-14.12,8c-0.32,0.49-0.96,1.471-1.271,1.961c-0.77-1.09-1.51-2.2-2.189-3.34
		C52.14,286.439,51.93,282.85,54.41,281.54z"/>
</g>
<g>
	<path fill="#80FFB3" d="M297.35,288.45c1.72-1.31,4.05-2.62,6.229-1.56c-1.64,2.52-3.63,4.779-5.819,6.83
		c-4.15,3.909-7.43,8.639-11.59,12.549c-3.92,3.721-6.97,8.24-10.94,11.91c-3.66,3.4-6.45,7.61-10.05,11.08
		c-4.43,4.23-7.99,9.27-12.4,13.52c-2.409,2.301-4.8,6.07-8.689,5c-4.11-0.609-5.38-5.149-8.23-7.549
		c-3.64-3.17-5.55-7.791-9.18-10.961c-2.3-2.039-4.32-4.39-5.92-7.02c-1.53-2.641-4.48-4.18-5.41-7.189
		c1.76-1.471,4.38-2.211,6.4-0.761c4.75,3.181,9.45,6.431,14.08,9.79c4.89,3.54,12.17,3.54,16.92-0.26
		C267.73,312.18,282.44,300.2,297.35,288.45z"/>
</g>
<g>
	<path fill="#7DEAAF" d="M303.579,286.891c2.62,1.09,2.04,4.27,0.19,5.819c-18.33,20.021-36.7,40.021-55.01,60.07
		c-0.97,1.02-1.91,2.11-3.12,2.85c-2.02,0.75-3.439-1.34-4.61-2.61c-8.569-10.399-17.449-20.539-25.92-31.01
		c-1.8-2.01-1.239-4.949,0.24-6.949c0.93,3.01,3.88,4.549,5.41,7.189c1.6,2.63,3.62,4.98,5.92,7.02
		c3.63,3.17,5.54,7.791,9.18,10.961c2.851,2.399,4.12,6.939,8.23,7.549c3.89,1.07,6.28-2.699,8.689-5
		c4.41-4.25,7.971-9.289,12.4-13.52c3.6-3.47,6.39-7.68,10.05-11.08c3.971-3.67,7.021-8.189,10.94-11.91
		c4.16-3.91,7.439-8.64,11.59-12.549C299.949,291.67,301.94,289.41,303.579,286.891z"/>
</g>
<g>
	<path fill="#CFDAF0" d="M37.8,295.99c4.51,1.92,5.36,7.3,9.04,10.15c2.21,1.799,4.38,3.67,6.11,5.949
		c2.75,3.75,7.409,5.131,10.729,8.21c4.05,3.69,9.55,4.94,14.17,7.72c4.4,2.681,9.771,2.33,14.37,4.461
		c5.14,2.229,10.82,0.869,16.18,1.869c3.28,0.57,6.63,0.51,9.95,0.48c-0.01,0.8-0.02,2.4-0.02,3.21
		c-8.011,0.56-15.99-0.53-23.931-1.49c-7.75-2.11-15.71-4.03-22.64-8.28c-4.71-1.99-8.84-4.959-12.77-8.17
		c-5.021-2.859-8.5-7.539-12.591-11.479C42.79,304.96,40.32,300.41,37.8,295.99z"/>
</g>
<g>
	<path fill="#C8C8DB" d="M110.28,304.311c1.631-0.431,3.57-0.561,4.851,0.76c-0.07,3.65-0.3,7.31-0.03,10.97
		c1.16,3.67-4.03,6.521-5.89,2.84c-0.26-3.351-0.15-6.729-0.32-10.08C109.19,307.27,109.03,305.45,110.28,304.311z"/>
</g>
<g>
	<path fill="#FFF6D4" d="M63.31,367.26c10.36-10.55,25.48-15.71,40.11-15.15c0.07,1.15-0.13,2.32-1.101,3.091
		C86.27,371.18,70.25,387.21,54.25,403.26c-1.83,1.641-3.311,4.35-6.101,4.23C47.52,392.82,52.71,377.63,63.31,367.26z"/>
	<path fill="#FFF6D4" d="M109.22,352.87c3.1,0.409,6.14,1.21,9.14,2.101c-0.01,1.59-0.02,3.189-0.029,4.789
		c-1.37,1.131-2.74,2.27-4.04,3.49c-20.78,20.51-41.17,41.43-62.08,61.81c-1.67-3.76-2.78-7.76-3.33-11.829
		c5.08-4.36,9.56-9.351,14.399-13.971c11.29-11.369,22.711-22.619,33.98-34.01C101.29,361.16,105.55,357.29,109.22,352.87z"/>
	<g>
		<path fill="#FFF6D4" d="M115.25,367.3c1.01-0.899,2.06-1.76,3.1-2.61c-0.04,12.121,0.061,24.24-0.05,36.351
			c0.09,1.33-0.28,2.89,0.69,4c1.149,1.58,3.289,1,4.949,1.13c9.65,0.1,19.29-0.13,28.94,0.07c-0.17,22.529-17.01,43.47-38.76,48.95
			c-9.141,2.13-18.96,2.439-28-0.351c-13.88-3.58-25.98-13.49-32.311-26.33C74.5,408.32,94.7,387.63,115.25,367.3z M77.39,420.41
			c-1.31,0.689-1.899,2.13-1.84,3.57c6.59,8.119,16.89,13.399,27.479,13c8.681-1.29,16.811-5.711,22.69-12.2
			c2.04-2.79-2.3-6.16-4.64-3.78c-4.98,4.22-10.301,8.66-16.95,9.77c-8.76,1.15-17.39-3.409-23.24-9.689
			C80.07,419.99,78.56,419.76,77.39,420.41z"/>
	</g>
</g>
<g>
	<path fill="#FFF6D4" d="M103.42,352.109c1.939,0.141,3.87,0.451,5.8,0.761c-3.67,4.42-7.93,8.29-11.96,12.38
		c-11.27,11.391-22.69,22.641-33.98,34.01c-4.84,4.62-9.319,9.61-14.399,13.971c-0.3-1.91-0.59-3.82-0.73-5.74
		c2.79,0.119,4.271-2.59,6.101-4.23c16-16.05,32.02-32.08,48.069-48.06C103.29,354.43,103.49,353.26,103.42,352.109z"/>
	<path fill="#FFF6D4" d="M114.29,363.25c1.3-1.221,2.67-2.359,4.04-3.49c0,1.641,0.02,3.28,0.02,4.93
		c-1.04,0.851-2.09,1.711-3.1,2.61C94.7,387.63,74.5,408.32,53.81,428.51c-0.55-1.149-1.09-2.3-1.6-3.45
		C73.12,404.68,93.51,383.76,114.29,363.25z"/>
</g>
<g>
	<path fill="#DEC2FF" d="M281.03,447.09c1.7-2.43,2.421-5.7,5.08-7.32c2.53-1.38,4.801,1.23,5.771,3.32
		c2.66,5.641,7.02,10.3,11.77,14.25c2.99,2.44,7.34,3.78,8.771,7.69c0.949,4.05-3.091,6.51-6.04,8.239
		c-7,5-12.521,12.36-14.601,20.771c-0.739,1.97-1.38,4.21-3.13,5.55c-2.91,1.19-4.18-2.64-4.989-4.729
		c-2.421-9.601-8.811-18.101-17.32-23.131c-2.271-1.35-4.44-3.949-3.59-6.76c0.79-2.439,3.05-3.859,5.09-5.17
		C273.11,456.6,277.52,452.13,281.03,447.09z"/>
</g>
</svg>
