<?xml version="1.0" encoding="utf-8"?>
<!-- Generator: Adobe Illustrator 16.0.0, SVG Export Plug-In . SVG Version: 6.00 Build 0)  -->
<!DOCTYPE svg PUBLIC "-//W3C//DTD SVG 1.1//EN" "http://www.w3.org/Graphics/SVG/1.1/DTD/svg11.dtd">
<svg version="1.1" id="Layer_1" xmlns="http://www.w3.org/2000/svg" xmlns:xlink="http://www.w3.org/1999/xlink" x="0px" y="0px"
	 width="512px" height="504px" viewBox="0 0 512 504" enable-background="new 0 0 512 504" xml:space="preserve">
<g>
	<path fill="#6B6B74" d="M97.71,15.6c2.84-0.38,5.7-0.24,8.569-0.31C103.46,15.84,100.56,15.59,97.71,15.6z"/>
</g>
<g>
	<g>
		<path fill="#C8C8D9" d="M106.28,15.29c1.86-0.14,3.73-0.21,5.601-0.24c1.57,0.2,4.7,0.6,6.26,0.8c0.69,0.07,2.061,0.22,2.74,0.3
			c1.02,1.36,2.84,1.23,4.25,0.62c16.979,2.72,32.979,10.05,46.729,20.29c25.841,19.08,41.391,50.03,43.24,81.9
			c-3.08,0.01-6.109,0.04-9.17,0.05c5.26-3.43-2.09-8.49-4.66-11.3c-12.71-10.41-40.97-7.31-44.46,11.24
			c-2.29-0.13-4.57-0.32-6.84-0.57c-5.729-13.59-21.06-19.71-34.72-21.66c-4.141-0.74-8.41-0.89-12.561-0.15
			c-1.42,0.25-4.26,0.74-5.68,0.99c-13.04,3.11-27.52,11.22-30.62,25.24c4.4,7.28,9.34,14.21,13.91,21.39
			c9.82,14.2,19.14,28.75,28.9,43c2.119-3.43,4.029-6.98,6.229-10.35c-0.64,2.96-1.86,5.82-2.08,8.86
			c-0.22,3.42-0.34,6.87-0.39,10.3c-11.61,0.99-23.311-0.7-34.86,1.2c-0.14,18.88-0.28,37.78,0.04,56.649
			c11.36,2.021,23.36-0.32,34.83,1.221c0.07,1.689,0.14,3.38,0.2,5.08c-13.12-0.19-26.25-0.34-39.36,0.09
			c-2.17-1.33-2.77-3.41-1.819-6.23c-0.11-19.07,0.22-38.13-0.16-57.19c0.27-2.12-0.271-4.82,2.029-5.95
			c8.811,0.1,17.631,0.26,26.44-0.04c-0.67-0.56-1.36-1.09-2.07-1.59c-6.479-4.73-13.39-8.82-19.97-13.39
			C52,158.78,25.88,141.45,0,123.82v-5.65c0.22-1.54,0.67-4.62,0.89-6.16c4-49.79,47.26-92.13,96.82-96.41
			C100.56,15.59,103.46,15.84,106.28,15.29z M108.84,21.08c-12.59,1.28-21.61,11.86-27.79,21.96c-10.12,20.47-14.33,43.5-15,66.18
			c20.42-23.98,60.729-25.2,83-3.16c-1.45-22.03-5.521-44.54-15.9-64.28C127.76,32.5,120.09,22.71,108.84,21.08z M86.89,23.19
			c-39.93,8.1-74.02,42-78.939,82.88c14.72-12.99,38.119-11.39,51.89,2.09c2.71-29.99,7.09-62.72,29.31-85.22
			C88.58,23.01,87.45,23.13,86.89,23.19z M127.96,22.96c-0.92,3.76,3.78,4.22,4.88,7.22c15.45,21.9,18.95,49.11,23.35,74.79
			c5.761-1.16,10.19-6.4,16.181-7.55c11.949-3.92,24.63,0.22,34.649,6.69C200.65,64.25,167.23,31.15,127.96,22.96z M26.16,104
			c-9.03,0.44-19.641,7.87-19.061,17.75c23.9,14.94,46.72,31.62,70.771,46.29c5.399,5.25,12.83,8.83,19.25,12.96
			c-5.69-9.17-11.07-18.93-18.03-27.13c-5.93-12.81-18.311-22.78-21.01-36.97c-2.7-7.43-10.71-12.07-18.261-12.91
			c-0.17-1.98-3.64-1.56-4.779-0.52c-1.61-0.57-3.45-0.74-5.051-0.03C29.14,102.34,26.02,102.17,26.16,104z"/>
	</g>
</g>
<g>
	<path fill="#56565E" d="M111.88,15.05c1.57,0.2,4.7,0.6,6.26,0.8C116.58,15.65,113.45,15.25,111.88,15.05z"/>
</g>
<g>
	<path fill="#707079" d="M120.88,16.15c1.43-0.55,3.13-0.57,4.25,0.62C123.72,17.38,121.9,17.51,120.88,16.15z"/>
</g>
<g>
	<path fill="#FCFCFC" d="M108.84,21.08c11.25,1.63,18.92,11.42,24.31,20.7c10.38,19.74,14.45,42.25,15.9,64.28
		c-22.271-22.04-62.58-20.82-83,3.16c0.67-22.68,4.88-45.71,15-66.18C87.23,32.94,96.25,22.36,108.84,21.08z"/>
</g>
<g>
	<path fill="#DCEDE0" d="M86.89,23.19c0.561-0.06,1.69-0.18,2.26-0.25c-22.22,22.5-26.6,55.23-29.31,85.22
		C46.07,94.68,22.67,93.08,7.95,106.07C12.87,65.19,46.96,31.29,86.89,23.19z"/>
	<path fill="#DCEDE0" d="M127.96,22.96c39.27,8.19,72.689,41.29,79.06,81.15c-10.02-6.47-22.7-10.61-34.649-6.69
		c-5.99,1.15-10.42,6.39-16.181,7.55c-4.399-25.68-7.899-52.89-23.35-74.79C131.74,27.18,127.04,26.72,127.96,22.96z"/>
</g>
<g opacity="0.2">
	<path fill="#2CC73B" d="M171.86,37.06c52.66-21.02,116.931-5.59,155.33,35.86c-12.46,0.54-25.13-0.9-37.46,0.8
		c-4.06,1.51-7.84,4.76-8.95,9.05c-1.659,11.99-0.439,24.15-0.779,36.21c-21.63,0.02-43.271,0.07-64.9-0.02
		C213.25,87.09,197.7,56.14,171.86,37.06z"/>
	<path fill="#2CC73B" d="M477.15,174.76c12.601,23.15,19.11,50.23,16.22,76.57c-1.27,17-10.58,31.949-20.479,45.29l-0.79,0.03
		c-17.99-1.371-36.05-0.33-54.08-0.67c-3.01-11.4,5.9-27.98-4.34-36.66c-8.65-3.101-18.61-0.5-27.681-1.32c0-14-0.02-28,0.021-42
		c26.41-0.46,52.939,0.88,79.29-0.58c4.83-0.43,8.87-3.86,10.93-8.13C478.09,196.69,476.44,185.55,477.15,174.76z"/>
	<path fill="#2CC73B" d="M5.76,291.76c6.43-40.5,46.55-61.77,66.07-94.94c0.38,19.06,0.05,38.12,0.16,57.19
		c-0.95,2.82-0.351,4.9,1.819,6.23c12.98,1.699,26.181,0.32,39.26,0.83c0.03,2.52,0.101,5.06,0.21,7.6
		c-45.63,3.68-85.779,42.15-89.5,88.09c-0.46,3.801-0.81,7.631-1.039,11.471C13.14,351.07,7.28,331.84,5.7,312.25
		C5.93,305.41,6.11,298.58,5.76,291.76z"/>
	<path fill="#2CC73B" d="M215.32,389.82c8.12,0.39,16.261,0.22,24.391-0.1c0.16,0.75,0.49,2.25,0.649,3
		c-0.6,12.77-0.33,25.559-0.27,38.35c-1.05,1.6-2.67,2.85-3.3,4.699c-1.221,5.07-1.101,10.391-0.061,15.49
		c0.771,2.78,3.5,4.83,6.021,6c3.7,0.46,7.42,0.74,11.16,0.83c0.81,2.67-1.761,7.41,1.76,8.36c2.05,1.569,4.51-1.42,4.26-3.45
		c-3.63-7.99,5.11-3.87,7.771-4.92c4.399,10.939,14.13,19.64,26.05,21.17c3.13,0.52,6.449,1.2,9.55,0.09
		c11.199-2.25,21.33-10.21,24.76-21.31c14.05-0.08,28.1-0.05,42.149,0.069c-22.89,21.771-53.88,34.28-85.189,36.9
		c-15.97,1.82-32.39-1.93-45.04-11.97c-18.87-14.88-36.62-35.61-62.02-38.17C196.46,431.72,209.51,411.641,215.32,389.82z"/>
</g>
<g>
	<path fill="#92899C" d="M289.73,73.72c12.33-1.7,25-0.26,37.46-0.8l0.92,0.06l-0.149,0.98C315.22,74.03,302.47,74.15,289.73,73.72z
		"/>
</g>
<g>
	<path fill="#62626A" d="M328.11,72.98c46.7,0.55,93.49-0.99,140.12,0.76c-46.75,0.56-93.51,0.15-140.271,0.22L328.11,72.98z"/>
</g>
<g>
	<g>
		<path fill="#CBCBDD" d="M280.78,82.77c1.11-4.29,4.891-7.54,8.95-9.05c12.74,0.43,25.49,0.31,38.23,0.24
			c46.76-0.07,93.52,0.34,140.27-0.22c3.85,1.01,6.89,4.21,8.07,7.97c-0.24,5.85-0.5,11.74,0.41,17.56
			c0.52,12.5,0.38,25.01,0.069,37.51c-1.529,23.44-0.729,47.02-0.54,70.51c-2.06,4.27-6.1,7.7-10.93,8.13
			c-26.43-0.92-52.88-0.2-79.32-0.42c0-2,0-4,0.03-6c26.96-0.11,53.92,0.21,80.87-0.12c3.729-0.2,4.77-4.86,4.06-7.88
			c0-21.31,0.271-42.63-0.08-63.93c-34.989-0.14-69.979-0.1-104.97-0.01c-0.92-1.99-1.89-3.96-2.71-5.99
			c6.84-3.44,13.641,0.64,20.78-0.14c8.479-3.72,17.58,2.65,26.12-1.63c9.38,4.66,18.689-2.13,27.939,1.71
			c5.19,2.06,9.92-3.09,14.84-1.03c4.931,0.97,16.87,3.6,17.71-4.39c2.921-7.22-2.43-13.42-0.67-20.42
			c-5.46-2.91-11.14,0.86-16.59,1.06c-6.16-3.53-13.13-1.7-19.5,0.13c-6.35-3.44-13.439-2.06-20,0c-6.35-3.44-13.439-2.06-20,0
			c-6.35-3.44-13.439-2.06-20,0c-6.35-3.44-13.439-2.06-20,0c-6.35-3.44-13.439-2.06-20,0c-6.35-3.44-13.439-2.06-20,0
			c-5.64-2.77-12.109-2.83-17.949-0.45c-3.15,1.64-7.471-2.81-9.761,0.33c1.131,4.14,1.511,8.44,0.891,12.74c-2,0.03-4,0.04-6,0.01
			C280.91,106.92,281.25,94.84,280.78,82.77z M291.33,79.26c-8.261,2.69-3.011,13.44-4.29,19.65c61.3,0.19,122.619,0.08,183.93,0.05
			c-0.59-5.75,1.489-12.33-1.24-17.68c-4-3.77-9.95-0.65-14.75-2.17C400.42,79.52,345.93,79.24,291.33,79.26z"/>
	</g>
</g>
<g>
	<path fill="#E3EAFB" d="M291.33,79.26c54.6-0.02,109.09,0.26,163.649-0.15c4.8,1.52,10.75-1.6,14.75,2.17
		c2.73,5.35,0.65,11.93,1.24,17.68c-61.311,0.03-122.63,0.14-183.93-0.05C288.32,92.7,283.07,81.95,291.33,79.26z"/>
</g>
<g>
	<path fill="#8F8F9C" d="M476.3,81.71c1.529,5.68,0.229,11.76,0.41,17.56C475.8,93.45,476.06,87.56,476.3,81.71z"/>
</g>
<g>
	<path fill="#938C9C" d="M280,118.98c0.34-12.06-0.88-24.22,0.779-36.21c0.471,12.07,0.131,24.15,0.221,36.22L280,118.98z"/>
</g>
<g>
	<path fill="#9C95A7" d="M102.69,96.57c4.15-0.74,8.42-0.59,12.561,0.15C111.06,96.7,106.87,96.65,102.69,96.57z"/>
</g>
<g opacity="0.1">
	<path fill="#EA73FF" d="M97.01,97.56c1.42-0.25,4.26-0.74,5.68-0.99c4.181,0.08,8.37,0.13,12.561,0.15
		c13.66,1.95,28.99,8.07,34.72,21.66c-2.95,0.23-5.89,0.35-8.81,0.82c-9.41,18.81-15.67,39.11-25.73,57.64
		c-2.2,3.37-4.11,6.92-6.229,10.35c-9.761-14.25-19.08-28.8-28.9-43c3.74-14.55,8.18-29.08,15.8-42.13
		C96.76,100.62,98.54,99.07,97.01,97.56z"/>
</g>
<g opacity="0.1">
	<path fill="#EA73FF" d="M156.81,118.95c3.49-18.55,31.75-21.65,44.46-11.24c2.57,2.81,9.92,7.87,4.66,11.3
		C189.56,118.93,173.18,119.14,156.81,118.95z"/>
</g>
<g>
	<path fill="#47474C" d="M26.16,104c-0.141-1.83,2.979-1.66,3.83-0.56C28.81,104.08,27.47,104.21,26.16,104z"/>
</g>
<g>
	<path fill="#47474D" d="M35.04,103.47c1.14-1.04,4.609-1.46,4.779,0.52C38.21,104.18,36.56,104.1,35.04,103.47z"/>
</g>
<g>
	<path fill="#D5D5ED" d="M295.87,105.91c5.84-2.38,12.31-2.32,17.949,0.45c6.561-2.06,13.65-3.44,20,0c6.561-2.06,13.65-3.44,20,0
		c6.561-2.06,13.65-3.44,20,0c6.561-2.06,13.65-3.44,20,0c6.561-2.06,13.65-3.44,20,0c6.561-2.06,13.65-3.44,20,0
		c6.37-1.83,13.34-3.66,19.5-0.13c5.45-0.2,11.13-3.97,16.59-1.06c-1.76,7,3.591,13.2,0.67,20.42c-0.84,7.99-12.779,5.36-17.71,4.39
		c-4.92-2.06-9.649,3.09-14.84,1.03c-9.25-3.84-18.56,2.95-27.939-1.71c-8.54,4.28-17.641-2.09-26.12,1.63
		c-7.141,0.78-13.94-3.3-20.78,0.14c-1.87-3.96-2.84-8.39-5.42-11.97c-23.59-0.31-47.18,0.03-70.77-0.12
		c0.62-4.3,0.24-8.6-0.891-12.74C288.4,103.1,292.72,107.55,295.87,105.91z"/>
</g>
<g>
	<path fill="#62626A" d="M0,112.18l0.89-0.17c-0.22,1.54-0.67,4.62-0.89,6.16V112.18z"/>
</g>
<g>
	<g>
		<path fill="#6F6F95" d="M141.16,119.2c2.92-0.47,5.859-0.59,8.81-0.82c2.271,0.25,4.55,0.44,6.84,0.57
			c16.37,0.19,32.75-0.02,49.12,0.06c3.06-0.01,6.09-0.04,9.17-0.05c21.63,0.09,43.271,0.04,64.9,0.02l1,0.01c2,0.03,4,0.02,6-0.01
			c23.59,0.15,47.18-0.19,70.77,0.12c2.58,3.58,3.55,8.01,5.42,11.97c0.82,2.03,1.79,4,2.71,5.99c3.49,9.09,7.54,17.95,11.26,26.94
			c1.841,4.36,3.62,8.74,5.42,13.11c0.851,2.1,1.811,4.15,2.96,6.11c0.08,0.43,0.25,1.3,0.341,1.73l-0.061,0.88
			c-1.29,9.66-0.819,19.44-0.81,29.17c-0.021,14.33-0.04,28.67,0,43c0.14,43.41-0.33,86.82,0.22,130.21
			c-0.25,0.271-0.76,0.81-1.02,1.07c-48.141-0.13-96.46-1.12-144.5,0.44c-8.13,0.319-16.271,0.489-24.391,0.1
			c-33.43-1.68-67.02-0.68-100.51-0.57c-0.28-0.27-0.85-0.79-1.14-1.05c0.22-39.81,1.16-79.81-0.391-119.53
			c-0.109-2.54-0.18-5.08-0.21-7.6l0.101-0.92c1.32-24.71,1.39-49.76,0.18-74.45c0.22-3.04,1.44-5.9,2.08-8.86
			C125.49,158.31,131.75,138.01,141.16,119.2z M145.07,125.04c-7.069,15.71-14.09,31.59-19.989,47.75
			c-1.88,1.91-2.23,5.12-3.46,7.56c-0.13,0.38-0.391,1.15-0.521,1.53c32.99,0.24,66.01,0.15,99.01,0.02l-0.35-0.92
			c0.39-1.97,0.82-3.94,1.06-5.94c2.86-15.72,4.79-31.59,7.86-47.27c1.76,0.24,3.561,0.32,5.34,0.2
			c-1.46,14.41-5.02,28.56-6.12,43.02c-2.399,1.73-1.189,6.78-1.87,9.96c13.551,0.16,27.101-0.03,40.65,0.12
			c-1.32-3.72,0.83-9.98-1.62-12.07c-0.77-13.72-3.01-27.33-4.03-41.03c1.98,0.12,3.971,0.12,5.961,0
			c1.779,15.68,3.56,31.38,5.13,47.09c-0.42,2.06,0.18,4.08,1.1,5.91l-0.34,0.92c33.37,0.28,66.75,0.01,100.12,0.13
			c4.84,7.34,6.069-4.63,4.479-2.59c-0.81-1.49-1.63-2.96-2.57-4.36c-6.42-16.89-13.52-33.57-20.979-50.02
			c-28.97-0.08-57.96-0.1-86.93,0.01c-2.03-0.15-4.07-0.14-6.101,0.02c-8.64-0.31-17.3-0.05-25.93-0.08
			c-1.97-0.08-3.93-0.09-5.89,0.1C201.09,124.86,173.07,125.02,145.07,125.04z M119.03,187.98c-0.05,65.01-0.05,130.02,0,195.02
			l0.971-0.02l0.04,0.949c86.31,0.141,172.63,0.07,258.949,0.041l0.011-0.98l0.97,0.01c0.05-65.02,0.06-130.029-0.01-195.04
			l-0.96,0.13c-35.33-0.2-70.681-0.09-106.021-0.03c-1.979-0.15-3.979-0.15-5.97,0c-14-0.13-28.01-0.13-42.02,0
			c-1.99-0.15-3.99-0.15-5.98,0.01c-33-0.15-66.01-0.08-99.01-0.03L119.03,187.98z"/>
	</g>
</g>
<g>
	<path fill="#FBE8C4" d="M145.07,125.04c28-0.02,56.021-0.18,84.011,0.06c-0.101,0.67-0.301,2-0.4,2.67
		c-3.07,15.68-5,31.55-7.86,47.27c-30.56-1.03-61.079-0.62-91.63-0.2c-1.43-0.56-2.75-1.36-4.109-2.05
		C130.98,156.63,138,140.75,145.07,125.04z"/>
	<path fill="#FBE8C4" d="M267,125.06c28.97-0.11,57.96-0.09,86.93-0.01c7.46,16.45,14.56,33.13,20.979,50.02
		c-34.229-1.02-68.529-0.9-102.789-0.01c-1.57-15.71-3.351-31.41-5.131-47.09C266.99,127.24,267,125.78,267,125.06z"/>
</g>
<g>
	<path fill="#A1A1B9" d="M229.08,125.1c1.96-0.19,3.92-0.18,5.89-0.1c-0.34,0.98-0.65,1.97-0.95,2.97
		c-1.779,0.12-3.58,0.04-5.34-0.2C228.78,127.1,228.98,125.77,229.08,125.1z"/>
</g>
<g>
	<path fill="#EED5B9" d="M234.97,125c8.63,0.03,17.29-0.23,25.93,0.08c0.04,0.73,0.101,2.17,0.13,2.89
		c1.021,13.7,3.261,27.31,4.03,41.03c1.391,9.54-12.72,7.61-19.06,5.15c-5.38,0.1-18.37,6.14-18.101-3.16
		c1.101-14.46,4.66-28.61,6.12-43.021C234.32,126.97,234.63,125.98,234.97,125z"/>
</g>
<g>
	<path fill="#A5A5BE" d="M260.9,125.08c2.03-0.16,4.07-0.17,6.101-0.02c0,0.72-0.011,2.18-0.011,2.91c-1.989,0.12-3.979,0.12-5.96,0
		C261,127.25,260.94,125.81,260.9,125.08z"/>
</g>
<g>
	<path fill="#E4EBFC" d="M365.9,137.06c34.99-0.09,69.98-0.13,104.97,0.01c0.351,21.3,0.08,42.62,0.08,63.93
		c0.71,3.02-0.33,7.68-4.06,7.88c-26.95,0.33-53.91,0.01-80.87,0.12c-0.01-7.73-0.08-15.45-0.2-23.17l0.061-0.88
		c4.6-0.27,9.449,0.69,13.939-0.74c3.32,0.38,6.771,1.3,10-0.01c5.21,0.82,10.57,1.03,15.771-0.05c3.02,0.64,6.18,0.9,9.17-0.03
		c7.91,0.39,17.029,2.53,24.55,0.17c1.61-7.95,0.36-16.89,0.75-25.2c-0.43,0.19-1.3,0.59-1.73,0.78
		c-2.199-2.78-6.33-2.26-9.229-0.88c-4.891-0.68-9.82-1.15-14.68-0.07c-3.41-0.78-6.921-1.37-10.271-0.16
		c-1.95-0.39-3.93-0.71-5.92-0.68c-11.53,0.44-23.05,0.19-34.5,0.68c-2.521,1.27-4.42,3.46-6.57,5.24
		C373.44,155.01,369.39,146.15,365.9,137.06z"/>
</g>
<g>
	<path fill="#9F9DAD" d="M476.24,207.29c-0.189-23.49-0.989-47.07,0.54-70.51c0.391,12.66,0.061,25.32,0.37,37.98
		C476.44,185.55,478.09,196.69,476.24,207.29z"/>
</g>
<g opacity="0.1">
	<path fill="#EA73FF" d="M79.09,153.87c6.96,8.2,12.34,17.96,18.03,27.13c-6.42-4.13-13.851-7.71-19.25-12.96
		C78.15,163.31,78.67,158.59,79.09,153.87z"/>
</g>
<g>
	<path fill="#F9F6F4" d="M383.73,158.76c11.45-0.49,22.97-0.24,34.5-0.68c-15.07,0.21-22.02,16.77-32.69,25.14
		c-1.149-1.96-2.109-4.01-2.96-6.11c3.9-7.08,11.82-10.94,15.73-17.93C393.44,158.98,388.59,158.94,383.73,158.76z"/>
</g>
<g>
	<path fill="#FAE4D1" d="M418.23,158.08c1.99-0.03,3.97,0.29,5.92,0.68c-7.54,9.02-16.75,16.47-24.33,25.45
		c-4.49,1.43-9.34,0.47-13.939,0.74c-0.091-0.43-0.261-1.3-0.341-1.73C396.21,174.85,403.159,158.29,418.23,158.08z"/>
	<path fill="#FAE4D1" d="M458.329,159.87c0.431-0.19,1.301-0.59,1.73-0.78c-0.39,8.31,0.86,17.25-0.75,25.2
		c-7.521,2.36-16.64,0.22-24.55-0.17C442.289,175.72,450.73,168.2,458.329,159.87z"/>
</g>
<g>
	<path fill="#FEFDFD" d="M424.15,158.76c3.351-1.21,6.86-0.62,10.271,0.16c-8.03,8.6-16.9,16.39-24.601,25.28
		c-3.229,1.31-6.68,0.39-10,0.01C407.4,175.23,416.61,167.78,424.15,158.76z"/>
</g>
<g>
	<path fill="#FAE5D1" d="M434.42,158.92c4.859-1.08,9.79-0.61,14.68,0.07c-6.42,9.57-16.03,16.45-23.51,25.16
		c-5.2,1.08-10.561,0.87-15.771,0.05C417.52,175.31,426.39,167.52,434.42,158.92z"/>
</g>
<g>
	<path fill="#FDFDFD" d="M449.1,158.99c2.9-1.38,7.03-1.9,9.229,0.88c-7.6,8.33-16.04,15.85-23.569,24.25
		c-2.99,0.93-6.15,0.67-9.17,0.03C433.07,175.44,442.68,168.56,449.1,158.99z"/>
</g>
<g>
	<path fill="#FCE6D3" d="M377.159,164c2.15-1.78,4.051-3.97,6.57-5.24c4.86,0.18,9.71,0.22,14.58,0.42
		c-3.91,6.99-11.83,10.85-15.73,17.93C380.78,172.74,379,168.36,377.159,164z"/>
</g>
<g>
	<path fill="#DDC7B3" d="M265.06,169c2.45,2.09,0.3,8.35,1.62,12.07c-13.55-0.15-27.1,0.04-40.65-0.12
		c0.681-3.18-0.529-8.23,1.87-9.96c-0.27,9.3,12.721,3.26,18.101,3.16C252.34,176.61,266.45,178.54,265.06,169z"/>
</g>
<g>
	<path fill="#E8D8BC" d="M121.62,180.35c1.229-2.44,1.58-5.65,3.46-7.56c1.359,0.69,2.68,1.49,4.109,2.05
		c30.551-0.42,61.07-0.83,91.63,0.2c-0.239,2-0.67,3.97-1.06,5.94C187.06,180.55,154.22,181.92,121.62,180.35z"/>
</g>
<g>
	<path fill="#E8D7BC" d="M272.12,175.06c34.26-0.89,68.56-1.01,102.789,0.01c0.94,1.4,1.761,2.87,2.57,4.36
		c-0.28,0.31-0.83,0.92-1.1,1.22c-34.37,0.81-68.78,0.14-103.16,0.32C272.3,179.14,271.7,177.12,272.12,175.06z"/>
</g>
<g opacity="0.1">
	<path fill="#EA73FF" d="M78.26,175.85c6.58,4.57,13.49,8.66,19.97,13.39c-7.689,1.01-15.46,0.8-23.189,0.68
		C76.92,185.46,77.85,180.65,78.26,175.85z"/>
</g>
<g>
	<path fill="#9D96A4" d="M377.48,179.43c1.59-2.04,0.36,9.93-4.479,2.59c-33.37-0.12-66.75,0.15-100.12-0.13l0.34-0.92
		c34.38-0.18,68.79,0.49,103.16-0.32C376.65,180.35,377.199,179.74,377.48,179.43z"/>
</g>
<g>
	<path fill="#9D96A5" d="M121.1,181.88c0.13-0.38,0.391-1.15,0.521-1.53c32.6,1.57,65.439,0.2,98.14,0.63l0.35,0.92
		C187.11,182.03,154.09,182.12,121.1,181.88z"/>
</g>
<g>
	<path fill="#A09AAD" d="M113.35,185.7c1.21,24.69,1.141,49.74-0.18,74.45c-0.061-1.7-0.13-3.391-0.2-5.08
		c0.021-19.69,0.09-39.38-0.01-59.07C113.01,192.57,113.13,189.12,113.35,185.7z"/>
</g>
<g>
	<path fill="#9EA1BF" d="M385.01,215c-0.01-9.73-0.48-19.51,0.81-29.17c0.12,7.72,0.19,15.44,0.2,23.17c-0.03,2-0.03,4-0.03,6
		H385.01z"/>
</g>
<g>
	<path fill="#BDACAC" d="M119.03,187.98l0.971,0.06c0,1.66,0,3.33,0.02,4.99c-0.04,59.33-0.029,118.65,0,177.98
		c-0.02,3.98-0.029,7.971-0.02,11.971L119.03,383C118.98,318,118.98,252.99,119.03,187.98z"/>
</g>
<g>
	<path fill="#F6E2D1" d="M120,188.04c33-0.05,66.01-0.12,99.01,0.03c-0.01,1.65-0.02,3.3-0.03,4.96c-32.97-0.57-65.989-0.64-98.96,0
		C120,191.37,120,189.7,120,188.04z"/>
</g>
<g>
	<path fill="#A39EB1" d="M219.01,188.07c1.99-0.16,3.99-0.16,5.979-0.01c0.011,1.28,0.021,2.55,0.04,3.83L225,192.88
		c-1.65,0.07-3.29,0.11-4.92,0.29c-0.28,9.28,0.13,18.57-0.311,27.84l-1.069-0.24c0.439-9.24,0.34-18.5,0.279-27.74
		C218.99,191.37,219,189.72,219.01,188.07z"/>
</g>
<g>
	<path fill="#ECDACA" d="M224.99,188.06c14.01-0.13,28.02-0.13,42.02,0c-0.02,1.29-0.04,2.57-0.05,3.86l-0.851,0.36
		c-13.319,0.58-26.79,0.89-40.1-0.27l-0.98-0.12C225.01,190.61,225,189.34,224.99,188.06z"/>
</g>
<g>
	<path fill="#9D98AD" d="M267.01,188.06c1.99-0.15,3.99-0.15,5.97,0c0.011,1.65,0.011,3.31,0.04,4.97
		c-0.41,9.38,0.891,18.94-0.74,28.23c-0.399-9.37-0.079-18.75-0.369-28.12c-1.641-0.16-3.29-0.2-4.931-0.25l-0.02-0.97
		C266.97,190.63,266.99,189.35,267.01,188.06z"/>
</g>
<g>
	<path fill="#F6E3D1" d="M272.98,188.06c35.34-0.06,70.69-0.17,106.021,0.03c0,1.64-0.011,3.29-0.021,4.94
		c-35.31-0.6-70.65-0.61-105.96,0C272.99,191.37,272.99,189.71,272.98,188.06z"/>
</g>
<g>
	<path fill="#BBABAB" d="M379,188.09l0.96-0.13c0.069,65.011,0.06,130.021,0.01,195.04l-0.97-0.01c0-4.01-0.011-8-0.021-11.99
		c0.04-59.32,0.03-118.65,0-177.97C378.99,191.38,379,189.73,379,188.09z"/>
</g>
<g>
	<path fill="#958E9E" d="M98.23,189.24c0.71,0.5,1.4,1.03,2.07,1.59c-8.81,0.3-17.63,0.14-26.44,0.04
		c0.29-0.24,0.881-0.72,1.181-0.95C82.77,190.04,90.54,190.25,98.23,189.24z"/>
</g>
<g>
	<g>
		<path fill="#F2D6BB" d="M120.02,193.03c32.97-0.64,65.99-0.57,98.96,0c0.061,9.24,0.16,18.5-0.279,27.74
			c-2.521,8.28,9.05,9.06,14.659,8.53c8.42-2.96,16.641,1.88,25.08-0.73c4.33-2.13,8.12,1.4,12.28,1.25c3.21-1.55,1.7-4.98,1.38-7.7
			l0.18-0.86c1.631-9.29,0.33-18.85,0.74-28.229c35.31-0.61,70.65-0.6,105.96,0c0.03,59.32,0.04,118.649,0,177.97
			c-86.3-0.561-172.67-0.561-258.96,0.01C119.99,311.68,119.98,252.36,120.02,193.03z M193,242.03l0.01,0.97
			c-0.25,0.25-0.76,0.75-1.01,1.01c-1.811,16.12-1.58,40.211,0.02,55.77c0.91,1.33,2.521,1.24,3.95,1.261
			c36.67-0.11,73.33,0.04,110-0.08l0.03-0.97c2.38-15.34,0.489-35.28,0.75-52.25c0.25-1.7,0.71-4.71-1.801-4.72l0.04-0.97
			C267.66,241.94,230.33,242,193,242.03z M277.28,315.18c-1.149,1.01-2.59,2.061-2.27,3.811c0.38,15.699-0.9,32,0.67,47.34
			c13.49,1.779,28.2,0.21,42.09,0.54c3.6-11.05-0.09-23.42,1.25-34.87c-1.43-5.221,2.8-13.09-2.3-16.82
			C303.57,314.85,290.42,314.85,277.28,315.18z M330.369,315.34c-2.81,0.45-3.6,2.34-2.369,5.66c0.43,15.029-0.921,30.66,0.68,45.33
			c13.54,1.83,28.3,0.109,42.24,0.63c0.979-15.75,0.35-31.31,0.85-47.06c0.26-1.84-0.91-3.43-1.98-4.801
			C356.65,315.02,343.49,314.641,330.369,315.34z"/>
	</g>
</g>
<g>
	<path fill="#D0B9AA" d="M225.03,191.89l0.98,0.12c0.02,5.95-0.21,11.91,0.07,17.86c6.739-1.53,13.35,2.93,20.08,0.33
		c6.229-2.75,13.25,3.51,19.159,0.13c1.45-5.66,0.391-12.08,0.79-18.05l0.851-0.36l0.02,0.97c-0.05,7.68,0.25,15.37-0.069,23.04
		c-13.95,0.12-27.9,0.22-41.841-0.02c-0.21-7.68-0.069-15.35-0.069-23.03L225.03,191.89z"/>
</g>
<g>
	<path fill="#E3C8B0" d="M226.01,192.01c13.31,1.16,26.78,0.85,40.1,0.27c-0.399,5.97,0.66,12.39-0.79,18.05
		c-5.909,3.38-12.93-2.88-19.159-0.13c-6.73,2.6-13.341-1.86-20.08-0.33C225.8,203.92,226.03,197.96,226.01,192.01z"/>
</g>
<g>
	<path fill="#6E6E95" d="M220.08,193.17c1.63-0.18,3.27-0.22,4.92-0.29c0,7.68-0.141,15.35,0.069,23.03
		c13.94,0.24,27.891,0.14,41.841,0.02c0.319-7.67,0.02-15.36,0.069-23.04c1.641,0.05,3.29,0.09,4.931,0.25
		c0.29,9.37-0.03,18.75,0.369,28.12l-0.18,0.86c-17.42-0.84-35.03,1.19-52.33-1.11C220.21,211.74,219.8,202.45,220.08,193.17z"/>
</g>
<g>
	<path fill="#F2E2CE" d="M78.1,197.2c11.55-1.9,23.25-0.21,34.86-1.2c0.1,19.69,0.03,39.38,0.01,59.07
		c-11.47-1.54-23.47,0.8-34.83-1.221C77.82,234.98,77.96,216.08,78.1,197.2z"/>
</g>
<g>
	<path fill="#66607F" d="M385.01,215h0.979l0.03,1c-0.04,14-0.02,28-0.02,42h-0.99C384.97,243.67,384.99,229.33,385.01,215z"/>
</g>
<g>
	<path fill="#6C5F70" d="M385.99,215c26.44,0.22,52.891-0.5,79.32,0.42c-26.35,1.46-52.88,0.12-79.29,0.58L385.99,215z"/>
</g>
<g>
	<path fill="#DFC7B6" d="M233.36,229.3c-5.609,0.53-17.18-0.25-14.659-8.53l1.069,0.24c17.3,2.3,34.91,0.271,52.33,1.11
		c0.32,2.72,1.83,6.15-1.38,7.7c-4.16,0.15-7.95-3.38-12.28-1.25C250,231.18,241.78,226.34,233.36,229.3z"/>
</g>
<g>
	<path fill="#9F94A2" d="M193,242.03c37.33-0.03,74.66-0.09,111.989,0.02l-0.04,0.97c-37.31-0.05-74.63,0-111.939-0.02L193,242.03z"
		/>
</g>
<g>
	<g>
		<path fill="#6F6F96" d="M192,244.01c0.25-0.26,0.76-0.76,1.01-1.01c37.31,0.02,74.63-0.03,111.939,0.02
			c2.511,0.01,2.051,3.02,1.801,4.72c-1.641,17.35-0.36,34.83-0.75,52.25l-0.03,0.97c-36.67,0.12-73.33-0.03-110,0.08
			c-1.43-0.021-3.04,0.069-3.95-1.261C191.97,281.189,192.01,262.6,192,244.01z M197.06,248.04c0.49,15.26-1.37,33.45,0.95,46.88
			c34.3,0.17,68.62,0.08,102.93,0.04c0.14-10.899,0.26-21.81-0.22-32.7c0.53-4.699,0.3-9.46,0.25-14.17
			C266.34,247.89,231.7,248.01,197.06,248.04z"/>
	</g>
</g>
<g>
	<path fill="#938BA0" d="M192.02,299.779c-1.6-15.559-1.83-39.649-0.02-55.77C192.01,262.6,191.97,281.189,192.02,299.779z"/>
</g>
<g>
	<path fill="#D0D0DD" d="M197.06,248.04c34.641-0.03,69.28-0.15,103.91,0.05c0.05,4.71,0.28,9.471-0.25,14.17
		c-0.45-4.39-0.44-8.8-0.92-13.18c-33.91-0.14-67.83-0.16-101.73,0.01c-0.239,15.27,0.011,30.551-0.06,45.83
		C195.69,281.49,197.55,263.3,197.06,248.04z"/>
</g>
<g>
	<path fill="#8A849D" d="M306,299.99c0.39-17.42-0.891-34.9,0.75-52.25C306.49,264.71,308.38,284.65,306,299.99z"/>
</g>
<g>
	<g>
		<path fill="#FBFBFB" d="M198.07,249.09c33.9-0.17,67.82-0.15,101.73-0.01c0.479,4.38,0.47,8.79,0.92,13.18
			c0.479,10.891,0.359,21.801,0.22,32.7c-34.31,0.04-68.63,0.13-102.93-0.04C198.08,279.641,197.83,264.359,198.07,249.09z
			 M206.01,258.04c0,1.479,0,4.42,0,5.899c8.979,0.211,17.979,0.08,26.979,0.021c0-1.479,0-4.42,0-5.899
			C224,257.84,215,257.971,206.01,258.04z M244.01,258.029c-3.68,9.91,8.09,4.82,12.979,5.941
			C260.68,254.061,248.89,259.141,244.01,258.029z M209.33,268.34c-3.511,0.28-4.99,2.48-3.32,6.721
			c16.88-2.16,33.97,0.81,50.97-1.24c3.521-6.66-4.8-5.061-7.58-5.19C236.01,268.359,222.67,268.74,209.33,268.34z M272.14,268.37
			c-5.21,10.45,8.43,4.09,13.83,6.659C289.56,265,277.3,270.18,272.14,268.37z M206.01,279.05c0,1.46,0,4.39,0,5.86
			c8,0.35,16.01,0.05,24.01,0.02C231.44,272.471,212.78,281.779,206.01,279.05z M245.01,279.04c0,1.47,0,4.41,0,5.88
			c9.32,0.29,18.65,0.051,27.979,0.04c0-1.47,0-4.41,0-5.88C263.67,278.779,254.33,279.02,245.01,279.04z"/>
	</g>
</g>
<g>
	<path fill="#CDCDDE" d="M206.01,258.04c8.99-0.069,17.99-0.2,26.979,0.021c0,1.479,0,4.42,0,5.899c-9,0.06-18,0.19-26.979-0.021
		C206.01,262.46,206.01,259.52,206.01,258.04z"/>
	<path fill="#CDCDDE" d="M206.01,279.05c6.77,2.729,25.43-6.579,24.01,5.88c-8,0.03-16.01,0.33-24.01-0.02
		C206.01,283.439,206.01,280.51,206.01,279.05z"/>
</g>
<g>
	<path fill="#CECEDF" d="M244.01,258.029c4.88,1.111,16.67-3.969,12.979,5.941C252.1,262.85,240.33,267.939,244.01,258.029z"/>
	<path fill="#CECEDF" d="M90.22,414.12c9.73-1.13,0.6,10.07-1.17,13.82c-2.01,1.119-4.3,1.25-6.37,0.189
		C83.88,422.89,86.94,418.27,90.22,414.12z"/>
</g>
<g>
	<path fill="#A4A4C2" d="M385.01,258H386c-0.011,2-0.011,4,0.02,6c-0.63,41.35,1.11,83.1-0.79,124.21
		C384.68,344.82,385.15,301.41,385.01,258z"/>
</g>
<g>
	<g>
		<path fill="#CACADC" d="M386,258c9.069,0.82,19.029-1.779,27.68,1.32c10.24,8.68,1.33,25.26,4.34,36.66
			c16.24,2.16,36.34,0.859,54.08,0.67l0.79-0.03c10.28,2.08,18.13,11.53,18.68,21.95c3.811,22.119,8.19,44.16,11.71,66.33
			c-0.67,1.699-0.859,3.76,0.51,5.189c0.16,1.561,0.311,3.12,0.46,4.69c0.19,12.01-1.479,24.53,0.7,36.25
			c1.511,1.83,3.48,3.399,4.351,5.68c-0.09,4.49-0.07,9-0.101,13.51c-0.67,3.511-3.569,6.13-6.92,7.09
			c-3.479-0.14-6.859-0.329-10.31-0.329c-4.07-0.471-7.69-0.11-10.86,1.09c-3.76,10.88-13.54,19.22-24.87,21.16
			c-3.529-0.07-6.97-0.07-10.47-0.04c-11.39-1.82-21.02-10.36-24.89-21.141c-3-1.47-6.38-1.51-10.15-0.1
			c-1.42,2.01-1.57,4.37-0.42,7.06c-1.14,2.54-4.34,2.511-5.59,0.09c1.66-3.449,1.47-5.84-0.57-7.159
			c-10.95-1.891-22.14-0.681-33.189-0.9c-13.98,0.88-29.82-1.83-42.9,0.99c-3.43,11.1-13.56,19.06-24.76,21.31
			c-3.21-0.07-6.36-0.09-9.55-0.09c-11.92-1.53-21.65-10.23-26.05-21.17c-2.66,1.05-11.4-3.07-7.771,4.92
			c0.25,2.03-2.21,5.02-4.26,3.45c-3.521-0.95-0.95-5.69-1.76-8.36c-2.9-1.25-6.631-1.52-11.16-0.83c-2.521-1.17-5.25-3.22-6.021-6
			c0.08-5.18,0.24-10.33,0.061-15.489c0.63-1.851,2.25-3.101,3.3-4.7c1.5-12.5,1.5-25.721,0.27-38.35
			c-0.159-0.75-0.489-2.25-0.649-3c2.1,0.119,4.2,0.209,6.31,0.279c1.221,2.68,0.45,7.84,6.021,4.971
			c52.319,0.069,104.64,0,156.96,0.039c2.92,0.53,4.579-3.66,3.01-6.01c0.03-40.01-0.101-80.02,0.06-120.02
			c-0.17-1.68,0.4-3.86-1.37-4.84c-8.229-0.34-16.46-0.131-24.68-0.141C385.99,262,385.99,260,386,258z M420.36,302.33
			c-1.43,0.35-2.89,0.85-2.359,2.67c-0.061,28.33,0.079,56.67-0.03,85c1.5,6.6-5.55,12.82-11.95,11.029
			C352.71,401,299.39,400.95,246.08,401.05c-0.28,9.22-0.15,18.46,0.06,27.69c2.54,3.47,8.19,0.109,11.67,1.2
			c7.36-19.091,28.851-28.32,48.18-24.86c15.431-0.471,28.49,10.47,33.311,24.71c21.2,0.6,42.479-0.021,63.71,0.229
			c5.01,2.931,5.42-1.68,6.75-4.3c4.51-11.2,14.75-20.479,27.12-21.399c14.3,2.51,31.359-3.37,43.18,7.6
			c8.689,4.03,5.74,20.49,17.86,18.08c3.369-37.75-6.271-74.46-12.561-111.33c-0.07-8.29-5.81-14.99-13.979-16.15
			C454.449,302.17,437.34,302.34,420.36,302.33z M288.38,411.43c-18.3,3.23-29.061,21.771-28.29,39.33
			c1.71,0.76,4.55,2.391,5.67-0.01c0.49-9.85,3.27-20.26,11.11-26.87c15.869-14.42,44.699-8.11,51.069,13.17
			c3.16,3.891-0.72,17.62,7.39,14.3c1.811-12.96-2.67-29.619-15.38-36.279C310.61,408.99,298.85,411,288.38,411.43z M432.369,411.38
			c-16.25,5-21.979,24.08-21.27,39.36c1.59,2.72,8.12,1.58,7.92-1.721c-0.51-17.039,13.82-32.84,31-33.029
			c16.91-1.25,31.97,13.359,32.9,29.99c-2.221,2.609,1.68,8.489,3.97,4.829c0.28-12.06-1.55-26.069-11.07-34.64
			C463.24,406.77,446.73,412.141,432.369,411.38z M294.4,424.47c-8.529,0.87-15.76,7.33-18.71,15.21
			c-6.529,15.15,7.19,32.92,23.24,32.271c14.49-0.71,26.63-15.79,22.25-30.07C318.19,430.57,306.22,421.74,294.4,424.47z
			 M446.39,424.4c-8.43,1.96-15.851,8.27-18.17,16.75c-4.97,14.47,7.109,29.97,21.89,30.72c14.45,0.68,27.72-13.771,24.3-28.2
			C472.26,431.05,459.15,421.5,446.39,424.4z M243.24,436.13c-2.421,4.13-0.95,9.12-1.15,13.64c2.88,2.381,7.34,1.03,10.79,1.91
			c2.729-4.38,1.41-10.67,3.05-15.62C251.7,435.79,247.45,435.98,243.24,436.13z M340.94,436.05c1.07,4.92,0.14,11.11,2.05,15.061
			c20.181,1.439,40.48-0.311,60.78,0.81c2.83-4.47,1.29-10.74,2.23-15.85C384.31,435.94,362.63,435.96,340.94,436.05z
			 M492.07,436.02c0.38,4.91,0.76,9.82,1.141,14.73c2.899,1.88,6.56,0.82,9.689,0.04c0.021-3.69,0.05-11.07,0.07-14.76
			C500.25,436.03,494.8,436.03,492.07,436.02z"/>
	</g>
</g>
<g>
	<path fill="#8B8294" d="M73.81,260.24c13.11-0.43,26.24-0.28,39.36-0.09l-0.101,0.92C99.99,260.561,86.79,261.939,73.81,260.24z"/>
</g>
<g>
	<path fill="#EDEDFC" d="M386.02,264c8.22,0.01,16.45-0.2,24.68,0.141c1.771,0.979,1.2,3.159,1.37,4.84
		c-0.16,40-0.03,80.01-0.06,120.02c1.569,2.35-0.09,6.54-3.011,6.01c-52.319-0.039-104.64,0.03-156.959-0.039
		c-5.57,2.869-4.801-2.291-6.021-4.971c46.021-0.52,92.38,1.01,138.189-0.721c0.261-0.26,0.771-0.799,1.021-1.069
		C387.13,347.1,385.39,305.35,386.02,264z"/>
	<path fill="#EDEDFC" d="M432.369,411.38c14.36,0.761,30.87-4.61,43.45,4.79c9.521,8.57,11.351,22.58,11.07,34.64
		c-2.29,3.66-6.19-2.22-3.97-4.829c-0.931-16.631-15.99-31.24-32.9-29.99c-17.18,0.189-31.51,15.99-31,33.029
		c0.2,3.301-6.33,4.44-7.92,1.721C410.39,435.46,416.119,416.38,432.369,411.38z"/>
	<g>
		<path fill="#EDEDFC" d="M294.4,424.47c11.82-2.729,23.79,6.101,26.78,17.41c4.38,14.28-7.76,29.36-22.25,30.07
			c-16.05,0.649-29.77-17.12-23.24-32.271C278.64,431.8,285.87,425.34,294.4,424.47z M294.38,435.39
			c-5.48,1.051-10.33,6.91-9.391,12.61c-1.489,10.99,14.261,17.6,21.83,9.83C317.25,449.34,307.18,430.94,294.38,435.39z"/>
	</g>
	<path fill="#EDEDFC" d="M243.24,436.13c4.21-0.149,8.46-0.34,12.689-0.07c-1.64,4.95-0.32,11.24-3.05,15.62
		c-3.45-0.88-7.91,0.471-10.79-1.91C242.29,445.25,240.82,440.26,243.24,436.13z"/>
	<path fill="#EDEDFC" d="M340.94,436.05c21.69-0.09,43.37-0.109,65.061,0.021c-0.94,5.109,0.6,11.38-2.23,15.85
		c-20.3-1.12-40.6,0.63-60.78-0.81C341.079,447.16,342.01,440.97,340.94,436.05z"/>
	<path fill="#EDEDFC" d="M295.28,443.16c6.8-3.33,10.91,7.62,4.391,9.57C293.2,455.95,290.24,445.86,295.28,443.16z"/>
</g>
<g>
	<path fill="#CCCCDD" d="M209.33,268.34c13.34,0.4,26.68,0.02,40.069,0.29c2.78,0.13,11.101-1.47,7.58,5.19
		c-17,2.05-34.09-0.92-50.97,1.24C204.34,270.82,205.82,268.62,209.33,268.34z"/>
</g>
<g>
	<path fill="#CFCFE0" d="M272.14,268.37c5.16,1.81,17.42-3.37,13.83,6.659C280.57,272.46,266.93,278.82,272.14,268.37z"/>
</g>
<g>
	<path fill="#C3C4D6" d="M23.78,356.76c3.721-45.939,43.87-84.41,89.5-88.09c-0.13,2.07-0.25,4.15-0.319,6.221
		C74.7,277.6,39.49,307.32,31.99,345.16c-6.47,21.68-1.75,45.359,8.761,64.96c15.6,28.89,48.18,48.71,81.149,46.79
		c39.15,0.899,78.7-27.65,86.24-66.891c1.8-0.049,5.39-0.149,7.18-0.199c-5.81,21.82-18.859,41.899-37.359,55.04
		c-14.19,10.359-31.21,16.71-48.66,18.569c-5.84-0.319-11.7-0.319-17.55-0.17C66.8,459.5,27.92,421,23.73,376.08
		c0.45-1.33,0.521-2.67,0.2-4.02C23.93,366.95,23.98,361.859,23.78,356.76z"/>
</g>
<g>
	<path fill="#A1A3BC" d="M113.28,268.67c1.551,39.721,0.61,79.721,0.391,119.53c-0.9-5.41-0.641-10.91-0.74-16.351
		c0-0.52,0.01-1.55,0.01-2.07C113.08,343.49,112.96,317.2,113,290.91c0.02-2,0.01-4-0.021-6c0.011-1.311,0.011-2.61,0-3.91
		c0.021-2.04,0-4.07-0.02-6.109C113.03,272.82,113.15,270.74,113.28,268.67z"/>
</g>
<g>
	<path fill="#E8EFFB" d="M31.99,345.16c7.499-37.84,42.71-67.561,80.97-70.27c0.02,2.039,0.04,4.069,0.02,6.109
		c-4.68,1.811-9.2,0.08-13.689-0.57c-15.771,9.03-34.351,15.28-46.25,29.59C45.24,321.25,40.95,334.79,31.99,345.16z"/>
</g>
<g>
	<path fill="#CECEDE" d="M245.01,279.04c9.32-0.021,18.66-0.261,27.979,0.04c0,1.47,0,4.41,0,5.88
		c-9.329,0.011-18.659,0.25-27.979-0.04C245.01,283.45,245.01,280.51,245.01,279.04z"/>
</g>
<g>
	<path fill="#DDE8FB" d="M99.29,280.43c4.489,0.65,9.01,2.381,13.689,0.57c0.011,1.3,0.011,2.6,0,3.91
		c-37.7,2.34-70.069,35.311-73.489,72.65c-4.78,37.5,20.819,75.05,56.42,86.489c41.729,14.58,91.279-11.569,103.239-54.01
		c2.66-0.021,5.33-0.021,8.011,0c-3.66,4.13-4.5,9.43-5.53,14.601c-8.83,16.669-22.59,31.09-39.73,39.209
		c-11.38,0.471-19.43,12.011-31.54,8.61c-6.27-0.58-12.75,3.61-18.89,1.01c-2.38-1.95-5.27-2.76-8.45-1.8
		c-5.84,1.97-9.43-4.25-15.02-3.75c-6.53-0.85-10.601-6.55-17.011-7.9c-4.96-5.899-12.8-8.47-16.529-15.47
		c-7.66-2.45-6.21-12-13.71-14.43c-10.511-19.601-15.23-43.28-8.761-64.96c8.961-10.37,13.25-23.91,21.051-35.141
		C64.94,295.71,83.52,289.46,99.29,280.43z"/>
</g>
<g>
	<path fill="#C9CADC" d="M39.49,357.561c3.42-37.34,35.789-70.311,73.489-72.65c0.03,2,0.04,4,0.021,6l-0.96,0.061
		c-35.9,2.489-66.08,35.559-66.96,71.26c-0.61,12.729,1.67,25.799,7.62,37.129c4.159,8.091,9.159,15.921,16.13,21.891
		c26.199,26.26,71.909,27.3,100.199,3.77c11.24-8.99,19.471-21.42,23.99-35.029c2.04-0.02,4.09,0.01,6.13,0.05
		c-11.96,42.44-61.51,68.59-103.239,54.01C60.31,432.61,34.71,395.061,39.49,357.561z"/>
</g>
<g>
	<path fill="#EFF3F8" d="M45.08,362.23c0.88-35.701,31.06-68.771,66.96-71.26c-0.721,3.219-0.141,14.26-4,9.02
		c-4.891-6.35-7.15,6.23-11.931,7.15c-6.29,2.129,2.101,8.399-2.85,11.149c-2.52,2.319-4.98-3.61-7.6-1.62
		c-5.08,3.79-9.78,8.32-13.69,13.34c-2.95,3.03,4.39,6.04,0.86,8.801c-2.311,2.83-5.83-0.33-8.61-0.681
		c-2.74,4.681-6.47,8.32-11.1,11.13c-1.061,3.04,2.77,3.561,3.87,5.68c-2.19,1.82-5.381-0.439-7.73,0.371
		C47.14,357.09,46.44,359.92,45.08,362.23z"/>
</g>
<g>
	<g>
		<path fill="#F6FAFC" d="M112.04,290.971l0.96-0.061c-0.04,26.29,0.08,52.58-0.061,78.869c-11.06,5.291-21.149,12.381-31.92,18.23
			c-0.93,1.211-5.45,2.12-3.16,4.19c1.9,1.7,0.351,3.56-1.33,4.61c-1.359-2.121-3-4.011-4.619-5.931
			c7.739-8.56,16.33-16.31,24.33-24.62c1.449-1.689,5.31-5.25-2.841-1.949c-10.18,10.18-20.97,19.879-30.359,30.799
			c-1.79,1.67-3.69,3.201-5.49,4.86c-1.62-0.14-3.24-0.35-4.85-0.61c-5.95-11.33-8.23-24.399-7.62-37.129
			c1.359-2.311,2.06-5.141,4.18-6.92c2.35-0.811,5.54,1.449,7.73-0.371c-1.101-2.119-4.931-2.64-3.87-5.68
			c4.63-2.81,8.359-6.449,11.1-11.13c2.78,0.351,6.3,3.511,8.61,0.681c3.529-2.761-3.811-5.771-0.86-8.801
			c3.91-5.02,8.61-9.55,13.69-13.34c2.619-1.99,5.08,3.939,7.6,1.62c4.95-2.75-3.44-9.021,2.85-11.149
			c4.78-0.921,7.04-13.5,11.931-7.15C111.9,305.23,111.32,294.189,112.04,290.971z M57.35,362.4c-4.81-0.51-12.17,1.76-8.14,7.51
			c5.12-1.46,11.91,1.21,15.63-3.15C65.15,363.35,60.14,361.87,57.35,362.4z"/>
	</g>
</g>
<g>
	<path fill="#3B313D" d="M5.7,312.25c-0.86-6.8-1.091-13.721,0.06-20.49C6.11,298.58,5.93,305.41,5.7,312.25z"/>
</g>
<g>
	<path fill="#9C95A7" d="M418.02,295.98c18.03,0.34,36.09-0.701,54.08,0.67C454.36,296.84,434.26,298.141,418.02,295.98z"/>
</g>
<g>
	<g>
		<path fill="#E0E8FB" d="M420.36,302.33c16.98,0.01,34.09-0.16,51.021,0.189c8.17,1.16,13.909,7.86,13.979,16.15
			c6.29,36.87,15.93,73.58,12.561,111.33c-12.12,2.41-9.171-14.05-17.86-18.08c-11.82-10.97-28.88-5.09-43.18-7.6
			c-12.37,0.92-22.61,10.199-27.12,21.399c-1.33,2.62-1.74,7.23-6.75,4.3c-21.23-0.25-42.51,0.37-63.71-0.229
			c-4.82-14.24-17.88-25.181-33.311-24.71c-19.329-3.46-40.819,5.77-48.18,24.86c-3.479-1.091-9.13,2.27-11.67-1.2
			c-0.21-9.23-0.34-18.471-0.06-27.69c53.31-0.1,106.63-0.05,159.939-0.021c6.4,1.791,13.45-4.43,11.95-11.029
			c0.109-28.33-0.03-56.67,0.03-85C417.47,303.18,418.93,302.68,420.36,302.33z M429.38,308.41c-8.761-2.17-5.83,9.39-5.681,13.89
			c-0.14,17.21-0.42,34.341,0.38,51.61c20.66,0.6,41.58,0.529,62.011,0.24c2.279-7.17-1.811-16.86-2.49-24.811
			c-4.55-13.21-0.03-32.06-13.87-40.05C456.28,307.75,442.84,309.109,429.38,308.41z"/>
	</g>
</g>
<g>
	<g>
		<path fill="#CBCDDF" d="M429.38,308.41c13.46,0.699,26.899-0.66,40.35,0.88c13.84,7.989,9.32,26.84,13.87,40.05
			c0.68,7.95,4.77,17.641,2.49,24.811c-20.431,0.289-41.351,0.359-62.011-0.24c-0.8-17.27-0.52-34.4-0.38-51.61
			C423.55,317.8,420.619,306.24,429.38,308.41z M430.23,318.92c-2.45,3.78-1.27,9.98-0.13,13.93
			c-3.561,4.631,1.09,14.09-0.811,20.44c-1.819,7.2-0.789,17.91,9.311,15.33c8.83-1.81,17.82,1.97,26.49-0.79
			c1.41,1.75,3.89,1.12,5.859,1.23c3.36-0.201,6.761-0.381,10.04-1.24c-3.859-16.291-5.47-33.15-9.3-49.521
			c-8-8.46-21.79-1.45-31.99-4.01C436.25,312.93,427.01,314.24,430.23,318.92z"/>
	</g>
</g>
<g>
	<path fill="#C8E6FB" d="M430.23,318.92c-3.22-4.68,6.021-5.99,9.47-4.63c10.2,2.56,23.99-4.45,31.99,4.01
		c3.83,16.37,5.44,33.23,9.3,49.521c-3.279,0.859-6.68,1.039-10.04,1.24c4.44-3.49,4.82-11.61,1.771-15.74
		c-5.471-1.53-5.37-8.551-10.55-10.42c-2.431-0.891-4.19-2.641-5.07-5.07c-2.351-5.37-9.71-5.62-11.09-11.85
		C441.59,322.73,436.159,316.859,430.23,318.92z"/>
</g>
<g>
	<g>
		<path fill="#C6B3AE" d="M277.28,315.18c13.141-0.33,26.29-0.33,39.44,0c5.1,3.73,0.87,11.6,2.3,16.82
			c-1.34,11.45,2.35,23.82-1.25,34.87c-13.89-0.33-28.6,1.239-42.09-0.54c-1.57-15.34-0.29-31.641-0.67-47.34
			C274.69,317.24,276.13,316.189,277.28,315.18z M281.05,321.04c-0.12,13.64-0.09,27.29-0.01,40.931
			c10.56-1.091,21.56,0.239,31.84-1.201c0.26-13.229,0.14-26.47,0.079-39.709C302.32,320.859,291.68,320.98,281.05,321.04z"/>
	</g>
</g>
<g>
	<g>
		<path fill="#C7B3AF" d="M330.369,315.34c13.12-0.699,26.28-0.32,39.42-0.24c1.07,1.371,2.24,2.961,1.98,4.801
			c-0.5,15.75,0.13,31.31-0.85,47.06c-13.94-0.521-28.7,1.2-42.24-0.63c-1.601-14.67-0.25-30.301-0.68-45.33
			C326.77,317.68,327.56,315.79,330.369,315.34z M334.06,321.061c-0.09,13.26-0.2,26.529,0.06,39.789
			c8.12,1.15,16.641,1.471,24.881,0.32c2.779,0.88,8.42,1.76,6.76-3.029c-0.83-12.011,0.17-24.681-0.42-36.471
			C355.44,319.92,344.35,321.46,334.06,321.061z"/>
	</g>
</g>
<g>
	<path fill="#D9EEFC" d="M430.23,318.92c5.93-2.061,11.36,3.811,15.78,7.061c1.38,6.229,8.74,6.479,11.09,11.85
		c0.88,2.43,2.64,4.18,5.07,5.07c5.18,1.869,5.08,8.89,10.55,10.42c3.05,4.13,2.67,12.25-1.771,15.74
		c-1.97-0.11-4.449,0.52-5.859-1.23c-4.08-7.3-11.75-10.91-15.96-17.93c-7.471-4.61-11.141-12.67-19.03-17.051
		C428.96,328.9,427.78,322.7,430.23,318.92z"/>
</g>
<g>
	<g>
		<path fill="#F1D4BB" d="M281.05,321.04c10.63-0.06,21.27-0.181,31.91,0.021c0.06,13.239,0.18,26.479-0.08,39.709
			c-10.28,1.44-21.28,0.11-31.84,1.201C280.96,348.33,280.93,334.68,281.05,321.04z M287,326.05c-0.101,5.82-1.17,14.62,5.67,17.261
			c4.42,0.949,2.24,8.25,1.31,10.649c-4.95,3.63,7.87,5.74,5.93,1.21c-2.88-3.24-3.97-11.46,1.771-12.52
			c6.46-2.73,4.149-11.19,4.29-16.561C299.65,325.74,293.31,326.01,287,326.05z"/>
	</g>
</g>
<g>
	<g>
		<path fill="#F0D4BB" d="M334.06,321.061c10.29,0.399,21.38-1.141,31.28,0.609c0.59,11.79-0.41,24.46,0.42,36.471
			c1.66,4.789-3.98,3.909-6.76,3.029c-8.24,1.15-16.761,0.83-24.881-0.32C333.86,347.59,333.97,334.32,334.06,321.061z
			 M348.329,326.32c-6.119,0.91-12.3,4.88-12.39,11.609c4,0.08,8.01,0.12,12.02,0.131c0.2,5.199,0.131,10.399-0.199,15.6
			c-1.601,1.949-4.42,3.4-3.801,6.359c7.561,0.051,8.95-10.129,7.141-16.029c-3.15-9.461,8.53-4.99,12.979-6.08
			C363.59,330.59,355.18,325.3,348.329,326.32z"/>
	</g>
</g>
<g>
	<path fill="#C6B3AF" d="M287,326.05c6.31-0.04,12.649-0.31,18.97,0.04c-0.141,5.37,2.17,13.83-4.29,16.561
		c-5.74,1.06-4.65,9.279-1.771,12.52c1.94,4.53-10.88,2.42-5.93-1.21c0.931-2.399,3.11-9.7-1.31-10.649
		C285.83,340.67,286.9,331.87,287,326.05z"/>
</g>
<g>
	<path fill="#C7B4AF" d="M348.329,326.32c6.851-1.021,15.261,4.27,15.75,11.59c-4.449,1.09-16.13-3.381-12.979,6.08
		c1.81,5.9,0.42,16.08-7.141,16.029c-0.619-2.959,2.2-4.41,3.801-6.359c0.33-5.2,0.399-10.4,0.199-15.6
		c-4.01-0.011-8.02-0.051-12.02-0.131C336.03,331.2,342.21,327.23,348.329,326.32z"/>
</g>
<g>
	<path fill="#CBE7FB" d="M429.289,353.29c1.9-6.351-2.75-15.81,0.811-20.44c7.89,4.381,11.56,12.44,19.03,17.051
		c4.21,7.02,11.88,10.629,15.96,17.93c-8.67,2.76-17.66-1.02-26.49,0.79C428.5,371.2,427.47,360.49,429.289,353.29z"/>
</g>
<g>
	<path fill="#9792A2" d="M22.74,368.23c0.229-3.84,0.579-7.67,1.039-11.471c0.2,5.1,0.15,10.19,0.15,15.301L23.16,372
		C23.02,370.74,22.89,369.48,22.74,368.23z"/>
</g>
<g>
	<path fill="#E6E6EE" d="M57.35,362.4c2.79-0.53,7.8,0.949,7.49,4.359c-3.72,4.36-10.51,1.69-15.63,3.15
		C45.18,364.16,52.54,361.891,57.35,362.4z"/>
</g>
<g>
	<path fill="#EFF6FB" d="M93.4,364.311c8.15-3.301,4.29,0.26,2.841,1.949c-8,8.311-16.591,16.061-24.33,24.62
		c1.619,1.92,3.26,3.81,4.619,5.931c1.681-1.051,3.23-2.91,1.33-4.61c11.67-6.82,23.431-13.47,35.07-20.351
		c0.1,5.44-0.16,10.94,0.74,16.351c0.29,0.26,0.859,0.78,1.14,1.05c8.57,1.49,17.37,0.471,26.03,0.811
		c5.29,4.359,9.149,12.359,15.93,13.869c5.351-5.33-4.14-9.609-6.97-13.85c10.79-0.1,21.57-0.12,32.36-0.109
		c1.329,2.42-0.091,4.729-1.2,6.899c-3.931-0.87-8.11-6.99-11.86-3.64c-1.62,4.89,4.55,6.18,7.33,8.72
		c-7.01,6.02-13.64,12.31-19.47,19.5c-2.061-3.12-5.49-10.71-9.87-6.2c-0.08,4.09,3.68,7.09,4.81,10.92
		c-2.649,0.07-5.3,0.021-7.939,0.14c-3.141,0.351-2.78,5.641-5.99,5.721c-3.64,0.79-2.78-6.351-6.63-4.79
		c-2.26,2.13-4.061,4.819-7,6.1c-0.83-4.04,1.479-10.31-3.34-12.57c-5.49,3-2.24,10.37-3.24,15.521c-5.03,0.4-6.56-3.94-5.16-8.04
		c-3.17-3.08-6.479,3.47-8.899,5.55c-5.79,1.98-1.45-7.31-5.841-8.689c-2.85-2.671-3.96,2.489-3.29,4.67
		c-2.279,3.54-2.47-2.98-5.52-1.84c1.77-3.75,10.9-14.95,1.17-13.82c-3.28,4.149-6.34,8.77-7.54,14.01
		c-2.61-0.36-6.4-3.55-3.38-5.82c1.66-1.84,6.21-6.63,1.28-6.899c-7.591-4.45-4.66,9.979-11.75,5.84
		c-6.971-5.971-11.971-13.8-16.13-21.891c1.609,0.261,3.229,0.471,4.85,0.61c1,8.46,12.03-0.67,15.34-3.19
		c0.86-5.629-6.9-3.5-9.85-1.67C72.43,384.189,83.22,374.49,93.4,364.311z"/>
</g>
<g>
	<path fill="#CFD0DF" d="M81.02,388.01c10.771-5.85,20.86-12.939,31.92-18.23c0,0.521-0.01,1.551-0.01,2.07
		c-11.64,6.881-23.4,13.53-35.07,20.351C75.57,390.13,80.09,389.221,81.02,388.01z"/>
</g>
<g>
	<path fill="#E0C8B6" d="M120.02,371.01c86.29-0.57,172.66-0.57,258.96-0.01c0.01,3.99,0.02,7.98,0.02,11.99
		C292.66,383,206.33,383.02,120,382.98C119.99,378.98,120,374.99,120.02,371.01z"/>
</g>
<g>
	<path fill="#48484E" d="M23.16,372l0.77,0.061c0.32,1.35,0.25,2.689-0.2,4.02C22.74,374.95,22.51,373.35,23.16,372z"/>
</g>
<g>
	<path fill="#C0AEAD" d="M120,382.98c86.33,0.039,172.66,0.02,259,0.01l-0.011,0.98c-86.319,0.029-172.64,0.1-258.949-0.041
		L120,382.98z"/>
</g>
<g>
	<path fill="#6E6E78" d="M503.28,384.9c1.24,1.47,1.09,3.47,0.51,5.189C502.42,388.66,502.61,386.6,503.28,384.9z"/>
</g>
<g>
	<path fill="#9092B1" d="M114.81,389.25c33.49-0.109,67.08-1.109,100.51,0.57c-1.79,0.05-5.38,0.15-7.18,0.199l-0.979,0.021
		c-2.681-0.021-5.351-0.021-8.011,0c-2.04-0.04-4.09-0.069-6.13-0.05c-3.64-0.04-7.24-0.02-10.859-0.02
		c-10.79-0.011-21.57,0.01-32.36,0.109c-3-0.07-5.97-0.04-8.96-0.02C132.18,389.721,123.38,390.74,114.81,389.25z"/>
</g>
<g>
	<path fill="#9393B3" d="M239.71,389.721c48.04-1.561,96.359-0.57,144.5-0.441c-45.811,1.73-92.17,0.201-138.19,0.721
		C243.91,389.93,241.81,389.84,239.71,389.721z"/>
</g>
<g>
	<path fill="#CCCDDE" d="M140.84,390.061c2.99-0.021,5.96-0.051,8.96,0.02c2.83,4.24,12.32,8.52,6.97,13.85
		C149.99,402.42,146.13,394.42,140.84,390.061z"/>
</g>
<g>
	<path fill="#E1E7F0" d="M182.16,389.971c3.619,0,7.22-0.021,10.859,0.02c-4.52,13.609-12.75,26.039-23.99,35.029
		c-28.29,23.53-74,22.49-100.199-3.77c7.09,4.14,4.16-10.29,11.75-5.84c4.93,0.27,0.38,5.061-1.28,6.899
		c-3.021,2.271,0.77,5.46,3.38,5.82c2.07,1.061,4.36,0.93,6.37-0.189c3.05-1.141,3.24,5.38,5.52,1.84
		c-0.67-2.181,0.44-7.34,3.29-4.67c4.391,1.38,0.051,10.67,5.841,8.689c2.42-2.08,5.729-8.63,8.899-5.55
		c-1.399,4.1,0.13,8.44,5.16,8.04c2.53,4.72,6.84,1.46,6.58-2.95c2.939-1.28,4.74-3.97,7-6.1c3.85-1.561,2.99,5.58,6.63,4.79
		c3.21-0.08,2.85-5.37,5.99-5.721c2.64-0.119,5.29-0.069,7.939-0.14c1.341,2.45,5.03,4.34,7.03,1.59c0.17-2.279-1.21-4.26-1.97-6.31
		c5.83-7.19,12.46-13.48,19.47-19.5c2.311,0.68,5.59,3.54,7.46,0.819c0.95-2.649-0.8-4.64-2.93-5.899
		C182.07,394.7,183.49,392.391,182.16,389.971z"/>
</g>
<g>
	<path fill="#CFDAEF" d="M207.16,390.04l0.979-0.021c-7.54,39.24-47.09,67.79-86.24,66.891c-32.97,1.92-65.55-17.9-81.149-46.79
		c7.5,2.43,6.05,11.979,13.71,14.43c3.729,7,11.569,9.57,16.53,15.47c6.409,1.351,10.479,7.051,17.01,7.9
		c5.59-0.5,9.18,5.72,15.02,3.75c3.181-0.96,6.07-0.15,8.45,1.8c6.14,2.601,12.62-1.59,18.89-1.01c12.11,3.4,20.16-8.14,31.54-8.61
		c17.141-8.119,30.9-22.54,39.73-39.209C202.66,399.471,203.5,394.17,207.16,390.04z"/>
</g>
<g>
	<path fill="#C9C9DB" d="M169.1,393.23c3.75-3.351,7.93,2.77,11.86,3.64c2.13,1.26,3.88,3.25,2.93,5.899
		c-1.87,2.721-5.149-0.14-7.46-0.819C173.65,399.41,167.48,398.12,169.1,393.23z"/>
	<path fill="#C9C9DB" d="M147.09,415.25c4.38-4.51,7.81,3.08,9.87,6.2c0.76,2.05,2.14,4.03,1.97,6.31c-2,2.75-5.69,0.86-7.03-1.59
		C150.77,422.34,147.01,419.34,147.09,415.25z"/>
</g>
<g>
	<path fill="#DFE0EA" d="M63.04,395.109c2.95-1.83,10.71-3.959,9.85,1.67c-3.31,2.521-14.34,11.65-15.34,3.191
		C59.35,398.311,61.25,396.779,63.04,395.109z"/>
</g>
<g>
	<path fill="#AEAABC" d="M240.36,392.721c1.23,12.629,1.23,25.85-0.27,38.35C240.03,418.279,239.76,405.49,240.36,392.721z"/>
</g>
<g>
	<path fill="#ECECFA" d="M288.38,411.43c10.47-0.43,22.229-2.439,31.569,3.641c12.71,6.66,17.19,23.319,15.38,36.279
		c-8.109,3.32-4.229-10.409-7.39-14.3c-6.37-21.28-35.2-27.59-51.069-13.17c-7.841,6.61-10.62,17.021-11.11,26.87
		c-1.12,2.4-3.96,0.77-5.67,0.01C259.32,433.2,270.08,414.66,288.38,411.43z"/>
</g>
<g>
	<path fill="#CACADC" d="M117.76,436.29c1-5.15-2.25-12.521,3.24-15.521c4.819,2.261,2.51,8.53,3.34,12.57
		C124.6,437.75,120.29,441.01,117.76,436.29z"/>
</g>
<g>
	<g>
		<path fill="#ECECFB" d="M446.39,424.4c12.76-2.9,25.87,6.649,28.02,19.27c3.42,14.43-9.85,28.88-24.3,28.2
			c-14.78-0.75-26.859-16.25-21.89-30.72C430.539,432.67,437.96,426.36,446.39,424.4z M446.329,435.28
			c-11.17,3.75-11.47,20.68-0.689,25.1c9.6,4.32,21.18-5.6,17.78-15.729C462.11,437.09,453.31,433.31,446.329,435.28z"/>
	</g>
	<path fill="#ECECFB" d="M492.07,436.02c2.73,0.011,8.181,0.011,10.9,0.011c-0.021,3.689-0.05,11.069-0.07,14.76
		c-3.13,0.78-6.79,1.84-9.689-0.04C492.829,445.84,492.449,440.93,492.07,436.02z"/>
</g>
<g>
	<g>
		<path fill="#CBCBDC" d="M294.38,435.39c12.8-4.449,22.87,13.95,12.439,22.44c-7.569,7.77-23.319,1.16-21.829-9.83
			C284.05,442.3,288.9,436.44,294.38,435.39z M295.28,443.16c-5.04,2.7-2.079,12.79,4.391,9.57
			C306.19,450.78,302.079,439.83,295.28,443.16z"/>
	</g>
</g>
<g>
	<g>
		<path fill="#CCCCDE" d="M446.329,435.28c6.98-1.971,15.78,1.81,17.091,9.37c3.399,10.13-8.181,20.05-17.78,15.729
			C434.86,455.96,435.159,439.03,446.329,435.28z M448.25,443.12c-7.461,4.2,1.38,14.689,6.819,7.91
			C457.699,446.99,453.46,440.73,448.25,443.12z"/>
	</g>
</g>
<g>
	<path fill="#A39EB0" d="M236.73,451.26c-1.04-5.1-1.16-10.42,0.061-15.49C236.97,440.93,236.81,446.08,236.73,451.26z"/>
</g>
<g>
	<path fill="#313135" d="M509.3,436.71c1.72,4.28,0.529,9.11-0.101,13.51C509.23,445.71,509.21,441.2,509.3,436.71z"/>
</g>
<g>
	<path fill="#EAEAF9" d="M448.25,443.12c5.21-2.39,9.449,3.87,6.819,7.91C449.63,457.81,440.789,447.32,448.25,443.12z"/>
</g>
<g>
	<path fill="#90899A" d="M242.75,457.26c4.529-0.689,8.26-0.42,11.16,0.83C250.17,458,246.45,457.72,242.75,457.26z"/>
</g>
<g>
	<path fill="#9992A4" d="M328.06,458.03c13.08-2.82,28.92-0.11,42.9-0.99l0.17,0.99l-0.92,0.069
		C356.159,457.98,342.11,457.95,328.06,458.03z"/>
</g>
<g>
	<path fill="#606068" d="M370.96,457.04c11.05,0.22,22.239-0.99,33.189,0.9c-11.01,0.04-22.02,0.05-33.02,0.09L370.96,457.04z"/>
</g>
<g>
	<path fill="#94949F" d="M410.73,457.95c3.771-1.41,7.15-1.37,10.15,0.1C417.5,457.96,414.079,457.91,410.73,457.95z"/>
</g>
<g>
	<path fill="#93939E" d="M481.11,458.07c3.17-1.2,6.79-1.561,10.86-1.09l0.05,1.02C488.39,458.02,484.72,457.98,481.11,458.07z"/>
</g>
<g>
	<path fill="#606068" d="M491.97,456.98c3.45,0,6.83,0.189,10.31,0.329c-3.27,1.221-6.89,0.561-10.26,0.69L491.97,456.98z"/>
</g>
<g>
	<path fill="#57575D" d="M404.15,457.94c2.04,1.319,2.23,3.71,0.57,7.159C403.18,463.07,402.98,460.68,404.15,457.94z"/>
</g>
<g>
	<path fill="#6C6C75" d="M410.31,465.01c-1.15-2.689-1-5.05,0.42-7.06C411.81,460.29,411.659,462.64,410.31,465.01z"/>
</g>
<g>
	<path fill="#65656D" d="M111.75,463.26c5.85-0.149,11.71-0.149,17.55,0.17C123.49,464.35,117.55,464.13,111.75,463.26z"/>
</g>
<g>
	<path fill="#8F8799" d="M293.75,479.25c3.189,0,6.34,0.02,9.55,0.09C300.199,480.45,296.88,479.77,293.75,479.25z"/>
</g>
<g>
	<path fill="#5A5A62" d="M445.77,479.19c3.5-0.03,6.94-0.03,10.47,0.04C452.73,480.08,449.24,480.07,445.77,479.19z"/>
</g>
</svg>
