<?xml version="1.0" encoding="utf-8"?>
<!-- Generator: Adobe Illustrator 16.0.0, SVG Export Plug-In . SVG Version: 6.00 Build 0)  -->
<!DOCTYPE svg PUBLIC "-//W3C//DTD SVG 1.1//EN" "http://www.w3.org/Graphics/SVG/1.1/DTD/svg11.dtd">
<svg version="1.1" id="Layer_1" xmlns="http://www.w3.org/2000/svg" xmlns:xlink="http://www.w3.org/1999/xlink" x="0px" y="0px"
	 width="512px" height="504px" viewBox="0 0 512 504" enable-background="new 0 0 512 504" xml:space="preserve">
<g>
	<path fill="#CCCCDE" d="M313.43,4.09c1.99-0.1,3.979-0.12,5.979-0.16c0.12,5.63,0,11.26,0.07,16.88c-2,0.02-4,0.03-6,0.03
		C313.47,15.26,313.55,9.67,313.43,4.09z"/>
	<path fill="#CCCCDE" d="M278.42,14.99c1.71-1.01,3.439-2,5.18-2.98c2.75,4.9,5.65,9.71,8.37,14.63c-1.72,0.97-3.43,1.95-5.15,2.93
		C284.03,24.7,281.21,19.85,278.42,14.99z"/>
	<path fill="#CCCCDE" d="M349.32,12.02c1.75,0.96,3.48,1.96,5.21,2.97c-2.819,4.8-5.52,9.68-8.39,14.46
		c-1.83-0.74-3.46-1.89-5.18-2.85C343.72,21.73,346.57,16.9,349.32,12.02z"/>
	<g>
		<path fill="#CCCCDE" d="M289.71,44.49c8.1-6.73,18.67-10.6,29.25-9.83c16.18,0.86,31.02,12.2,36.619,27.32
			c4.761,11.88,3.04,26.09-5.029,36.12c-4.391,6.09-10.21,11.4-12.9,18.54c-1.2,6.37-1.1,12.9-1.35,19.35
			c0.01,2.44-1.271,4.55-2.511,6.55c-1.479-1.04-2.979-2.07-4.47-3.09c1.59-4.45,0.92-9.2,0.811-13.81
			c-6.381-0.45-12.771,0.22-19.15-0.03c-1.77-0.15-3.52,0.12-5.02,1.11c-3.521-1.44-6.971-3.06-10.58-4.26
			c-0.28-7.1-6.33-11.55-9.58-17.31c-4.91-5.96-8.4-12.98-10.48-20.4c-1.119-7.04-0.55-14.32,1.101-21.23
			C279.16,56.21,283.92,49.7,289.71,44.49z M299.07,44.89c-9.229,5.16-16.159,14.47-17.819,24.98c-1.16,7.6-0.24,15.79,3.89,22.41
			c0.62,1.02,1.23,2.05,1.84,3.09c1.84,3.1,4,5.98,6.25,8.8c0.78,1.14,1.55,2.28,2.34,3.42c1.9,2.77,3.58,5.69,4.88,8.8
			c0.19,0.95,0.38,1.9,0.57,2.86c0.65,0.01,1.94,0.04,2.59,0.05c9.04,0.31,18.11,0.24,27.141-0.02
			c2.199-12.16,12.64-19.97,18.359-30.31c3.24-5.46,3.55-12.09,2.75-18.24c-0.31-1.33-0.6-2.67-0.87-4
			c-0.88-3.63-2.54-7-4.399-10.21c-0.811-1.01-1.62-2.02-2.42-3.02c-2.021-2.8-4.721-4.98-7.471-7c-1.37-0.77-2.739-1.53-4.109-2.3
			C322.15,39.2,309.27,39.33,299.07,44.89z"/>
	</g>
	<path fill="#CCCCDE" d="M256.34,37.06c5.2,2.01,9.58,5.63,14.55,8.13c-0.66,1.92-1.41,3.83-2.72,5.41
		c-4.13-2.58-8.391-4.93-12.7-7.18C252.62,41.86,255.39,38.92,256.34,37.06z"/>
	<path fill="#CCCCDE" d="M361.85,45.31c4.9-2.78,9.7-5.73,14.67-8.38c0.94,1.72,1.91,3.43,2.87,5.13
		c-4.851,2.81-9.7,5.62-14.561,8.41C363.829,48.76,362.84,47.04,361.85,45.31z"/>
	<g>
		<path fill="#CCCCDE" d="M148.28,63.26c4.54-3.18,11.211-5.13,16.16-1.76c4.34,2.44,6.17,8.46,4.13,12.95
			c-1.63,4.07-4.88,7.13-7.819,10.26c-22.99,25.02-45.8,50.2-68.83,75.17c-3.28,3.99-8.95,4.67-13.59,2.95
			c-1.971-0.99-3.601-2.52-5-4.2c-10.971-13.06-21.95-26.12-32.95-39.16c-5.11-5.22-5.75-14.4-0.88-19.97
			c4.68-4.89,13.02-5.49,18.51-1.6c6.13,4.23,12.22,8.55,18.36,12.78c3.029,2.24,7.319,2.67,10.659,0.87
			c3.311-1.99,6.471-4.45,8.25-7.94c1.29-0.41,2.641-0.77,3.69-1.66C115.74,89.48,131.82,76.12,148.28,63.26z M155.19,66.43
			c-3.699,1.6-6.489,4.64-9.72,6.99c-17.57,13.39-34.71,27.35-52.07,41.01c-5.17,4.26-12.939,5.43-18.85,2.04
			c-7.94-4.48-14.76-10.71-22.74-15.13c-6.42-2.48-12.95,6.15-8.75,11.61c9.88,12.45,20.37,24.39,30.561,36.58
			c2.33,2.89,4.54,6.06,7.689,8.12c1.78,0.28,4,0.53,5.33-0.99c4.03-3.65,7.17-8.15,10.97-12.03
			c19.95-22.03,40.011-43.94,60.261-65.71c2.39-2.8,5.989-5.47,5.739-9.57C162.35,66.03,158.26,64.65,155.19,66.43z"/>
	</g>
	<path fill="#CCCCDE" d="M245.08,72.07c5.609-0.83,11.319,0.18,16.989-0.01c0.37,2.07,0.811,4.2,0.19,6.27
		c-5.45-0.4-10.91-0.42-16.36-0.42C244.5,76.23,244.63,74.08,245.08,72.07z"/>
	<path fill="#CCCCDE" d="M370.579,77.92c0-1.99,0.011-3.98,0.04-5.98c5.61,0.05,11.221,0.05,16.83,0c-0.01,2-0.01,4-0.01,6.01
		C381.82,77.87,376.199,77.99,370.579,77.92z"/>
	<path fill="#CCCCDE" d="M253.33,107.87c4.859-2.82,9.8-5.54,14.739-8.24c1.171,1.59,2.101,3.34,2.86,5.16
		c-4.83,2.57-9.46,5.49-14.28,8.07C255.4,111.29,254.32,109.6,253.33,107.87z"/>
	<path fill="#CCCCDE" d="M361.949,104.64c0.75-1.81,1.771-3.48,2.99-4.99c4.63,2.9,10.07,4.55,14.14,8.29
		c-0.77,1.64-1.56,3.26-2.38,4.87C371.39,110.84,366.86,107.38,361.949,104.64z"/>
	<path fill="#CCCCDE" d="M388.34,146.07c5.79-0.81,11.63-0.19,17.43-0.01c1.54,5.32,1.44,10.95,2.9,16.27
		c1.72,1.55,5.29,2.46,6.949,0.28c3.521-3.73,6.57-7.91,10.431-11.33c5,3.02,9.91,6.19,15.16,8.77c-2.141,5.33-4.37,10.61-6.33,16
		c1.08,1.23,2.05,2.65,3.52,3.46c6.04,0.69,11.33-3.84,17.19-4.05c3.52,4.4,5.72,9.69,8.46,14.58
		c-4.021,4.01-9.08,6.85-12.891,11.03c0.3,2.1,0.59,5.05,2.94,5.81c5.04,1.8,10.49,1.9,15.649,3.28c-0.01,0.6-0.029,1.82-0.05,2.42
		c-0.989,5.05-0.359,10.2-0.75,15.29c-5.43,0.8-10.989,1.16-16.25,2.77c-0.87,1.82-1.859,3.95-1.34,5.99
		c1.53,1.72,3.46,3.01,5.21,4.5c1.021,0.85,2.021,1.75,3.021,2.63c1.38,1.23,2.779,2.44,4.18,3.65c-1.82,3.87-4.17,7.46-6.21,11.22
		c-0.97,1.36-1.99,2.681-3.03,3.979c-5.08-2.18-10.29-4.01-15.56-5.67c-1.29,1.09-2.66,2.131-3.7,3.48
		c0.82,5.62,3.13,10.92,5.09,16.221c-1.21,0.979-2.439,1.93-3.689,2.83c-3.851,2.079-7.521,4.449-11.431,6.409
		c-3.5-3.58-6.359-7.69-9.47-11.59c-1.75-2.54-5.03-0.44-7.28,0.16c-1.27,5.489-2.02,11.079-3.399,16.55
		c-4.04,0.32-8.091,0.27-12.131,0.109c0.4-2.06,0.78-4.129,1.091-6.199c2.12-0.03,4.239-0.051,6.37-0.08
		c0.489-5.26,1.779-10.38,2.949-15.52c2.521-0.621,5.021-1.34,7.511-2.08c1.909-0.551,3.84-1.01,5.75-1.561
		c3.09,4.15,6.38,8.16,9.85,11.99c2.3,0.21,4.39-2.03,6.52-2.96c-1.6-5.261-3.68-10.36-5.09-15.681c3.23-2.93,6.41-5.939,9.19-9.31
		c5.37,1.32,10.33,3.86,15.62,5.42c1.149-2.03,2.279-4.06,3.39-6.11c-4-3.63-7.89-7.42-12.24-10.63c0.521-1.79,0.94-3.61,1.471-5.39
		c0.79-2.56,1.51-5.14,2.06-7.76c5.05-1.3,10.24-1.87,15.37-2.7c1.71-2.09,0.08-5.09,0.01-7.49c-5.12-1.32-10.35-2.04-15.54-2.93
		c-0.63-4.5-1.859-8.87-3.31-13.17c3.89-3.57,8.229-6.58,12.229-10.01c-0.939-2.32-2.13-4.53-3.43-6.67
		c-5.33,1.34-10.28,4.14-15.7,4.94c-3.18-2.93-5.81-6.42-9.13-9.23c1.51-5.13,3.39-10.15,5.51-15.06c-1.979-1.43-4.08-2.69-6.26-3.8
		c-3.99,3.7-6.74,8.78-11.13,11.94c-4.31-0.74-8.47-2.2-12.71-3.26c-0.42-2.35-0.85-4.69-1.23-7.04c-0.25-1.43-0.479-2.87-0.689-4.3
		c-0.22-1.5-0.41-2.99-0.601-4.49c-2.52-0.13-5.029-0.13-7.54,0.01c-0.939,4.76-2.01,9.5-2.42,14.35
		c-0.949,0.86-1.97,1.64-3.13,2.19c-3.59,0.71-7.1,1.74-10.6,2.79c-3.8-3.81-6.62-8.43-10.24-12.39c-2.22,1.06-4.4,2.26-6.24,3.92
		c0.58,2.1,1.07,4.22,1.561,6.35c-2.971-3.27-5.771-6.69-8.92-9.78c4.91-2.37,9.88-4.9,13.91-8.65c0.88,0.54,1.75,1.1,2.619,1.68
		c2.83,4.38,6.2,8.39,10.15,11.8c1.66-0.47,3.33-0.92,5-1.36C386.27,157.31,386.52,151.53,388.34,146.07z"/>
	<path fill="#CCCCDE" d="M380.98,182.31c8.31-3.12,17.78-4.78,26.35-1.64c12.851,3.43,23.11,14,27.301,26.48
		c1.409,5.49,2,11.23,1.52,16.88c-2.11,11.72-9.13,22.6-19.47,28.691c-6.391,3.579-13.67,6.399-21.13,5.549
		c-0.11-2.26-0.271-4.51-0.44-6.76c6.88,2.391,13.83-1.61,19.86-4.63c7.17-3.55,10.93-11.09,13.72-18.2
		c2.81-7.55,1.5-15.89-1.03-23.32c-5.16-12.28-18.25-20.94-31.67-20.09c-6.64,0.1-13.96,1.57-18.8,6.44
		c-1.03-1.88-2.06-3.76-3.17-5.59C376.329,184.84,378.659,183.59,380.98,182.31z"/>
	<path fill="#CCCCDE" d="M383.35,204.16c5.06-3.45,11.14-6.14,17.39-4.97c4.561,1.6,8.86,4.34,11.98,8.07
		c3,4.85,4.33,10.91,3.08,16.53c-1.61,5.41-5.84,9.77-10.67,12.5c-3.551,2.04-7.761,1.66-11.681,1.59
		c-0.38-2.17-0.81-4.32-1.26-6.47c4.19,1.06,8.87,0.93,12.47-1.73c5.28-3.3,6.74-10.56,4.59-16.13
		c-6.22,5.1-11.369,11.33-17.279,16.75c-0.32-1.33-0.641-2.65-0.98-3.97c5.67-5.22,11.2-10.63,16.37-16.35
		c-2.43-2.74-6.189-5.57-10-4.54c-3.67,2.62-6.439,6.28-9.91,9.14C386.199,211.06,384.829,207.59,383.35,204.16z"/>
	<path fill="#CCCCDE" d="M63.54,220.72c4.81-3.64,9.479-7.48,14.47-10.88c5.18,3.82,9.14,8.97,14.09,13.06
		c1.82,1.55,3.57,3.19,5.26,4.88c1.79-0.44,3.58-0.91,5.37-1.39c-0.569,2.23-1.05,4.49-1.52,6.75c-1.67,0.64-3.271,1.75-5.11,1.77
		c-6.6-5-11.649-11.74-18.189-16.81c-4.5,1.44-7.95,5.6-11.92,8.25c2.939,5.42,5.21,11.18,8.289,16.53
		c1.271,2.21,2.221,4.58,3.08,6.98c-4.26,4.669-8.08,9.69-11.63,14.91c-8.529-1.25-16.55-4.859-25.149-5.549
		c-1.74,4.27-4.12,8.299-5.42,12.739c0.64,1.3,2.149,1.84,3.27,2.66c5.061,2.899,9.58,6.601,14.59,9.59
		c1.021,0.64,2.03,1.319,3.05,1.979c0.011,0.73,0.04,2.201,0.051,2.94c-0.58,2.899-1.24,5.79-1.54,8.729
		c-0.301,2.65-0.5,5.311-0.71,7.971c-2.36,0.58-4.71,1.21-7.04,1.88c-5.891,1.82-11.891,3.261-17.681,5.36
		c0.42,4.439,0.971,8.88,1.63,13.289c1.301,1.721,3.7,1.281,5.58,1.58c2.841,0.131,5.681,0.311,8.511,0.471
		c2.979,0.199,5.97,0.25,8.96,0.449c0.77,0.111,2.31,0.311,3.09,0.421c1.97,6.069,4.72,11.84,7.12,17.75
		c-5.82,6.29-11.96,12.29-17.771,18.6c0.69,0.91,1.391,1.83,2.09,2.74c0.801,1.06,1.631,2.09,2.41,3.17
		c1.38,1.89,2.771,3.79,4.25,5.61c7.99-3.09,15.01-8.301,23.141-11.08c5.279,3.619,10.29,7.779,15.42,11.68
		c-0.601,2.48-1.2,4.96-1.771,7.46c-0.43,1.931-0.81,3.87-1.27,5.8c-1.16,3.74-2.17,7.53-3.07,11.35
		c4.271,2.44,9,3.951,13.521,5.851c4.489-6.3,8.689-12.8,12.829-19.34c0.681-1.09,1.53-2.74,3.141-1.899
		c5.75,1.6,11.71,1.479,17.55,2.369c0.82,2.971,1.65,5.94,2.53,8.9c0.54,1.75,1.12,3.49,1.64,5.26c0.93,3.471,1.811,6.95,2.83,10.4
		c4.78-0.391,9.55-0.99,14.35-1.34c1.341-8.391,1-17.011,2.12-25.44c0.82-1.2,2.19-1.84,3.33-2.7c2.07,1.46,4.12,2.939,6.26,4.33
		c-1.369,0.82-2.729,1.65-4.079,2.5c-0.03,8.971-1.391,17.88-1.391,26.859c-8.09,0.16-16.07,1.531-23.979,3.061l-0.721-0.29
		c-2.68-8.479-5.05-17.04-7.51-25.58c-3.93-0.329-7.82-1.069-11.67-1.909c-5.15,7.329-10.01,14.859-14.56,22.569
		c-7.67-3.22-15.561-5.97-22.98-9.79c0.83-8.9,4.59-17.141,6.07-25.91c-3.12-2.279-6.2-4.63-9.101-7.189
		c-8.5,3.18-15.949,8.539-24.35,11.89c-4.78-6.739-10.37-12.88-14.75-19.91c5.65-6.729,12.69-12.2,17.91-19.28
		c-1.2-3.569-2.48-7.119-3.78-10.649c-8.58-0.57-17.13-1.64-25.74-1.75c-1.979,0.33-1.569-2.149-1.84-3.32
		c-0.22-7.28-3.03-14.34-2.1-21.659c3.41-0.891,6.75-2.021,10.069-3.171c5.061-1.819,10.58-2.11,15.461-4.479
		c0.17-3.801,0.489-7.6,0.949-11.37c-7.18-5.36-15.029-9.771-22.18-15.2c3.06-7.48,6.56-14.779,9.73-22.22
		c8.739,0.95,16.93,4.44,25.619,5.72c2.42-2.84,4.931-5.64,6.96-8.78c0.101-2.51-1.56-4.71-2.579-6.91
		c-3.25-5.56-5.721-11.52-8.54-17.3C60.21,223.41,61.9,222.09,63.54,220.72z"/>
	<path fill="#CCCCDE" d="M86.29,272.061c3.72-4,6.96-8.59,11.68-11.531c0.01,2.381,0.14,4.75,0.24,7.131
		c-14.22,12.77-19.96,33.57-15.62,52.01c3.04,14.57,12.5,27.811,25.5,35.141c5.04,3.479,11.09,4.83,16.9,6.42
		c3.499,0.789,7.22,1.49,10.729,0.34c1.87,2.08,3.75,4.16,5.72,6.15c-7.51,1.479-15.13,0.119-22.37-1.971
		c-1.909-0.54-3.8-1.13-5.64-1.84c-12.16-5.03-22.68-13.811-29.56-25.04c-0.65-1.05-1.261-2.13-1.841-3.22
		c-4.489-8.631-6.869-18.2-6.979-27.93c-0.03-1.641,0.01-3.281,0.11-4.91c0.949-6.801,2.529-13.531,5.26-19.851
		C82.3,279.279,84.22,275.63,86.29,272.061z"/>
	<path fill="#CCCCDE" d="M375.99,336.721c1.641-2.881,3.101-5.861,4.59-8.811c1.37,1.71,2.771,3.41,3.99,5.26
		c0.68,1.23,1.311,2.5,1.97,3.76c1.49,2.881,3.28,5.58,4.9,8.4c0.44,0.79,0.86,1.609,1.29,2.43c-4.99,4.37-10.39,8.24-15.52,12.43
		c-2.011,1.201-0.86,3.551-0.61,5.34c0.34,1.531,0.63,3.101,1.189,4.591c2.49,1.149,5.311,1.25,7.98,1.76
		c1.38,0.22,2.77,0.479,4.14,0.75c3.2,0.66,6.38,1.351,9.58,2.011c1.62,6.939-0.43,14.119,0.19,21.199
		c-7.021,1.35-14.141,2.2-21.09,3.91c-1.23,2.7-2.181,5.5-3,8.34c5.05,5.42,11.449,9.37,16.489,14.83
		c-3.439,6.33-6.119,13.28-10.96,18.71c-6.479-3.29-13.409-5.43-20.21-7.92c-2.279,1.97-4.779,3.86-6.279,6.53
		c2.43,6.85,4.54,13.81,7.29,20.55c-5.74,4.34-12.32,7.43-18.771,10.56c-5.18-5.18-9-11.489-14.05-16.76
		c-2.69,1.05-6.06,1.08-8.21,3.11c-2.4,6.79-2.93,14.05-4.95,20.95c-6.95-0.511-13.91,1.18-20.8-0.04
		c-1.88-7.19-2.46-14.61-3.81-21.891c-2.96-0.72-5.91-1.42-8.87-2.109c-4.86,5.54-9.32,11.43-14.3,16.87
		c-5.94-4.171-13.03-6.521-18.521-11.33c2.561-6.62,4.84-13.36,7.19-20.061c-1.01-2.87-3.98-4.59-6.05-6.72
		c-6.69,3.04-13.86,4.74-20.82,7.04c-4.19-5.811-7.14-12.37-10.91-18.44c4.23-3.899,9.33-6.72,13.34-10.86
		c2.98,0.25,5.95,0.48,8.93,0.621c-4.539,4.16-9.51,7.819-14.27,11.71c1.6,3.279,3.67,6.31,5.31,9.579
		c7.07-1.479,13.721-4.489,20.5-6.92c3.46,4.391,7.511,8.19,11.78,11.78c-2.58,6.69-5.33,13.33-7.689,20.11l1.119,0.58
		c1.29,0.71,2.54,1.47,3.811,2.229c1.64,0.69,3.2,2.49,5.08,2.09c4.97-4.8,8.95-10.55,13.81-15.479c5.16,1.72,10.49,2.83,15.75,4.22
		c0.49,2.51,0.98,5.021,1.42,7.55c0.24,1.42,0.47,2.87,0.68,4.311c0.381,3.09,0.79,6.18,1.511,9.21c3.62-0.34,7.5,0.38,10.95-0.59
		c1.63-6.82,2.76-13.761,4.39-20.591c5.24-1.119,10.71-1.89,15.439-4.569c0.83,0.979,1.66,1.95,2.471,2.96
		c3.609,4.68,7.68,9,11.09,13.84c3.479-1.55,6.77-3.49,9.89-5.68c-2.37-6.66-4.8-13.301-6.88-20.061
		c4.101-3.7,7.94-7.649,11.72-11.68c6.591,2.43,13.131,4.979,19.681,7.55c2.09-3.15,3.979-6.42,5.6-9.84
		c-4.92-3.8-9.29-8.22-14.12-12.12c-0.79-0.68-1.569-1.359-2.34-2.04c2.94-4.771,2.99-10.61,5.021-15.66
		c6.84-1.26,13.72-2.43,20.6-3.489c-0.07-3.61-0.05-7.221,0.13-10.82c-3.09-1.12-6.34-1.561-9.57-2.051
		c-1.359-0.229-2.699-0.52-4.04-0.779c-2.52-0.52-5.02-1.09-7.51-1.7c-1.33-5.22-2.41-10.521-4.22-15.601
		c5.03-5.039,11.37-8.649,16.27-13.77c-1.58-3.199-3.319-6.449-5.739-9.08C378.22,336.88,376.73,336.779,375.99,336.721z"/>
	<path fill="#CCCCDE" d="M348.26,371.67c1.63-1.55,3.229-3.109,4.819-4.699c4.511,11.299,4.641,24.129,0.261,35.489
		c-1.551,3.979-3.45,7.819-5.561,11.53c-3.84,4.71-8.109,9.029-12.84,12.859c-3.65,2.17-7.43,4.131-11.38,5.69
		c-6.25,2.32-12.94,3.39-19.6,3.56c-4.98-0.52-9.92-1.6-14.71-3.029c-1.36-0.511-2.681-1.061-3.98-1.67
		c-9.29-4.36-17.859-11.211-22.67-20.391c2.26-0.27,4.53-0.57,6.79-0.9c2.44,6.57,8.84,10.281,14.29,14.11
		c8.36,4.3,18.04,6.7,27.439,5.07c20.16-1.34,37.881-19.08,38.83-39.32C350.93,383.84,350.51,377.48,348.26,371.67z"/>
</g>
<g opacity="0.2">
	<path fill="#2CC73B" d="M162,40.91c20.96-9.68,44.279-14.09,67.319-12.93C166.02,91.78,102.2,155.07,38.8,218.77
		c-1.89,1.82-3.6,4.09-6.25,4.82c11.01-19.55,27.12-36.09,45.51-48.85c-0.01-3.98,0.05-7.95,0.271-11.91
		c4.64,1.72,10.31,1.04,13.59-2.95c23.03-24.97,45.84-50.15,68.83-75.17c2.939-3.13,6.189-6.19,7.819-10.26
		c2.04-4.49,0.21-10.51-4.13-12.95c-4.949-3.37-11.62-1.42-16.16,1.76c-16.46,12.86-32.539,26.22-49.31,38.69
		c-1.05,0.89-2.4,1.25-3.69,1.66C109.79,76.12,133.78,53.86,162,40.91z"/>
	<path fill="#2CC73B" d="M233.54,28.24c4.6,0.44,9.189,0.87,13.729,1.75c-25.109,25.67-50.75,50.82-76.06,76.28
		C122.4,155.07,73.6,203.89,24.8,252.71c-1.93,1.96-3.81,3.979-5.99,5.66c-0.42-0.03-1.24-0.091-1.66-0.13
		c2.36-8.021,5.341-15.91,9.13-23.35c3.86-1.82,6.49-5.24,9.471-8.14C98.08,164.43,160.41,102.1,222.74,39.78
		C226.43,36.02,230.41,32.51,233.54,28.24z"/>
	<g>
		<path fill="#2CC73B" d="M251.27,30.67c13.36,2.85,26.36,7.42,38.44,13.82c-5.79,5.21-10.55,11.72-13.29,19.03
			c-1.65,6.91-2.22,14.19-1.101,21.23c2.08,7.42,5.57,14.44,10.48,20.4c3.25,5.76,9.3,10.21,9.58,17.31
			c-28.601-9.94-60.271-10.87-89.351-2.39c-39.38,11.2-73.54,39.44-91.829,76.08c-1.32,0.39-2.62,0.78-3.931,1.17
			c-0.02,2.32,0,4.64-0.02,6.96c-3.08,7.17-5.561,14.57-7.521,22.11c-1.79,0.48-3.58,0.95-5.37,1.39
			c-1.689-1.69-3.439-3.33-5.26-4.88c-4.95-4.09-8.91-9.24-14.09-13.06c-4.99,3.4-9.66,7.24-14.47,10.88
			c-0.011-3.26,3.399-4.83,5.26-7.02c57.33-57.31,114.64-114.64,171.97-171.95C244.35,38.13,248.17,34.73,251.27,30.67z
			 M256.34,37.06c-0.95,1.86-3.72,4.8-0.87,6.36c4.31,2.25,8.57,4.6,12.7,7.18c1.31-1.58,2.06-3.49,2.72-5.41
			C265.92,42.69,261.54,39.07,256.34,37.06z M245.08,72.07c-0.45,2.01-0.58,4.16,0.819,5.84c5.45,0,10.91,0.02,16.36,0.42
			c0.62-2.07,0.18-4.2-0.19-6.27C256.4,72.25,250.69,71.24,245.08,72.07z M253.33,107.87c0.989,1.73,2.069,3.42,3.319,4.99
			c4.82-2.58,9.45-5.5,14.28-8.07c-0.76-1.82-1.69-3.57-2.86-5.16C263.13,102.33,258.19,105.05,253.33,107.87z"/>
	</g>
	<g>
		<path fill="#2CC73B" d="M350.55,98.1c14.92,0.88,30.04,0.63,44.72,3.87c-12.74,13.31-26,26.12-38.97,39.21
			c-3.67,3.56-6.98,7.55-11.261,10.42c-3.64-3.16-7.329-6.26-11.25-9.06c1.24-2,2.521-4.11,2.511-6.55
			c0.25-6.45,0.149-12.98,1.35-19.35C340.34,109.5,346.159,104.19,350.55,98.1z M361.949,104.64c4.91,2.74,9.44,6.2,14.75,8.17
			c0.82-1.61,1.61-3.23,2.38-4.87c-4.069-3.74-9.51-5.39-14.14-8.29C363.72,101.16,362.699,102.83,361.949,104.64z"/>
	</g>
	<path fill="#2CC73B" d="M399.21,102.85c3.819,1.03,7.619,2.16,11.369,3.43c-4.81,6.25-11.01,11.24-16.39,16.97
		c-8.88,9.3-18.45,17.94-27.02,27.51c-4.03,3.75-9,6.28-13.91,8.65c-1.561-1.57-3.13-3.13-4.74-4.65c2.05-2.98,4.59-5.58,7.24-8.03
		c13.21-13.1,26.27-26.34,39.5-39.43C396.64,105.88,397.92,104.37,399.21,102.85z"/>
	<path fill="#2CC73B" d="M414.34,107.68c26.739,10.33,49.75,29.94,64.189,54.7c7.4,12.55,12.521,26.41,15.29,40.7
		c-1.85,2.39-3.87,4.63-6.08,6.7c-5.93,5.65-11.359,11.82-17.56,17.19c-0.11-4.8-0.03-9.6-0.48-14.39
		c0.021-0.6,0.04-1.82,0.051-2.42c-5.16-1.38-10.61-1.48-15.65-3.28c-2.35-0.76-2.64-3.71-2.94-5.81
		c3.811-4.18,8.87-7.02,12.891-11.03c-2.74-4.89-4.94-10.18-8.46-14.58c-5.86,0.21-11.15,4.74-17.19,4.05
		c-1.47-0.81-2.439-2.229-3.52-3.46c1.96-5.39,4.189-10.67,6.33-16c-5.25-2.58-10.16-5.75-15.16-8.77
		c-3.86,3.42-6.91,7.6-10.431,11.33c-1.659,2.18-5.229,1.27-6.949-0.28c-1.46-5.32-1.36-10.95-2.9-16.27
		c-5.8-0.18-11.64-0.8-17.43,0.01c-1.82,5.46-2.07,11.24-3.4,16.81c-1.67,0.44-3.34,0.89-5,1.36c-3.95-3.41-7.32-7.42-10.15-11.8
		c6.23-5.62,11.91-11.8,17.931-17.64C396.53,125.7,405.949,117.17,414.34,107.68z"/>
	<path fill="#2CC73B" d="M491.28,211.2c0.92-1.07,2.2-1.62,3.57-1.84c0.41,3.49,0.81,6.98,0.99,10.49
		c-1.36,4.23-5.13,6.84-8.08,9.89c-8.99,9.04-18.08,17.97-27.01,27.05c-0.87,0.92-2.04,1.41-3.19,1.84
		c2.04-3.76,4.39-7.35,6.21-11.22c-1.4-1.21-2.8-2.42-4.18-3.65c2.399-3.89,6.01-6.75,9.16-9.979
		C476.26,226.25,483.8,218.75,491.28,211.2z"/>
	<path fill="#2CC73B" d="M53.74,228.74c1.479-1.48,3.079-2.82,4.75-4.06c2.819,5.78,5.289,11.74,8.539,17.3
		c1.021,2.2,2.681,4.4,2.58,6.91c-2.029,3.14-4.54,5.94-6.96,8.78c-8.689-1.279-16.88-4.77-25.62-5.72
		c-3.17,7.44-6.67,14.739-9.729,22.22c7.15,5.43,15,9.84,22.18,15.2c-0.46,3.771-0.779,7.569-0.95,11.37
		c-4.88,2.369-10.399,2.66-15.46,4.48C29.75,306.37,26.41,307.5,23,308.391c-0.931,7.319,1.88,14.379,2.1,21.659
		c0.271,1.171-0.14,3.65,1.84,3.32c8.61,0.11,17.16,1.18,25.74,1.75c1.3,3.53,2.58,7.08,3.78,10.649
		c-5.22,7.08-12.26,12.551-17.91,19.28c4.38,7.03,9.97,13.171,14.75,19.91c8.4-3.351,15.85-8.71,24.35-11.89
		c2.9,2.56,5.98,4.91,9.101,7.189c-1.48,8.771-5.24,17.01-6.07,25.91c7.42,3.82,15.311,6.57,22.98,9.79
		c4.55-7.71,9.409-15.239,14.56-22.569c3.85,0.84,7.74,1.58,11.67,1.909c2.46,8.54,4.83,17.101,7.51,25.58l0.721,0.29
		c7.909-1.529,15.89-2.9,23.979-3.061c0-8.979,1.36-17.889,1.39-26.859c1.351-0.85,2.711-1.68,4.08-2.5
		c7.21,4.53,14.79,8.46,22.62,11.84c0.79,1.34,1.601,2.68,2.41,4.03c-6.93,7.71-14.67,14.66-21.84,22.14
		c-7.95,7.71-15.6,15.73-23.55,23.431c-1.78,1.71-3.3,3.67-4.74,5.68c-29.05-4.35-56.75-17.19-78.81-36.59
		c-11.5-9.83-20.83-21.83-30.03-33.75C14.7,360.25,4.44,328.57,5.27,296.98c0.48-10.631,4-21.07,9.471-30.11
		c1.229-0.81,2.51-1.58,3.579-2.601C30.05,252.35,41.98,240.63,53.74,228.74z"/>
	<path fill="#2CC73B" d="M391.18,331.279c35.06-34.76,69.67-69.969,104.87-104.569c-0.08,5.58-0.33,11.17-1.07,16.71
		c-3.91,2.52-6.95,6.07-10.21,9.33c-26.68,26.66-53.36,53.32-80.02,80c-4.421,4.21-8.33,8.99-13.311,12.58
		c-1.62-2.82-3.41-5.52-4.9-8.4C387.88,334.891,389.39,332.95,391.18,331.279z"/>
	<path fill="#2CC73B" d="M452.699,230.64c5.261-1.61,10.82-1.97,16.25-2.77c-3.449,4.99-8.479,8.63-12.38,13.26
		c-1.75-1.49-3.68-2.78-5.21-4.5C450.84,234.59,451.829,232.46,452.699,230.64z"/>
	<path fill="#2CC73B" d="M492.19,250.47c0.44,0.04,1.33,0.13,1.771,0.18c-1.131,6.79-2.83,13.48-5.271,19.92l-0.22,0.06
		c-1.74,0.22-3.101,1.36-4.26,2.58c-32.73,32.97-65.771,65.63-98.44,98.67c-2.67-0.51-5.49-0.61-7.98-1.76
		c-0.56-1.49-0.85-3.06-1.189-4.591c10.45-9.52,20.02-19.959,30.18-29.799C435.289,307.35,463.539,278.7,492.19,250.47z"/>
	<path fill="#2CC73B" d="M435.27,260.42c1.04-1.35,2.41-2.391,3.7-3.48c5.27,1.66,10.479,3.49,15.56,5.67
		c-4.38,5-9.12,9.711-14.17,14.031C438.4,271.34,436.09,266.04,435.27,260.42z"/>
	<path fill="#2CC73B" d="M408.49,274.45c2.25-0.601,5.53-2.7,7.28-0.16c3.11,3.899,5.97,8.01,9.47,11.59
		c3.91-1.96,7.58-4.33,11.431-6.409c-0.381,0.979-0.65,2.059-1.421,2.819c-16.949,16.899-34.01,33.7-50.68,50.88
		c-1.22-1.85-2.62-3.55-3.99-5.26c5.86-11.6,9.851-24.07,12.381-36.801c4.04,0.16,8.09,0.211,12.13-0.109
		C406.47,285.529,407.22,279.939,408.49,274.45z"/>
	<path fill="#2CC73B" d="M478.25,284.2c1.96-1.72,3.51-4.5,6.38-4.671c-7.45,17.221-19.221,32.471-33.41,44.681
		c-4.42,3.979-9.76,6.96-13.36,11.8c-6.899,8.66-13.74,17.66-18.07,27.9c3.221,19.89,2.11,40.65-4.699,59.7
		c-1.551,0.92-3.101,1.859-4.4,3.109c-20.25,20.38-40.6,40.67-60.92,60.99c-2.59,2.42-5.02,5.01-7.13,7.86
		c-17.97,6.35-37.61,7.79-56.41,4.8c-10.359-1.55-20.239-5.16-30.18-8.3c-17.98-6.95-30.26-22.551-45.57-33.521
		c-2.79-1.81-5.359-4.109-8.529-5.2c-11.921,2.721-24.131,4.23-36.37,4.24c2.92-4.03,6.729-7.25,10.18-10.79
		c9.48-9.51,18.94-19.05,28.47-28.521c3.511-3.399,6.66-7.209,10.75-9.959c5.74,1.25,11.55,2.25,17.41,2.789
		c-4.01,4.141-9.11,6.961-13.34,10.86c3.77,6.07,6.72,12.63,10.91,18.44c6.96-2.3,14.13-4,20.819-7.04
		c2.07,2.13,5.04,3.85,6.051,6.72c-2.351,6.7-4.63,13.44-7.19,20.061c5.49,4.81,12.58,7.159,18.521,11.329
		c4.979-5.439,9.439-11.329,14.3-16.869c2.96,0.689,5.91,1.39,8.87,2.109c1.35,7.28,1.93,14.7,3.81,21.891
		c6.89,1.22,13.85-0.471,20.8,0.04c2.02-6.9,2.55-14.16,4.95-20.95c2.149-2.03,5.52-2.061,8.21-3.11
		c5.05,5.271,8.87,11.58,14.05,16.76c6.45-3.13,13.03-6.22,18.771-10.56c-2.75-6.74-4.86-13.7-7.29-20.55
		c1.5-2.67,4-4.561,6.279-6.53c6.8,2.49,13.73,4.63,20.21,7.92c4.84-5.43,7.521-12.38,10.96-18.71
		c-5.04-5.46-11.439-9.41-16.489-14.83c0.819-2.84,1.77-5.64,3-8.34c6.949-1.71,14.069-2.561,21.09-3.91
		c-0.62-7.08,1.43-14.26-0.19-21.199c-3.2-0.66-6.38-1.351-9.58-2.011C419.32,343.109,448.85,313.721,478.25,284.2z"/>
	<path fill="#2CC73B" d="M198.4,403.66c3.681,1.22,7.391,2.369,11.141,3.369c-1.16,1.641-2.351,3.291-3.771,4.74
		c-12.54,12.48-25.05,25-37.54,37.521c-2.71,2.57-5.39,5.18-7.609,8.18c-4.67-0.14-9.341-0.479-13.98-1.06
		c4.44-5.46,9.71-10.17,14.66-15.16c8.65-8.69,17.31-17.36,25.97-26.02C191.04,411.43,194.99,407.79,198.4,403.66z"/>
	<path fill="#2CC73B" d="M402.75,439.76c2.789-2.77,5.229-6.09,8.96-7.67c-11.41,26.391-33.101,48.32-59.53,59.69
		c1.52-4.07,5.26-6.5,8.13-9.53C374.38,468.01,388.619,453.94,402.75,439.76z"/>
</g>
<g opacity="0.2">
	<path fill="#2CC73B" d="M229.32,27.98c1.41,0.07,2.811,0.16,4.221,0.26c-3.13,4.27-7.11,7.78-10.8,11.54
		C160.41,102.1,98.08,164.43,35.75,226.75c-2.98,2.9-5.61,6.32-9.471,8.14c1.641-3.86,3.841-7.43,5.801-11.11l0.47-0.19
		c2.65-0.73,4.36-3,6.25-4.82C102.2,155.07,166.02,91.78,229.32,27.98z"/>
	<path fill="#2CC73B" d="M247.27,29.99c1.34,0.22,2.66,0.45,4,0.68c-3.1,4.06-6.92,7.46-10.5,11.08
		C183.44,99.06,126.13,156.39,68.8,213.7c-1.86,2.19-5.271,3.76-5.26,7.02c-1.641,1.37-3.33,2.69-5.05,3.96
		c-1.671,1.24-3.271,2.58-4.75,4.06C41.98,240.63,30.05,252.35,18.32,264.27c-1.069,1.021-2.35,1.791-3.579,2.601
		c0.68-2.91,1.569-5.75,2.31-8.64l0.1,0.01c0.42,0.04,1.24,0.1,1.66,0.13c2.181-1.681,4.061-3.7,5.99-5.66
		c48.8-48.82,97.6-97.64,146.41-146.44C196.52,80.81,222.16,55.66,247.27,29.99z"/>
	<path fill="#2CC73B" d="M395.27,101.97c1.3,0.3,2.62,0.59,3.94,0.88c-1.29,1.52-2.57,3.03-3.95,4.45
		c-13.23,13.09-26.29,26.33-39.5,39.43c-2.65,2.45-5.19,5.05-7.24,8.03c-1.15-1.07-2.31-2.13-3.48-3.16
		c4.28-2.87,7.591-6.86,11.261-10.42C369.27,128.09,382.53,115.28,395.27,101.97z"/>
	<path fill="#2CC73B" d="M410.579,106.28c1.261,0.45,2.5,0.92,3.761,1.4c-8.391,9.49-17.811,18.02-26.62,27.12
		c-6.021,5.84-11.7,12.02-17.931,17.64c-0.869-0.58-1.739-1.14-2.619-1.68c8.569-9.57,18.14-18.21,27.02-27.51
		C399.57,117.52,405.77,112.53,410.579,106.28z"/>
	<path fill="#2CC73B" d="M493.82,203.08c0.37,2.09,0.72,4.18,1.03,6.28c-1.37,0.22-2.65,0.77-3.57,1.84
		c-7.479,7.55-15.02,15.05-22.529,22.58c-3.15,3.23-6.761,6.09-9.16,9.98c-1-0.88-2-1.78-3.021-2.63
		c3.9-4.63,8.931-8.27,12.38-13.26c0.391-5.09-0.239-10.24,0.75-15.29c0.45,4.79,0.37,9.59,0.48,14.39
		c6.2-5.37,11.63-11.54,17.56-17.19C489.949,207.71,491.97,205.47,493.82,203.08z"/>
	<path fill="#2CC73B" d="M487.76,229.74c2.95-3.05,6.72-5.66,8.08-9.89c0.09,2.28,0.16,4.57,0.21,6.86
		c-35.2,34.601-69.811,69.81-104.87,104.569c-1.79,1.671-3.3,3.611-4.641,5.65c-0.659-1.26-1.29-2.529-1.97-3.76
		c16.67-17.18,33.73-33.98,50.68-50.88c0.771-0.761,1.04-1.84,1.421-2.82c1.25-0.899,2.479-1.85,3.689-2.829
		c5.05-4.32,9.79-9.031,14.17-14.031c1.04-1.299,2.061-2.619,3.03-3.979c1.15-0.43,2.32-0.92,3.19-1.84
		C469.68,247.71,478.77,238.78,487.76,229.74z"/>
	<path fill="#2CC73B" d="M484.77,252.75c3.26-3.26,6.3-6.81,10.21-9.33c-0.32,2.41-0.72,4.81-1.02,7.23
		c-0.44-0.05-1.33-0.14-1.771-0.18c-28.65,28.23-56.9,56.879-85.41,85.26c-10.16,9.84-19.729,20.279-30.18,29.799
		c-0.25-1.789-1.4-4.139,0.61-5.34c5.13-4.189,10.529-8.06,15.52-12.43c-0.43-0.82-0.85-1.64-1.29-2.43
		c4.98-3.59,8.89-8.37,13.31-12.58C431.409,306.07,458.09,279.41,484.77,252.75z"/>
	<path fill="#2CC73B" d="M484.21,273.21c1.159-1.22,2.52-2.36,4.26-2.58c-1,3.03-2.36,5.91-3.58,8.851l-0.26,0.049
		c-2.87,0.171-4.42,2.951-6.38,4.671c-29.4,29.521-58.931,58.909-88.341,88.43c-1.37-0.271-2.76-0.53-4.14-0.75
		C418.44,338.84,451.48,306.18,484.21,273.21z"/>
	<path fill="#2CC73B" d="M190.19,400.59c2.67,1.18,5.431,2.15,8.21,3.07c-3.409,4.13-7.359,7.77-11.13,11.57
		c-8.66,8.659-17.319,17.329-25.97,26.02c-4.95,4.99-10.22,9.7-14.66,15.16c-1.39-0.18-2.78-0.36-4.17-0.54
		c1.44-2.01,2.96-3.97,4.74-5.68c7.95-7.7,15.6-15.721,23.55-23.431c7.17-7.48,14.91-14.43,21.84-22.14
		C191.79,403.27,190.98,401.93,190.19,400.59z"/>
	<path fill="#2CC73B" d="M209.54,407.029c1.8,0.461,3.609,0.881,5.439,1.291c-4.09,2.75-7.24,6.56-10.75,9.959
		c-9.529,9.471-18.99,19.011-28.47,28.521c-3.45,3.54-7.26,6.76-10.18,10.79c-1.65-0.03-3.311-0.08-4.96-0.12
		c2.22-3,4.899-5.609,7.609-8.18c12.49-12.521,25-25.04,37.54-37.521C207.19,410.32,208.38,408.67,209.54,407.029z"/>
	<path fill="#2CC73B" d="M410.69,426.72c1.3-1.25,2.85-2.189,4.4-3.109c-0.94,2.85-2.08,5.64-3.24,8.409l-0.14,0.07
		c-3.73,1.58-6.171,4.9-8.96,7.67c-14.131,14.181-28.37,28.25-42.44,42.49c-2.87,3.03-6.61,5.46-8.13,9.53
		c-2.92,1.689-6.32,2.7-9.54,3.79c2.109-2.851,4.54-5.44,7.13-7.86C370.09,467.39,390.44,447.1,410.69,426.72z"/>
</g>
<g>
	<path fill="#FFF8BD" d="M299.07,44.89c10.2-5.56,23.08-5.69,33.521-0.69c-3.4,4.65-7.84,8.35-11.811,12.49
		c-11.859,11.88-23.75,23.74-35.64,35.59c-4.13-6.62-5.05-14.81-3.89-22.41C282.91,59.36,289.84,50.05,299.07,44.89z"/>
	<path fill="#FFF8BD" d="M322.77,59.77c4.62-4.44,8.77-9.42,13.93-13.27c2.75,2.02,5.45,4.2,7.471,7
		c-17.15,16.71-33.891,33.85-50.94,50.67c-2.25-2.82-4.41-5.7-6.25-8.8C299.119,83.72,310.8,71.6,322.77,59.77z"/>
	<path fill="#FFF8BD" d="M333.31,69.26c4.37-4.3,8.43-8.94,13.28-12.74c1.859,3.21,3.52,6.58,4.399,10.21
		c-11.95,11.43-23.46,23.32-35.21,34.95c-5.09,4.92-9.77,10.29-15.33,14.71c-1.3-3.11-2.979-6.03-4.88-8.8
		c1.45-1.87,2.97-3.7,4.66-5.37C311.28,91.26,322.26,80.22,333.31,69.26z"/>
	<path fill="#FFF8BD" d="M316.76,105.77c11.71-11.67,23.319-23.44,35.1-35.04c0.8,6.15,0.49,12.78-2.75,18.24
		c-5.72,10.34-16.16,18.15-18.359,30.31c-9.03,0.26-18.101,0.33-27.141,0.02C307.68,114.49,312.409,110.31,316.76,105.77z"/>
</g>
<g>
	<path fill="#FFF8BD" d="M332.59,44.2c1.37,0.77,2.739,1.53,4.109,2.3c-5.16,3.85-9.31,8.83-13.93,13.27
		c-11.97,11.83-23.65,23.95-35.79,35.6c-0.609-1.04-1.22-2.07-1.84-3.09c11.89-11.85,23.78-23.71,35.64-35.59
		C324.75,52.55,329.19,48.85,332.59,44.2z"/>
	<path fill="#FFF8BD" d="M293.23,104.17c17.05-16.82,33.79-33.96,50.94-50.67c0.8,1,1.609,2.01,2.42,3.02
		c-4.851,3.8-8.91,8.44-13.28,12.74c-11.05,10.96-22.03,22-33.08,32.96c-1.69,1.67-3.21,3.5-4.66,5.37
		C294.78,106.45,294.01,105.31,293.23,104.17z"/>
	<path fill="#FFF8BD" d="M315.78,101.68c11.75-11.63,23.26-23.52,35.21-34.95c0.271,1.33,0.561,2.67,0.87,4
		c-11.78,11.6-23.39,23.37-35.1,35.04c-4.351,4.54-9.08,8.72-13.15,13.53c-0.649-0.01-1.939-0.04-2.59-0.05
		c-0.19-0.96-0.38-1.91-0.57-2.86C306.01,111.97,310.69,106.6,315.78,101.68z"/>
</g>
<g>
	<path fill="#DFFFD9" d="M155.19,66.43c3.07-1.78,7.16-0.4,8.42,2.92c0.25,4.1-3.35,6.77-5.739,9.57
		c-20.25,21.77-40.311,43.68-60.261,65.71c-3.8,3.88-6.939,8.38-10.97,12.03c-1.33,1.52-3.55,1.27-5.33,0.99
		c-3.149-2.06-5.359-5.23-7.689-8.12C63.43,137.34,52.94,125.4,43.06,112.95c-4.2-5.46,2.33-14.09,8.75-11.61
		c7.98,4.42,14.8,10.65,22.74,15.13c5.91,3.39,13.68,2.22,18.85-2.04c17.36-13.66,34.5-27.62,52.07-41.01
		C148.7,71.07,151.49,68.03,155.19,66.43z"/>
</g>
<g>
	<g>
		<path fill="#6E6E96" d="M206.03,120.07c29.08-8.48,60.75-7.55,89.351,2.39c3.609,1.2,7.06,2.82,10.58,4.26
			c8.199,3.4,15.989,7.79,23.359,12.73c1.49,1.02,2.99,2.05,4.47,3.09c3.921,2.8,7.61,5.9,11.25,9.06
			c1.171,1.03,2.33,2.09,3.48,3.16c1.61,1.52,3.18,3.08,4.74,4.65c3.149,3.09,5.95,6.51,8.92,9.78c3.75,4.92,7.439,9.91,10.74,15.16
			c0.27,0.44,0.819,1.32,1.1,1.77c1.11,1.83,2.14,3.71,3.17,5.59c2.29,4.03,4.39,8.17,6.16,12.45c1.479,3.43,2.85,6.9,4.1,10.42
			c1.34,3.87,2.5,7.79,3.54,11.75c0.34,1.32,0.66,2.64,0.98,3.97l0.22,1.11c0.45,2.15,0.88,4.3,1.26,6.47
			c0.83,4.51,1.431,9.05,1.66,13.63c0.17,2.25,0.33,4.5,0.44,6.76c0.37,8.9-0.32,17.811-1.5,26.641
			c-0.311,2.07-0.69,4.14-1.09,6.199c-2.53,12.73-6.521,25.201-12.38,36.801c-1.49,2.949-2.95,5.93-4.591,8.81
			c-6.42,10.931-13.97,21.24-22.909,30.25c-1.591,1.591-3.19,3.15-4.82,4.7c-5.69,5.41-11.891,10.24-18.37,14.65
			c-2.14,1.35-4.28,2.68-6.4,4.05c-7.64,4.69-15.76,8.54-24.08,11.83c-2.569,0.95-5.159,1.84-7.77,2.68
			c-7.28,2.28-14.71,4.07-22.25,5.229c-2.26,0.33-4.53,0.631-6.79,0.9c-7.069,0.68-14.18,0.98-21.279,0.721
			c-2.98-0.141-5.95-0.371-8.931-0.621c-5.859-0.539-11.67-1.539-17.41-2.789c-1.83-0.41-3.64-0.83-5.439-1.291
			c-3.75-1-7.46-2.149-11.141-3.369c-2.779-0.92-5.54-1.891-8.21-3.07c-7.83-3.38-15.409-7.311-22.619-11.84
			c-2.141-1.391-4.19-2.87-6.261-4.33l-1.239-0.84c-1.24-0.86-2.45-1.76-3.641-2.67c-5.26-4.09-10.27-8.49-14.99-13.19
			c-1.97-1.989-3.85-4.069-5.72-6.149c-22.97-25.65-36.59-59.48-37.51-93.91c-0.101-2.381-0.23-4.75-0.24-7.131
			c0.46-5.649,0.66-11.329,1.45-16.949c0.25-1.95,0.55-3.9,0.88-5.84c0.271-1.54,0.59-3.08,0.91-4.6c0.47-2.26,0.95-4.52,1.52-6.75
			c1.96-7.54,4.44-14.94,7.521-22.11c1.31-2.71,2.649-5.41,3.95-8.13C132.49,159.51,166.65,131.27,206.03,120.07z M185.05,134.28
			c-26.89,12.62-49.55,34.13-63.56,60.32l-0.2,0.06c-1.7,3.38-3.55,6.7-4.79,10.3c-3.721,7.35-6.141,15.36-8.13,23.35l-0.12,0.08
			c-3.34,14.11-4.851,28.799-3.66,43.24c0.12,11.47,2.57,22.83,5.81,33.79c11.49,37.82,39.551,70.25,75.45,86.84
			c22.05,10.461,46.851,14.92,71.17,13.18c30.26-1.959,59.76-13.979,82.79-33.709c20-17.01,35-39.721,43.02-64.7
			c7.87-24.8,8.98-51.7,3.07-77.05l-0.16,0.35c-0.739-4.86-2.35-9.56-4.01-14.17l-0.14,0.2c-0.04-1.95-1.07-3.68-1.681-5.48
			c-9.399-24.26-25.67-45.82-46.409-61.53c-17.78-13.59-38.86-22.82-60.891-26.75C243.18,117.31,212,121.18,185.05,134.28z"/>
	</g>
	<g>
		<path fill="#6E6E96" d="M191.31,151.41c23.46-11.88,50.75-16.03,76.66-11.48c25.77,4.33,49.939,17.22,68.14,35.94
			c18.69,18.97,31.08,44.07,34.58,70.49c0.18,1.37,0.34,2.74,0.49,4.11c0.46,4.95,0.67,9.92,0.59,14.889
			c-0.04,1.611-0.1,3.221-0.18,4.841c-0.38,5.739-1.09,11.45-2.24,17.09c-0.49,2.29-1,4.59-1.561,6.87
			c-2.09,7.84-4.899,15.5-8.46,22.8c-1.869,3.69-3.859,7.319-5.859,10.94c-10.55,16.74-24.851,31-41.59,41.529
			c-3.74,2.061-7.511,4.09-11.32,6.021c-7.2,3.479-14.77,6.18-22.49,8.27c-2.35,0.55-4.699,1.05-7.05,1.55
			c-5.54,1.131-11.16,1.801-16.79,2.17c-1.6,0.07-3.189,0.131-4.77,0.17c-3.42,0.07-6.83-0.06-10.24-0.25
			c-2.96-0.219-5.91-0.5-8.85-0.85c-4.12-0.58-8.221-1.35-12.261-2.31c-1.319-0.33-2.63-0.66-3.93-1.021
			c-3.74-1.05-7.439-2.24-11.07-3.63c-1.279-0.489-2.54-0.989-3.8-1.51c-7.99-3.31-15.6-7.49-22.7-12.431
			c-1.04-0.729-2.079-1.469-3.1-2.209c-2.62-1.92-5.17-3.93-7.6-6.07c-1.15-1-2.271-2.01-3.391-3.03
			c-2.38-2.17-4.649-4.45-6.819-6.819c-1.021-1.11-2.021-2.24-3.011-3.36c-2.149-2.45-4.16-5-6.09-7.62
			c-0.75-1.02-1.49-2.05-2.22-3.08c-2.01-2.891-3.88-5.88-5.62-8.949c-0.8-1.421-1.56-2.851-2.32-4.281
			c-1.68-3.119-3.18-6.319-4.54-9.569c-0.5-1.2-0.979-2.399-1.439-3.591c-1.34-3.479-2.5-7.01-3.51-10.59
			c-0.431-1.549-0.83-3.1-1.21-4.649c-0.971-4.011-1.73-8.06-2.301-12.14c-0.239-1.851-0.42-3.7-0.59-5.551
			c-1.83-19.01,0.94-38.43,7.94-56.2C141.84,189.29,163.96,165.19,191.31,151.41z M171.24,171.26
			c-22.971,18.84-38.381,46.64-41.891,76.16c-0.67,1.78-0.38,3.95-0.63,5.88c-0.54,5.45-0.46,10.95-0.25,16.431
			c0.07,0.89,0.22,2.689,0.3,3.58c0.3,4.369,1.061,8.689,1.73,13.02c0.33,1.4,0.68,2.811,1.13,4.199l-0.19,0.181
			c1.08,3.86,2.13,7.729,3.42,11.53c0.48,1.279,0.971,2.57,1.48,3.85c1.25,3.381,2.7,6.689,4.43,9.86l-0.14,0.1
			c9.14,18.229,22.939,34.15,39.939,45.45c33.03,22.6,77.641,26.33,114.23,10.32c29.649-12.78,53.62-38.311,64.149-68.86
			c8.11-22.69,8.96-47.83,2.811-71.1c-6.16-23.21-19.57-44.48-38.021-59.87c-6.149-5.05-12.68-9.64-19.649-13.49
			c-1.15-0.59-2.29-1.18-3.42-1.77c-3.26-1.59-6.55-3.12-9.95-4.36l0.11-0.09c-1.49-0.51-2.971-1.03-4.44-1.55
			c-3.91-1.36-7.88-2.5-11.91-3.44c-1.3-0.3-2.609-0.61-3.91-0.9C235.96,139.54,198.33,148.44,171.24,171.26z"/>
	</g>
	<path fill="#6E6E96" d="M336.44,207.63c1.44-0.61,2.89-2.04,4.58-1.53c2.27,0.35,3.14,3.85,1.21,5.16
		c-3.37,2.39-7.18,4.07-10.69,6.25c-2.75,1.45-5.59,4.24-8.909,2.64c-0.19-1.32-0.37-2.63-0.49-3.95c0.25-0.2,0.74-0.61,0.979-0.81
		C327.579,212.84,332.1,210.39,336.44,207.63z"/>
	<g>
		<path fill="#6E6E96" d="M286.99,219.09c2.44-2.66,6.78,1.45,4.261,4.03c-11.33,11.81-23.48,22.86-34.61,34.851
			c0.95,1.949,1.48,4.059,1.57,6.219c-0.49,1.311-0.97,2.621-1.44,3.94c1.87,2.28,4.021,4.3,6.12,6.37c0.9,0.87,1.78,1.77,2.67,2.66
			c2.42,2.439,4.86,4.869,7.3,7.3c0.891,0.899,1.79,1.79,2.69,2.69c2.43,2.439,4.86,4.869,7.3,7.3c0.88,0.88,1.76,1.75,2.641,2.64
			c2.449,2.471,4.909,4.93,7.38,7.381c0.88,0.869,1.76,1.75,2.64,2.629c2.479,2.551,5.029,5.03,7.569,7.521
			c0.131,1.19,0.24,2.39,0.33,3.601l-0.47,0.34c-0.51,0.18-1.52,0.529-2.02,0.699c-0.54-0.08-1.62-0.24-2.16-0.32
			c-2.43-2.6-4.99-5.069-7.5-7.59c-0.87-0.869-1.73-1.74-2.6-2.6c-2.46-2.471-4.92-4.93-7.381-7.38c-0.88-0.88-1.76-1.761-2.63-2.63
			c-2.46-2.471-4.93-4.94-7.399-7.4c-0.86-0.869-1.73-1.73-2.58-2.59c-2.45-2.46-4.9-4.91-7.36-7.359
			c-0.899-0.91-1.819-1.791-2.7-2.701c-2.06-2.08-4.069-4.209-6.319-6.08c-1.07,0.48-2.141,0.971-3.21,1.471
			c-1.86,0.1-3.73-0.02-5.561-0.37c-2.01-1.08-3.859-2.42-5.46-4.04c-0.31-0.5-0.93-1.49-1.25-1.99
			c-4.649-8.979,6.891-19.75,15.5-14.359C264,242.04,275.32,230.37,286.99,219.09z M244.44,258.48c-4.1,1.859-3.229,9.35,1.511,9.64
			c3.64,0.97,7.039-2.62,6.029-6.21C251.64,258.4,247.28,257.09,244.44,258.48z"/>
	</g>
	<path fill="#6E6E96" d="M323.14,309.88c-2.54-1.739,0.04-6.31,2.82-4.93c4.26,1.89,8.079,4.62,12.199,6.78
		c2.23,1.369,6.63,2.869,4.78,6.25c-1.85,3.25-5.31,0.569-7.52-0.75C331.42,314.609,327.01,312.68,323.14,309.88z"/>
	<path fill="#6E6E96" d="M161.86,315.52c2.92-3.72,7.061-6.18,10.74-9.069c-0.35,1.31-0.59,2.7-1.41,3.829
		C168,311.88,164.89,313.63,161.86,315.52z"/>
	<path fill="#6E6E96" d="M200.36,337.91c0.65-0.07,1.95-0.21,2.61-0.28c0.47,0.33,1.41,0.97,1.88,1.3
		c0.811,4.521-3.38,7.9-4.99,11.83c-2.05,2.971-2.92,7.561-6.949,8.44c-1.011-1.101-3.25-2.41-2.28-4.14
		c2.64-5.49,6.13-10.531,8.91-15.951C199.75,338.811,200.16,338.21,200.36,337.91z"/>
	<path fill="#6E6E96" d="M289.18,340.95c-0.41-2.69,3.5-4.56,5.15-2.271c2.68,3.66,4.499,7.86,6.97,11.67
		c1.12,1.86,2.149,3.771,3.149,5.7c-0.87,1.25-1.739,2.96-3.529,2.88c-2.7-0.14-3.391-3.289-4.7-5.14
		C293.99,349.45,291.06,345.46,289.18,340.95z"/>
</g>
<g>
	<path fill="#F2F7FF" d="M185.05,134.28c26.95-13.1,58.13-16.97,87.56-11.68c22.03,3.93,43.11,13.16,60.891,26.75
		c20.739,15.71,37.01,37.27,46.409,61.53c0.61,1.8,1.641,3.53,1.681,5.48c-0.271,0.39-0.82,1.18-1.09,1.58
		c-3.62-5.84-4.961-12.78-9.091-18.35c-2.96-6.68-7.899-12.06-11.739-18.19c-5.17-5.83-9.98-12-15.96-17.05
		c-3.061-3.78-7.261-6.2-11.15-8.99c-4.91-4.66-11.18-7.36-16.72-11.15c-4.74-2.17-9.36-4.61-14.09-6.79
		c-5.08-1.29-9.811-3.58-14.76-5.19c-7.74-0.95-15.11-3.95-22.95-4.11c-6.03-0.14-11.95-2.13-17.99-1.05
		c-6.33,1.01-12.87-0.06-19.09,1.69c-8.3,2.08-17,2.84-24.94,6.2c-18.59,7.23-37.1,16.42-50.91,31.17
		c-7.409,6.95-13.85,14.82-21.34,21.68c-2.67,2.31-4.609,5.99-8.279,6.79C135.5,168.41,158.16,146.9,185.05,134.28z"/>
	<path fill="#F2F7FF" d="M116.5,204.96c3.569-2.22,6.24-5.5,9.52-8.07c-2.399,7.23-7.04,13.47-9.26,20.79
		c-1.19,4.56-4.27,8.37-8.39,10.63C110.36,220.32,112.78,212.31,116.5,204.96z"/>
</g>
<g>
	<path fill="#F0F0FF" d="M305.96,126.72c1.5-0.99,3.25-1.26,5.02-1.11c6.38,0.25,12.77-0.42,19.15,0.03
		c0.109,4.61,0.779,9.36-0.811,13.81C321.949,134.51,314.159,130.12,305.96,126.72z"/>
	<path fill="#F0F0FF" d="M377.19,191.71c4.84-4.87,12.16-6.34,18.8-6.44c13.42-0.85,26.511,7.81,31.67,20.09
		c2.53,7.43,3.841,15.77,1.03,23.32c-2.79,7.11-6.55,14.65-13.72,18.2c-6.03,3.02-12.98,7.021-19.86,4.63
		c-0.229-4.58-0.83-9.12-1.66-13.63c3.92,0.07,8.13,0.45,11.681-1.59c4.829-2.73,9.06-7.09,10.67-12.5
		c1.25-5.62-0.08-11.68-3.08-16.53c-3.12-3.73-7.42-6.47-11.98-8.07c-6.25-1.17-12.33,1.52-17.39,4.97
		C381.579,199.88,379.48,195.74,377.19,191.71z"/>
	<path fill="#F0F0FF" d="M244.44,258.48c2.84-1.391,7.2-0.08,7.54,3.43c1.01,3.59-2.39,7.18-6.029,6.21
		C241.21,267.83,240.34,260.34,244.44,258.48z"/>
	<path fill="#F0F0FF" d="M82.59,319.67c-4.34-18.439,1.4-39.24,15.62-52.01c0.92,34.43,14.54,68.26,37.51,93.91
		c-3.51,1.15-7.229,0.449-10.729-0.34c-5.811-1.59-11.86-2.94-16.9-6.42C95.09,347.48,85.63,334.24,82.59,319.67z"/>
	<path fill="#F0F0FF" d="M329.89,386.32c6.479-4.41,12.68-9.24,18.37-14.65c2.25,5.811,2.67,12.17,1.689,18.301
		c-0.949,20.239-18.67,37.979-38.83,39.319c-9.399,1.63-19.079-0.771-27.439-5.07c-5.45-3.829-11.85-7.54-14.29-14.11
		c7.54-1.159,14.97-2.949,22.25-5.229c6,3.511,13.24,5.511,20.14,3.95c5.9-2.061,11.351-5.9,14.71-11.25
		C328.579,394.24,330.949,390.45,329.89,386.32z"/>
</g>
<g opacity="0.2">
	<path fill="#2CC73B" d="M226.96,128.76c6.22-1.75,12.76-0.68,19.09-1.69c6.04-1.08,11.96,0.91,17.99,1.05
		c7.84,0.16,15.21,3.16,22.95,4.11c4.949,1.61,9.68,3.9,14.76,5.19c4.729,2.18,9.35,4.62,14.09,6.79
		c5.54,3.79,11.81,6.49,16.72,11.15c3.89,2.79,8.09,5.21,11.15,8.99c5.979,5.05,10.79,11.22,15.96,17.05
		c3.84,6.13,8.779,11.51,11.739,18.19c4.13,5.57,5.471,12.51,9.091,18.35c0.27-0.4,0.819-1.19,1.09-1.58l0.14-0.2
		c1.66,4.61,3.271,9.31,4.01,14.17c-1.479,3.99-5.05,6.52-7.87,9.51c-2.239,2.34-4.58,4.58-7.18,6.52
		c-3.5-26.42-15.89-51.52-34.58-70.49c-18.2-18.72-42.369-31.61-68.14-35.94c-25.91-4.55-53.2-0.4-76.66,11.48
		c-27.35,13.78-49.47,37.88-60.52,66.49c-7,17.77-9.771,37.19-7.94,56.2c-4.22,5.641-9.53,10.4-14.77,15.07
		c-2.28-5.63-1.2-12.01-3.49-17.54c-1.19-14.44,0.32-29.13,3.66-43.24l0.12-0.08c4.12-2.26,7.199-6.07,8.39-10.63
		c2.22-7.32,6.86-13.56,9.26-20.79c-3.279,2.57-5.95,5.85-9.52,8.07c1.24-3.6,3.09-6.92,4.79-10.3l0.2-0.06
		c3.67-0.8,5.609-4.48,8.279-6.79c7.49-6.86,13.931-14.73,21.34-21.68c13.811-14.75,32.32-23.94,50.91-31.17
		C209.96,131.6,218.66,130.84,226.96,128.76z"/>
	<path fill="#2CC73B" d="M371.18,250.47c5.3-3.65,8.93-9.14,14.06-13c1.41,3.76,0.99,7.9,1.3,11.85c0.29,1.96-1.5,3.241-2.649,4.54
		c-4.061,3.82-7.69,8.091-12.12,11.5C371.85,260.391,371.64,255.42,371.18,250.47z"/>
	<path fill="#2CC73B" d="M371.59,270.2c5.529-4.24,9.66-9.97,15.18-14.22c-0.1,6.299,1.5,14.24-3.88,18.899
		c-4.54,4.11-8.3,9.12-13.54,12.41C370.5,281.65,371.21,275.939,371.59,270.2z"/>
	<path fill="#2CC73B" d="M367.789,294.16c6.11-5.09,11.051-11.41,17.24-16.391c0.04,4.99-1.399,9.801-2.569,14.61
		c-0.561,2.19-1.25,4.49-3.021,6.04c-5.08,4.91-10.14,9.85-15.04,14.93c-1.42,1.551-3.2,2.69-5.07,3.61
		C362.89,309.66,365.699,302,367.789,294.16z"/>
	<path fill="#2CC73B" d="M112.59,289.63c3.57-3.37,6.78-7.17,10.85-9.979c0.57,4.08,1.33,8.129,2.301,12.14
		c-3.95,3.989-7.711,8.2-11.94,11.89c-0.26-0.05-0.76-0.16-1.01-0.209c-1.49-2.99-2.62-6.19-3.17-9.49
		C109.83,292.141,111.45,290.939,112.59,289.63z"/>
	<path fill="#2CC73B" d="M114.64,307.98c3.8-4.131,7.43-8.65,12.311-11.541c1.01,3.58,2.17,7.11,3.51,10.59
		c-3.721,3.9-7.36,7.891-11.471,11.391C116.87,315.25,115.47,311.689,114.64,307.98z"/>
	<path fill="#2CC73B" d="M353.47,327.9c9.069-6.711,15.84-16.061,24.58-23.18c-0.48,4.809-2.971,9.039-5.021,13.309
		c-2.37,4.561-4.47,9.301-7.479,13.48c-3.311,4.61-7.771,8.19-11.67,12.26c-9.921,10.101-20.061,19.99-29.95,30.121
		c-3.34,3.199-7.48,5.35-11.521,7.51c-6.01,2.99-11.899,6.619-18.609,7.75c5.279-7.24,13.16-12.211,18.08-19.721
		C328.619,358.9,342.92,344.641,353.47,327.9z"/>
	<path fill="#2CC73B" d="M120.74,321.99c3.31-4.17,7.34-7.68,11.159-11.37c1.36,3.25,2.86,6.45,4.54,9.569
		c-2.479,4.49-6.66,7.67-10.39,11.07C123.81,328.46,122.04,325.33,120.74,321.99z"/>
	<path fill="#2CC73B" d="M128.05,334.34c3.41-3.449,6.479-7.359,10.71-9.869c1.74,3.069,3.61,6.059,5.62,8.949
		c-3.32,3-6.16,6.53-9.7,9.29c-0.27-0.05-0.82-0.149-1.09-0.19C131.36,340.07,129.62,337.24,128.05,334.34z"/>
	<path fill="#2CC73B" d="M136.61,346c3.021-3.471,6.12-6.939,9.99-9.5c1.93,2.62,3.94,5.17,6.09,7.62
		c-2.479,3.79-5.75,7.01-9.34,9.76C140.89,351.45,138.27,349.09,136.61,346z"/>
	<path fill="#2CC73B" d="M146.37,356.221c2.619-3.381,5.8-6.32,9.33-8.74c2.17,2.369,4.439,4.649,6.819,6.819
		c-2.22,3.64-5.46,6.47-8.62,9.271C151.09,361.58,147.71,359.42,146.37,356.221z"/>
	<path fill="#2CC73B" d="M156.68,366.01c2.68-3.279,5.56-6.48,9.23-8.68c2.43,2.141,4.979,4.15,7.6,6.07
		c-2.3,3.449-5.32,6.32-8.521,8.939C161.77,370.88,159.02,368.641,156.68,366.01z"/>
	<path fill="#2CC73B" d="M176.61,365.609c7.101,4.94,14.71,9.121,22.7,12.431c-2.72,3.11-5.54,6.13-8.67,8.83
		c-5.53-1.521-9.899-5.41-15.14-7.57c-2.71-1.17-5.17-2.79-7.51-4.56C170.49,371.359,173.79,368.71,176.61,365.609z"/>
	<path fill="#2CC73B" d="M278.07,383.721c7.721-2.091,15.29-4.791,22.49-8.271c0.02,2.159-1.84,3.5-3.17,4.94
		c-2.72,2.619-5.41,5.279-8.03,8c-2.02,2.02-4.109,4.25-7,4.939c-5.09,1.32-10.239,2.71-15.54,2.74
		C270.05,391.49,274.78,388.26,278.07,383.721z"/>
	<path fill="#2CC73B" d="M194.53,388.1c2.57-3.129,5.511-5.92,8.58-8.55c3.631,1.39,7.33,2.58,11.07,3.63
		c-2.76,2.881-5.25,6.09-8.46,8.5C201.73,391.77,197.99,389.92,194.53,388.1z"/>
	<path fill="#2CC73B" d="M218.11,384.2c4.04,0.96,8.141,1.729,12.261,2.31c-2.49,3.4-5.271,6.7-8.73,9.15
		c-4.12,0.359-8.12-1.21-11.87-2.75C212.26,389.74,215.22,386.99,218.11,384.2z"/>
	<path fill="#2CC73B" d="M254.23,387.439c5.63-0.369,11.25-1.039,16.79-2.17c-2.39,4.621-6.53,8.051-10.399,11.391
		c-4.971,1.97-10.561,1.279-15.79,1.21C247.77,394.21,251.45,391.23,254.23,387.439z"/>
	<path fill="#2CC73B" d="M226.05,396.63c3.67-3.88,7.05-9.7,13.17-9.271c3.41,0.19,6.82,0.32,10.24,0.25
		c-2.94,3.631-6.061,7.201-9.78,10.041C235.13,398.23,230.56,397.141,226.05,396.63z"/>
</g>
<g>
	<g>
		<path fill="#F7FBFF" d="M171.24,171.26c27.09-22.82,64.72-31.72,99.329-24.87c-4.31,5.68-9.699,10.39-14.579,15.55
			c-1.7,1.85-3.671,3.44-5.811,4.77c-0.13-5.03,0.75-10.23-1.02-15.08c-2.07-0.15-3.9,0.68-5.271,2.19
			c-15.899,15.45-31.37,31.36-47.16,46.94c-19.55,19.71-39.37,39.16-58.81,58.98c-0.311,0.29-0.92,0.859-1.22,1.15
			c-2.99,2.709-5.99,5.449-8.23,8.84c-0.21-5.48-0.29-10.98,0.25-16.431c3.07-2.69,5.81-5.74,8.93-8.37
			c2.96,1.81,6.41,3.38,9.971,2.7c1.89-0.9,2.38-3.51,0.67-4.85c-2.09-0.87-4.32-1.36-6.48-2c3.22-4.37,7.48-7.79,11.63-11.24
			c1.57-1.15,1.351-3.84-0.66-4.38c-2.92-1.11-7.579-3.75-9.52,0.12c-0.28,2.47,2.65,3.46,4.09,4.97
			c-5.74,5.96-11.34,12.21-18,17.17C132.86,217.9,148.27,190.1,171.24,171.26z M225.73,153.74c-0.67,3.38,0.21,6.88,1.471,10.01
			c1.229,2.49,5.279,0.84,5.029-1.72c-0.12-2.54-0.39-5.24-1.81-7.42C229.47,152.98,227.23,153.68,225.73,153.74z M207.99,159.02
			c-0.7,4,0.619,8.83,3.8,11.48c1.67-1.06,4.189-2,3.649-4.49C214.25,162.8,212.54,157.09,207.99,159.02z M190.96,166.81
			c-0.61,1.68-1.16,3.58,0.18,5.08c3.29,4.84,5.5,10.35,9.061,15c1.779,2.4,6.119-0.19,4.77-2.92c-2.58-5.57-6.02-10.7-9.07-16.01
			C194.88,166.03,192.72,166.13,190.96,166.81z M175.79,183.12c2.069,2.18,4.66,5.24,7.979,3.64c0.3-1.47,0.86-3.03-0.2-4.34
			c-1.239-2.2-2.449-5.55-5.649-4.87C174.84,177.25,174.76,181.17,175.79,183.12z M162.45,191.47c-0.03,1.94-0.891,4.68,1.409,5.69
			c2.221,1.61,6.21,4.37,7.771,0.51C170.94,193.68,166.78,189.75,162.45,191.47z M152.25,206.37c-1.94,1.16-2.021,4.16,0.18,5.1
			c5.28,3.06,10.43,6.41,15.94,9.05c2.479,1.16,5.05-2.25,3.409-4.42c-4.05-3.45-9.17-5.27-13.539-8.27
			C156.46,206.84,154.31,204.78,152.25,206.37z"/>
	</g>
</g>
<g>
	<path fill="#E1E4EC" d="M270.57,146.39c1.301,0.29,2.61,0.6,3.91,0.9c-2.05,3.22-6.71,5.42-5.96,9.79
		c-0.149,2.79,0.04,7.59-3.54,7.98c-2.38,0.24-2.64-2.57-3.649-4.06c-3.88,3.91-8.46,7.33-11.21,12.19
		c0.069-2.16,0.05-4.32,0.06-6.48c2.14-1.33,4.11-2.92,5.811-4.77C260.87,156.78,266.26,152.07,270.57,146.39z"/>
	<path fill="#E1E4EC" d="M225.73,153.74c1.5-0.06,3.74-0.76,4.69,0.87c1.42,2.18,1.689,4.88,1.81,7.42
		c0.25,2.56-3.8,4.21-5.029,1.72C225.94,160.62,225.06,157.12,225.73,153.74z"/>
	<path fill="#E1E4EC" d="M279.97,162.88c1.08-2.24,2.55-4.28,5-5.1c1.39,1.64,2.51,3.68,1.54,5.83c-0.77,2.41-1.82,6.76-5.15,5.96
		C278.3,168.59,279.53,165.17,279.97,162.88z"/>
	<path fill="#E1E4EC" d="M207.99,159.02c4.55-1.93,6.26,3.78,7.449,6.99c0.54,2.49-1.979,3.43-3.649,4.49
		C208.61,167.85,207.29,163.02,207.99,159.02z"/>
	<path fill="#E1E4EC" d="M143.26,225.28c1.94-3.87,6.6-1.23,9.52-0.12c2.011,0.54,2.23,3.23,0.66,4.38
		c-4.149,3.45-8.41,6.87-11.63,11.24c2.16,0.64,4.391,1.13,6.48,2c1.71,1.34,1.22,3.95-0.67,4.85c-3.561,0.68-7.011-0.89-9.971-2.7
		c-3.12,2.63-5.859,5.68-8.93,8.37c0.25-1.93-0.04-4.1,0.63-5.88c6.66-4.96,12.26-11.21,18-17.17
		C145.91,228.74,142.98,227.75,143.26,225.28z"/>
	<path fill="#E1E4EC" d="M151.48,265.84c1.61,0.051,3.23,0.15,4.84,0.221c-3.58,3.27-7.17,6.6-10.26,10.359
		c1.811,1.38,5.11,3.74,2.63,6.15c-3,2.119-6.92,1.47-10.35,1.149c-2.17,2.33-4.38,4.63-6.71,6.81c-0.45-1.389-0.8-2.799-1.13-4.199
		c2.81-2.15,5.859-4.09,8.109-6.86C142.57,274.609,147.67,270.83,151.48,265.84z"/>
	<path fill="#E1E4EC" d="M148.56,295.42c1.49-0.02,3.54-1.23,4.75,0.21c1.2,1.07,0.521,2.71,0.521,4.08
		c-2.54,1.06-5.051,2.37-7.83,2.62c-1.48-0.26-2.44-1.59-3.65-2.37C143.47,297.34,145.9,296.04,148.56,295.42z"/>
</g>
<g>
	<path fill="#F9FDFF" d="M274.48,147.29c4.03,0.94,8,2.08,11.91,3.44c-17.24,17.97-35.11,35.31-52.64,53
		c-27.351,27.36-54.74,54.68-82.07,82.049c-5.56,5.531-11,11.201-16.82,16.461c-1.29-3.801-2.34-7.67-3.42-11.53l0.19-0.181
		c2.33-2.18,4.54-4.479,6.71-6.809c3.43,0.319,7.35,0.969,10.35-1.15c2.48-2.41-0.819-4.771-2.63-6.15
		c3.09-3.76,6.681-7.09,10.26-10.359c1.79-0.471,3.36-1.41,4.2-3.121c2.601-4.109,6.351-7.25,9.73-10.679
		c24.34-24.32,48.649-48.67,73-72.99c1-1.01,2.029-2,3.16-2.88c1.38-0.89,3.1-1.52,3.71-3.2c2.75-4.86,7.33-8.28,11.21-12.19
		c1.01,1.49,1.27,4.3,3.649,4.06c3.58-0.39,3.391-5.19,3.54-7.98C267.77,152.71,272.43,150.51,274.48,147.29z"/>
	<path fill="#F9FDFF" d="M284.97,157.78c1.86-1.86,3.64-3.81,5.75-5.41c3.4,1.24,6.69,2.77,9.95,4.36
		c-18.08,18.57-36.58,36.73-54.86,55.1c-29.5,29.5-58.99,59.01-88.49,88.51c-5.439,5.28-10.479,11.02-16.55,15.61
		c-1.729-3.171-3.18-6.48-4.43-9.86c2.11-1.93,4.32-3.8,6.01-6.13c1.21,0.78,2.17,2.11,3.65,2.37c2.779-0.25,5.29-1.561,7.83-2.62
		c0-1.37,0.68-3.01-0.521-4.08c-1.21-1.44-3.26-0.229-4.75-0.21c-0.03-0.82,0.19-1.529,0.66-2.13
		c38.04-38.01,76.08-76.04,114.1-114.09c5.53-5.46,10.83-11.16,16.65-16.32c-0.44,2.29-1.67,5.71,1.39,6.69
		c3.33,0.8,4.381-3.55,5.15-5.96C287.48,161.46,286.36,159.42,284.97,157.78z"/>
	<path fill="#F9FDFF" d="M202.3,200.24c13.95-13.78,27.5-27.96,41.74-41.42c0.2,4.95,0.239,9.9,0.029,14.84
		c-2.52,2.29-4.97,4.64-7.359,7.06c-25.44,25.54-51.021,50.96-76.45,76.52c-0.94,0.77-1.9,1.81-3.22,1.81
		c-4.32,0.38-8.66,0.12-12.971-0.22c3.04-3.86,6.801-7.05,10.21-10.58C170.27,232.23,186.29,216.24,202.3,200.24z"/>
	<g>
		<path fill="#F9FDFF" d="M152.21,310.15c50.66-50.521,101.02-101.34,151.88-151.65c6.97,3.85,13.5,8.44,19.649,13.49
			c-0.979,2.33-2.43,4.43-4.43,5.99c-3.82-2.15-6.82,1.83-8.61,4.7c-1.35,1.66-0.609,4.46,1.42,5.13c3.29-0.17,5.011-3.44,7.23-5.42
			c2.14-1.91,4.48-3.6,6.73-5.39c2.739,1.99,4.64,4.82,6.09,7.84c-1.65,1.97-3.25,3.97-4.94,5.91c-1.66,1.94-3.47,3.75-5.439,5.38
			c-1.2,1-2.421,1.98-3.57,3.04c-19.851,19.71-39.479,39.68-59.45,59.27c-0.529-0.119-1.6-0.35-2.13-0.469
			c11.13-11.991,23.28-23.041,34.61-34.851c2.52-2.58-1.82-6.69-4.26-4.03c-11.671,11.28-22.99,22.95-34.681,34.23
			c-8.609-5.39-20.149,5.38-15.5,14.359c-3.96,1.391-7.38,3.87-11.02,5.881c-14.69,8.819-29.62,17.25-44.4,25.91
			c-1.05,0.719-1.76,1.709-2.13,2.989c3,0.149,5.44-1.71,7.9-3.12c4.439-2.58,8.819-5.25,13.279-7.77
			c3.471-1.92,6.681-4.4,10.53-5.561c-5.91,6.74-12.55,12.801-18.83,19.19c-6.95,6.87-13.68,13.979-20.84,20.63
			c-0.84-0.09-2.521-0.26-3.36-0.35c-2.12,1.689-4.68,3.1-6,5.56c0.12,1.271,0.4,2.51,0.811,3.729
			c-1.03,0.99-2.061,1.971-3.09,2.961c-2.66-2.221-5.07-4.711-7.29-7.371C158.4,323.45,166,317.9,171.19,310.28
			c0.82-1.13,1.061-2.521,1.41-3.83c-1.38-0.71-2.87-2.47-4.52-1.36c-5.17,2.75-10.271,5.69-15.29,8.71
			c-2.351,0.98-2.19,4.671,0.21,5.48c1.479,0.78,3-0.511,4.38-0.89c-0.5,3.939-4.82,6.039-7.41,8.659
			c-2.49-2.31-4.43-5.12-6.12-8.06C146.46,315.88,149.31,312.99,152.21,310.15z M298.699,167.68c-3.3,5.15-6.159,10.59-9.18,15.91
			c-1.17,2.08,0.851,3.88,2.42,4.93c1.46-0.67,2.851-1.53,3.54-3.05c2.771-4.85,5.59-9.68,8.18-14.61
			C305.8,167.74,300.59,164.49,298.699,167.68z"/>
	</g>
	<path fill="#F9FDFF" d="M137.14,265.27c4.73,0.92,9.561,0.42,14.34,0.57c-3.81,4.99-8.91,8.77-12.87,13.631
		c-2.25,2.77-5.3,4.709-8.109,6.859c-0.67-4.33-1.431-8.65-1.73-13.02C131.83,270.92,134.57,268.18,137.14,265.27z"/>
</g>
<g>
	<path fill="#F9FDFF" d="M286.39,150.73c1.47,0.52,2.95,1.04,4.44,1.55l-0.11,0.09c-2.11,1.6-3.89,3.55-5.75,5.41
		c-2.45,0.82-3.92,2.86-5,5.1c-5.82,5.16-11.12,10.86-16.65,16.32c-38.02,38.05-76.06,76.08-114.1,114.09
		c-0.47,0.601-0.69,1.31-0.66,2.13c-2.66,0.62-5.09,1.92-6.21,4.54c-1.689,2.33-3.899,4.2-6.01,6.13c-0.51-1.279-1-2.57-1.48-3.85
		c5.82-5.26,11.261-10.93,16.82-16.46c27.33-27.37,54.72-54.69,82.07-82.05C251.28,186.04,269.15,168.7,286.39,150.73z"/>
	<path fill="#F9FDFF" d="M196.73,200.76c15.79-15.58,31.26-31.49,47.16-46.94c0.05,1.66,0.101,3.33,0.15,5
		c-14.24,13.46-27.79,27.64-41.74,41.42c-16.01,16-32.03,31.99-48.021,48.01c-3.409,3.53-7.17,6.72-10.21,10.58
		c4.311,0.34,8.65,0.6,12.971,0.22c1.319,0,2.279-1.04,3.22-1.81c25.43-25.56,51.01-50.98,76.45-76.52
		c2.39-2.42,4.84-4.77,7.359-7.06c0.78,0.91,1.561,1.82,2.341,2.73c-1.131,0.88-2.16,1.87-3.16,2.88
		c-24.351,24.32-48.66,48.67-73,72.99c-3.38,3.43-7.13,6.57-9.73,10.68c-0.77-0.969-0.92-3.109-2.56-2.91
		c-6.681-0.149-13.36-0.199-20.04-0.289C157.36,239.92,177.18,220.47,196.73,200.76z"/>
</g>
<g>
	<path fill="#FFD3DA" d="M243.89,153.82c1.37-1.51,3.2-2.34,5.271-2.19c1.77,4.85,0.89,10.05,1.02,15.08
		c-0.01,2.16,0.01,4.32-0.06,6.48c-0.61,1.68-2.33,2.31-3.71,3.2c-0.78-0.91-1.561-1.82-2.341-2.73
		c0.21-4.94,0.171-9.89-0.029-14.84C243.99,157.15,243.94,155.48,243.89,153.82z"/>
	<path fill="#FFD3DA" d="M136.7,260.891c0.3-0.291,0.909-0.86,1.22-1.15c6.68,0.09,13.359,0.14,20.04,0.29
		c1.64-0.2,1.79,1.94,2.56,2.909c-0.84,1.711-2.41,2.65-4.2,3.121c-1.609-0.07-3.229-0.17-4.84-0.221
		c-4.779-0.15-9.609,0.35-14.34-0.57C136.99,263.8,136.84,262.35,136.7,260.891z"/>
</g>
<g>
	<path fill="#FFFFFF" d="M393.25,151.98c2.51-0.14,5.02-0.14,7.539-0.01c0.19,1.5,0.381,2.99,0.601,4.49
		c-3.601,3.2-6.96,6.66-10.561,9.87C391.24,161.48,392.31,156.74,393.25,151.98z"/>
	<path fill="#FFFFFF" d="M360.619,162.84c1.841-1.66,4.021-2.86,6.24-3.92c3.62,3.96,6.44,8.58,10.24,12.39
		c3.5-1.05,7.01-2.08,10.6-2.79c-0.52,1.7-1.63,3.11-2.93,4.3c-4,3.79-7.77,7.82-11.85,11.53c-3.301-5.25-6.99-10.24-10.74-15.16
		C361.69,167.06,361.199,164.94,360.619,162.84z"/>
	<path fill="#FFFFFF" d="M427.15,159.12c2.18,1.11,4.28,2.37,6.26,3.8c-2.12,4.91-4,9.93-5.51,15.06c3.32,2.81,5.95,6.3,9.13,9.23
		c5.42-0.8,10.37-3.6,15.7-4.94c1.3,2.14,2.49,4.35,3.43,6.67c-4,3.43-8.34,6.44-12.229,10.01c1.45,4.3,2.68,8.67,3.31,13.17
		c5.19,0.89,10.42,1.61,15.54,2.93c0.07,2.4,1.7,5.4-0.01,7.49c-5.13,0.83-10.32,1.4-15.37,2.7c-0.55,2.62-1.27,5.2-2.06,7.76
		c-4.04,2.66-7.2,6.36-10.59,9.74c-7.921,8.2-16.511,15.779-23.87,24.49c-2.49,0.739-4.99,1.459-7.511,2.08
		c-1.17,5.14-2.46,10.26-2.949,15.52c-2.131,0.029-4.25,0.05-6.37,0.08c1.18-8.83,1.87-17.74,1.5-26.641
		c7.46,0.851,14.739-1.97,21.13-5.55c10.34-6.09,17.359-16.97,19.47-28.69c0.48-5.65-0.11-11.39-1.52-16.88
		c-4.19-12.48-14.45-23.05-27.301-26.48c-8.569-3.14-18.04-1.48-26.35,1.64c3.021-4.36,7.12-7.75,10.771-11.55
		c3.35-3.42,6.72-6.84,10.329-10c0.381,2.35,0.811,4.69,1.23,7.04c4.24,1.06,8.4,2.52,12.71,3.26
		C420.409,167.9,423.159,162.82,427.15,159.12z"/>
	<path fill="#FFFFFF" d="M65.99,226.35c3.97-2.65,7.42-6.81,11.92-8.25c6.54,5.07,11.59,11.81,18.189,16.81
		c1.84-0.02,3.44-1.13,5.11-1.77c-0.32,1.52-0.641,3.06-0.91,4.6c-1.39,1.12-2.771,2.26-4.07,3.48
		c-14.42,14.309-28.569,28.9-43.21,42.99c-5.01-2.989-9.529-6.69-14.59-9.59c-1.12-0.82-2.63-1.36-3.27-2.66
		c1.3-4.44,3.68-8.47,5.42-12.739c8.6,0.689,16.62,4.299,25.149,5.549c3.55-5.22,7.37-10.24,11.63-14.91
		c-0.859-2.4-1.81-4.77-3.08-6.98C71.2,237.53,68.93,231.77,65.99,226.35z"/>
	<path fill="#FFFFFF" d="M416.63,265.67c9.279-8.88,18.37-18,27.239-27.28c4.351,3.21,8.24,7,12.24,10.63
		c-1.109,2.05-2.24,4.08-3.39,6.11c-5.29-1.56-10.25-4.1-15.62-5.42c-2.78,3.37-5.96,6.38-9.19,9.31
		c1.41,5.32,3.49,10.42,5.09,15.681c-2.13,0.93-4.22,3.17-6.52,2.96C423.01,273.83,419.72,269.82,416.63,265.67z"/>
	<path fill="#FFFFFF" d="M94.77,247.7c1.49-1.44,3.07-2.78,4.65-4.12c-0.79,5.62-0.99,11.3-1.45,16.949
		c-4.72,2.941-7.96,7.531-11.68,11.531c-4.62,3.029-8.09,7.379-12.061,11.149c-6.33,6.16-12.279,12.729-18.87,18.62
		c-0.279-1.32-0.54-2.641-0.779-3.971c0.3-2.939,0.96-5.83,1.54-8.729c0.72-2.12,1.479-4.319,3.12-5.91
		C71.16,271.45,82.96,259.561,94.77,247.7z"/>
	<path fill="#FFFFFF" d="M67.81,294.73c4.141-4,7.851-8.471,12.61-11.771c-2.73,6.32-4.311,13.05-5.26,19.851
		c-8.42,7.34-15.891,15.689-23.931,23.43c-1.63,1.76-4.149,1.85-6.359,2.17c-2.83-0.16-5.67-0.34-8.511-0.471
		c0.16-1.709,1.141-3.09,2.38-4.209C48.54,314.17,58.04,304.311,67.81,294.73z"/>
	<path fill="#FFFFFF" d="M29.15,313.07c5.79-2.1,11.79-3.541,17.681-5.36c0.51,0.149,1.55,0.45,2.069,0.601
		c-5.8,6.239-11.819,12.299-18.12,18.049C30.12,321.95,29.57,317.51,29.15,313.07z"/>
	<path fill="#FFFFFF" d="M53.83,328.859c6.97-7.14,13.949-14.299,21.22-21.14c0.11,9.73,2.49,19.3,6.979,27.931
		C74.12,343.2,66.5,351.05,58.75,358.75c-3.38,3.3-6.44,6.97-10.391,9.62c-0.699-0.91-1.399-1.83-2.09-2.74
		c5.811-6.31,11.95-12.31,17.771-18.601c-2.4-5.909-5.15-11.68-7.12-17.75C56.14,329.17,54.6,328.971,53.83,328.859z"/>
	<path fill="#FFFFFF" d="M375.99,336.721c0.74,0.059,2.23,0.159,2.971,0.209c2.42,2.631,4.159,5.881,5.739,9.08
		c-4.899,5.12-11.239,8.73-16.27,13.77c1.81,5.08,2.89,10.381,4.22,15.601c2.49,0.61,4.99,1.181,7.51,1.7
		c-7.04,7.65-14.71,14.68-21.89,22.199c-1.41,1.371-2.78,3.121-4.93,3.181c4.38-11.36,4.25-24.19-0.261-35.489
		C362.02,357.96,369.57,347.65,375.99,336.721z"/>
	<path fill="#FFFFFF" d="M50.77,371.54c11.28-10.64,21.82-22.04,33.101-32.67c6.88,11.229,17.399,20.01,29.56,25.04
		c-7.1,7.189-14.01,14.619-21.62,21.3c0.57-2.5,1.17-4.979,1.771-7.46c-5.13-3.9-10.141-8.061-15.42-11.68
		c-8.131,2.779-15.15,7.99-23.141,11.08C53.54,375.33,52.15,373.43,50.77,371.54z"/>
	<path fill="#FFFFFF" d="M109.23,373.26c3.11-2.66,5.41-6.99,9.84-7.51c7.24,2.09,14.86,3.45,22.37,1.971
		c4.721,4.699,9.73,9.1,14.99,13.189c-5.83,5.91-11.57,11.92-17.62,17.6c-0.439-0.07-1.33-0.199-1.77-0.27
		c-0.88-2.96-1.71-5.93-2.53-8.9c-5.84-0.89-11.8-0.77-17.55-2.369c-1.61-0.841-2.46,0.81-3.141,1.899
		c-4.14,6.54-8.34,13.04-12.829,19.34c-4.521-1.899-9.25-3.41-13.521-5.851c0.9-3.819,1.91-7.609,3.07-11.35
		C97.59,386.05,102.95,379.109,109.23,373.26z"/>
	<path fill="#FFFFFF" d="M384.199,377.859c3.23,0.49,6.48,0.931,9.57,2.051c-0.18,3.6-0.2,7.21-0.13,10.82
		c-6.88,1.06-13.76,2.229-20.601,3.489c-2.029,5.05-2.079,10.89-5.02,15.66c-4.95,4.07-9.16,8.91-13.78,13.33
		c-7.689,8-15.979,15.42-23.33,23.74c-4.729,2.68-10.199,3.45-15.439,4.569c-1.63,6.83-2.76,13.771-4.391,20.591
		c-3.449,0.97-7.329,0.25-10.949,0.59c-0.721-3.03-1.13-6.12-1.511-9.21c7.46-6.45,13.98-13.88,21.101-20.69
		c5.06-5.32,10.78-10.06,15.22-15.95c4.73-3.83,9-8.149,12.84-12.859c5.37-3.961,9.7-9.1,14.48-13.721
		C369.48,392.71,377.36,385.779,384.199,377.859z"/>
	<path fill="#FFFFFF" d="M155.76,386.71c1.26-1.271,2.75-2.271,4.31-3.13l1.24,0.84c-1.14,0.859-2.51,1.5-3.33,2.7
		c-1.12,8.43-0.779,17.05-2.12,25.44c-4.8,0.35-9.569,0.949-14.35,1.34c-1.021-3.45-1.9-6.93-2.83-10.4
		C144.67,398.221,150.12,392.359,155.76,386.71z"/>
	<path fill="#FFFFFF" d="M241.32,411.73c7.101,0.26,14.21-0.041,21.28-0.721c4.811,9.18,13.38,16.03,22.67,20.391
		c-3.91,5.63-9.39,9.869-14.069,14.81c-4.431,4.05-8.03,9.07-13.131,12.36l-1.119-0.58c2.359-6.78,5.109-13.42,7.689-20.11
		c-4.27-3.59-8.32-7.39-11.78-11.78c-6.779,2.431-13.43,5.44-20.5,6.92c-1.64-3.27-3.71-6.3-5.31-9.579
		C231.81,419.55,236.78,415.891,241.32,411.73z"/>
	<path fill="#FFFFFF" d="M370.36,411.92c4.83,3.9,9.2,8.32,14.12,12.12c-1.62,3.42-3.51,6.69-5.6,9.84
		c-6.551-2.57-13.091-5.12-19.681-7.55c-3.779,4.03-7.62,7.979-11.72,11.68c2.08,6.76,4.51,13.4,6.88,20.061
		c-3.12,2.189-6.41,4.13-9.89,5.68c-3.41-4.84-7.48-9.16-11.09-13.84c3.06-4.41,7.239-7.811,10.92-11.65
		C352.97,429.46,361.88,420.9,370.36,411.92z"/>
	<path fill="#FFFFFF" d="M289.25,433.07c4.79,1.43,9.729,2.51,14.71,3.029c6.659-0.17,13.35-1.239,19.6-3.56
		c-0.48,2.5-2.67,4.03-4.33,5.75c-7.22,6.84-13.84,14.3-21.29,20.89c-0.439-2.529-0.93-5.04-1.42-7.55
		c-5.26-1.39-10.59-2.5-15.75-4.22c-4.859,4.93-8.84,10.68-13.81,15.479c-1.88,0.4-3.44-1.399-5.08-2.09
		C270.83,451.39,280.39,442.57,289.25,433.07z"/>
</g>
<g>
	<path fill="#F9FDFF" d="M300.67,156.73c1.13,0.59,2.27,1.18,3.42,1.77c-50.86,50.31-101.22,101.13-151.88,151.65
		c-2.9,2.84-5.75,5.729-8.36,8.84c1.69,2.939,3.63,5.75,6.12,8.06c2.59-2.62,6.91-4.72,7.41-8.659
		c1.54-0.891,3.03-1.851,4.479-2.871c3.03-1.89,6.141-3.64,9.33-5.24C166,317.9,158.4,323.45,152.37,330.359
		c2.22,2.66,4.63,5.15,7.29,7.371c1.029-0.99,2.06-1.971,3.09-2.961c1.67-0.189,3.33-0.379,4.99-0.609
		c-1.671,1.939-3.271,3.93-4.91,5.9c2.09,2.64,4.72,4.76,7.489,6.64c1.891-1.44,3.761-2.9,5.54-4.47
		c-0.26,1.619-0.529,3.24-0.909,4.84c-0.16,0.82-0.4,1.619-0.5,2.459c2.43,2.201,5.5,3.471,8.489,4.711
		c5.96-4.59,10.141-11.19,16.601-15.131c-2.78,5.42-6.271,10.461-8.91,15.951c-0.97,1.729,1.27,3.039,2.28,4.14
		c1.17,0.489,2.31,1.819,3.659,1.42c2.57-1.771,4.561-4.2,6.771-6.37c21.7-21.91,43.68-43.54,65.33-65.5
		c0.85,0.859,1.72,1.721,2.58,2.59c-19.5,19.131-38.61,38.66-58.04,57.87c-4.141,4.32-8.641,8.29-12.5,12.87
		c1.67,0.91,3.439,1.641,5.28,2.189c0.6-0.77,1.189-1.539,1.77-2.319c0.03,1.3,0.07,2.6,0.14,3.909
		c1.061,0.521,2.11,1.051,3.17,1.58c1.801-1.489,2.61-3.709,3.45-5.819c2.05-0.3,3.41-1.95,4.8-3.32
		c19.671-19.96,39.721-39.54,59.33-59.56c0.87,0.869,1.75,1.75,2.63,2.63c-20.199,19.739-39.96,39.93-60.029,59.81
		c-1.79,1.721-3.48,3.541-5.101,5.42c3.141,0.25,7.61,2.971,9.74-0.56c0.061,1.76-0.899,4.239,1.07,5.31
		c1.6,1.18,4.189,0.34,4.62-1.629c0.56-2.531,0.51-5.15,0.64-7.721c0.56,0.55,1.13,1.109,1.69,1.68c3.35-3.34,6.58-6.8,10.14-9.93
		c0.25,5.17,0.14,10.34,0.06,15.52c-0.02,1.701,0.721,4.211,2.87,4c2.84,0.381,3.75-2.789,3.34-5.01
		c-0.43-5.439,0.061-10.89-0.359-16.32c0-2.06-2.37-2.08-3.86-2.06c2.23-1.26,4.45-2.62,6.2-4.54c12-12.311,24.37-24.27,36.36-36.59
		c0.869,0.859,1.729,1.73,2.6,2.6c-12.53,12.09-24.59,24.67-37.08,36.811c-1.149,1.21-2.479,2.35-3.16,3.92
		c-0.66,4.63-0.3,9.33,0.12,13.97c16.26-15.29,31.521-31.64,47.62-47.11c0.54,0.08,1.62,0.24,2.16,0.32
		c0.5-0.17,1.51-0.52,2.02-0.699c-2.54,4.149-6.359,7.209-9.71,10.66c-10.02,10.1-20.21,20.029-30.109,30.239
		c1.31,0.41,2.63,0.83,3.949,1.22c-1.67,0.141-3.819-0.229-4.81,1.5c-0.15,2.811-0.02,5.84,1.271,8.4
		c1.21,0.88,3.239,1.859,4.449,0.439c1.91-1.369,0.71-3.879,0.471-5.76c3.939-0.9,7.699-2.56,10.729-5.27
		c0.82,2.06,1.62,4.16,2.86,6.02c1.51,1.33,4,0.631,4.729-1.21c0.23-1.899-0.56-3.729-1.029-5.53
		c3.449-1.89,6.96-3.689,10.479-5.479c1.311,1.851,2,5,4.7,5.14c1.79,0.08,2.66-1.63,3.529-2.88c-1-1.93-2.029-3.84-3.149-5.7
		c3.54-1.709,6.76-3.979,9.689-6.58c1.771,1.891,3.69,5.32,6.79,3.931c3.16-2.25,0.32-5.841-1.649-7.771
		c2.95-2.57,5.84-5.25,8.149-8.42c1.9,1.77,4.99,4.811,7.48,2.27c2.16-2.76-1.07-5.219-3-6.819c2.39-3.12,4.72-6.3,6.66-9.729
		c2.21,1.319,5.67,4,7.52,0.75c1.851-3.381-2.55-4.881-4.78-6.25c2.851-2.91,4.511-6.66,6.08-10.36c2.25,0.899,6.28,2.06,6.851-1.39
		c0.08-4.33-5.79-4.48-8.931-5.271c3.79-2.7,7.08-6.101,9.15-10.31c1.28,0,2.57-0.021,3.86-0.041c2.489-2.719,0.149-6.09-3.04-6.469
		c0.6-2.94,1.18-5.881,1.67-8.851c-4.71,3.87-8.69,8.521-13.13,12.68c-10.91,11.05-21.94,22-32.891,33.011
		c-1.35,1.299-2.859,2.399-4.37,3.489c-0.09-1.21-0.199-2.409-0.329-3.6c15.859-16.431,32.55-32.08,48.159-48.72
		c2.24-0.101,5.641,0.58,6.45-2.271c0.65-1.63-0.95-2.771-1.7-3.979c-2.02-3.48-0.83-7.75-1.239-11.57
		c-3.7,2.86-6.57,6.6-10.07,9.67c-1.5,1.57-3.771,1.09-5.69,1.2c3.11-3.89,7-7.05,10.2-10.86c2.101-0.46,4.23-0.91,6.24-1.71
		c2.06-1.72,0.439-4.24-1.19-5.53c-0.46-3.45-0.8-6.95-2.05-10.23c-3.939,3.21-7.32,7.03-10.939,10.58
		c-18.561,18.649-37.301,37.14-55.76,55.89c-0.881-0.89-1.761-1.76-2.641-2.64c20.4-19.8,40.22-40.19,60.46-60.16
		c1.35-1.39,2.521-2.94,3.8-4.4c1.21-0.7,2.46-1.35,3.61-2.17c0.29-1.29,0.35-2.61,0.18-3.94c-0.57-3.11-1.24-6.25-2.8-9.03
		c-1.34,1.11-2.66,2.24-3.91,3.45c-22.79,23.07-45.99,45.739-68.64,68.95c-0.9-0.9-1.8-1.791-2.69-2.69
		c21.19-20.64,41.86-41.82,62.891-62.64c3.51-3.85,7.76-7.05,10.84-11.27c-0.57-3.61-2.42-6.93-4.471-9.91
		c-2.189,2-5.3,3.74-5.68,6.99c-4.34,2.76-8.859,5.21-13.32,7.76c4.641-7.05,11.851-11.87,17.11-18.42
		c-1.2-3.36-3.229-6.32-5.479-9.07c-1.131,0.98-2.341,1.99-2.53,3.57c-1.66-0.31-3.32-0.55-4.99-0.72c1.69-1.94,3.29-3.94,4.94-5.91
		c-1.45-3.02-3.351-5.85-6.091-7.84c-2.25,1.79-4.59,3.48-6.729,5.39c-0.04-1.47-0.05-2.94-0.04-4.41c2-1.56,3.45-3.66,4.43-5.99
		c18.45,15.39,31.86,36.66,38.021,59.87c6.149,23.27,5.3,48.41-2.811,71.1c-10.529,30.55-34.5,56.08-64.149,68.86
		c-36.59,16.01-81.2,12.279-114.23-10.32c-17-11.3-30.8-27.221-39.939-45.45l0.14-0.101c6.07-4.59,11.11-10.329,16.55-15.609
		c29.5-29.5,58.99-59.01,88.49-88.51C264.09,193.46,282.59,175.3,300.67,156.73z"/>
</g>
<g>
	<path fill="#FFFFFF" d="M390.829,166.33c3.601-3.21,6.96-6.67,10.561-9.87c0.21,1.43,0.439,2.87,0.689,4.3
		c-3.609,3.16-6.979,6.58-10.329,10c-3.65,3.8-7.75,7.19-10.771,11.55c-2.32,1.28-4.65,2.53-6.96,3.81
		c-0.28-0.45-0.83-1.33-1.1-1.77c4.08-3.71,7.85-7.74,11.85-11.53c1.3-1.19,2.41-2.6,2.93-4.3
		C388.86,167.97,389.88,167.19,390.829,166.33z"/>
	<path fill="#FFFFFF" d="M434.75,242.74c3.39-3.38,6.55-7.08,10.59-9.74c-0.53,1.78-0.95,3.6-1.471,5.39
		c-8.869,9.28-17.96,18.4-27.239,27.28c-1.91,0.551-3.841,1.01-5.75,1.561C418.24,258.52,426.829,250.94,434.75,242.74z"/>
	<path fill="#FFFFFF" d="M96.23,241.22c1.3-1.22,2.681-2.36,4.07-3.48c-0.33,1.94-0.63,3.89-0.88,5.84
		c-1.58,1.34-3.16,2.68-4.65,4.12c-11.81,11.86-23.609,23.75-35.529,35.521c-1.641,1.59-2.4,3.789-3.12,5.909
		c-0.011-0.739-0.04-2.21-0.051-2.94c-1.02-0.66-2.029-1.34-3.05-1.979C67.66,270.12,81.81,255.529,96.23,241.22z"/>
	<path fill="#FFFFFF" d="M74.23,283.21c3.971-3.771,7.44-8.12,12.061-11.149c-2.07,3.569-3.99,7.219-5.87,10.899
		c-4.76,3.3-8.47,7.771-12.61,11.771c-9.77,9.58-19.27,19.439-29.07,29c-1.239,1.119-2.22,2.5-2.38,4.209
		c-1.88-0.299-4.279,0.141-5.58-1.58c6.301-5.75,12.32-11.81,18.12-18.049c-0.52-0.15-1.56-0.451-2.069-0.601
		c2.33-0.67,4.68-1.3,7.04-1.88c0.21-2.66,0.409-5.32,0.71-7.971c0.239,1.33,0.5,2.65,0.779,3.971
		C61.95,295.939,67.9,289.37,74.23,283.21z"/>
	<path fill="#FFFFFF" d="M51.23,326.24c8.04-7.74,15.511-16.09,23.931-23.43c-0.101,1.629-0.141,3.27-0.11,4.91
		c-7.271,6.84-14.25,14-21.22,21.139c-2.99-0.199-5.98-0.25-8.96-0.449C47.08,328.09,49.6,328,51.23,326.24z"/>
	<path fill="#FFFFFF" d="M58.75,358.75c7.75-7.7,15.37-15.55,23.279-23.1c0.58,1.09,1.19,2.17,1.841,3.22
		C72.59,349.5,62.05,360.9,50.77,371.54c-0.779-1.08-1.609-2.11-2.41-3.17C52.31,365.721,55.37,362.05,58.75,358.75z"/>
	<path fill="#FFFFFF" d="M113.43,363.91c1.84,0.71,3.73,1.3,5.64,1.84c-4.43,0.52-6.729,4.85-9.84,7.51
		c-6.279,5.85-11.64,12.79-18.689,17.75c0.46-1.93,0.84-3.869,1.27-5.8C99.42,378.529,106.33,371.1,113.43,363.91z"/>
	<path fill="#FFFFFF" d="M380.159,377.08c1.341,0.26,2.681,0.55,4.04,0.779c-6.84,7.92-14.72,14.851-21.939,22.41
		c-4.78,4.621-9.11,9.76-14.48,13.721c2.11-3.711,4.01-7.551,5.561-11.53c2.149-0.06,3.52-1.81,4.93-3.181
		C365.449,391.76,373.119,384.73,380.159,377.08z"/>
	<path fill="#FFFFFF" d="M156.43,380.91c1.19,0.91,2.4,1.811,3.64,2.67c-1.56,0.859-3.05,1.859-4.31,3.13
		c-5.64,5.649-11.09,11.511-17.08,16.79c-0.52-1.77-1.1-3.51-1.64-5.26c0.439,0.07,1.33,0.199,1.77,0.27
		C144.86,392.83,150.6,386.82,156.43,380.91z"/>
	<path fill="#FFFFFF" d="M354.24,423.21c4.62-4.42,8.83-9.26,13.78-13.33c0.77,0.681,1.55,1.36,2.34,2.04
		c-8.479,8.98-17.39,17.54-26.06,26.34c-3.681,3.84-7.86,7.24-10.92,11.65c-0.811-1.01-1.641-1.98-2.471-2.96
		C338.26,438.63,346.55,431.21,354.24,423.21z"/>
	<path fill="#FFFFFF" d="M323.56,432.54c3.95-1.56,7.729-3.521,11.38-5.69c-4.439,5.891-10.16,10.631-15.22,15.95
		c-7.12,6.811-13.641,14.24-21.101,20.69c-0.21-1.44-0.439-2.891-0.68-4.311c7.45-6.59,14.07-14.05,21.29-20.89
		C320.89,436.57,323.079,435.04,323.56,432.54z"/>
	<path fill="#FFFFFF" d="M285.27,431.4c1.3,0.609,2.62,1.159,3.98,1.67c-8.86,9.5-18.42,18.319-27.37,27.729
		c-1.271-0.76-2.521-1.52-3.811-2.229c5.101-3.29,8.7-8.311,13.131-12.36C275.88,441.27,281.36,437.03,285.27,431.4z"/>
</g>
<g>
	<path fill="#BCBCCE" d="M190.96,166.81c1.76-0.68,3.92-0.78,4.939,1.15c3.051,5.31,6.49,10.44,9.07,16.01
		c1.35,2.73-2.99,5.32-4.77,2.92c-3.561-4.65-5.771-10.16-9.061-15C189.8,170.39,190.35,168.49,190.96,166.81z"/>
	<path fill="#BCBCCE" d="M298.699,167.68c1.891-3.19,7.101,0.06,4.96,3.18c-2.59,4.93-5.409,9.76-8.18,14.61
		c-0.689,1.521-2.08,2.38-3.54,3.05c-1.569-1.05-3.59-2.85-2.42-4.93C292.54,178.27,295.4,172.83,298.699,167.68z"/>
	<path fill="#BCBCCE" d="M152.25,206.37c2.06-1.59,4.21,0.47,5.99,1.46c4.369,3,9.489,4.82,13.539,8.27
		c1.641,2.17-0.93,5.58-3.409,4.42c-5.511-2.64-10.66-5.99-15.94-9.05C150.23,210.53,150.31,207.53,152.25,206.37z"/>
	<path fill="#BCBCCE" d="M152.79,313.8c5.02-3.021,10.12-5.96,15.29-8.71c1.649-1.109,3.14,0.65,4.52,1.36
		c-3.68,2.89-7.82,5.35-10.74,9.069c-1.449,1.021-2.939,1.98-4.479,2.871c-1.38,0.379-2.9,1.67-4.38,0.889
		C150.6,318.471,150.44,314.779,152.79,313.8z"/>
</g>
<g>
	<path fill="#E0E3EB" d="M310.699,182.68c1.79-2.87,4.79-6.85,8.61-4.7c-0.01,1.47,0,2.94,0.04,4.41c-2.22,1.98-3.94,5.25-7.23,5.42
		C310.09,187.14,309.35,184.34,310.699,182.68z"/>
	<path fill="#E0E3EB" d="M175.79,183.12c-1.03-1.95-0.95-5.87,2.13-5.57c3.2-0.68,4.41,2.67,5.649,4.87
		c1.061,1.31,0.5,2.87,0.2,4.34C180.45,188.36,177.86,185.3,175.79,183.12z"/>
</g>
<g>
	<path fill="#F2FAFF" d="M332.22,191.47c0.189-1.58,1.399-2.59,2.53-3.57c2.25,2.75,4.279,5.71,5.479,9.07
		c-5.26,6.55-12.47,11.37-17.11,18.42c-0.239,0.2-0.729,0.61-0.979,0.81c-1.311,0.99-2.69,1.9-3.91,3.01
		c-18.43,18.44-36.8,36.95-55.34,55.29c-2.1-2.07-4.25-4.09-6.12-6.37c0.47-1.319,0.95-2.63,1.44-3.94
		c19.27-19.049,38.34-38.299,57.54-57.419c2.56-2.39,4.63-5.55,8.039-6.81C328.06,199.93,333.23,196.16,332.22,191.47z"/>
	<path fill="#F2FAFF" d="M336.44,207.63c0.38-3.25,3.49-4.99,5.68-6.99c2.051,2.98,3.9,6.3,4.471,9.91
		c-3.08,4.22-7.33,7.42-10.84,11.27c-21.03,20.82-41.7,42-62.891,62.64c-2.439-2.43-4.88-4.86-7.3-7.3
		c13.51-14.02,27.54-27.52,41.2-41.39c5.319-5.18,10.35-10.65,15.87-15.62c3.319,1.6,6.159-1.19,8.909-2.64
		c3.511-2.18,7.32-3.86,10.69-6.25c1.93-1.31,1.06-4.81-1.21-5.16C339.329,205.59,337.88,207.02,336.44,207.63z"/>
	<path fill="#F2FAFF" d="M344.19,218.2c1.25-1.21,2.57-2.34,3.91-3.45c1.56,2.78,2.229,5.92,2.8,9.03
		c-3.24-1.34-6.649,0.09-9.49,1.71c-1.96,1.3-1.25,4.63,0.98,5.21c1.6-0.02,3.16-0.45,4.72-0.81c-1.28,1.46-2.45,3.01-3.8,4.4
		c-20.24,19.97-40.06,40.36-60.46,60.16c-2.439-2.431-4.87-4.86-7.3-7.3C298.199,263.939,321.4,241.27,344.19,218.2z"/>
	<path fill="#F2FAFF" d="M341.25,241.2c3.619-3.55,7-7.37,10.939-10.58c1.25,3.28,1.59,6.78,2.05,10.23
		c-2.92,0.79-6.52,0.36-8.91,2.42c-1.729,2.72,1.141,5.24,3.86,4.82c-3.2,3.81-7.09,6.971-10.2,10.86c1.92-0.11,4.19,0.37,5.69-1.2
		c3.5-3.07,6.37-6.81,10.069-9.67c0.41,3.82-0.779,8.09,1.24,11.57c-6.33,0.189-12.68-0.17-19.01,0.149
		c-2.14-0.1-2.49,2.33-3.3,3.761c-4.521,5.149-9.63,9.75-14.44,14.64c-8.77,8.77-17.439,17.649-26.369,26.27
		c-2.471-2.45-4.931-4.909-7.381-7.38C303.949,278.34,322.69,259.85,341.25,241.2z"/>
	<path fill="#F2FAFF" d="M336.38,265.811c4.949-0.15,9.909-0.101,14.859,0.09c-15.609,16.64-32.3,32.289-48.16,48.72
		c-2.54-2.49-5.09-4.97-7.569-7.521C308.99,293.2,323.13,279.93,336.38,265.811z"/>
	<path fill="#F2FAFF" d="M340.67,281.721c4.439-4.16,8.42-8.811,13.13-12.681c-0.49,2.97-1.07,5.91-1.67,8.851
		c-2.391-0.091-6.641-1.341-7.17,2.109c-0.601,3.55,4.02,3.641,6.35,4.4c-2.07,4.209-5.36,7.609-9.15,10.31
		c-1.42,1.13-2.64,2.97-1.6,4.78c1.11,0.83,2.41,1.33,3.68,1.88c-1.569,3.7-3.229,7.45-6.08,10.36
		c-4.12-2.16-7.939-4.891-12.199-6.78c-2.78-1.38-5.36,3.19-2.82,4.93c3.87,2.8,8.28,4.729,12.28,7.351
		c-1.94,3.43-4.271,6.609-6.66,9.729c-1.601-0.88-3.78-2.37-5.351-0.569c-1.79,1.579-0.41,3.77,0.87,5.119
		c-2.31,3.17-5.2,5.85-8.149,8.42c-1.341-1.13-2.99-2.27-4.811-1.49c-1.859,1.281-1.1,3.65-0.33,5.33
		c-2.93,2.601-6.149,4.871-9.689,6.58c-2.471-3.81-4.29-8.01-6.97-11.67c-1.65-2.289-5.561-0.42-5.15,2.271
		c1.88,4.51,4.81,8.5,7.04,12.84c-3.52,1.79-7.03,3.59-10.48,5.479c-0.71-1.43-1.619-2.75-2.56-4.02c-2.35,0.52-4.4,2.09-4,4.74
		c-3.03,2.71-6.79,4.369-10.729,5.27c-0.44-1.54-0.91-3.06-1.381-4.58c-1.319-0.39-2.64-0.81-3.949-1.22
		c9.899-10.21,20.09-20.14,30.109-30.24c3.351-3.45,7.17-6.51,9.71-10.659l0.47-0.341c1.511-1.09,3.021-2.19,4.37-3.489
		C318.73,303.721,329.76,292.77,340.67,281.721z"/>
	<path fill="#F2FAFF" d="M221.24,281.221c4.5-5.271,10.949-8.131,16.819-11.551c1.601,1.62,3.45,2.96,5.46,4.04
		c-16.83,17.44-34.229,34.32-51.279,51.54c-4.04,4.18-8.461,8-12.131,12.53c-1.319,1.569-2.729,3.069-4.25,4.45
		c-1.779,1.569-3.649,3.029-5.54,4.47c-2.77-1.88-5.399-4-7.489-6.64c1.64-1.971,3.239-3.961,4.91-5.9
		c1.35-1.58,2.85-3.01,4.46-4.32c4.199-3.31,7.729-7.359,11.54-11.1C196.27,306.27,208.76,293.75,221.24,281.221z"/>
	<path fill="#F2FAFF" d="M249.08,274.08c1.069-0.5,2.14-0.99,3.21-1.471c2.25,1.871,4.26,4,6.319,6.08
		c-15.96,16.351-32.25,32.371-48.359,48.57c-3.34,3.51-7.221,6.551-9.891,10.65c-0.199,0.3-0.609,0.9-0.819,1.199
		c-6.46,3.94-10.641,10.541-16.601,15.131c-2.989-1.24-6.06-2.51-8.489-4.711c0.1-0.84,0.34-1.639,0.5-2.459
		c1.329,0.42,2.689,0.72,4.079,0.91c2.221-1.53,3.73-3.83,5.36-5.931c-0.07-0.84-0.2-2.53-0.27-3.37
		c17.09-17.74,34.819-34.85,52.09-52.399C240.54,282.25,244.32,277.609,249.08,274.08z"/>
	<path fill="#F2FAFF" d="M209.27,333.17c17.46-17.14,34.5-34.72,52.04-51.779c2.46,2.449,4.91,4.899,7.36,7.359
		c-21.65,21.96-43.63,43.59-65.33,65.5c-2.21,2.17-4.2,4.6-6.771,6.37c-1.35,0.399-2.489-0.931-3.659-1.42
		c4.029-0.88,4.899-5.47,6.949-8.44c1.61-3.93,5.801-7.31,4.99-11.83C205.75,336.62,207.52,334.85,209.27,333.17z"/>
	<path fill="#F2FAFF" d="M213.21,349.21c19.43-19.21,38.54-38.739,58.04-57.87c2.47,2.46,4.939,4.93,7.399,7.4
		c-19.609,20.02-39.66,39.6-59.33,59.56c-1.39,1.37-2.75,3.021-4.8,3.32c0.73-2.04,1.19-5.12-1.56-5.79
		c-3.62-0.58-3.98,3.77-5.2,6.12c-0.58,0.78-1.17,1.55-1.771,2.319c-1.84-0.549-3.609-1.279-5.279-2.189
		C204.57,357.5,209.07,353.529,213.21,349.21z"/>
	<path fill="#F2FAFF" d="M221.25,361.18c20.069-19.88,39.83-40.07,60.029-59.81c2.46,2.45,4.921,4.909,7.381,7.38
		c-11.99,12.32-24.36,24.279-36.36,36.59c-1.75,1.92-3.97,3.28-6.2,4.54c-1.62,0.61-1.79,2.399-2.05,3.87
		c-3.56,3.13-6.79,6.59-10.14,9.93c-0.561-0.57-1.131-1.13-1.69-1.68c-1.01-0.77-2.14-2.109-3.55-1.46
		c-2.45,0.58-2.16,3.61-2.78,5.5c-2.13,3.53-6.6,0.81-9.74,0.56C217.77,364.721,219.46,362.9,221.25,361.18z"/>
	<path fill="#F2FAFF" d="M254.18,348.16c12.49-12.141,24.55-24.721,37.08-36.811c2.51,2.521,5.07,4.99,7.5,7.59
		c-16.1,15.471-31.36,31.82-47.62,47.11c-0.42-4.64-0.78-9.34-0.12-13.97C251.7,350.51,253.03,349.37,254.18,348.16z"/>
</g>
<g>
	<path fill="#D9DBE3" d="M162.45,191.47c4.329-1.72,8.489,2.21,9.18,6.2c-1.561,3.86-5.55,1.1-7.771-0.51
		C161.56,196.15,162.42,193.41,162.45,191.47z"/>
</g>
<g>
	<path fill="#BEC3D6" d="M327.23,190.75c1.67,0.17,3.33,0.41,4.99,0.72c1.01,4.69-4.16,8.46-8.431,8.49
		c-0.659-1.28-1.329-2.56-2-3.83C323.76,194.5,325.57,192.69,327.23,190.75z"/>
	<path fill="#BEC3D6" d="M161.94,331.04c1.32-2.46,3.88-3.87,6-5.56c0.84,0.09,2.521,0.26,3.36,0.35c0.3,1.34,0.59,2.67,0.9,4.01
		c-1.61,1.311-3.11,2.74-4.461,4.32c-1.659,0.23-3.319,0.42-4.989,0.609C162.34,333.55,162.06,332.311,161.94,331.04z"/>
	<path fill="#BEC3D6" d="M180.11,337.779c1.33,0.291,2.67,0.591,4.011,0.9c0.069,0.84,0.199,2.53,0.27,3.37
		c-1.63,2.101-3.14,4.4-5.36,5.931c-1.39-0.19-2.75-0.49-4.079-0.91c0.38-1.601,0.649-3.221,0.909-4.84
		C177.38,340.85,178.79,339.35,180.11,337.779z"/>
	<path fill="#BEC3D6" d="M262.26,362.18c0.99-1.729,3.14-1.359,4.81-1.5c0.471,1.521,0.94,3.041,1.381,4.58
		c0.239,1.881,1.439,4.391-0.471,5.76c-1.21,1.42-3.239,0.44-4.45-0.439C262.24,368.02,262.11,364.99,262.26,362.18z"/>
</g>
<g>
	<path fill="#C2C3D7" d="M110.27,197.32c1.311-0.39,2.61-0.78,3.931-1.17c-1.301,2.72-2.641,5.42-3.95,8.13
		C110.27,201.96,110.25,199.64,110.27,197.32z"/>
</g>
<g>
	<path fill="#F2FAFF" d="M318.22,199.17c1.149-1.06,2.37-2.04,3.569-3.04c0.671,1.27,1.341,2.55,2,3.83
		c-3.409,1.26-5.479,4.42-8.039,6.81c-19.2,19.12-38.271,38.37-57.54,57.419c-0.09-2.16-0.62-4.27-1.57-6.219
		c0.53,0.119,1.6,0.35,2.13,0.469C278.74,238.85,298.369,218.88,318.22,199.17z"/>
	<path fill="#F2FAFF" d="M318.23,219.21c1.22-1.11,2.6-2.02,3.91-3.01c0.12,1.32,0.3,2.63,0.49,3.95
		c-5.521,4.97-10.551,10.44-15.87,15.62c-13.66,13.87-27.69,27.371-41.2,41.39c-0.89-0.891-1.77-1.79-2.67-2.66
		C281.43,256.16,299.8,237.65,318.23,219.21z"/>
	<path fill="#F2FAFF" d="M128.47,269.73c2.24-3.391,5.24-6.131,8.23-8.84c0.14,1.459,0.289,2.909,0.439,4.379
		c-2.57,2.91-5.31,5.65-8.37,8.041C128.69,272.42,128.54,270.62,128.47,269.73z"/>
	<path fill="#F2FAFF" d="M319.24,278.2c4.811-4.89,9.92-9.49,14.44-14.64c0.89,0.739,1.8,1.489,2.7,2.25
		c-13.25,14.119-27.391,27.39-40.87,41.289c-0.88-0.879-1.76-1.76-2.64-2.629C301.8,295.85,310.47,286.971,319.24,278.2z"/>
	<path fill="#F2FAFF" d="M225.79,273.561c3.64-2.011,7.06-4.49,11.02-5.881c0.32,0.5,0.94,1.49,1.25,1.99
		c-5.87,3.42-12.32,6.28-16.82,11.55c-12.479,12.53-24.97,25.05-37.5,37.521c-3.81,3.74-7.34,7.789-11.539,11.1
		c-0.311-1.34-0.601-2.67-0.9-4.01c7.16-6.65,13.89-13.76,20.84-20.63c6.28-6.39,12.92-12.45,18.83-19.19
		c-3.85,1.16-7.06,3.641-10.53,5.561c-4.46,2.52-8.84,5.189-13.279,7.77c-2.46,1.41-4.9,3.27-7.9,3.12
		c0.37-1.28,1.08-2.271,2.13-2.99C196.17,290.811,211.1,282.38,225.79,273.561z"/>
	<path fill="#F2FAFF" d="M243.52,273.71c1.83,0.351,3.7,0.47,5.561,0.37c-4.761,3.529-8.54,8.17-12.87,12.199
		c-17.271,17.551-35,34.66-52.09,52.4c-1.341-0.31-2.681-0.609-4.011-0.9c3.67-4.529,8.091-8.35,12.131-12.529
		C209.29,308.029,226.69,291.15,243.52,273.71z"/>
	<path fill="#F2FAFF" d="M258.61,278.689c0.88,0.91,1.801,1.791,2.7,2.701c-17.54,17.06-34.58,34.64-52.04,51.779
		c-1.75,1.68-3.52,3.45-4.42,5.76c-0.47-0.33-1.41-0.97-1.88-1.3c-0.66,0.07-1.96,0.21-2.61,0.28c2.67-4.1,6.551-7.141,9.891-10.65
		C226.36,311.061,242.65,295.04,258.61,278.689z"/>
</g>
<g>
	<path fill="#DBDBED" d="M397.36,205.44c3.811-1.03,7.57,1.8,10,4.54c-5.17,5.72-10.7,11.13-16.37,16.35
		c-1.04-3.96-2.2-7.88-3.54-11.75C390.92,211.72,393.69,208.06,397.36,205.44z"/>
	<path fill="#DBDBED" d="M391.97,230.3c5.91-5.42,11.06-11.65,17.28-16.75c2.149,5.57,0.689,12.83-4.591,16.13
		c-3.6,2.66-8.279,2.79-12.47,1.73L391.97,230.3z"/>
	<path fill="#DBDBED" d="M299.409,402.2c8.32-3.29,16.44-7.14,24.08-11.83c-0.1,3.68-2.859,6.45-5.359,8.84
		C313.27,403.88,305.5,404.9,299.409,402.2z"/>
</g>
<g>
	<path fill="#BFC4D7" d="M341.409,225.49c2.841-1.62,6.25-3.05,9.49-1.71c0.17,1.33,0.11,2.65-0.18,3.94
		c-1.15,0.82-2.4,1.47-3.61,2.17c-1.56,0.36-3.12,0.79-4.72,0.81C340.159,230.12,339.449,226.79,341.409,225.49z"/>
	<path fill="#BFC4D7" d="M345.329,243.27c2.391-2.06,5.99-1.63,8.91-2.42c1.63,1.29,3.25,3.81,1.19,5.53
		c-2.01,0.8-4.141,1.25-6.24,1.71C346.47,248.51,343.6,245.99,345.329,243.27z"/>
	<path fill="#BFC4D7" d="M344.96,280c0.529-3.45,4.779-2.2,7.17-2.109c3.189,0.379,5.529,3.75,3.04,6.469
		c-1.29,0.021-2.58,0.041-3.86,0.041C348.98,283.641,344.36,283.55,344.96,280z"/>
	<path fill="#BFC4D7" d="M207.76,361.95c1.22-2.351,1.58-6.7,5.2-6.12c2.75,0.67,2.29,3.75,1.56,5.79
		c-0.84,2.11-1.649,4.33-3.45,5.819c-1.06-0.529-2.109-1.06-3.17-1.58C207.83,364.55,207.79,363.25,207.76,361.95z"/>
	<path fill="#BFC4D7" d="M228.67,360.54c1.41-0.649,2.54,0.69,3.55,1.46c-0.13,2.57-0.08,5.189-0.64,7.721
		c-0.431,1.969-3.021,2.809-4.62,1.629c-1.97-1.07-1.01-3.55-1.07-5.31C226.51,364.15,226.22,361.12,228.67,360.54z"/>
</g>
<g>
	<path fill="#E0ECFF" d="M385.74,230.33l0.16-0.35c5.91,25.35,4.8,52.25-3.07,77.049c-8.02,24.98-23.02,47.691-43.02,64.701
		c-23.03,19.729-52.53,31.75-82.79,33.709c-24.319,1.74-49.12-2.72-71.17-13.18c-35.899-16.59-63.96-49.02-75.45-86.84
		c-3.239-10.96-5.689-22.32-5.81-33.79c2.29,5.53,1.21,11.91,3.49,17.54c5.239-4.67,10.55-9.43,14.77-15.07
		c0.17,1.851,0.351,3.7,0.59,5.551c-4.069,2.81-7.279,6.609-10.85,9.979c-1.14,1.31-2.76,2.511-2.97,4.351
		c0.55,3.299,1.68,6.5,3.17,9.489c0.25,0.05,0.75,0.16,1.01,0.21c4.229-3.689,7.99-7.9,11.939-11.89
		c0.381,1.55,0.78,3.101,1.211,4.649c-4.881,2.891-8.511,7.41-12.311,11.541c0.83,3.709,2.23,7.27,4.35,10.439
		c4.11-3.5,7.75-7.49,11.471-11.391c0.46,1.19,0.939,2.391,1.439,3.591c-3.819,3.69-7.85,7.2-11.16,11.37
		c1.301,3.34,3.07,6.47,5.311,9.27c3.729-3.4,7.91-6.58,10.39-11.07c0.761,1.431,1.521,2.86,2.32,4.28
		c-4.23,2.511-7.3,6.421-10.71,9.87c1.57,2.9,3.31,5.73,5.54,8.18c0.27,0.041,0.82,0.141,1.09,0.19c3.54-2.761,6.38-6.29,9.7-9.29
		c0.729,1.029,1.47,2.061,2.22,3.08c-3.87,2.561-6.97,6.029-9.99,9.5c1.66,3.09,4.28,5.449,6.74,7.88c3.59-2.75,6.86-5.97,9.34-9.76
		c0.99,1.12,1.99,2.25,3.011,3.36c-3.53,2.42-6.711,5.359-9.33,8.739c1.34,3.2,4.72,5.36,7.529,7.351
		c3.16-2.801,6.4-5.631,8.62-9.271c1.12,1.021,2.24,2.03,3.391,3.03c-3.671,2.199-6.551,5.4-9.23,8.68
		c2.34,2.63,5.09,4.87,8.31,6.33c3.2-2.62,6.221-5.49,8.521-8.939c1.02,0.739,2.06,1.479,3.1,2.209
		c-2.819,3.101-6.12,5.75-8.62,9.131c2.341,1.77,4.801,3.39,7.511,4.56c5.239,2.16,9.609,6.05,15.14,7.569
		c3.13-2.699,5.95-5.719,8.67-8.829c1.26,0.521,2.521,1.021,3.8,1.51c-3.069,2.63-6.01,5.42-8.58,8.55
		c3.46,1.82,7.2,3.67,11.19,3.58c3.21-2.41,5.7-5.619,8.46-8.5c1.3,0.36,2.61,0.689,3.93,1.02c-2.89,2.791-5.85,5.541-8.34,8.711
		c3.75,1.539,7.75,3.109,11.87,2.75c3.46-2.45,6.24-5.75,8.73-9.15c2.939,0.35,5.89,0.63,8.85,0.85
		c-6.12-0.43-9.5,5.391-13.17,9.271c4.51,0.51,9.08,1.601,13.63,1.021c3.72-2.841,6.84-6.41,9.78-10.041
		c1.58-0.039,3.17-0.1,4.77-0.17c-2.779,3.791-6.46,6.771-9.399,10.43c5.229,0.07,10.819,0.761,15.79-1.209
		c3.869-3.34,8.01-6.771,10.399-11.391c2.351-0.5,4.7-1,7.05-1.55c-3.29,4.54-8.02,7.771-11.25,12.351
		c5.301-0.03,10.45-1.42,15.54-2.74c2.891-0.69,4.98-2.92,7-4.94c2.62-2.72,5.311-5.38,8.03-8c1.33-1.44,3.189-2.78,3.17-4.94
		c3.81-1.93,7.58-3.959,11.32-6.02c-4.92,7.51-12.801,12.48-18.08,19.721c6.71-1.131,12.6-4.761,18.609-7.75
		c4.04-2.16,8.181-4.311,11.521-7.511c9.89-10.13,20.03-20.021,29.95-30.12c3.899-4.07,8.359-7.65,11.67-12.26
		c3.01-4.18,5.109-8.92,7.479-13.48c2.05-4.27,4.54-8.5,5.021-13.31c-8.74,7.12-15.511,16.47-24.58,23.181
		c2-3.621,3.99-7.25,5.859-10.94c1.87-0.921,3.65-2.06,5.07-3.61c4.9-5.08,9.96-10.02,15.04-14.93c1.771-1.551,2.46-3.85,3.021-6.04
		c1.17-4.81,2.609-9.62,2.569-14.61c-6.189,4.98-11.13,11.301-17.239,16.391c0.56-2.28,1.069-4.58,1.56-6.87
		c5.24-3.29,9-8.3,13.54-12.41c5.38-4.66,3.78-12.601,3.88-18.899c-5.52,4.25-9.65,9.979-15.18,14.219
		c0.08-1.619,0.14-3.229,0.18-4.84c4.43-3.41,8.061-7.68,12.12-11.5c1.15-1.3,2.94-2.58,2.65-4.54
		c-0.311-3.95,0.109-8.09-1.301-11.85c-5.13,3.86-8.76,9.35-14.06,13c-0.15-1.37-0.311-2.74-0.49-4.11
		c2.601-1.94,4.94-4.18,7.18-6.52C380.69,236.85,384.26,234.32,385.74,230.33z"/>
</g>
<g>
	<path fill="#FF9FB0" d="M333.68,263.561c0.81-1.431,1.16-3.86,3.3-3.761c6.33-0.319,12.68,0.04,19.01-0.149
		c0.75,1.209,2.351,2.35,1.7,3.979c-0.81,2.851-4.21,2.17-6.45,2.271c-4.95-0.19-9.91-0.24-14.859-0.09
		C335.48,265.05,334.57,264.3,333.68,263.561z"/>
	<path fill="#FF9FB0" d="M244.05,353.75c0.26-1.471,0.43-3.26,2.05-3.87c1.49-0.021,3.86,0,3.86,2.06
		c0.42,5.431-0.07,10.881,0.359,16.32c-2.069,0.35-4.14,0.68-6.21,1.01C244.19,364.09,244.3,358.92,244.05,353.75z"/>
</g>
<g>
	<path fill="#B8BCD1" d="M340.56,299.49c-1.04-1.811,0.18-3.65,1.6-4.78c3.141,0.79,9.011,0.94,8.931,5.271
		c-0.57,3.449-4.601,2.289-6.851,1.39C342.97,300.82,341.67,300.32,340.56,299.49z"/>
</g>
<g>
	<path fill="#B6BBD0" d="M323.409,326.391c1.57-1.801,3.75-0.311,5.351,0.569c1.93,1.601,5.16,4.06,3,6.82
		c-2.49,2.54-5.58-0.5-7.48-2.271C323,330.16,321.619,327.971,323.409,326.391z"/>
	<path fill="#B6BBD0" d="M311.32,338.439c1.82-0.779,3.47,0.36,4.811,1.49c1.97,1.93,4.81,5.521,1.649,7.771
		c-3.1,1.39-5.02-2.04-6.79-3.931C310.22,342.09,309.46,339.721,311.32,338.439z"/>
</g>
<g>
	<path fill="#B7BCD1" d="M279.18,359.99c-0.4-2.65,1.65-4.221,4-4.74c0.94,1.27,1.85,2.59,2.56,4.02
		c0.471,1.801,1.261,3.631,1.03,5.53c-0.729,1.841-3.22,2.54-4.729,1.21C280.8,364.15,280,362.05,279.18,359.99z"/>
</g>
<g>
	<path fill="#E895A7" d="M244.11,369.27c2.07-0.33,4.141-0.66,6.21-1.01c0.41,2.221-0.5,5.391-3.34,5.01
		C244.83,373.48,244.09,370.971,244.11,369.27z"/>
</g>
<g>
	<path fill="#C5C5D6" d="M323.49,390.37c2.12-1.37,4.261-2.7,6.4-4.05c1.06,4.13-1.311,7.92-3.4,11.26
		c-3.359,5.35-8.81,9.189-14.71,11.25c-6.899,1.561-14.14-0.439-20.14-3.95c2.61-0.84,5.2-1.729,7.77-2.68
		c6.091,2.7,13.86,1.68,18.721-2.99C320.63,396.82,323.39,394.05,323.49,390.37z"/>
</g>
</svg>
