<?xml version="1.0" encoding="utf-8"?>
<!-- Generator: Adobe Illustrator 16.0.0, SVG Export Plug-In . SVG Version: 6.00 Build 0)  -->
<!DOCTYPE svg PUBLIC "-//W3C//DTD SVG 1.1//EN" "http://www.w3.org/Graphics/SVG/1.1/DTD/svg11.dtd">
<svg version="1.1" id="Layer_1" xmlns="http://www.w3.org/2000/svg" xmlns:xlink="http://www.w3.org/1999/xlink" x="0px" y="0px"
	 width="512px" height="504px" viewBox="0 0 512 504" enable-background="new 0 0 512 504" xml:space="preserve">
<g>
	<path fill="#D8BDF8" d="M386.2,10.1c5.92-0.68,6.19,8.43,10.52,11.18c2.84,4.56,12.53,5.75,11.16,12.52
		c-5.94,5.37-13.42,10.05-16.02,18.09c-1.09,2.75-1.6,6.96-4.7,7.94c-4.15-4.36-4.56-10.98-8.42-15.59
		c-3.12-5.25-12.69-7.06-11.62-14.04C375.27,25.27,381.39,18.2,386.2,10.1z"/>
</g>
<g opacity="0.5">
	<path fill="#C4C4C4" d="M155.98,43.96c42.19-22.48,96.21-21.62,137.27,2.87c-38.79,0.5-77.59-0.17-116.38,0.33
		c-9.5,0.25-15.02,8.08-17.78,16.14c-9.08-1.69-18.17-3.34-27.27-4.87C140.4,54.53,147.22,47.61,155.98,43.96z"/>
</g>
<g>
	<g>
		<path fill="#C9CBDA" d="M41.17,42.04c30.41,3.92,60.48,10.76,90.65,16.39c9.1,1.53,18.19,3.18,27.27,4.87
			c-0.07,2.9-0.07,5.81-0.12,8.72c-37.18-2.08-74.26-4.58-111.66-6.71c-3.99,45.58-6.29,93.31-9.26,139.7
			c-0.07,2.54-2.79,6.36,0.27,7.8c28.55,0.02,57.13,4.92,85.53,4.11c0.21,12.36,0.18,24.72,0.13,37.08
			c-21.99-0.04-43.99,0.05-65.99,0c-2.79,0.9-4.89,0.3-6.31-1.79c0.3-9.69,0.44-19.38,0.36-29.07c1.17-4.25-1.8-4.58-5.26-4.04
			c-1.52-0.08-3.05-0.14-4.57-0.24c-2.81-0.29-5.61-0.53-8.42-0.72c-1.59,0.02-3.06-1.25-2.65-2.91c0.39-3.16,0.79-6.28,0.76-9.46
			c1.34-6.92-9.34-4.03-13.31-6.28c-8.27,1.13-6.57-7.19-4.99-11.88C23.02,139.13,31.59,90.48,41.17,42.04z M46.2,48.07
			c-6.59,9.97,3.62,14.38,12.43,11.37c16.77,2.9,34.29,2.46,51.38,3.6c0.99,3.69,8.97-2.36,4.37-2.44
			C91.58,56.64,68.81,52.26,46.2,48.07z M36.23,104.19c-2.88,7.11-4.83,14.77-4.74,22.46c-5.43,20.48-7.39,41.75-12.38,62.4
			c-4.16,7.69,4.9,3.73,7.4,5.52c1.87,1.12,4.79,2.55,6.37,0.23c0.23-6.24-2.04-13.03,0.91-18.91c0.51-17.8,3.33-35.5,2.83-53.21
			C37.54,117.02,40.51,106.11,36.23,104.19z M61.33,220.28c-8.62,5.4-2.1,19.19-3.2,27.64c21.63-0.23,43.22-0.57,64.83,0.08
			c-0.93-5.32,2.04-12.41-1.22-16.93c-11.51,1.53-23-1.08-34.54,0.77c-2.18-3.34,0.17-8.26-3.43-10.71
			C76.19,223.25,69.35,217,61.33,220.28z M90.87,222.03c0.31,1.31,0.79,2.59,1.31,3.85c10.28,0.29,20.56,0.14,30.84,0.08
			c-0.02-0.45-0.07-1.36-0.1-1.82C112.3,222.73,101.57,222.22,90.87,222.03z"/>
	</g>
</g>
<g>
	<g>
		<path fill="#6E6E95" d="M176.87,47.16c38.79-0.5,77.59,0.17,116.38-0.33c12.44,0.55,24.92-0.41,37.35,0.57
			c9.41,2.21,16.65,10.44,16.8,20.3c-0.48,10.09-0.49,20.19-0.39,30.28c-0.29,9.93,0.48,19.89-0.16,29.8
			c-0.97,1.12-2.48,1.11-3.82,1.35l-1-0.02c-1.67-0.07-3.33-0.11-4.99-0.1c-2.64-0.03-5.26-0.03-7.88,0
			c-4.04-0.06-8.07-0.05-12.1,0.06c-0.02,13.87-0.4,27.79,0.14,41.64c2.5,2.04,5.35,3.61,8.07,5.33c3.23,2.73,6.53,5.38,9.65,8.25
			c2.2,3.34,4.56,6.59,7.01,9.76c0.21,0.31,0.64,0.92,0.85,1.23c6.73,12.51,6.63,26.82,6.34,40.64c7.55,0.21,15.1-0.03,22.65,0.29
			c7.11,1.01,14.31,0.75,21.47,0.53c5.08,1.86,9.7,6.33,10.18,11.96c-0.83,20.1-0.29,40.22-0.41,60.33
			c-0.02,27.98-0.03,55.96,0.01,83.94c0.17,8.3-0.64,16.69,0.39,24.96c0.04,0.26,0.11,0.79,0.15,1.05
			c-3.02,13.02,3.78,28.15-3.64,40.02c-2.14,1.23-4.2,2.71-6.62,3.35c-6.84,0.02-13.84-1.25-20.58,0.33
			c-2.81,0.25-5.66,0.31-8.44,0.51c-5.08-0.03-10.15-0.48-15.22-0.08c-0.01,2.75-0.03,8.26-0.04,11.01
			c0.2,10.76,2.2,24.08-9.28,29.88H133.36c-5.04-2.53-8.84-7.04-9.72-12.71c0.63-16.75,0.32-33.51,0.33-50.26
			c0.04-19.73,0.07-39.46-0.01-59.18c0.02-4.37-0.08-8.71-0.12-13.05c0-0.42,0.01-1.26,0.02-1.68c0.21-15.34,0.19-30.67,0.11-46.01
			c0.04-22.37,0.05-44.74,0.01-67.11c0.05-12.36,0.08-24.72-0.13-37.08c0.57-4.75,1.68-9.43,3.43-13.88
			c1.01-2.44,2.18-4.8,3.53-7.07c4.77-7.49,10.85-14.33,18.36-19.17c3.14-2.14,6.43-4.06,9.51-6.29c0.36-4.58,0.35-9.17,0.24-13.76
			c0.13-12.68,0.18-25.36-0.09-38.03c0.05-2.98,0.11-5.93,0.1-8.89c0.07-5.27,0.12-10.54,0.06-15.81c0.01-1.65,0.01-3.3-0.01-4.95
			c0.02-5.68,0.03-11.37-0.01-17.05c0.05-2.91,0.05-5.82,0.12-8.72C161.85,55.24,167.37,47.41,176.87,47.16z M166.01,64l-0.97,0.02
			c-0.06,50.64-0.09,101.28,0.02,151.92c48.64,0.11,97.29,0.08,145.94,0.02l0.96,0.04c-0.11-50.76,0.43-101.53-0.27-152.28
			c0.41-3.91,1.98-7.6,4.32-10.75C271,53.07,226,52.9,181,53.05C174.48,52.4,166.01,56.79,166.01,64z M317.97,64.96l-0.92,0.1
			c0.5,18.92-1.35,40.79,0.96,57.85c7.64,0.34,15.29,0.07,22.94,0.04c0.07-13.93,0.18-27.87-0.06-41.79
			c0.21-9.52,2.71-23.22-9.06-26.94C325.05,50.08,317.2,58.01,317.97,64.96z M129.98,216.96l-0.93,0.1
			c-0.12,90.97-0.02,181.95-0.05,272.92l0.96,0.04c-0.61,3.77,1.92,8.01,6.01,7.98l0.06,0.97c66.98,0.06,133.97,0.04,200.95,0
			l0.04-0.96c4.37,0,7.16-4.94,5.95-9.01c0.01-91.65,0.14-183.3-0.07-274.95c-2.51-15.15-12.71-28.47-25.85-36.11
			c-0.15,13.01-0.08,26.03-0.01,39.04c2.15,3.02,10.3-0.11,14.22,0.69c2.32,1.15,2.32,4.5,0.01,5.66
			c-61.81-0.57-123.71-0.53-185.54,0c-1.86-0.96-2.66-4.46-1.02-5.61c4.5,0.09,11.87,1.64,14.2-0.75
			c0.34-8.75,0.12-17.53-0.14-26.27c0.77-4.24,0.04-8.61,0.16-12.87C143.7,184.71,131.97,200.34,129.98,216.96z M349.07,243.1
			c-0.17,14.26-0.12,28.53-0.02,42.79c-0.06,11-0.19,22.01,0.02,33.01c-0.12,46.02-0.1,92.04-0.01,138.07
			c2.72,0.01,8.17,0.04,10.89,0.05c2.37,0.15,4.81-0.04,6.92-1.25c0.83-28.61-1-57.33,0.92-85.88c-0.44-2.1,2.66-8.54-0.75-7.86
			c-0.09-9.96,0.12-19.93-0.16-29.87c0.87-10.01,0.42-19.95-0.01-29.95c0.33-19.71,0.1-39.43,0.06-59.14
			C361,242.05,355.01,242.93,349.07,243.1z M373.02,243l-0.95,0.04c-0.14,71.33-0.09,142.67-0.02,214.01l0.96-0.15
			c6.46,0.01,14.84,1,19.63-0.56c2.78,0.11,4.17-2.96,4.36-5.31l0.94-0.09c0.12-67.63,0.05-135.28,0.03-202.92l-0.96-0.04
			c-0.27-2.12-1.37-5.57-4.09-4.98C389.17,241.24,376.96,241.26,373.02,243z"/>
	</g>
	<g>
		<path fill="#6E6E95" d="M145.02,240.07c0.74-4.7,8.23-0.59,10.97-2.1c55.01,0.05,110.02,0.05,165.03,0
			c1.13,0.27,7.06-1.19,6.97,2.09c0.01,21.3,0.04,42.59-0.01,63.89c-0.1,1.26-0.78,1.94-2.04,2.04c-59.98,0.03-119.96,0-179.93,0.01
			c-0.26-0.25-0.76-0.76-1.01-1.01C145.03,283.35,144.96,261.71,145.02,240.07z M150.03,244c0.59,18.34-1.37,39.26,0.98,56
			l0.01,0.97c56.99,0.05,113.98,0.05,170.98,0l-0.01-0.98l0.97-0.01c-0.56-18.25,1.35-39.5-0.96-55.88
			c-16.62-0.26-33.26-0.11-49.88-0.03c-7.96-0.18-15.94-0.24-23.89,0.1c-10.63-0.2-21.31-0.47-31.91,0.07
			c-21.76-0.61-43.56-0.1-65.32-0.19L150.03,244z"/>
	</g>
	<g>
		<path fill="#6E6E95" d="M289,410.97c0.01-3.19,2.8-5.96,5.98-5.98c9.01-0.01,18.03-0.01,27.05,0.01c3.23,0.2,5.6,3.97,5.98,6.98
			c-0.04,21.33,0.04,42.67-0.04,64c-4.71,9.69-17.45,4.93-25.97,6.08c-5.16,1.27-12.66-0.83-13.01-7.04
			C289.01,453.67,288.99,432.32,289,410.97z M295.02,411l-0.95,0.04c0.54,21.19-1.57,44.21,1.12,64.24
			c4.04,2.38,15.62-0.21,21.81,0.74c1.25-1.51,3.76-4.51,5.01-6.01l0.94-0.05c-0.5-19.01,1.34-40.57-0.95-57.96
			c-0.25-0.25-0.74-0.75-0.99-1C314.97,408.85,301.03,409.58,295.02,411z"/>
	</g>
	<g>
		<path fill="#6E6E95" d="M193,411.96c0.54-2.59,3.01-6.08,5.97-5.96c9.02-0.02,18.05-0.02,27.07-0.01
			c2.58,0.55,6.07,3.02,5.96,5.98c0,6.68,0.03,13.37,0,20.07c-0.54,2.57-3.01,6.07-5.97,5.96c-8.99,0.01-17.98,0.02-26.97-0.02
			c-3.14-0.86-5.91-3.62-6.07-6.96C192.98,424.65,192.96,418.31,193,411.96z M199.02,412.23c-2.56,2.88-1.22,15.37-0.02,18.76
			c0.25,0.25,0.75,0.76,1.01,1.01c5.91,1.72,19.08,1.72,24.98,0c0.25-0.25,0.75-0.75,1-1c2.64-3.87,1.13-15.29,0.01-18.98
			C219.47,410.05,206.56,410.18,199.02,412.23z"/>
	</g>
	<g>
		<path fill="#6E6E95" d="M241,411.96c0.53-2.59,3.01-6.08,5.97-5.96c9.02-0.02,18.05-0.02,27.07-0.01
			c2.57,0.55,6.07,3.02,5.96,5.98c0,6.34,0.04,12.7,0,19.06c-0.16,3.35-2.94,6.1-6.07,6.96c-9,0.03-17.99,0.02-26.98,0.02
			c-2.58-0.57-6.06-3.02-5.95-5.98C240.99,425.33,240.97,418.65,241,411.96z M247.02,412.23c-2.56,2.88-1.23,15.34-0.02,18.77
			l0.03,0.99c5.86,2.17,19.97,1.41,25.96,0.01c0.25-0.25,0.75-0.75,1-1c2.7-3.76,0.99-15.86,0-18.76
			C266.08,410.05,254.94,410.09,247.02,412.23z"/>
	</g>
</g>
<g>
	<path fill="#D0E1DD" d="M46.2,48.07c22.61,4.19,45.38,8.57,68.18,12.53c4.6,0.08-3.38,6.13-4.37,2.44
		c-17.09-1.14-34.61-0.7-51.38-3.6C49.82,62.45,39.61,58.04,46.2,48.07z"/>
</g>
<g>
	<g>
		<path fill="#FCFCFC" d="M166.01,64c0-7.21,8.47-11.6,14.99-10.95c45-0.15,90,0.02,135.01-0.08c-2.34,3.15-3.91,6.84-4.32,10.75
			c-1.62,47.71-0.21,95.55-0.71,143.31c-5.09-0.19-10.28,0.56-15.27-0.7c1.22-1.65,3.97-4.79,0.97-6.12
			c-8.48-0.4-16.99-0.47-25.46-0.06c-2.76,1.57-0.22,4.48,1.04,6.16c-5.15,0.59-10.31,0.8-15.48,0.62c0.65-3.8,4.27-6.01,6.3-9.08
			c-6.69,0.36-8.63,10.57-16.1,9.12c-2.55-0.02-7.65-0.04-10.2-0.05c0.66-3.79,4.28-6,6.3-9.07c-6.69,0.36-8.63,10.57-16.1,9.12
			c-2.55-0.02-7.65-0.04-10.2-0.05c0.66-3.79,4.28-6,6.3-9.07c-6.69,0.36-8.63,10.57-16.1,9.12c-2.55-0.02-7.65-0.04-10.2-0.05
			c0.66-3.79,4.28-6,6.3-9.07c-6.69,0.36-8.63,10.57-16.1,9.12c-2.55-0.02-7.65-0.04-10.2-0.05c0.66-3.79,4.28-6,6.3-9.07
			c-6.91,0.58-9,11.18-17.04,9.21C166.29,159.38,166.35,111.68,166.01,64z M173.01,64.08c-4.07,9.03,8.97,6.73,12.9,4.69
			C186.69,61.03,176.96,66.37,173.01,64.08z M201.4,64.47c-2.44,0.66-6.68,0.23-3.4,5.5c4.53-0.87,14.91,3.47,10.99-5.97
			C206.45,63.92,203.92,64.07,201.4,64.47z M224.38,64.33c-2.79,0.43-3.57,2.27-2.34,5.53c3.29,0.45,6.62,1.09,9.96,1.14
			C234.51,65.01,229.41,62.06,224.38,64.33z M248.37,64.34c-4.23,0.18-3.26,6.77,0.72,6.6c3.01-0.44,9.1-0.3,7.9-4.87
			C256.56,62.1,250.28,64.98,248.37,64.34z M269.04,64.02c-3.16,9.44,4.16,6.18,9.95,5.74C282.12,61.88,272.58,64.29,269.04,64.02z
			 M292.02,63.98c-3.66,8.41,4.66,5.69,8.99,5.99C304.37,62.94,295.07,64.6,292.02,63.98z M217.29,90.19
			c-2.37,1.23-2.63,3.64-1.05,5.67c13.35,0.01,26.84,0.8,40.12-0.45c3.41-0.43,1.01-5.23-1.43-5.32
			C242.39,89.85,229.82,89.89,217.29,90.19z M175.25,121.13c-4.95,7.21,12.24,8.2,15.08,4.16
			C193.72,117.48,178.97,122.1,175.25,121.13z M203.26,121.14c-4.03,2.69,2.32,8.48,5.73,5.85c14.91-0.06,29.82,0.25,44.72-0.18
			c1.98-1.09,3.52-4.19,1.08-5.66C237.63,120.83,220.42,120.92,203.26,121.14z M271.26,121.15c-2.74,1.48-0.68,5.52,1.81,5.78
			c7.18-0.35,14.93,1.35,21.84-1.12c0.08-1.61,0.6-3.72-1.13-4.65C286.3,120.58,278.75,121.03,271.26,121.15z M175.25,135.13
			c-5.02,7.62,12.05,8.12,15.08,4.16C193.72,131.48,178.97,136.1,175.25,135.13z M204.29,135.19c-2.01,1.1-3.49,4.16-1.09,5.68
			c8.5,0.31,17.03,0.24,25.54-0.02c3.03-1.75,0.18-6.28-2.73-5.84C218.77,134.85,211.52,134.89,204.29,135.19z M239.29,135.18
			c-2,1.11-3.49,4.16-1.09,5.7c5.2-0.76,12.26,2.09,16.68-1.12C256.92,131.13,243.74,136.2,239.29,135.18z M271.26,135.15
			c-4.3,3.25,3.28,8.61,6.72,5.9c4.79-1.31,17.46,3.58,16.93-4.83C288.19,132.54,278.77,136.17,271.26,135.15z M176.29,150.18
			c-8.53,7.76,11.15,7.42,14.59,4.58C192.75,146.51,180.3,151.04,176.29,150.18z M204.29,150.19c-3,1.04-2.65,6.22,0.71,5.8
			c10.58,0.05,21.17,0.15,31.75-0.12c2.03-1.18,1.93-5.69-0.8-5.82C225.4,149.89,214.83,149.86,204.29,150.19z M244.37,150.33
			c-9.83,5.35,12.42,10.76,10.63,1.75C254.24,147.44,247.16,151.14,244.37,150.33z M271.24,150.15c-1.56,2.01-1.33,4.4,1,5.65
			c7.13,0.61,14.35,0.18,21.51,0.06c1.85-1.15,1.87-4.53,0.03-5.7C286.29,149.57,278.73,150.05,271.24,150.15z M175.25,164.12
			c-6.16,8.57,11.97,6.96,15.66,4.65C191.4,160.82,179.54,164.84,175.25,164.12z M272.29,164.19c-1.98,1.08-3.54,4.21-1.07,5.64
			c7.48,0.61,15.04,0.11,22.54,0.02c1.57-2.01,1.31-4.39-0.99-5.67C285.96,163.75,279.1,163.89,272.29,164.19z M203.26,165.15
			c-2.51,1.42-0.97,4.57,1.03,5.66c8.14,0.36,16.31,0.33,24.46,0.06c1.87-1.18,1.81-4.5,0.05-5.75
			C220.29,164.82,211.76,164.88,203.26,165.15z M238.25,165.13c-5.24,8.33,13.08,7.06,16.63,4.63
			C256.76,160.69,242.93,166.42,238.25,165.13z M176.29,178.18c-8.51,7.78,11.13,7.39,14.62,4.59
			C191.55,175.19,180.48,178.44,176.29,178.18z M272.29,178.19c-1.98,1.08-3.54,4.21-1.07,5.64c7.48,0.61,15.04,0.11,22.54,0.02
			c1.57-2.01,1.31-4.39-0.99-5.67C285.96,177.75,279.1,177.89,272.29,178.19z M204.29,179.19c-2.71,1.32-2.71,4.3,0,5.62
			c8.14,0.36,16.3,0.33,24.46,0.06c1.86-1.17,1.86-4.57,0-5.74C220.59,178.86,212.43,178.83,204.29,179.19z M238.25,179.13
			c-5.24,8.33,13.08,7.06,16.63,4.63C256.76,174.69,242.93,180.42,238.25,179.13z"/>
	</g>
</g>
<g>
	<path fill="#CACAE0" d="M317.97,64.96c-0.77-6.95,7.08-14.88,13.86-10.74c11.77,3.72,9.27,17.42,9.06,26.94
		c-6.89-4.82-15.53-2.97-22.86-0.11C317.98,75.69,318.03,70.33,317.97,64.96z"/>
	<path fill="#CACAE0" d="M328.01,411.98c2.23,19.49,0.5,42.94,0.91,63.98l-0.95,0.02C328.05,454.65,327.97,433.31,328.01,411.98z"/>
</g>
<g>
	<path fill="#E9E9EE" d="M165.04,64.02l0.97-0.02c0.34,47.68,0.28,95.38,0.03,143.06c8.04,1.97,10.13-8.63,17.04-9.21
		c-2.02,3.07-5.64,5.28-6.3,9.07c2.55,0.01,7.65,0.03,10.2,0.05c7.47,1.45,9.41-8.76,16.1-9.12c-2.02,3.07-5.64,5.28-6.3,9.07
		c2.55,0.01,7.65,0.03,10.2,0.05c7.47,1.45,9.41-8.76,16.1-9.12c-2.02,3.07-5.64,5.28-6.3,9.07c2.55,0.01,7.65,0.03,10.2,0.05
		c7.47,1.45,9.41-8.76,16.1-9.12c-2.02,3.07-5.64,5.28-6.3,9.07c2.55,0.01,7.65,0.03,10.2,0.05c7.47,1.45,9.41-8.76,16.1-9.12
		c-2.03,3.07-5.65,5.28-6.3,9.08c5.17,0.18,10.33-0.03,15.48-0.62c7.8-0.32,15.65-0.6,23.45,0.02c4.99,1.26,10.18,0.51,15.27,0.7
		c-0.01,2.96,0.02,5.95,0.02,8.93c-48.65,0.06-97.3,0.09-145.94-0.02C164.95,165.3,164.98,114.66,165.04,64.02z"/>
</g>
<g>
	<path fill="#CFCFDF" d="M173.01,64.08c3.95,2.29,13.68-3.05,12.9,4.69C181.98,70.81,168.94,73.11,173.01,64.08z"/>
</g>
<g>
	<path fill="#CFCFE0" d="M201.4,64.47c2.52-0.4,5.05-0.55,7.59-0.47c3.92,9.44-6.46,5.1-10.99,5.97
		C194.72,64.7,198.96,65.13,201.4,64.47z"/>
</g>
<g>
	<path fill="#D0D0E0" d="M224.38,64.33c5.03-2.27,10.13,0.68,7.62,6.67c-3.34-0.05-6.67-0.69-9.96-1.14
		C220.81,66.6,221.59,64.76,224.38,64.33z"/>
</g>
<g>
	<path fill="#CECEDD" d="M248.37,64.34c1.91,0.64,8.19-2.24,8.62,1.73c1.2,4.57-4.89,4.43-7.9,4.87
		C245.11,71.11,244.14,64.52,248.37,64.34z"/>
</g>
<g>
	<path fill="#CCCCDC" d="M269.04,64.02c3.54,0.27,13.08-2.14,9.95,5.74C273.2,70.2,265.88,73.46,269.04,64.02z"/>
	<path fill="#CCCCDC" d="M176.29,178.18c4.19,0.26,15.26-2.99,14.62,4.59C187.42,185.57,167.78,185.96,176.29,178.18z"/>
	<g>
		<path fill="#CCCCDC" d="M431.39,183.46c22.12-4.69,44.05,20.19,34.54,41.49c-7.19,22.45-40.63,28.02-53.94,8.05
			C397.1,215.65,409.61,186.85,431.39,183.46z M432.4,189.47c-9.72,0.86-17.5,8.68-20.05,17.84c-5.84,17.93,12.67,37.61,31.28,31.31
			c12.62-3.22,20.76-17.34,17.78-29.95C459.34,195.68,445.1,186.74,432.4,189.47z"/>
	</g>
</g>
<g>
	<path fill="#CDCDDD" d="M292.02,63.98c3.05,0.62,12.35-1.04,8.99,5.99C296.68,69.67,288.36,72.39,292.02,63.98z"/>
</g>
<g>
	<path fill="#9393B0" d="M310.98,207.03c0.5-47.76-0.91-95.6,0.71-143.31c0.7,50.75,0.16,101.52,0.27,152.28l-0.96-0.04
		C311,212.98,310.97,209.99,310.98,207.03z"/>
</g>
<g>
	<path fill="#D0E3DD" d="M47.31,65.31c37.4,2.13,74.48,4.63,111.66,6.71c0.04,5.68,0.03,11.37,0.01,17.05
		c-8.82-3.52-18.45-0.46-27.57-2.44c-16.66-0.47-33.35-2.19-50.02-3.16c-5.99-4.37-10.38,3.9-9.77,9.2
		c-2.73,3.47-9.43-0.2-11.72,4.27c-2.5,24.74-2.69,49.81-4.49,74.76c1.41,4.37-4.65,16,4.62,13.3c7.27-0.64,4.43,8.11,7.24,11.79
		c8.41,2.31,16.94,3.78,25.69,2.29c7.58,2.98,15.68,0.54,23.51,2.23c3.29,1.64,8.63-2.23,10.81,1.73
		c-1.75,4.45-2.86,9.13-3.43,13.88c-28.4,0.81-56.98-4.09-85.53-4.11c-3.06-1.44-0.34-5.26-0.27-7.8
		C41.02,158.62,43.32,110.89,47.31,65.31z"/>
	<path fill="#D0E3DD" d="M61.33,220.28c8.02-3.28,14.86,2.97,22.44,0.85c3.6,2.45,1.25,7.37,3.43,10.71
		c11.54-1.85,23.03,0.76,34.54-0.77c3.26,4.52,0.29,11.61,1.22,16.93c-21.61-0.65-43.2-0.31-64.83-0.08
		C59.23,239.47,52.71,225.68,61.33,220.28z"/>
</g>
<g>
	<path fill="#A9A9C6" d="M317.05,65.06l0.92-0.1c0.06,5.37,0.01,10.73,0.06,16.09c-0.09,13.96-0.01,27.91-0.02,41.86
		C315.7,105.85,317.55,83.98,317.05,65.06z"/>
</g>
<g>
	<path fill="#DADAED" d="M318.03,81.05c7.33-2.86,15.97-4.71,22.86,0.11c0.24,13.92,0.13,27.86,0.06,41.79
		c-7.65,0.03-15.3,0.3-22.94-0.04C318.02,108.96,317.94,95.01,318.03,81.05z"/>
</g>
<g>
	<path fill="#CBCDDC" d="M71.62,92.67c-0.61-5.3,3.78-13.57,9.77-9.2c16.67,0.97,33.36,2.69,50.02,3.16
		c9.12,1.98,18.75-1.08,27.57,2.44c0.02,1.65,0.02,3.3,0.01,4.95c-26.04,0.04-51.93-3.75-77.96-4.03c-3.4-0.07-3.25,4.87-5.31,6.76
		c-2.28,3.85-8.66,2.45-10.41,6.61c-0.76,24.86-3.35,49.65-4.24,74.49c2.49,3.4,8.84,3.98,10.15,8.84c0.96,2.24,1.02,5.76,4.17,5.9
		c18.49,0.87,36.96,2.09,55.42,3.38c-1.35,2.27-2.52,4.63-3.53,7.07c-2.18-3.96-7.52-0.09-10.81-1.73
		c-7.83-1.69-15.93,0.75-23.51-2.23c-8.75,1.49-17.28,0.02-25.69-2.29c-2.81-3.68,0.03-12.43-7.24-11.79
		c-9.27,2.7-3.21-8.93-4.62-13.3c1.8-24.95,1.99-50.02,4.49-74.76C62.19,92.47,68.89,96.14,71.62,92.67z"/>
</g>
<g>
	<g>
		<path fill="#E0FCE5" d="M75.72,96.75c2.06-1.89,1.91-6.83,5.31-6.76c26.03,0.28,51.92,4.07,77.96,4.03
			c0.06,5.27,0.01,10.54-0.06,15.81c-19.8,15.91-21.47,45.74-9.76,66.97c-7.51,4.84-13.59,11.68-18.36,19.17
			c-18.46-1.29-36.93-2.51-55.42-3.38c-3.15-0.14-3.21-3.66-4.17-5.9c-1.31-4.86-7.66-5.44-10.15-8.84
			c0.89-24.84,3.48-49.63,4.24-74.49C67.06,99.2,73.44,100.6,75.72,96.75z M97.36,125.33c-6.44,2.3-11.65,8.65-11.38,15.65
			c-0.92,9.8,8.37,17.95,17.71,17.74c11.39-0.51,20.51-14.49,14.24-24.67C114.77,125.94,105.13,123.64,97.36,125.33z"/>
	</g>
</g>
<g>
	<path fill="#CBCBDC" d="M217.29,90.19c12.53-0.3,25.1-0.34,37.64-0.1c2.44,0.09,4.84,4.89,1.43,5.32
		c-13.28,1.25-26.77,0.46-40.12,0.45C214.66,93.83,214.92,91.42,217.29,90.19z"/>
	<path fill="#CBCBDC" d="M176.29,150.18c4.01,0.86,16.46-3.67,14.59,4.58C187.44,157.6,167.76,157.94,176.29,150.18z"/>
	<path fill="#CBCBDC" d="M204.29,150.19c10.54-0.33,21.11-0.3,31.66-0.14c2.73,0.13,2.83,4.64,0.8,5.82
		c-10.58,0.27-21.17,0.17-31.75,0.12C201.64,156.41,201.29,151.23,204.29,150.19z"/>
	<path fill="#CBCBDC" d="M272.29,164.19c6.81-0.3,13.67-0.44,20.48-0.01c2.3,1.28,2.56,3.66,0.99,5.67
		c-7.5,0.09-15.06,0.59-22.54-0.02C268.75,168.4,270.31,165.27,272.29,164.19z"/>
</g>
<g opacity="0.5">
	<g>
		<path fill="#C4C4C4" d="M347.01,97.98l0.99-0.03c33.37,0.13,66.98,10.75,92.77,32.27c36.75,29.81,58.99,79.03,51.84,126.39
			c-4.88,29.03-29,48.32-45.88,70.4c-7.09-9.37-17.55-17.08-29.49-18.31c-3.82-0.36-7.64-0.54-11.45-0.53
			c-0.4-0.17-1.19-0.52-1.59-0.7c-1.08-19.56,0.97-39.28-0.78-58.77c-0.48-5.63-5.1-10.1-10.18-11.96
			c-7.09-1.3-14.32-0.56-21.47-0.53c-7.55-0.32-15.1-0.08-22.65-0.29c0.29-13.82,0.39-28.13-6.34-40.64
			c0.47-22.05,0.08-44.1,0.25-66.15c1.34-0.24,2.85-0.23,3.82-1.35C347.49,117.87,346.72,107.91,347.01,97.98z M398.36,140.4
			c-23.33,3.25-41.59,28.43-35.39,51.63c3.28,15.91,16.44,27.89,31.7,32.37c3.61,10.54,9.45,20.81,19.56,26.37
			c21.79,14.72,54.47,2.72,62.47-22.07c9.39-23.42-6.94-49.93-30.3-56.03C440.9,152.19,419.74,136.69,398.36,140.4z"/>
	</g>
</g>
<g>
	<path fill="#D0E2DD" d="M36.23,104.19c4.28,1.92,1.31,12.83,0.39,18.49c0.5,17.71-2.32,35.41-2.83,53.21
		c-2.95,5.88-0.68,12.67-0.91,18.91c-1.58,2.32-4.5,0.89-6.37-0.23c-2.5-1.79-11.56,2.17-7.4-5.52c4.99-20.65,6.95-41.92,12.38-62.4
		C31.4,118.96,33.35,111.3,36.23,104.19z"/>
	<path fill="#D0E2DD" d="M329.16,129.01c2.62-0.03,5.24-0.03,7.88,0c-1.87,18.34,1.83,37.33-2.12,55.28
		c-3.12-2.87-6.42-5.52-9.65-8.25C326.1,160.37,325.4,144.42,329.16,129.01z"/>
</g>
<g>
	<path fill="#CACCDB" d="M149.17,176.8c-11.71-21.23-10.04-51.06,9.76-66.97c0.01,2.96-0.05,5.91-0.1,8.89
		c-6.91,9.19-13.88,21.19-10.5,33.08c-0.35,4.45-0.46,9.29,1.81,13.32c3.91-1.24,5.61-5.86,8.78-8.37
		c0.11,4.59,0.12,9.18-0.24,13.76C155.6,172.74,152.31,174.66,149.17,176.8z"/>
</g>
<g>
	<path fill="#D1E4DD" d="M148.33,151.8c-3.38-11.89,3.59-23.89,10.5-33.08c0.27,12.67,0.22,25.35,0.09,38.03
		c-3.17,2.51-4.87,7.13-8.78,8.37C147.87,161.09,147.98,156.25,148.33,151.8z"/>
</g>
<g>
	<path fill="#CDCDDE" d="M175.25,121.13c3.72,0.97,18.47-3.65,15.08,4.16C187.49,129.33,170.3,128.34,175.25,121.13z"/>
	<path fill="#CDCDDE" d="M203.26,121.14c17.16-0.22,34.37-0.31,51.53,0.01c2.44,1.47,0.9,4.57-1.08,5.66
		c-14.9,0.43-29.81,0.12-44.72,0.18C205.58,129.62,199.23,123.83,203.26,121.14z"/>
	<path fill="#CDCDDE" d="M271.26,121.15c7.49-0.12,15.04-0.57,22.52,0.01c1.73,0.93,1.21,3.04,1.13,4.65
		c-6.91,2.47-14.66,0.77-21.84,1.12C270.58,126.67,268.52,122.63,271.26,121.15z"/>
	<path fill="#CDCDDE" d="M271.26,135.15c7.51,1.02,16.93-2.61,23.65,1.07c0.53,8.41-12.14,3.52-16.93,4.83
		C274.54,143.76,266.96,138.4,271.26,135.15z"/>
	<path fill="#CDCDDE" d="M175.25,164.12c4.29,0.72,16.15-3.3,15.66,4.65C187.22,171.08,169.09,172.69,175.25,164.12z"/>
	<path fill="#CDCDDE" d="M203.26,165.15c8.5-0.27,17.03-0.33,25.54-0.03c1.76,1.25,1.82,4.57-0.05,5.75
		c-8.15,0.27-16.32,0.3-24.46-0.06C202.29,169.72,200.75,166.57,203.26,165.15z"/>
</g>
<g>
	<g>
		<path fill="#CBCCDC" d="M97.36,125.33c7.77-1.69,17.41,0.61,20.57,8.72c6.27,10.18-2.85,24.16-14.24,24.67
			c-9.34,0.21-18.63-7.94-17.71-17.74C85.71,133.98,90.92,127.63,97.36,125.33z M103.47,130.45c-9.06-1.11-14.53,9.2-10.51,16.61
			c3.87,7.91,17.25,7.55,20.07-1.01C116.92,139.25,110.88,130.55,103.47,130.45z"/>
	</g>
</g>
<g>
	<path fill="#CAD2DA" d="M317.06,129.07c4.03-0.11,8.06-0.12,12.1-0.06c-3.76,15.41-3.06,31.36-3.89,47.03
		c-2.72-1.72-5.57-3.29-8.07-5.33C316.66,156.86,317.04,142.94,317.06,129.07z"/>
</g>
<g>
	<path fill="#CACBDB" d="M337.04,129.01c1.66-0.01,3.32,0.03,4.99,0.1c-0.09,21.65,0.05,43.29-0.1,64.94
		c-2.45-3.17-4.81-6.42-7.01-9.76C338.87,166.34,335.17,147.35,337.04,129.01z"/>
</g>
<g>
	<path fill="#5D6675" d="M342.03,129.11l1,0.02c-0.17,22.05,0.22,44.1-0.25,66.15c-0.21-0.31-0.64-0.92-0.85-1.23
		C342.08,172.4,341.94,150.76,342.03,129.11z"/>
</g>
<g>
	<path fill="#E0FBE5" d="M103.47,130.45c7.41,0.1,13.45,8.8,9.56,15.6c-2.82,8.56-16.2,8.92-20.07,1.01
		C88.94,139.65,94.41,129.34,103.47,130.45z"/>
</g>
<g>
	<path fill="#CCCCDD" d="M175.25,135.13c3.72,0.97,18.47-3.65,15.08,4.16C187.3,143.25,170.23,142.75,175.25,135.13z"/>
	<path fill="#CCCCDD" d="M204.29,135.19c7.23-0.3,14.48-0.34,21.72-0.18c2.91-0.44,5.76,4.09,2.73,5.84
		c-8.51,0.26-17.04,0.33-25.54,0.02C200.8,139.35,202.28,136.29,204.29,135.19z"/>
	<path fill="#CCCCDD" d="M239.29,135.18c4.45,1.02,17.63-4.05,15.59,4.58c-4.42,3.21-11.48,0.36-16.68,1.12
		C235.8,139.34,237.29,136.29,239.29,135.18z"/>
	<path fill="#CCCCDD" d="M238.25,165.13c4.68,1.29,18.51-4.44,16.63,4.63C251.33,172.19,233.01,173.46,238.25,165.13z"/>
	<path fill="#CCCCDD" d="M272.29,178.19c6.81-0.3,13.67-0.44,20.48-0.01c2.3,1.28,2.56,3.66,0.99,5.67
		c-7.5,0.09-15.06,0.59-22.54-0.02C268.75,182.4,270.31,179.27,272.29,178.19z"/>
</g>
<g>
	<g>
		<path fill="#CAC9DA" d="M398.36,140.4c21.38-3.71,42.54,11.79,48.04,32.27c23.36,6.1,39.69,32.61,30.3,56.03
			c-8,24.79-40.68,36.79-62.47,22.07c-10.11-5.56-15.95-15.83-19.56-26.37c-15.26-4.48-28.42-16.46-31.7-32.37
			C356.77,168.83,375.03,143.65,398.36,140.4z M398.39,146.47c-12.05,1.88-22.91,10.05-27.41,21.52
			c-7.58,15.84-1.3,37.2,13.98,46.04c4.42,2.11,12.53,7.48,8.82-2.55c-10.89-4.2-19.08-14.74-19.84-26.46
			c-1.56-12.88,6.62-25.52,18.04-31.03c13.04-6.78,30.49-1.4,38.31,10.75c2.93,3.29,3,10.25,9.66,7.36
			C435.4,154.5,416.16,142.82,398.39,146.47z M401.4,157.49c-24.86,0.61-29.66,40.87-6.75,47.38c4.22-15.7,17.2-29.15,33.39-32.17
			C424.78,162.02,412.14,155.34,401.4,157.49z M429.39,178.47c-15.26,2.68-28.21,15.78-29.41,31.51
			c-3.64,21.54,15.43,42.51,37.03,41.09c19.87,1.03,37.16-17.5,36.06-37.08C474.06,191.67,451.01,173.49,429.39,178.47z"/>
	</g>
	<g>
		<path fill="#CAC9DA" d="M81.09,311.09c14.84-5.43,31.51-0.27,42.88,10.02c0.08,15.34,0.1,30.67-0.11,46.01
			c-0.31-0.53-0.93-1.59-1.23-2.12c-4.9,7.33-11.29,14.11-20.06,16.51c-18.25,5.99-39.36-9.41-39.58-28.55
			c-1.79-19.89,18.95-36.98,38.06-32.02c9.42,1.82,16.09,9.24,21.88,16.29c3.2-9.91-6.78-15.4-13.91-19.27
			c-13.85-6.42-31.26-2.51-41.84,8.22C49.27,344,56.9,379.14,81.61,386.43c14.73,5.34,39.04,0.07,42.23-17.63
			c0.04,4.34,0.14,8.68,0.12,13.05c-6.66,6.57-15.48,10.99-24.71,12.45c-3.51-0.08-6.99-0.14-10.49-0.09
			c-18.55-2.24-33.85-17.76-37.16-35.91c0.06-4.19,0.11-8.38,0.14-12.55C53.75,329.65,65.78,315.98,81.09,311.09z M90.4,326.48
			c-17.8,1.47-27.4,24.24-17.59,38.72c5.73,8.51,17.1,13.91,27.23,10.86c12.03-2.27,20.98-14.9,18.97-27.05
			C119.24,334.96,103.84,323.55,90.4,326.48z"/>
	</g>
</g>
<g>
	<path fill="#F9DED4" d="M398.39,146.47c17.77-3.65,37.01,8.03,41.56,25.63c-6.66,2.89-6.73-4.07-9.66-7.36
		c-7.82-12.15-25.27-17.53-38.31-10.75c-11.42,5.51-19.6,18.15-18.04,31.03c0.76,11.72,8.95,22.26,19.84,26.46
		c3.71,10.03-4.4,4.66-8.82,2.55c-15.28-8.84-21.56-30.2-13.98-46.04C375.48,156.52,386.34,148.35,398.39,146.47z"/>
</g>
<g>
	<path fill="#CACADB" d="M244.37,150.33c2.79,0.81,9.87-2.89,10.63,1.75C256.79,161.09,234.54,155.68,244.37,150.33z"/>
</g>
<g>
	<path fill="#CBCBDD" d="M271.24,150.15c7.49-0.1,15.05-0.58,22.54,0.01c1.84,1.17,1.82,4.55-0.03,5.7
		c-7.16,0.12-14.38,0.55-21.51-0.06C269.91,154.55,269.68,152.16,271.24,150.15z"/>
</g>
<g>
	<path fill="#FCF3D4" d="M401.4,157.49c10.74-2.15,23.38,4.53,26.64,15.21c-16.19,3.02-29.17,16.47-33.39,32.17
		C371.74,198.36,376.54,158.1,401.4,157.49z"/>
	<path fill="#FCF3D4" d="M432.4,189.47c12.7-2.73,26.94,6.21,29.01,19.2c2.98,12.61-5.16,26.73-17.78,29.95
		c-18.61,6.3-37.12-13.38-31.28-31.31C414.9,198.15,422.68,190.33,432.4,189.47z"/>
	<path fill="#FCF3D4" d="M409.31,325.26c11.58-0.94,23.14,6.64,26.53,17.84c6.87,18.53-13.18,38.67-31.73,31.69
		c-0.13-16.22-0.31-32.47,0.01-48.68C405.42,325.9,408.01,325.48,409.31,325.26z"/>
	<path fill="#FCF3D4" d="M90.4,326.48c13.44-2.93,28.84,8.48,28.61,22.53c2.01,12.15-6.94,24.78-18.97,27.05
		c-10.13,3.05-21.5-2.35-27.23-10.86C63,350.72,72.6,327.95,90.4,326.48z"/>
</g>
<g>
	<path fill="#FAFAFC" d="M129.98,216.96c1.99-16.62,13.72-32.25,28.95-39.13c-0.12,4.26,0.61,8.63-0.16,12.87
		c-11.5,7.43-17.73,20.75-22.05,32.98c6.96,7.47-4.49,17.07,1.78,23.89c3.29,6.18-4.71,12.67-1.22,18.13
		c6.3,6.57-4.89,15.12,0.8,21.2c2.87,5.71-1.1,11.33-1.95,16.97c7.51,6.49-2.74,15.84,1.55,22.42c3.25,4.76,0.16,10.58-1.06,15.39
		c-2.06,3.9,4.73,5.97,2.41,10.38c0.6,4.79-5.26,10.08-1.35,14.23c3.25,4.76,0.16,10.58-1.06,15.39c-2.06,3.9,4.73,5.97,2.41,10.38
		c0.6,4.79-5.26,10.08-1.35,14.23c3.25,4.76,0.16,10.58-1.06,15.39c-2.06,3.9,4.73,5.97,2.41,10.38c0.6,4.79-5.26,10.08-1.35,14.23
		c5.49,6.6-5.23,14.68,0.4,20.61c2.24,6.53,0.05,14.41-4.25,19.72c-1.28-0.9-2.55-1.8-3.8-2.73
		C129.95,394.91,130.04,305.93,129.98,216.96z"/>
</g>
<g>
	<path fill="#D5D5E8" d="M317.05,177.94c13.14,7.64,23.34,20.96,25.85,36.11c0.21,91.65,0.08,183.3,0.07,274.95
		c1.21,4.07-1.58,9.01-5.95,9.01C270,497.99,202.99,498,135.97,498c-4.09,0.03-6.62-4.21-6.01-7.98c0.03-2.05,0.05-4.09,0.07-6.13
		c1.25,0.93,2.52,1.83,3.8,2.73c4.04,4.26,10.51,0.6,15.64,0.97c55.73-0.34,111.48,0.22,167.21-0.27c7.37,1.82,17.09,0.24,20.03-7.7
		c-0.01-77.48-0.02-155,0-232.5c-1.55-16.83,3.92-35.03-5.43-50.42c-3.99-5.19-7.03-11.93-13.26-14.84
		c-0.12,11.69,0,23.39-0.01,35.09l-0.97,0.03C316.97,203.97,316.9,190.95,317.05,177.94z"/>
</g>
<g>
	<g>
		<path fill="#FADFD4" d="M429.39,178.47c21.62-4.98,44.67,13.2,43.68,35.52c1.1,19.58-16.19,38.11-36.06,37.08
			c-21.6,1.42-40.67-19.55-37.03-41.09C401.18,194.25,414.13,181.15,429.39,178.47z M431.39,183.46
			c-21.78,3.39-34.29,32.19-19.4,49.54c13.31,19.97,46.75,14.4,53.94-8.05C475.44,203.65,453.51,178.77,431.39,183.46z"/>
	</g>
	<path fill="#FADFD4" d="M67.18,326.18c10.58-10.73,27.99-14.64,41.84-8.22c7.13,3.87,17.11,9.36,13.91,19.27
		c-5.79-7.05-12.46-14.47-21.88-16.29c-19.11-4.96-39.85,12.13-38.06,32.02c0.22,19.14,21.33,34.54,39.58,28.55
		c8.77-2.4,15.16-9.18,20.06-16.51c0.3,0.53,0.92,1.59,1.23,2.12c-0.01,0.42-0.02,1.26-0.02,1.68c-3.19,17.7-27.5,22.97-42.23,17.63
		C56.9,379.14,49.27,344,67.18,326.18z"/>
</g>
<g>
	<path fill="#CCCCDE" d="M204.29,179.19c8.14-0.36,16.3-0.33,24.46-0.06c1.86,1.17,1.86,4.57,0,5.74
		c-8.16,0.27-16.32,0.3-24.46-0.06C201.58,183.49,201.58,180.51,204.29,179.19z"/>
	<path fill="#CCCCDE" d="M238.25,179.13c4.68,1.29,18.51-4.44,16.63,4.63C251.33,186.19,233.01,187.46,238.25,179.13z"/>
</g>
<g>
	<g>
		<path fill="#EDEDFB" d="M318.02,181.86c6.23,2.91,9.27,9.65,13.26,14.84c9.35,15.39,3.88,33.59,5.43,50.42
			c-0.02,77.5-0.01,155.02,0,232.5c-2.94,7.94-12.66,9.52-20.03,7.7c-55.73,0.49-111.48-0.07-167.21,0.27
			c-5.13-0.37-11.6,3.29-15.64-0.97c4.3-5.31,6.49-13.19,4.25-19.72c-5.63-5.93,5.09-14.01-0.4-20.61
			c-3.91-4.15,1.95-9.44,1.35-14.23c2.32-4.41-4.47-6.48-2.41-10.38c1.22-4.81,4.31-10.63,1.06-15.39
			c-3.91-4.15,1.95-9.44,1.35-14.23c2.32-4.41-4.47-6.48-2.41-10.38c1.22-4.81,4.31-10.63,1.06-15.39
			c-3.91-4.15,1.95-9.44,1.35-14.23c2.32-4.41-4.47-6.48-2.41-10.38c1.22-4.81,4.31-10.63,1.06-15.39
			c-4.29-6.58,5.96-15.93-1.55-22.42c0.85-5.64,4.82-11.26,1.95-16.97c-5.69-6.08,5.5-14.63-0.8-21.2
			c-3.49-5.46,4.51-11.95,1.22-18.13c-6.27-6.82,5.18-16.42-1.78-23.89c4.32-12.23,10.55-25.55,22.05-32.98
			c0.26,8.74,0.48,17.52,0.14,26.27c-4.67,0.5-9.76-1.11-14.2,0.75c-1.64,1.15-0.84,4.65,1.02,5.61c61.77,1.12,123.78,1.12,185.54,0
			c2.31-1.16,2.31-4.51-0.01-5.66c-4.39-0.68-8.83-0.68-13.25-0.72C318.02,205.25,317.9,193.55,318.02,181.86z M145.02,240.07
			c-1.72,19.17-1.69,45.6-0.02,64.92c0.25,0.25,0.75,0.76,1.01,1.01v0.97c60.01,0.04,120.01,0.07,180.02-0.02l-0.09-0.96
			c1.26-0.1,1.94-0.78,2.04-2.04l0.95,0.03c-0.43-20.97,1.33-44.73-0.94-63.92c0.09-3.28-5.84-1.82-6.97-2.09
			c-55.01,0.05-110.02,0.05-165.03,0C153.25,239.48,145.76,235.37,145.02,240.07z M151.32,317.28c-4.44,1.81-7.74,6.72-6.38,11.7
			c0.3,7.22-2.01,16.22,5.27,20.86c9.83,0.28,19.67,0.35,29.5-0.05c9.31-5.63,4.25-17.69,5.01-26.47
			C178.83,310.97,161.67,319.14,151.32,317.28z M193,323.96c-2.63,4.08-1.14,15.15-0.01,19.06c0.4,6.79,8.68,8.09,14.01,7.04
			c7.77-1.56,21.76,4.3,24.98-6.13c1.75-3.9,1.77-15.81,0.03-19.95c-0.46-5.95-7.97-8.32-13.01-7.05
			C210.55,318.19,196.43,312.88,193,323.96z M241,323.98c-1.77,4.15-1.73,16.06,0.02,19.95c2.11,8.38,12.8,6.03,18.98,6.12
			c6.54-0.28,18.94,2.56,20-7.02c2.63-4.04,1.12-15.14,0.01-19.06c-1.79-8.26-12.58-7.67-19.01-7.03
			C254.44,317.21,242.06,314.39,241,323.98z M289.02,323.06c-2.34,3.9-1.36,16.73-0.02,20.96c1.71,8.15,13.14,6,19,6.03
			c6.54-0.28,18.94,2.56,20-7.02c2.63-4.04,1.12-15.14,0.01-19.06c-0.99-5.79-8.74-8.3-14.01-7.04
			C306.22,318.47,292.25,312.65,289.02,323.06z M151.96,362c-10.56,3.14-6.48,17.36-6.56,25.63c0.6,6.38,8.28,8.28,13.59,7.42
			c8.37-1,22.6,3.89,25.94-7.11c-1.09-7.94,4.41-23.67-6.9-25.95C171.88,359.86,158.2,360.57,151.96,362z M199.07,362.01
			c-2.92,0.78-5.28,3.14-6.05,6.06c-1.76,3.91-1.78,15.76-0.03,19.96c2.42,9.6,14.7,6.8,22.01,7.02c5.63,0.35,16.38,0.79,16.99-7.03
			c1.76-4.25,1.75-15.81,0.01-20.04c-0.05-3.09-3.51-4.92-6.06-5.96C220.03,359.48,205.02,360.85,199.07,362.01z M247.07,362.02
			c-2.56,1.03-6.02,2.87-6.07,5.96c-1.76,4.25-1.75,15.8,0,20.04c0.19,6.01,8.17,7.8,12.98,7.04c8.45-1.23,22.58,4.05,26.02-7.02
			c2.63-4.08,1.12-15.16,0.01-19.06c-0.2-3.57-3.42-6.78-6.98-6.99C266.97,359.85,252.92,360.58,247.07,362.02z M294.96,362
			c-2.96-0.12-5.43,3.37-5.96,5.96c-1.76,4.32-1.75,15.81,0,20.06c0.77,8.2,12.19,7.39,18,7.04c7.13-0.05,19.91,2.22,21.02-8
			c2.68-3.65,1.07-14.61-0.02-18.08c-0.19-3.57-3.41-6.78-6.97-6.99C314.87,359.86,301.2,360.57,294.96,362z M294.98,404.99
			c-3.18,0.02-5.97,2.79-5.98,5.98l-0.93,0.09c0.43,21.03-1.32,44.48,0.92,63.96c0.35,6.21,7.85,8.31,13.01,7.04
			c8.52-1.15,21.26,3.61,25.97-6.08l0.95-0.02c-0.41-21.04,1.32-44.49-0.91-63.98c-0.38-3.01-2.75-6.78-5.98-6.98
			C315.64,402.51,301.41,403.83,294.98,404.99z M151.98,406c-5.27,0.11-7.39,6.66-6.97,11c0.08,7.14-2.37,18.59,6.95,21
			c6.18,2.14,19.86,1.4,26.06,0.01c5.64-0.31,8.45-7.03,7.06-12c-0.5-6.29,2.47-18.1-6.05-20.01
			C172.64,403.51,158.41,404.83,151.98,406z M198.97,406c-2.96-0.12-5.43,3.37-5.97,5.96c-2.63,4.08-1.14,15.14-0.01,19.06
			c0.16,3.34,2.93,6.1,6.07,6.96c5.98,2.52,20.64,1.17,26.97,0.02c2.96,0.11,5.43-3.39,5.97-5.96c1.75-4.35,1.74-15.76,0-20.07
			c0.11-2.96-3.38-5.43-5.96-5.98C219.56,403.51,205.47,404.83,198.97,406z M246.97,406c-2.96-0.12-5.44,3.37-5.97,5.96
			c-1.76,4.34-1.75,15.75,0,20.07c-0.11,2.96,3.37,5.41,5.95,5.98c6.4,2.48,20.85,1.14,26.98-0.02c3.13-0.86,5.91-3.61,6.07-6.96
			c2.63-4.04,1.13-15.14,0-19.06c0.11-2.96-3.39-5.43-5.96-5.98C267.56,403.51,253.47,404.83,246.97,406z M247.96,449
			c-11.06,3.42-6.18,18.07-6.68,26.68c4.79,11.2,19.65,4.8,28.72,6.28c6.61,1.51,12.8-5.54,11.06-11.94
			c-0.25-7.17,2.34-18.6-7.02-21.03C267.82,446.87,254.22,447.57,247.96,449z M146,472.02c-1.73,7.56,7.83,11.64,14,10.04
			c7.56-1.46,22.13,4.09,25-6.04c2.31-4.29,1.33-16.69,0-21.04c-3.97-11.22-20.4-4.03-29-5.94
			C142.72,447.12,145.67,464.28,146,472.02z M199.32,449.28c-10.84,5.27-7.5,22.1-3.17,30.54c8.77,5.68,20.73,0.63,30.53,1.9
			c10.74-4.45,5.35-18.61,5.98-27.34C226.36,442.84,209.54,451.54,199.32,449.28z"/>
	</g>
</g>
<g>
	<path fill="#C9C9DA" d="M271.22,200.15c8.47-0.41,16.98-0.34,25.46,0.06c3,1.33,0.25,4.47-0.97,6.12
		c-7.8-0.62-15.65-0.34-23.45-0.02C271,204.63,268.46,201.72,271.22,200.15z"/>
</g>
<g>
	<path fill="#62626A" d="M31.14,215.23c-0.19-3.17,0.32-6.34,0.76-9.46C31.93,208.95,31.53,212.07,31.14,215.23z"/>
</g>
<g>
	<path fill="#8A8AA9" d="M129.05,217.06l0.93-0.1c0.06,88.97-0.03,177.95,0.05,266.93c-0.02,2.04-0.04,4.08-0.07,6.13l-0.96-0.04
		C129.03,399.01,128.93,308.03,129.05,217.06z"/>
</g>
<g>
	<path fill="#ADADC9" d="M144.71,217.72c4.44-1.86,9.53-0.25,14.2-0.75C156.58,219.36,149.21,217.81,144.71,217.72z"/>
</g>
<g>
	<path fill="#A8A8C4" d="M317.04,216.98l0.97-0.03c4.42,0.04,8.86,0.04,13.25,0.72C327.34,216.87,319.19,220,317.04,216.98z"/>
</g>
<g>
	<path fill="#6C6C75" d="M33.79,218.14c2.81,0.19,5.61,0.43,8.42,0.72C39.39,218.77,36.58,218.52,33.79,218.14z"/>
</g>
<g>
	<path fill="#36363B" d="M46.78,219.1c3.46-0.54,6.43-0.21,5.26,4.04l-0.79-0.43C51.31,220.06,48.79,219.74,46.78,219.1z"/>
</g>
<g>
	<path fill="#DCF3E3" d="M90.87,222.03c10.7,0.19,21.43,0.7,32.05,2.11c0.03,0.46,0.08,1.37,0.1,1.82
		c-10.28,0.06-20.56,0.21-30.84-0.08C91.66,224.62,91.18,223.34,90.87,222.03z"/>
</g>
<g>
	<path fill="#646D7B" d="M51.25,222.71l0.79,0.43c0.08,9.69-0.06,19.38-0.36,29.07c-1.2-9.44-0.69-19-0.65-28.48L51.25,222.71z"/>
</g>
<g>
	<path fill="#B5B5CF" d="M145.73,223.33c61.83-0.53,123.73-0.57,185.54,0C269.51,224.45,207.5,224.45,145.73,223.33z"/>
</g>
<g opacity="0.5">
	<path fill="#C4C4C4" d="M36.08,238.42c5.7-4.05,9.33-10.44,14.95-14.69c-0.04,9.48-0.55,19.04,0.65,28.48
		c1.42,2.09,3.52,2.69,6.31,1.79c22,0.05,44-0.04,65.99,0c0.04,22.37,0.03,44.74-0.01,67.11c-11.37-10.29-28.04-15.45-42.88-10.02
		c-15.31,4.89-27.34,18.56-29.35,34.66c-0.75,4.1-1.09,8.43-0.14,12.55c3.31,18.15,18.61,33.67,37.16,35.91
		c3.49,0.71,6.98,0.74,10.49,0.09c9.23-1.46,18.05-5.88,24.71-12.45c0.08,19.72,0.05,39.45,0.01,59.18l-1,0.12
		C60.95,430.66,10.22,375.03,5.7,312.25c0.22-6.84,0.39-13.67,0.07-20.49c2.18-14.49,9.43-27.62,18.45-38.96
		c3.57,2.64,3.97,7.35,6.1,10.95c2.4,1.14,2.56-2.46,3.54-3.87c1.72-5.21,6.11-8.57,9.92-12.21
		C44.82,243.05,38.14,241.82,36.08,238.42z"/>
</g>
<g>
	<path fill="#F7BDBD" d="M30.33,232.15c3.21-0.17,3.79,4.34,5.75,6.27c2.06,3.4,8.74,4.63,7.7,9.25c-3.81,3.64-8.2,7-9.92,12.21
		c-0.98,1.41-1.14,5.01-3.54,3.87c-2.13-3.6-2.53-8.31-6.1-10.95c-1.65-2.6-7.34-3.59-6.04-7.47
		C22.85,241.53,27.51,237.61,30.33,232.15z"/>
</g>
<g>
	<path fill="#5F6382" d="M371.77,236.21c7.15-0.03,14.38-0.77,21.47,0.53C386.08,236.96,378.88,237.22,371.77,236.21z"/>
</g>
<g>
	<path fill="#ACACC8" d="M145,304.99c-1.67-19.32-1.7-45.75,0.02-64.92C144.96,261.71,145.03,283.35,145,304.99z"/>
</g>
<g>
	<path fill="#CBCBE0" d="M327.99,240.06c2.27,19.19,0.51,42.95,0.94,63.92l-0.95-0.03C328.03,282.65,328,261.36,327.99,240.06z"/>
</g>
<g>
	<path fill="#9393AF" d="M349.07,243.1c5.94-0.17,11.93-1.05,17.86-0.03c0.04,19.71,0.27,39.43-0.06,59.14
		c-3-1.69-5.9-3.96-6.49-7.57c-0.96-5.81-9.31-3.42-11.33-8.75C348.95,271.63,348.9,257.36,349.07,243.1z"/>
</g>
<g>
	<path fill="#A3AED7" d="M373.02,243c3.94-1.74,16.15-1.76,19.9,0c-0.51,0-1.51,0.01-2.02,0.02
		C384.93,242.96,378.98,242.99,373.02,243z"/>
</g>
<g>
	<path fill="#8286AE" d="M372.07,243.04l0.95-0.04c-0.05,71.3-0.02,142.6-0.01,213.9l-0.96,0.15
		C371.98,385.71,371.93,314.37,372.07,243.04z"/>
</g>
<g>
	<path fill="#C0D1FC" d="M373.02,243c5.96-0.01,11.91-0.04,17.88,0.02c0.94,1.08,1.91,2.16,2.73,3.36
		c-1.04,69.85,0.93,140.4-0.99,209.96c-4.79,1.56-13.17,0.57-19.63,0.56C373,385.6,372.97,314.3,373.02,243z"/>
</g>
<g>
	<path fill="#D0DCFC" d="M390.9,243.02c0.51-0.01,1.51-0.02,2.02-0.02c2.72-0.59,3.82,2.86,4.09,4.98
		c-0.02,67.68-0.01,135.36-0.01,203.05c-0.19,2.35-1.58,5.42-4.36,5.31c1.92-69.56-0.05-140.11,0.99-209.96
		C392.81,245.18,391.84,244.1,390.9,243.02z"/>
</g>
<g>
	<path fill="#99A9A4" d="M150.03,244l0.97,0.05c0,1.72,0.01,5.17,0.02,6.9c-0.06,16.35-0.01,32.7-0.01,49.05
		C148.66,283.26,150.62,262.34,150.03,244z"/>
</g>
<g>
	<path fill="#B5CFAF" d="M151,244.05c21.76,0.09,43.56-0.42,65.32,0.19c-1.87,2.77-4.31,5.13-7.1,6.96
		c-19.42-0.07-38.8,0.55-58.2-0.25C151.01,249.22,151,245.77,151,244.05z"/>
</g>
<g>
	<path fill="#CDE2C6" d="M216.32,244.24c10.6-0.54,21.28-0.27,31.91-0.07c-7.39,12.76-20.23,19.72-28.44,31.69
		c-1.36,0.6-2.71,1.24-4.03,1.92c-3.63,1.09-3.99,5.33-6.11,7.92c-4.45,4.9-9.39,9.33-13.85,14.23
		c-11.35,0.12-22.71,0.14-34.06-0.04c4.62-6.64,10.94-11.81,16.45-17.67l0.77-0.24c8.02-1.65,8.82-11.59,15.17-15.89
		c0.48-0.24,1.43-0.71,1.9-0.94c7.08-1.56,7.39-10.35,13.19-13.95C212.01,249.37,214.45,247.01,216.32,244.24z"/>
</g>
<g>
	<g>
		<path fill="#C0DDB4" d="M248.23,244.17c7.95-0.34,15.93-0.28,23.89-0.1c-1.52,1.69-3.38,3.37-3.24,5.87
			c6.23-1.23,12.45,0.52,18.28,2.68c11.85-2.97,22.91,1.22,34.82-1.7c0.05,16.36,0.01,32.71,0.01,49.07
			c-42.06-0.03-84.13,0.11-126.19-0.06c4.46-4.9,9.4-9.33,13.85-14.23c2.12-2.59,2.48-6.83,6.11-7.92
			c-3.23,9.29,12.17,4.17,17.64,2.75c25.9,2.95,52.45,1.4,78.6,1.48c4.99,0.95,4.78-10.65-1.99-6.19
			c-24.33-0.09-48.73-0.9-73.02,1.46c-5.69-1.06-11.39-2.33-17.2-1.42C228,263.89,240.84,256.93,248.23,244.17z M294.23,287.64
			c-4.33,0.64-11.64-1.64-8.22,6.27c7.37-0.37,14.8,1.29,22.11,0.44c2.52-1.31,10.6,0.35,6.89-6.26
			C308.08,288.01,301.15,287.85,294.23,287.64z"/>
	</g>
</g>
<g>
	<path fill="#B6CFB0" d="M272.12,244.07c16.62-0.08,33.26-0.23,49.88,0.03c0,1.7-0.01,5.12-0.02,6.82
		c-11.91,2.92-22.97-1.27-34.82,1.7c-5.83-2.16-12.05-3.91-18.28-2.68C268.74,247.44,270.6,245.76,272.12,244.07z"/>
</g>
<g>
	<path fill="#858E9D" d="M322,244.1c2.31,16.38,0.4,37.63,0.96,55.88l-0.97,0.01c0-16.36,0.04-32.71-0.01-49.07
		C321.99,249.22,322,245.8,322,244.1z"/>
</g>
<g>
	<path fill="#8A8DB1" d="M397.01,247.98l0.96,0.04c0.02,67.64,0.09,135.29-0.03,202.92l-0.94,0.09
		C397,383.34,396.99,315.66,397.01,247.98z"/>
</g>
<g>
	<path fill="#535B6F" d="M403.42,248.7c1.75,19.49-0.3,39.21,0.78,58.77c0.4,0.18,1.19,0.53,1.59,0.7l0.34,0.84
		c-0.78,0-2.34,0.02-3.12,0.02C403.13,288.92,402.59,268.8,403.42,248.7z"/>
</g>
<g>
	<path fill="#BFDDB3" d="M151.02,250.95c19.4,0.8,38.78,0.18,58.2,0.25c-5.8,3.6-6.11,12.39-13.19,13.95
		c1.16-1.61,2.35-3.19,3.27-4.95c-11.42-1.08-22.84-0.31-34.26-0.44c-3.19-1.09-7.17,0.15-7.07,4.08
		c11.13,5.72,24.3,1.01,36.16,2.25c-6.35,4.3-7.15,14.24-15.17,15.89c1.59-1.83,3.28-3.63,4.37-5.82
		c-8.1-0.13-16.22-0.55-24.31-0.03c-2.95,11.28,12.64,4.04,19.17,6.09c-5.51,5.86-11.83,11.03-16.45,17.67
		c-3.58,0.05-7.15,0.12-10.73,0.11C151.01,283.65,150.96,267.3,151.02,250.95z"/>
</g>
<g>
	<path fill="#B0C7AD" d="M157.97,263.84c-0.1-3.93,3.88-5.17,7.07-4.08c11.42,0.13,22.84-0.64,34.26,0.44
		c-0.92,1.76-2.11,3.34-3.27,4.95c-0.47,0.23-1.42,0.7-1.9,0.94C182.27,264.85,169.1,269.56,157.97,263.84z"/>
</g>
<g>
	<path fill="#AFC5AD" d="M219.79,275.86c5.81-0.91,11.51,0.36,17.2,1.42c24.29-2.36,48.69-1.55,73.02-1.46
		c6.77-4.46,6.98,7.14,1.99,6.19c-26.15-0.08-52.7,1.47-78.6-1.48c-5.47,1.42-20.87,6.54-17.64-2.75
		C217.08,277.1,218.43,276.46,219.79,275.86z"/>
</g>
<g>
	<path fill="#AEC4AC" d="M159.02,276.13c8.09-0.52,16.21-0.1,24.31,0.03c-1.09,2.19-2.78,3.99-4.37,5.82l-0.77,0.24
		C171.66,280.17,156.07,287.41,159.02,276.13z"/>
</g>
<g>
	<path fill="#A3A3BC" d="M349.05,285.89c2.02,5.33,10.37,2.94,11.33,8.75c0.59,3.61,3.49,5.88,6.49,7.57
		c0.43,10,0.88,19.94,0.01,29.95c-3.38-0.81-8.54-0.14-9.43-4.53c-0.86-4.47-5.07-6.33-8.38-8.73
		C348.86,307.9,348.99,296.89,349.05,285.89z"/>
	<path fill="#A3A3BC" d="M198.96,387.93c-1.05-3.73-2.6-15.07,0.05-18.93C199,375.31,199,381.61,198.96,387.93z"/>
	<path fill="#A3A3BC" d="M199,430.99c-1.2-3.39-2.54-15.88,0.02-18.76C198.98,418.48,199,424.72,199,430.99z"/>
</g>
<g>
	<path fill="#AEC5AB" d="M294.23,287.64c6.92,0.21,13.85,0.37,20.78,0.45c3.71,6.61-4.37,4.95-6.89,6.26
		c-7.31,0.85-14.74-0.81-22.11-0.44C282.59,286,289.9,288.28,294.23,287.64z"/>
</g>
<g>
	<path fill="#2D343D" d="M5.7,312.25c-0.82-6.8-1.13-13.73,0.07-20.49C6.09,298.58,5.92,305.41,5.7,312.25z"/>
</g>
<g>
	<path fill="#909BA2" d="M151.01,300c3.58,0.01,7.15-0.06,10.73-0.11c11.35,0.18,22.71,0.16,34.06,0.04
		c42.06,0.17,84.13,0.03,126.19,0.06l0.01,0.98c-57,0.05-113.99,0.05-170.98,0L151.01,300z"/>
</g>
<g>
	<path fill="#BDBDD5" d="M146.01,306c59.97-0.01,119.95,0.02,179.93-0.01l0.09,0.96c-60.01,0.09-120.01,0.06-180.02,0.02V306z"/>
</g>
<g>
	<path fill="#9C9FAF" d="M405.79,308.17c3.81-0.01,7.63,0.17,11.45,0.53c-3.73,0.09-7.4,0.35-11.11,0.31L405.79,308.17z"/>
</g>
<g>
	<g>
		<path fill="#CAC9D8" d="M403.01,309.03c0.78,0,2.34-0.02,3.12-0.02c3.71,0.04,7.38-0.22,11.11-0.31
			c11.94,1.23,22.4,8.94,29.49,18.31c2.88,4.61,4.77,9.74,6.49,14.88c-0.59,1.39-0.77,3.29,0.73,4.2
			c2.78,22.7-14.99,44.81-37.66,47.27c-3.53-0.12-6.99-0.21-10.5-0.21c-0.7-0.04-2.08-0.13-2.77-0.18
			C402.98,364.99,402.99,337.01,403.01,309.03z M407.4,314.46c-2.42,0.69-6.74,0.2-3.39,5.54c21.59-5.43,44,16.28,38.04,38.02
			c-4.07,16.19-21.65,27.31-38.03,23.01c-3.33,8.16,6.61,7.24,11.1,6.23c18.42-0.64,33.71-18.01,32.94-36.26
			C449.24,329.7,428.16,311.36,407.4,314.46z M409.31,325.26c-1.3,0.22-3.89,0.64-5.19,0.85c-0.32,16.21-0.14,32.46-0.01,48.68
			c18.55,6.98,38.6-13.16,31.73-31.69C432.45,331.9,420.89,324.32,409.31,325.26z"/>
	</g>
</g>
<g>
	<path fill="#A2F5C9" d="M482.32,310.22c5.83-0.55,7.24,8.8,12.7,10.73c5.52,3.02-2.34,7.37-4.74,9.3
		c-2.83,2.95-3.78,7.03-5.56,10.59c-3.2,0.62-3.07-4.18-4.48-6.13c-1.53-5.15-9.52-6.88-9.15-12.48
		C475.86,319.22,479.62,315.17,482.32,310.22z"/>
</g>
<g>
	<path fill="#FADFD5" d="M407.4,314.46c20.76-3.1,41.84,15.24,40.66,36.54c0.77,18.25-14.52,35.62-32.94,36.26
		c-4.49,1.01-14.43,1.93-11.1-6.23c16.38,4.3,33.96-6.82,38.03-23.01c5.96-21.74-16.45-43.45-38.04-38.02
		C400.66,314.66,404.98,315.15,407.4,314.46z"/>
</g>
<g>
	<g>
		<path fill="#717197" d="M151.32,317.28c10.35,1.86,27.51-6.31,33.4,6.04c-0.76,8.78,4.3,20.84-5.01,26.47
			c-9.83,0.4-19.67,0.33-29.5,0.05c-7.28-4.64-4.97-13.64-5.27-20.86C143.58,324,146.88,319.09,151.32,317.28z M151.68,323.69
			c-1.25,6.02-2.39,15.34,1.03,20.31c8.73,0.06,17.47,0.07,26.2-0.05c0.33-6.4,0.09-12.82,0.1-19.21
			C172.08,320.08,159.7,323.92,151.68,323.69z"/>
	</g>
</g>
<g>
	<g>
		<path fill="#707096" d="M193,323.96c3.43-11.08,17.55-5.77,26-7.03c5.04-1.27,12.55,1.1,13.01,7.05
			c-0.01,6.64,0.04,13.3-0.03,19.95c-3.22,10.43-17.21,4.57-24.98,6.13c-5.33,1.05-13.61-0.25-14.01-7.04
			C192.98,336.66,192.96,330.31,193,323.96z M199.01,324.01c-2.63,3.9-1.17,15.03-0.01,19.11c0.19,0.16,0.56,0.48,0.74,0.65
			c8.35-0.27,19.47,1.62,26.26-0.78c2.63-3.93,1.12-14.89-0.06-19.19C219.5,321.88,205.39,322.62,199.01,324.01z"/>
	</g>
	<g>
		<path fill="#707096" d="M289,367.96c0.53-2.59,3-6.08,5.96-5.96c8.69-0.02,17.37-0.01,26.07-0.01c3.56,0.21,6.78,3.42,6.97,6.99
			c0.01,6.02,0.01,12.04,0.02,18.08c-1.11,10.22-13.89,7.95-21.02,8c-5.81,0.35-17.23,1.16-18-7.04
			C288.98,381.32,288.97,374.65,289,367.96z M296.06,368.02c-5.18,3.63-1.23,16.43-1.15,19.84c6.06,3.1,17.93,0.24,25.84,1.01
			c3.74-5.13,0.16-13.39,0.77-19.35c-0.11-0.38-0.33-1.13-0.43-1.51C314.97,366.24,301.86,366.28,296.06,368.02z"/>
	</g>
</g>
<g>
	<g>
		<path fill="#707097" d="M241,323.98c1.06-9.59,13.44-6.77,20-7.04c6.43-0.64,17.22-1.23,19.01,7.03
			c-0.01,6.34,0.03,12.7-0.01,19.06c-1.06,9.58-13.46,6.74-20,7.02c-6.18-0.09-16.87,2.26-18.98-6.12
			C240.98,337.27,240.96,330.63,241,323.98z M247.01,324.01c-2.64,3.91-1.14,14.94-0.03,19.12c0.14,0.1,0.42,0.32,0.57,0.43
			c8.39,0.08,19.59,1.81,26.45-0.57c2.63-3.92,1.11-14.9-0.05-19.17C267.52,321.84,253.39,322.64,247.01,324.01z"/>
	</g>
	<g>
		<path fill="#707097" d="M145.4,387.63c0.08-8.27-4-22.49,6.56-25.63c8.69-0.02,17.37-0.01,26.07-0.01
			c11.31,2.28,5.81,18.01,6.9,25.95c-3.34,11-17.57,6.11-25.94,7.11C153.68,395.91,146,394.01,145.4,387.63z M153.06,368.02
			c-5.1,3.75-1.46,15.93-0.94,20.12c5.62,2.35,17.89,0.21,25.63,0.73c3.73-5.14,0.18-13.4,0.79-19.37
			c-0.12-0.37-0.34-1.12-0.46-1.49C171.97,366.24,158.86,366.28,153.06,368.02z"/>
	</g>
	<g>
		<path fill="#707097" d="M146,472.02c-0.33-7.74-3.28-24.9,10-22.98c8.6,1.91,25.03-5.28,29,5.94c0,7,0.03,14.03,0,21.04
			c-2.87,10.13-17.44,4.58-25,6.04C153.83,483.66,144.27,479.58,146,472.02z M153.01,455c-1.82,3.36-2.23,19.28,0.48,20.56
			c8.51,1.01,17.67,0.83,25.83-0.24c1.72-5.77,1.16-15.34-0.39-19.39c-0.22-0.22-0.65-0.68-0.87-0.91
			C171.99,453.24,158.96,453.28,153.01,455z"/>
	</g>
	<g>
		<path fill="#707097" d="M199.32,449.28c10.22,2.26,27.04-6.44,33.34,5.1c-0.63,8.73,4.76,22.89-5.98,27.34
			c-9.8-1.27-21.76,3.78-30.53-1.9C191.82,471.38,188.48,454.55,199.32,449.28z M201.06,455.02c-5.19,3.89-1.06,14.73-1.39,20.31
			c8.22,1.42,18.38,0.99,26.64-0.02c0.85-5.84,1.79-15.71-0.33-20.31C220.17,453.26,206.77,453.27,201.06,455.02z"/>
	</g>
</g>
<g>
	<g>
		<path fill="#716F96" d="M289.02,323.06c3.23-10.41,17.2-4.59,24.98-6.13c5.27-1.26,13.02,1.25,14.01,7.04
			c-0.01,6.34,0.03,12.7-0.01,19.06c-1.06,9.58-13.46,6.74-20,7.02c-5.86-0.03-17.29,2.12-19-6.03
			C288.99,337.02,288.94,330.05,289.02,323.06z M294.17,324.23c0.44,6.32-2.8,15.36,1.8,19.84c8.65-0.04,17.29,0,25.95-0.12
			c0.32-6.32,0.09-12.65,0.04-18.96c0.01-0.48,0.02-1.45,0.03-1.93C312.94,323.71,302.4,321.25,294.17,324.23z"/>
	</g>
</g>
<g>
	<path fill="#9797B1" d="M349.07,318.9c3.31,2.4,7.52,4.26,8.38,8.73c0.89,4.39,6.05,3.72,9.43,4.53
		c0.28,9.94,0.07,19.91,0.16,29.87c3.62,7.27-4.97,7.07-5.23,12.85c0.67,19.44-0.01,38.96,0.38,58.42
		c-2.08,7.94,3.79,16.75-2.24,23.72c-2.72-0.01-8.17-0.04-10.89-0.05C348.97,410.94,348.95,364.92,349.07,318.9z"/>
</g>
<g>
	<path fill="#EFEFFB" d="M151.68,323.69c8.02,0.23,20.4-3.61,27.33,1.05c-8.39,0.66,1.35,13.91-6.38,16
		c-5.87,1.83-17.1-5.16-19.92,3.26C149.29,339.03,150.43,329.71,151.68,323.69z"/>
	<path fill="#EFEFFB" d="M152.12,388.14c-0.52-4.19-4.16-16.37,0.94-20.12c8.34-0.08,16.68,0,25.02-0.01
		c0.12,0.37,0.34,1.12,0.46,1.49c-2.94,6.15-0.85,18.9-11.56,16.5C162.27,387.28,154.65,382.12,152.12,388.14z"/>
	<path fill="#EFEFFB" d="M153.49,475.56c-2.71-1.28-2.3-17.2-0.48-20.56c8.35-0.01,16.7-0.01,25.05,0.02
		c0.22,0.23,0.65,0.69,0.87,0.91c-5.6,4.27,1.36,13.8-5.23,16.79C167.03,472.32,159.27,471.87,153.49,475.56z"/>
</g>
<g>
	<path fill="#F0F0FC" d="M199.01,324.01c6.38-1.39,20.49-2.13,26.93-0.21l-0.06,0.88c-4.09,2.73-0.58,9.34-4.65,12.55
		c-4.68,7.91-17.15-0.71-21.49,6.54c-0.18-0.17-0.55-0.49-0.74-0.65C199,336.74,199,330.37,199.01,324.01z"/>
	<path fill="#F0F0FC" d="M247.01,324.01c6.38-1.37,20.51-2.17,26.94-0.19l-0.05,0.89c-3.4,1.16-7.38,6.4-3.26,8.83
		c3.01,6.18-5.86,10.11-9.14,5.14c-4.51,2.15-10.47,0.89-13.95,4.88c-0.15-0.11-0.43-0.33-0.57-0.43
		C247.02,336.75,247,330.38,247.01,324.01z"/>
	<path fill="#F0F0FC" d="M199.01,369c0.25-0.25,0.75-0.75,1-1c8.34,0,16.69,0.01,25.04-0.03c0.22,0.2,0.66,0.61,0.87,0.81
		l-0.11,0.84c-3.66,3.57-3.89,9.37-3.11,14.13c-1.84,2.75-4.9,1.54-7.5,1.01c-5.44,0.84-11.2,0.77-16.24,3.17
		C199,381.61,199,375.31,199.01,369z"/>
	<path fill="#F0F0FC" d="M247.95,474.95c-1.45-3.93-1.87-15.85,0.07-19.95c8.67,0,17.34-0.01,26.01,0c0.22,0.44,0.65,1.31,0.87,1.75
		c-6.11,0.31-0.86,9.05-4.83,12.34C264.76,476.32,254.09,470.14,247.95,474.95z"/>
</g>
<g>
	<path fill="#9B9BBA" d="M289,344.02c-1.34-4.23-2.32-17.06,0.02-20.96C288.94,330.05,288.99,337.02,289,344.02z"/>
</g>
<g>
	<path fill="#F3CADD" d="M294.17,324.23c8.23-2.98,18.77-0.52,27.82-1.17c-0.01,0.48-0.02,1.45-0.03,1.93
		c-8.17,1.5-20.03-3.8-25.73,4.36c-0.29,4.89-0.28,9.81-0.26,14.72C291.37,339.59,294.61,330.55,294.17,324.23z"/>
</g>
<g>
	<path fill="#BEBED5" d="M192.99,343.02c-1.13-3.91-2.62-14.98,0.01-19.06C192.96,330.31,192.98,336.66,192.99,343.02z"/>
	<path fill="#BEBED5" d="M151.96,362c6.24-1.43,19.92-2.14,26.07-0.01C169.33,361.99,160.65,361.98,151.96,362z"/>
	<path fill="#BEBED5" d="M192.99,431.02c-1.13-3.92-2.62-14.98,0.01-19.06C192.96,418.31,192.98,424.65,192.99,431.02z"/>
</g>
<g>
	<path fill="#A4A4BC" d="M199,343.12c-1.16-4.08-2.62-15.21,0.01-19.11C199,330.37,199,336.74,199,343.12z"/>
</g>
<g>
	<path fill="#AFAFCA" d="M225.94,323.8c1.18,4.3,2.69,15.26,0.06,19.19c0-6.11-0.03-12.21-0.12-18.31L225.94,323.8z"/>
	<path fill="#AFAFCA" d="M225.92,368.78c1.21,4.33,2.71,15.27,0.08,19.21c0.01-6.13-0.01-12.25-0.19-18.37L225.92,368.78z"/>
</g>
<g>
	<path fill="#A6A6C2" d="M232.01,323.98c1.74,4.14,1.72,16.05-0.03,19.95C232.05,337.28,232,330.62,232.01,323.98z"/>
	<path fill="#A6A6C2" d="M232,367.98c1.74,4.23,1.75,15.79-0.01,20.04C232.04,381.34,232,374.65,232,367.98z"/>
	<path fill="#A6A6C2" d="M232,411.97c1.74,4.31,1.75,15.72,0,20.07C232.03,425.34,232,418.65,232,411.97z"/>
	<path fill="#A6A6C2" d="M200.01,432c8.32,0,16.65-0.01,24.98,0C219.09,433.72,205.92,433.72,200.01,432z"/>
</g>
<g>
	<path fill="#A1A1BF" d="M241.02,343.93c-1.75-3.89-1.79-15.8-0.02-19.95C240.96,330.63,240.98,337.27,241.02,343.93z"/>
	<path fill="#A1A1BF" d="M241,388.02c-1.75-4.24-1.76-15.79,0-20.04C240.97,374.66,240.98,381.33,241,388.02z"/>
	<path fill="#A1A1BF" d="M241,432.03c-1.75-4.32-1.76-15.73,0-20.07C240.97,418.65,240.99,425.33,241,432.03z"/>
</g>
<g>
	<path fill="#C5C5D4" d="M246.98,343.13c-1.11-4.18-2.61-15.21,0.03-19.12C247,330.38,247.02,336.75,246.98,343.13z"/>
	<path fill="#C5C5D4" d="M247,431c-1.21-3.43-2.54-15.89,0.02-18.77C246.98,418.48,247,424.73,247,431z"/>
</g>
<g>
	<path fill="#9696B5" d="M273.95,323.82c1.16,4.27,2.68,15.25,0.05,19.17c0-6.1-0.04-12.19-0.1-18.28L273.95,323.82z"/>
</g>
<g>
	<path fill="#C2C2D9" d="M280.01,323.97c1.11,3.92,2.62,15.02-0.01,19.06C280.04,336.67,280,330.31,280.01,323.97z"/>
	<path fill="#C2C2D9" d="M280.01,368.98c1.11,3.9,2.62,14.98-0.01,19.06C280.03,381.69,280.01,375.33,280.01,368.98z"/>
	<path fill="#C2C2D9" d="M280,411.97c1.13,3.92,2.63,15.02,0,19.06C280.04,424.67,280,418.31,280,411.97z"/>
</g>
<g>
	<path fill="#C6C6DD" d="M328.01,323.97c1.11,3.92,2.62,15.02-0.01,19.06C328.04,336.67,328,330.31,328.01,323.97z"/>
</g>
<g>
	<path fill="#DFDFF1" d="M172.63,340.74c7.73-2.09-2.01-15.34,6.38-16c-0.01,6.39,0.23,12.81-0.1,19.21
		c-8.73,0.12-17.47,0.11-26.2,0.05C155.53,335.58,166.76,342.57,172.63,340.74z"/>
</g>
<g>
	<path fill="#E0E0F1" d="M221.23,337.23c4.07-3.21,0.56-9.82,4.65-12.55c0.09,6.1,0.12,12.2,0.12,18.31
		c-6.79,2.4-17.91,0.51-26.26,0.78C204.08,336.52,216.55,345.14,221.23,337.23z"/>
	<path fill="#E0E0F1" d="M270.64,333.54c-4.12-2.43-0.14-7.67,3.26-8.83c0.06,6.09,0.1,12.18,0.1,18.28
		c-6.86,2.38-18.06,0.65-26.45,0.57c3.48-3.99,9.44-2.73,13.95-4.88C264.78,343.65,273.65,339.72,270.64,333.54z"/>
</g>
<g>
	<path fill="#F7AAC9" d="M296.23,329.35c5.7-8.16,17.56-2.86,25.73-4.36c0.05,6.31,0.28,12.64-0.04,18.96
		c-8.66,0.12-17.3,0.08-25.95,0.12C295.95,339.16,295.94,334.24,296.23,329.35z"/>
</g>
<g>
	<path fill="#62626A" d="M453.22,341.89c1.14,1.11,1.19,2.76,0.73,4.2C452.45,345.18,452.63,343.28,453.22,341.89z"/>
</g>
<g>
	<path fill="#989DAC" d="M51.6,358.3c-0.95-4.12-0.61-8.45,0.14-12.55C51.71,349.92,51.66,354.11,51.6,358.3z"/>
</g>
<g>
	<path fill="#BFBFD6" d="M199.07,362.01c5.95-1.16,20.96-2.53,26.87,0.01C216.98,361.97,208.03,361.97,199.07,362.01z"/>
	<path fill="#BFBFD6" d="M247.07,362.02c5.85-1.44,19.9-2.17,25.96-0.03C264.37,362,255.72,361.94,247.07,362.02z"/>
</g>
<g>
	<path fill="#BDBDD4" d="M294.96,362c6.24-1.43,19.91-2.14,26.07-0.01C312.33,361.99,303.65,361.98,294.96,362z"/>
</g>
<g>
	<g>
		<path fill="#6F6F96" d="M193.02,368.07c0.77-2.92,3.13-5.28,6.05-6.06c8.96-0.04,17.91-0.04,26.87,0.01
			c2.55,1.04,6.01,2.87,6.06,5.96c0,6.67,0.04,13.36-0.01,20.04c-0.61,7.82-11.36,7.38-16.99,7.03c-7.31-0.22-19.59,2.58-22.01-7.02
			C193,381.37,192.94,374.72,193.02,368.07z M200.01,368c-0.25,0.25-0.75,0.75-1,1c-2.65,3.86-1.1,15.2-0.05,18.93
			c6.07,2.64,20.73,1.2,27.04,0.06c2.63-3.94,1.13-14.88-0.08-19.21c-0.21-0.2-0.65-0.61-0.87-0.81
			C218.91,366.29,205.98,366.26,200.01,368z"/>
	</g>
	<g>
		<path fill="#6F6F96" d="M241,367.98c0.05-3.09,3.51-4.93,6.07-5.96c8.65-0.08,17.3-0.02,25.96-0.03c3.56,0.21,6.78,3.42,6.98,6.99
			c0,6.35,0.02,12.71-0.01,19.06c-3.44,11.07-17.57,5.79-26.02,7.02c-4.81,0.76-12.79-1.03-12.98-7.04
			C240.98,381.33,240.97,374.66,241,367.98z M248.01,368c-0.25,0.25-0.76,0.75-1.01,1c-2.63,3.91-1.13,15.01,0.01,19.03
			c6.33,1.78,19.48,1.87,26.98-0.26c2.55-2.94,1.18-15-0.03-18.95c-0.23-0.21-0.69-0.63-0.92-0.85
			C266.94,366.29,253.97,366.26,248.01,368z"/>
	</g>
	<g>
		<path fill="#6F6F96" d="M145.01,417c-0.42-4.34,1.7-10.89,6.97-11c9.02-0.02,18.03-0.02,27.05,0c8.52,1.91,5.55,13.72,6.05,20.01
			c1.39,4.97-1.42,11.69-7.06,12c-8.69-0.01-17.37,0.01-26.06-0.01C142.64,435.59,145.09,424.14,145.01,417z M151.69,411.69
			c-0.86,5.83-1.8,15.69,0.32,20.31c5.95,2.15,19.99,1.4,25.97,0c1.55-4.72,2.16-15.29-0.19-20.88
			C169.19,411.21,159.91,410.13,151.69,411.69z"/>
	</g>
	<g>
		<path fill="#6F6F96" d="M241.28,475.68c0.5-8.61-4.38-23.26,6.68-26.68c8.69-0.02,17.38-0.01,26.08-0.01
			c9.36,2.43,6.77,13.86,7.02,21.03c1.74,6.4-4.45,13.45-11.06,11.94C260.93,480.48,246.07,486.88,241.28,475.68z M248.02,455
			c-1.94,4.1-1.52,16.02-0.07,19.95c5.93,2.89,17.93,0.21,25.8,0.92c3.75-5.06,0-13.2,1.15-19.12c-0.22-0.44-0.65-1.31-0.87-1.75
			C267.93,452.85,254.07,453.58,248.02,455z"/>
	</g>
</g>
<g>
	<path fill="#8D8DAA" d="M367.04,362.03c3.41-0.68,0.31,5.76,0.75,7.86c-1.92,28.55-0.09,57.27-0.92,85.88
		c-2.11,1.21-4.55,1.4-6.92,1.25c6.03-6.97,0.16-15.78,2.24-23.72c-0.39-19.46,0.29-38.98-0.38-58.42
		C362.07,369.1,370.66,369.3,367.04,362.03z"/>
</g>
<g>
	<path fill="#A7A7BD" d="M153.06,368.02c5.8-1.74,18.91-1.78,25.02-0.01C169.74,368.02,161.4,367.94,153.06,368.02z"/>
	<path fill="#A7A7BD" d="M248.01,368c5.96-1.74,18.93-1.71,25.03-0.03C264.69,368.01,256.35,368,248.01,368z"/>
</g>
<g>
	<path fill="#A7A7BE" d="M200.01,368c5.97-1.74,18.9-1.71,25.04-0.03C216.7,368.01,208.35,368,200.01,368z"/>
</g>
<g>
	<path fill="#A7A5B1" d="M296.06,368.02c5.8-1.74,18.91-1.78,25.03-0.01C312.74,368.02,304.4,367.94,296.06,368.02z"/>
</g>
<g>
	<path fill="#BFBFD7" d="M192.99,388.03c-1.75-4.2-1.73-16.05,0.03-19.96C192.94,374.72,193,381.37,192.99,388.03z"/>
</g>
<g>
	<path fill="#EFEFFC" d="M247,369c0.25-0.25,0.76-0.75,1.01-1c8.34,0,16.68,0.01,25.03-0.03c0.23,0.22,0.69,0.64,0.92,0.85
		l-0.05,0.89c-6.44,2.2,0.97,11.02-4.18,15.05c-7.04,3.49-16.39-2.68-22.72,3.27C247.01,381.68,247,375.34,247,369z"/>
</g>
<g>
	<path fill="#9999B8" d="M289,388.02c-1.75-4.25-1.76-15.74,0-20.06C288.97,374.65,288.98,381.32,289,388.02z"/>
</g>
<g>
	<path fill="#FAF2C2" d="M294.91,387.86c-0.08-3.41-4.03-16.21,1.15-19.84c8.34-0.08,16.68,0,25.03-0.01
		c0.1,0.38,0.32,1.13,0.43,1.51c-2.03,4.26-2.14,9.34-4.69,13.37C310.66,388.73,301.46,383.26,294.91,387.86z"/>
</g>
<g>
	<path fill="#C4C4D4" d="M247.01,388.03c-1.14-4.02-2.64-15.12-0.01-19.03C247,375.34,247.01,381.68,247.01,388.03z"/>
</g>
<g>
	<path fill="#9595B5" d="M273.96,368.82c1.21,3.95,2.58,16.01,0.03,18.95c0.01-6.03-0.03-12.05-0.08-18.06L273.96,368.82z"/>
	<path fill="#9595B5" d="M273.99,412.24c0.99,2.9,2.7,15,0,18.76C274,424.75,273.99,418.49,273.99,412.24z"/>
</g>
<g>
	<path fill="#C5C5DC" d="M328,368.98c1.09,3.47,2.7,14.43,0.02,18.08C328.01,381.02,328.01,375,328,368.98z"/>
</g>
<g>
	<path fill="#DBDBED" d="M166.98,386c10.71,2.4,8.62-10.35,11.56-16.5c-0.61,5.97,2.94,14.23-0.79,19.37
		c-7.74-0.52-20.01,1.62-25.63-0.73C154.65,382.12,162.27,387.28,166.98,386z"/>
</g>
<g>
	<path fill="#DCDCEE" d="M222.7,383.75c-0.78-4.76-0.55-10.56,3.11-14.13c0.18,6.12,0.2,12.24,0.19,18.37
		c-6.31,1.14-20.97,2.58-27.04-0.06c5.04-2.4,10.8-2.33,16.24-3.17C217.8,385.29,220.86,386.5,222.7,383.75z"/>
	<path fill="#DCDCEE" d="M269.73,384.76c5.15-4.03-2.26-12.85,4.18-15.05c0.05,6.01,0.09,12.03,0.08,18.06
		c-7.5,2.13-20.65,2.04-26.98,0.26C253.34,382.08,262.69,388.25,269.73,384.76z"/>
</g>
<g>
	<path fill="#E9E1B8" d="M316.83,382.89c2.55-4.03,2.66-9.11,4.69-13.37c-0.61,5.96,2.97,14.22-0.77,19.35
		c-7.91-0.77-19.78,2.09-25.84-1.01C301.46,383.26,310.66,388.73,316.83,382.89z"/>
</g>
<g>
	<path fill="#485260" d="M403.02,392.97c0.69,0.05,2.07,0.14,2.77,0.18c1.56,0.24,4.67,0.71,6.23,0.94
		c-2.72,8.01-7.01,15.48-8.61,23.84C402.38,409.66,403.19,401.27,403.02,392.97z"/>
</g>
<g>
	<path fill="#818492" d="M405.79,393.15c3.51,0,6.97,0.09,10.5,0.21c-1.42,0.28-2.84,0.52-4.27,0.73
		C410.46,393.86,407.35,393.39,405.79,393.15z"/>
</g>
<g>
	<path fill="#757D8B" d="M88.76,394.21c3.5-0.05,6.98,0.01,10.49,0.09C95.74,394.95,92.25,394.92,88.76,394.21z"/>
</g>
<g>
	<path fill="#9797B6" d="M294.98,404.99c6.43-1.16,20.66-2.48,27.05,0.01C313.01,404.98,303.99,404.98,294.98,404.99z"/>
	<path fill="#9797B6" d="M288.07,411.06l0.93-0.09c-0.01,21.35,0.01,42.7-0.01,64.05C286.75,455.54,288.5,432.09,288.07,411.06z"/>
</g>
<g>
	<path fill="#9090B1" d="M151.98,406c6.43-1.17,20.66-2.49,27.05,0C170.01,405.98,161,405.98,151.98,406z"/>
</g>
<g>
	<path fill="#9191B2" d="M198.97,406c6.5-1.17,20.59-2.49,27.07-0.01C217.02,405.98,207.99,405.98,198.97,406z"/>
	<path fill="#9191B2" d="M246.97,406c6.5-1.17,20.59-2.49,27.07-0.01C265.02,405.98,255.99,405.98,246.97,406z"/>
</g>
<g>
	<path fill="#C8D3D1" d="M295.02,411c6.01-1.42,19.95-2.15,25.99,0C312.34,411,303.68,410.99,295.02,411z"/>
</g>
<g>
	<path fill="#EAEAF8" d="M151.69,411.69c8.22-1.56,17.5-0.48,26.1-0.57c2.35,5.59,1.74,16.16,0.19,20.88c-8.66-0.01-17.31,0-25.97,0
		C149.89,427.38,150.83,417.52,151.69,411.69z"/>
</g>
<g>
	<path fill="#EBEBF8" d="M199.02,412.23c7.54-2.05,20.45-2.18,26.98-0.21c-0.01,6.32,0,12.65-0.01,18.98c-0.25,0.25-0.75,0.75-1,1
		c-8.33-0.01-16.66,0-24.98,0c-0.26-0.25-0.76-0.76-1.01-1.01C199,424.72,198.98,418.48,199.02,412.23z"/>
	<path fill="#EBEBF8" d="M247.02,412.23c7.92-2.14,19.06-2.18,26.97,0.01c0,6.25,0.01,12.51,0,18.76c-0.25,0.25-0.75,0.75-1,1
		c-8.66-0.02-17.31,0.01-25.96-0.01L247,431C247,424.73,246.98,418.48,247.02,412.23z"/>
	<path fill="#EBEBF8" d="M199.67,475.33c0.33-5.58-3.8-16.42,1.39-20.31c8.3-0.08,16.61-0.01,24.92-0.02
		c2.12,4.6,1.18,14.47,0.33,20.31C218.05,476.32,207.89,476.75,199.67,475.33z"/>
</g>
<g>
	<path fill="#C7D1D1" d="M294.07,411.04l0.95-0.04c0.07,21.43-0.26,42.86,0.17,64.28C292.5,455.25,294.61,432.23,294.07,411.04z"/>
</g>
<g>
	<path fill="#E9FDE6" d="M295.02,411c8.66-0.01,17.32,0,25.99,0c0.25,0.25,0.74,0.75,0.99,1l-0.03,0.98
		c-0.49,0.01-1.48,0.02-1.97,0.03c-7.58,1.12-18.43-4.21-23.77,3.35c-0.65,19.14,0.05,38.3-0.29,57.45
		c-0.19,0.37-0.56,1.1-0.75,1.47C294.76,453.86,295.09,432.43,295.02,411z"/>
</g>
<g>
	<path fill="#B0B0CB" d="M226,412.02c1.12,3.69,2.63,15.11-0.01,18.98C226,424.67,225.99,418.34,226,412.02z"/>
</g>
<g>
	<path fill="#C6FCBD" d="M296.23,416.36c5.34-7.56,16.19-2.23,23.77-3.35c-5.22,8,0.31,16.39-1.29,24.82
		c-3.45,6.84,2.85,14.42-0.48,21.48c-2.78,4.21,3.86,11.41-2.56,13.43c-6.59-2.26-13.19-0.45-19.73,1.07
		C296.28,454.66,295.58,435.5,296.23,416.36z"/>
</g>
<g>
	<path fill="#84929F" d="M322,412c2.29,17.39,0.45,38.95,0.95,57.96l-0.94,0.05c-0.07-19.01,0.05-38.02-0.04-57.03L322,412z"/>
</g>
<g>
	<path fill="#BDEDB9" d="M320,413.01c0.49-0.01,1.48-0.02,1.97-0.03c0.09,19.01-0.03,38.02,0.04,57.03c-1.25,1.5-3.76,4.5-5.01,6.01
		c-6.19-0.95-17.77,1.64-21.81-0.74c0.19-0.37,0.56-1.1,0.75-1.47c6.54-1.52,13.14-3.33,19.73-1.07c6.42-2.02-0.22-9.22,2.56-13.43
		c3.33-7.06-2.97-14.64,0.48-21.48C320.31,429.4,314.78,421.01,320,413.01z"/>
</g>
<g>
	<path fill="#F7CB5E" d="M403.56,418.98c6.21,1.05,6.54,8.96,11.21,12.26c3.23,4.35,12.26,5.5,10.13,12.45
		c-10.38,5.03-14.93,15.44-19.07,25.36c-4.61-0.64-4.79-6.5-5.91-10.05C407.34,447.13,400.54,432,403.56,418.98z"/>
</g>
<g>
	<path fill="#A5A5C2" d="M152.01,432c8.66,0,17.31-0.01,25.97,0C172,433.4,157.96,434.15,152.01,432z"/>
</g>
<g>
	<path fill="#A4A4C1" d="M247.03,431.99c8.65,0.02,17.3-0.01,25.96,0.01C267,433.4,252.89,434.16,247.03,431.99z"/>
</g>
<g>
	<path fill="#AFAFCB" d="M151.96,438c8.69,0.02,17.37,0,26.06,0.01C171.82,439.4,158.14,440.14,151.96,438z"/>
</g>
<g>
	<path fill="#B0B0CA" d="M199.06,437.98c8.99,0.04,17.98,0.03,26.97,0.02C219.7,439.15,205.04,440.5,199.06,437.98z"/>
</g>
<g>
	<path fill="#B1B1CC" d="M246.95,438.01c8.99,0,17.98,0.01,26.98-0.02C267.8,439.15,253.35,440.49,246.95,438.01z"/>
</g>
<g>
	<path fill="#16161D" d="M122.97,441.15l1-0.12c-0.01,16.75,0.3,33.51-0.33,50.26C121.79,474.72,123.69,457.82,122.97,441.15z"/>
</g>
<g>
	<path fill="#CDCDE2" d="M247.96,449c6.26-1.43,19.86-2.13,26.08-0.01C265.34,448.99,256.65,448.98,247.96,449z"/>
</g>
<g>
	<path fill="#9595B1" d="M153.01,455c5.95-1.72,18.98-1.76,25.05,0.02C169.71,454.99,161.36,454.99,153.01,455z"/>
</g>
<g>
	<path fill="#9494B0" d="M201.06,455.02c5.71-1.75,19.11-1.76,24.92-0.02C217.67,455.01,209.36,454.94,201.06,455.02z"/>
</g>
<g>
	<path fill="#9494B1" d="M248.02,455c6.05-1.42,19.91-2.15,26.01,0C265.36,454.99,256.69,455,248.02,455z"/>
</g>
<g>
	<path fill="#9393B3" d="M185,454.98c1.33,4.35,2.31,16.75,0,21.04C185.03,469.01,185,461.98,185,454.98z"/>
</g>
<g>
	<path fill="#DADAEC" d="M178.93,455.93c1.55,4.05,2.11,13.62,0.39,19.39c-8.16,1.07-17.32,1.25-25.83,0.24
		c5.78-3.69,13.54-3.24,20.21-2.84C180.29,469.73,173.33,460.2,178.93,455.93z"/>
</g>
<g>
	<path fill="#DEDEEF" d="M270.07,469.09c3.97-3.29-1.28-12.03,4.83-12.34c-1.15,5.92,2.6,14.06-1.15,19.12
		c-7.87-0.71-19.87,1.97-25.8-0.92C254.09,470.14,264.76,476.32,270.07,469.09z"/>
</g>
<g>
	<path fill="#545472" d="M372.72,462.68c6.74-1.58,13.74-0.31,20.58-0.33C386.61,464.12,379.52,462.46,372.72,462.68z"/>
</g>
<g>
	<path fill="#47525F" d="M349.06,463.11c5.07-0.4,10.14,0.05,15.22,0.08c-4.62,4.26-9.97,7.58-15.26,10.93
		C349.03,471.37,349.05,465.86,349.06,463.11z"/>
</g>
<g>
	<path fill="#A2A2BE" d="M135.97,498c67.02,0,134.03-0.01,201.05,0.01l-0.04,0.96c-66.98,0.04-133.97,0.06-200.95,0L135.97,498z"/>
</g>
</svg>
