<?xml version="1.0" encoding="utf-8"?>
<!-- Generator: Adobe Illustrator 16.0.0, SVG Export Plug-In . SVG Version: 6.00 Build 0)  -->
<!DOCTYPE svg PUBLIC "-//W3C//DTD SVG 1.1//EN" "http://www.w3.org/Graphics/SVG/1.1/DTD/svg11.dtd">
<svg version="1.1" id="Layer_1" xmlns="http://www.w3.org/2000/svg" xmlns:xlink="http://www.w3.org/1999/xlink" x="0px" y="0px"
	 width="512px" height="504px" viewBox="0 0 512 504" enable-background="new 0 0 512 504" xml:space="preserve">
<g opacity="0.3">
	<path fill="#AA7481" d="M229.83,14.2c6.37-0.95,12.81-1.4,19.25-1.27c3.42,0.57,6.19,3.6,6.82,6.97c1.02,4.18-1.74,8.9-5.87,10.13
		c-2.39,0.42-4.84,0.28-7.22,0.75c-1.26,0.14-2.51,0.29-3.76,0.45c-2.03-0.62-4.43-0.91-6.13,0.65c-0.46,0.08-1.38,0.22-1.84,0.29
		c-1.72-0.6-3.77-0.67-5.11,0.76l-0.84,0.16c-1.47-0.48-3.31-0.6-4.27,0.86l-0.78,0.09c-1.45-0.49-3.24-0.51-4.15,0.93l-0.73,0.06
		c-1.39-0.51-2.49-0.19-3.28,0.98l-0.87,0.11c-2.16-0.55-4.72-0.06-6.04,1.85l-0.65,0.17c-16.49,4.28-32.02,11.86-46.52,20.74
		c-10.57,6.66-20.51,14.38-29.4,23.17c-0.24,0.06-0.73,0.19-0.97,0.25c-3.71-4.51-8.41-8.16-13.57-10.86
		C144.93,40.4,186.29,19.88,229.83,14.2z"/>
	<path fill="#AA7481" d="M266.25,19.91c0.96-3.9,4.79-6.72,8.77-6.66c7.56,0.72,15.08,1.82,22.52,3.39
		c3.53,0.73,6.13,3.87,6.67,7.37c0.77,4.8-2.9,9.41-7.58,10.25c-8.02-1.67-16.15-2.72-24.31-3.47
		C267.82,29.54,264.91,24.41,266.25,19.91z"/>
</g>
<g>
	<path fill="#FFB0B8" d="M62.41,21.43c1.81-0.73,2.73,1.32,3.51,2.55c1.7,3.22,4.2,5.98,7.09,8.18c1.81,1.38,4.46,2.25,4.89,4.79
		c-0.07,1.55-1.16,2.79-2.46,3.51c-4.65,2.77-8.2,7.31-9.71,12.52c-0.37,1.35-1.08,2.59-1.78,3.79c-2.34,0.61-2.67-2.17-3.4-3.7
		c-1.5-5.35-5.22-9.93-9.97-12.76c-2.12-1.01-3.04-4.09-0.97-5.67c2.71-1.9,5.6-3.64,7.69-6.27C59.43,26.38,60.13,23.2,62.41,21.43z
		"/>
</g>
<g opacity="0.3">
	<path fill="#B7B453" d="M239.05,31.23c1.25-0.16,2.5-0.31,3.76-0.45c9.82-0.61,19.7-0.83,29.51,0.01
		c8.16,0.75,16.29,1.8,24.31,3.47c37.2,7.63,72.01,26.66,98.38,54.01l0.47,0.88c-6.5,0.69-12.79,2.97-18.11,6.78
		c-4.42-4.41-9.31-8.31-13.97-12.45c-0.79-2.27-1.62-4.71-3.58-6.24c-27.22-19.59-60.38-30.5-93.83-31.9
		c-44.01-2.06-88.48,13.92-121.23,43.36c-3.13,3.16-6.99,5.62-9.52,9.34c-1.27-5.77-4-11.21-7.77-15.74
		c0.24-0.06,0.73-0.19,0.97-0.25l1.1-0.31c21.13-20.05,46.94-35.15,74.82-43.6l0.65-0.17c2.13,0.21,4.46-0.35,6.04-1.85l0.87-0.11
		c1.39,0.48,2.48,0.15,3.28-0.98l0.73-0.06c1.45,0.41,3.17,0.4,4.15-0.93l0.78-0.09c1.47,0.43,3.19,0.39,4.27-0.86l0.84-0.16
		c1.72,0.42,3.76,0.64,5.11-0.76c0.46-0.07,1.38-0.21,1.84-0.29C234.97,32.33,237.24,32.52,239.05,31.23z"/>
</g>
<g opacity="0.3">
	<path fill="#7BA54A" d="M144.76,88.7c32.75-29.44,77.22-45.42,121.23-43.36c33.45,1.4,66.61,12.31,93.83,31.9
		c1.96,1.53,2.79,3.97,3.58,6.24c-0.6,4.43-3.41,8.65-8.05,9.5c-27.54-21.42-62.41-33.12-97.3-32.53
		c-42.51-0.18-84.54,18.41-113.37,49.56c-2.6-2.34-5.55-4.24-8.62-5.89c-0.2-2.04-0.38-4.08-0.82-6.08
		C137.77,94.32,141.63,91.86,144.76,88.7z"/>
</g>
<g opacity="0.3">
	<path fill="#559BA5" d="M144.68,110.01c28.83-31.15,70.86-49.74,113.37-49.56c34.89-0.59,69.76,11.11,97.3,32.53
		c3.14,2.11,5.64,5.8,9.73,5.91c-0.61-0.01-1.83-0.05-2.44-0.06c-7.85-1.63-16.26,0.85-23.72-2.65
		c-19.07-7.57-38.57-14.46-58.95-17.52c-0.96-0.23-1.93-0.39-2.9-0.5c-1.77-0.23-3.55-0.33-5.3-0.6c-0.7-0.1-1.39-0.17-2.08-0.23
		c-4.58-0.5-9.18-0.31-13.78-0.33c-2.69-1.96-4.24-6.09-7.91-6.19c-2.82,1.37-4.55,4.23-6.94,6.2
		c-33.74,2.34-64.82,18.29-91.67,38.01C147.92,113.26,146.37,111.56,144.68,110.01z"/>
</g>
<g>
	<g>
		<path fill="#CCCCDE" d="M82.02,68.55c10.49-3.18,22.11-1.99,31.88,2.89c5.16,2.7,9.86,6.35,13.57,10.86
			c3.77,4.53,6.5,9.97,7.77,15.74c0.44,2,0.62,4.04,0.82,6.08c3.07,1.65,6.02,3.55,8.62,5.89c1.69,1.55,3.24,3.25,4.71,5.01
			c2.22,2.93,4.08,6.14,5.43,9.56c2.2,5.81,3,12.2,1.69,18.31c-2.37,12.9-12.46,23.51-24.55,28.06c-11.88,4.56-24.8,2.13-37.19,2.78
			c-5.56-0.07-11.11-0.06-16.67,0c-0.45,0-1.35-0.01-1.8-0.01c-5.44,0-10.89-0.01-16.33,0c-15.52,0.98-31.85-9.95-35.16-25.64
			c-1.58-7.03-0.06-14.51,3.46-20.72c2.15-2.48,0.08-5.56,0.27-8.41c-0.24-13.26,12.32-24.28,25.17-24.49c1-0.68,1.1-1.95,1.61-2.95
			C60.08,80.29,70.41,71.91,82.02,68.55z M81.03,75.03c-10.15,3.44-18.69,11.95-21.42,22.41c-0.3,1.26-0.81,3.42-2.6,2.97
			c-8.45-0.76-17.92,3.18-21.17,11.47c-2.11,4.54-1.32,9.56,0.35,14.07c-2.25,3.78-5.08,7.41-5.58,11.93
			c-1.02,4.07-0.98,8.9,1.47,12.41l-0.32,0.74c1.3,3.11,3.19,5.95,5.48,8.42c1.02,0.97,2.17,1.8,3.37,2.53
			c2.26,2.35,5.55,3.33,8.5,4.56c3.62,0.65,7.26,1.4,10.96,1.39c20.01-0.2,40.03,0.15,60.02-0.19c0.51-0.09,1.53-0.28,2.04-0.38
			c16.65-1.51,31.8-17.71,28.65-34.9c-0.3-1.85-0.78-3.67-1.1-5.52l-0.23,0.33c-0.85-3.24-2.54-6.34-4.85-8.78l0.11-0.09
			c-0.97-1.12-1.99-2.2-3.02-3.27l-0.19,0.23c-1.91-2.63-4.97-4.17-7.77-5.68c-1.22-0.65-2.38-1.4-3.67-1.91
			c0.16-4.41-0.18-9.06-2.05-13.11c-0.35-1.32-0.94-2.58-1.62-3.75c-1.55-3.13-3.61-6.21-6.46-8.28c-0.84-0.88-1.75-1.71-2.71-2.46
			c-2.99-2.24-6.32-4.32-10-5.12c-1.27-0.54-2.58-0.99-3.96-1.09C96,71.61,88.21,73.04,81.03,75.03z"/>
	</g>
	<g>
		<path fill="#CCCCDE" d="M377.37,95.93c5.32-3.81,11.61-6.09,18.11-6.78c12.35-0.85,25.01,5.32,31.49,15.94
			c2.65,4.06,3.78,8.86,4.51,13.55c7.08,3.68,12.47,10.39,15.18,17.66c0.99,4.77,1.68,9.79,0.26,14.56
			c-2.62,10.34-11.24,18.48-21.3,21.59c-6.3,2.14-13.04,1.44-19.56,1.48c-9.01,0.17-18.03-0.06-27.04,0.06
			c-5.36-0.13-10.81,0.49-16.06-0.89c-10.54-2.7-19.68-12.02-20.35-23.16c-0.38-5.28,1.65-10.25,3.97-14.85
			c-2.11-7.54,1.45-15.58,7.6-20.09c3.42-2.48,7.48-3.84,11.66-4.3c1.27-1.88,2.15-3.99,3.28-5.96c1.13-1.68,2.46-3.22,3.71-4.83
			C374.3,98.54,375.83,97.23,377.37,95.93z M372.45,111.28c-0.96,1.86-0.97,5.2-3.69,5.31c-4.91,0.5-10.56,1.2-13.87,5.33
			c-2.88,4.05-3.45,9.39-1.93,14.08c-1.47,3.8-4.58,7.15-4.29,11.55l-0.26,0.09c0.27,2.43,0.61,4.85,1.09,7.25
			c1.28,2.83,2.79,5.79,5.4,7.62c0.94,0.78,1.89,1.56,2.92,2.24c3.59,2.2,7.85,3.28,12.05,3.12c1.62,0.09,3.26,0.19,4.89,0.02
			c5.02,0.19,10.06,0.26,15.08-0.02c1.63,0.09,3.29,0.19,4.94,0.02c5.01,0.18,10.06,0.27,15.08-0.03c1.62,0.11,3.25,0.2,4.88,0.06
			c11.72,0.9,24.28-6.9,26.53-18.84c1.42-3.98,0.44-8.22-0.86-12.09c-0.98-3.29-2.9-6.47-5.67-8.55l0.17-0.15
			c-1.16-0.98-2.33-1.94-3.56-2.81c-1.79-1.22-3.97-1.9-5.51-3.45c-0.56-1.34-0.58-2.83-0.91-4.22c0.16-1.43,0-2.93-0.8-4.15
			c-0.28-3.69-2.78-7.12-5.25-9.82c-0.76-0.93-1.63-1.79-2.75-2.25c-1.97-2.63-5.38-3.58-8.2-5.01c-2.97-0.65-5.94-1.44-8.99-1.56
			C387.84,94.53,376.94,101.11,372.45,111.28z"/>
	</g>
	<path fill="#CCCCDE" d="M45.13,493.22c4.84-0.68,9.93-0.14,14.87-0.22c2.81,0.81,2.77,5.17-0.1,5.83
		c-4.65,0.16-9.31,0.06-13.97,0.06C43.06,498.69,42.36,494.14,45.13,493.22z"/>
	<path fill="#CCCCDE" d="M75.9,498.88c-3.21-0.45-3.17-5.57,0.06-5.92c11.98-0.03,23.96-0.07,35.93,0.02
		c0.19,1.4-0.31,3.22,0.93,4.27c1.07,1.17,2.78,0.75,4.19,0.9c85.98-0.06,171.96,0.05,257.94-0.06c3.02,0.51,3.94-2.79,3.54-5.12
		c12.54-0.08,25.08-0.03,37.62-0.03c3.74-0.1,3.67,6.17-0.08,5.95C302.65,498.94,189.28,498.95,75.9,498.88z"/>
	<path fill="#CCCCDE" d="M430.38,493.58c1.54-1.25,3.77-0.4,5.6-0.64c2.19,0.3,5.19-0.9,6.66,1.31c1.61,1.78-0.29,4.97-2.6,4.64
		c-2.74,0.02-5.47,0.03-8.19,0C429.31,498.71,428.23,495.02,430.38,493.58z"/>
</g>
<g>
	<g>
		<path fill="#6E6E96" d="M241.06,77.01c2.39-1.97,4.12-4.83,6.94-6.2c3.67,0.1,5.22,4.23,7.91,6.19c0.48,0.48,0.97,0.97,1.47,1.45
			c22.48,22.54,45.06,44.98,67.49,67.56c2.05,1.55,0.74,5.34-1.87,5.14c-16.32,0.19-32.65-0.03-48.97,0.1
			c-0.27,20.61-0.12,41.24-0.07,61.85c20.87,0.33,41.81-0.31,62.65,0.31c5.64,5.39,9.77,12.41,15.37,17.95
			c14.91-8.16,29.58-16.75,44.42-25.05c1.45-1.11,3.67-1.23,4.83,0.38c9.9,18.36,20.03,36.67,29.94,55.05
			c1.28,1.77,0.04,3.83-1.68,4.68c-16.73,10.66-33.45,21.32-50.17,31.98c4.27,13.02,9.43,25.76,13.99,38.7
			c0.98,1.71-0.23,4.33-2.3,4.3c-4.16,0.27-8.33-0.16-12.48,0.23c-0.13,30.13,0,60.26-0.06,90.39c0.14,6.03-0.24,12.07,0.23,18.08
			c-0.52,14.24-0.09,28.59-0.21,42.87c0.4,2.33-0.52,5.63-3.54,5.12c-85.98,0.11-171.96,0-257.94,0.06
			c-1.41-0.15-3.12,0.27-4.19-0.9c-1.24-1.05-0.74-2.87-0.93-4.27c0.03-18.13,0.02-36.25,0.01-54.38c0.02-32.35,0-64.7,0.01-97.04
			c-3.48-0.3-7.01,0.19-10.47-0.27c-1.81-0.53-2.42-2.72-1.61-4.31c3.69-12.31,7.39-24.62,11.11-36.91c1.02-1.58-0.9-2.46-1.89-3.2
			c-17.68-11.99-35.31-24.05-52.96-36.09c-1.71-0.92-2.57-3.23-1.15-4.78c11.08-15.69,22.07-31.43,33.21-47.07
			c1.1-2.16,4.03-2.38,5.75-0.82c13.83,7.58,27.94,14.66,41.84,22.12c1.23,0.63,2.43,1.36,3.79,1.67
			c2.93-5.53,5.79-11.09,8.79-16.58c0.61-1.46,2.06-2.27,3.62-2.13c23-0.09,46,0.08,69-0.08c0.12-20.6,0-41.2,0.06-61.8
			c-15.61-0.24-31.24,0.04-46.85-0.14c-2.58,0.23-4.09-3.39-2.11-5.05c22-22.18,44.22-44.14,66.21-66.33
			C239.19,78.87,240.12,77.93,241.06,77.01z M189.32,137.35l-0.12-0.03c-2.41,2.72-5.34,4.99-7.53,7.87
			c14.11,0.16,28.22-0.11,42.33,0.05c1.3-0.17,2.06,1.13,3.06,1.7c-0.07,14.46-0.06,28.92-0.04,43.37
			c-0.06,1.62-0.04,3.24,0.02,4.86c-0.11,5.05-0.06,10.11-0.03,15.16c-0.05,1.62-0.04,3.24,0.02,4.86
			c-0.09,5.03-0.06,10.07-0.01,15.11c-0.06,1.61-0.04,3.22,0.02,4.84c-0.1,5.07-0.07,10.16-0.02,15.24
			c-0.07,1.59-0.03,3.18,0.01,4.77c-0.08,1.28-0.08,2.55-0.01,3.83c-0.06,3.63-0.07,7.27,0,10.9c13.62,0.02,27.25,0.07,40.87,0
			c0.23-37.61,0.04-75.22,0.11-112.83c0.07-3.4-0.25-6.83,0.22-10.21l0.11-0.91c1.2-0.3,2.37-0.84,3.65-0.75
			c14.4-0.03,28.81,0.17,43.21-0.09c-2.19-2.84-4.95-5.15-7.37-7.78l-0.12,0.01c-19.61-19.84-39.43-39.47-59.11-59.23
			C228.71,97.71,208.97,117.5,189.32,137.35z M394.32,214.37c-11.19,6.36-22.37,12.75-33.61,19.04c-2.29,1.47-5.25,2.25-6.77,4.66
			c7.43,18.32,15.28,36.49,22.95,54.72c2.67-1.61,5.25-3.38,7.95-4.96l-0.06-0.08c7-4.29,13.82-8.84,20.75-13.23
			c6.28-4.22,13.12-7.79,19.06-12.4c-2.96-5.15-5.59-10.48-8.56-15.63c-0.43-1.05-0.99-2.05-1.64-2.97
			c-1.7-3.35-3.54-6.63-5.37-9.91c-0.46-1.09-1.06-2.14-1.73-3.1c-1.66-3.35-3.55-6.6-5.34-9.88c-0.49-1.09-1.06-2.13-1.71-3.11
			c-0.76-1.55-1.58-3.07-2.48-4.53C396.43,212.79,395.44,213.88,394.32,214.37z M61.71,256.95c0.91,1.24,2.36,1.91,3.54,2.84
			c10.33,6.95,20.54,14.07,30.88,20.99l-0.08,0.08c1.12,0.74,2.22,1.55,3.41,2.21c1.6,1.21,3.3,2.28,4.95,3.43
			c2.96,2.07,6.06,3.93,8.92,6.14l0.5-0.63c7.69-18.06,15.22-36.2,22.91-54.27c-1.87-1.53-4.23-2.38-6.33-3.58
			c-12.86-6.65-25.62-13.53-38.51-20.1C81.82,228.34,71.59,242.53,61.71,256.95z M153.26,219.16c-1.87,2.66-3.17,5.67-4.73,8.52
			c-0.97,1.75-1.89,3.54-2.66,5.4c25.04,0.17,50.07,0.05,75.1,0.06c0.06-1.67,0.06-3.33-0.01-4.99c0.11-2.98,0-5.97-0.06-8.94
			C198.35,219.12,175.81,219.22,153.26,219.16z M273.92,219.17c-0.01,2.92-0.14,5.86,0.16,8.77c-0.34,1.7-0.18,3.46-0.15,5.2
			c23.75-0.01,47.51,0.12,71.26-0.07c-1.36-1.98-2.98-3.75-4.43-5.66l-0.08,0.01c-2.35-2.74-4.44-5.74-7.04-8.25
			C313.73,219.18,293.83,219.18,273.92,219.17z M143.22,239.3c-2.36,3.09-3.29,7.16-4.93,10.7c-6.19,14.65-12.45,29.28-18.49,43.99
			c83.59-0.01,167.17-0.01,250.75,0.01c-6.05-14.64-12.07-29.38-18.52-43.81c-1.27-3.71-2.84-7.3-4.43-10.88
			c-24.51-0.1-49.03,0.02-73.54-0.06c-0.4,3.58,0.29,7.18-0.11,10.77c-0.08,4.76-0.14,9.52,0.05,14.28
			c0.02,0.74,0.06,2.23,0.08,2.97c-0.34,2.21-0.04,4.46-0.32,6.69c-1.15,2.75-4.47,1.72-6.78,2.01
			c-13.66-0.01-27.35-0.22-41.01,0.05c-2.03,0.46-4.87-0.43-4.94-2.87c-0.11-7.75-0.03-15.5-0.08-23.25
			c0.12-3.53,0.08-7.06-0.11-10.58C194.97,239.22,169.09,239.28,143.22,239.3z M117.04,300.6c-3.27,11.64-7.42,23.06-10.13,34.84
			c93.06,0.05,186.12,0.13,279.18-0.04c-3.41-10.59-7.55-20.93-11.36-31.38c-0.55-1.24-0.63-2.76-1.68-3.72
			c-75.35-0.06-150.7,0.02-226.05-0.03C137.03,300.54,126.93,299.82,117.04,300.6z M118.02,341.58c-0.15,2.48-0.16,4.98-0.1,7.47
			c-0.02,43.22-0.02,86.5,0.01,129.72c0.04,4.44-0.1,8.89,0,13.33c84.84,0.04,169.69,0.08,254.52-0.02
			c-0.07-4.07,0.13-8.13-0.02-12.19c0.1-9.78,0.05-19.56,0.05-29.34c0.12-1.6,0.04-3.22-0.05-4.81c0.11-31.87,0.05-63.73,0.03-95.6
			c-0.05-2.88,0.04-5.76,0.02-8.64C287.66,341.53,202.83,341.36,118.02,341.58z"/>
	</g>
</g>
<g>
	<path fill="#FFFFFF" d="M81.03,75.03c7.18-1.99,14.97-3.42,22.23-1.07c-23.66,24.25-47.85,48-71.79,71.97
		c-0.63-2.63-0.78-5.35-0.86-8.05c0.5-4.52,3.33-8.15,5.58-11.93c-1.67-4.51-2.46-9.53-0.35-14.07
		c3.25-8.29,12.72-12.23,21.17-11.47c1.79,0.45,2.3-1.71,2.6-2.97C62.34,86.98,70.88,78.47,81.03,75.03z"/>
	<path fill="#FFFFFF" d="M107.22,75.05c3.68,0.8,7.01,2.88,10,5.12c-24.25,24.41-48.61,48.72-72.96,73.02
		c-2.15,2.29-4.35,4.57-7.02,6.26c-2.29-2.47-4.18-5.31-5.48-8.42l0.32-0.74c12.4-12,24.4-24.41,36.69-36.51
		C81.48,100.77,94.67,88.22,107.22,75.05z"/>
	<path fill="#FFFFFF" d="M40.61,161.98c26.4-26.49,52.84-52.94,79.32-79.35c2.85,2.07,4.91,5.15,6.46,8.28
		c-23.68,24.12-47.81,47.81-71.6,71.83c-1.56,1.71-3.38,3.24-5.68,3.8C46.16,165.31,42.87,164.33,40.61,161.98z"/>
	<path fill="#FFFFFF" d="M65.25,157.27c20.95-20.85,41.71-41.88,62.76-62.61c1.87,4.05,2.21,8.7,2.05,13.11
		c-5.06,4.35-9.56,9.3-14.33,13.96c-14.47,14.53-29,29-43.49,43.51c-0.92,0.84-1.93,1.78-3.27,1.76c-4.28,0.36-8.6,0.15-12.88-0.22
		C58.84,163.33,62.2,160.44,65.25,157.27z"/>
	<path fill="#FFFFFF" d="M372.45,111.28c4.49-10.17,15.39-16.75,26.49-16.26c0.45,0.35,1.35,1.05,1.8,1.4
		c-2.2,2.85-4.98,5.16-7.47,7.73c-13.63,13.76-27.45,27.32-40.98,41.17c-0.97,1.09-2.18,1.93-3.62,2.23
		c-0.29-4.4,2.82-7.75,4.29-11.55c-1.52-4.69-0.95-10.03,1.93-14.08c3.31-4.13,8.96-4.83,13.87-5.33
		C371.48,116.48,371.49,113.14,372.45,111.28z"/>
	<path fill="#FFFFFF" d="M400.76,101.76c2.11-2.07,4.04-4.7,7.17-5.18c2.82,1.43,6.23,2.38,8.2,5.01
		c-20.64,20.07-40.73,40.7-61.23,60.92c-2.61-1.83-4.12-4.79-5.4-7.62c0.49-1.51,1.1-3.03,2.28-4.14
		C368.09,134.4,384.48,118.13,400.76,101.76z"/>
	<path fill="#FFFFFF" d="M357.82,164.75c20.35-20.31,40.51-40.82,61.06-60.91c2.47,2.7,4.97,6.13,5.25,9.82
		c-15.1,14.37-29.55,29.43-44.38,44.08c-3.36,3.31-6.71,6.63-9.88,10.13C365.67,168.03,361.41,166.95,357.82,164.75z"/>
	<path fill="#FFFFFF" d="M129.73,112.71c1.2-1.17,2.58-2.15,4-3.03c2.8,1.51,5.86,3.05,7.77,5.68c-3.09,4.25-7.16,7.63-10.76,11.42
		c-13.42,13.22-26.53,26.79-40.09,39.84c-4.78,0.99-9.75,0.4-14.59,0.21c2.58-3.31,5.76-6.07,8.69-9.04
		C99.71,142.73,114.8,127.8,129.73,112.71z"/>
	<path fill="#FFFFFF" d="M374.76,167.89c16.66-16.76,33.27-33.58,50.17-50.08c0.33,1.39,0.35,2.88,0.91,4.22
		c1.54,1.55,3.72,2.23,5.51,3.45c-3.31,4.61-7.76,8.19-11.63,12.29c-9.87,10.12-20.22,19.78-29.88,30.1
		C384.82,168.15,379.78,168.08,374.76,167.89z"/>
	<path fill="#FFFFFF" d="M139.23,123.27c1.69-1.71,3.48-3.3,5.37-4.78c2.31,2.44,4,5.54,4.85,8.78c-1.94,3.08-4.71,5.45-7.25,8
		c-9.61,9.7-19.37,19.25-28.9,29.03c-1.24,1.11-2.47,2.59-4.27,2.67c-4.31,0.38-8.66,0.15-12.97-0.13c1.88-2.4,4.09-4.51,6.26-6.63
		C114.62,147.88,126.94,135.6,139.23,123.27z"/>
	<path fill="#FFFFFF" d="M423.26,139.25c3.83-3.61,7.16-7.76,11.48-10.81c2.77,2.08,4.69,5.26,5.67,8.55
		c-10.11,10.36-20.59,20.36-30.55,30.87c-5.02,0.3-10.07,0.21-15.08,0.03C404.11,158.19,413.82,148.85,423.26,139.25z"/>
	<path fill="#FFFFFF" d="M137.25,145.29c4.49-4.29,8.48-9.16,13.53-12.83c3.15,17.19-12,33.39-28.65,34.9
		c-2-0.16-3.99-0.36-5.97-0.64C122.8,159.22,130.28,152.49,137.25,145.29z"/>
	<path fill="#FFFFFF" d="M434.26,148.29c2.1-2.15,4.13-4.39,6.54-6.21c0.25,2.32,0.37,4.66,0.47,7
		c-2.25,11.94-14.81,19.74-26.53,18.84C421.09,161.23,427.77,154.86,434.26,148.29z"/>
	<path fill="#FFFFFF" d="M333.15,174.99c0.4,0.11,1.19,0.33,1.59,0.44c1.78,2.99,3.71,6.06,6.81,7.85c1.45,0.81,3.76,2.69,1.96,4.38
		c-3.01,2.23-6.15,4.68-7.43,8.37c-0.81,1.51-0.72,4.09-2.91,4.28c-1.5-2.49-1.91-5.5-3.79-7.78c-1.49-2.25-4.01-3.4-5.87-5.26
		c-1.11-2.3,1.76-3.47,3.21-4.6C329.62,180.8,331.08,177.6,333.15,174.99z"/>
	<path fill="#FFFFFF" d="M81.7,351.61c0.69-1.33,1.6-3.01,3.35-2.95c1.69,0.35,2.3,2.07,3.06,3.38c2.6,4.86,6.88,8.59,11.56,11.39
		c2.38,1.6,1.74,5.23-0.73,6.39c-5.33,3.15-9.52,8.25-11.23,14.24c-0.66,1.61-1.06,3.71-2.81,4.5c-2.01-0.65-2.35-2.99-3.07-4.68
		c-1.57-5.61-5.47-10.42-10.34-13.54c-1.45-0.98-3.34-2.23-3.1-4.25c0.14-2.02,2.07-3.03,3.55-4.03
		C76.03,359.51,79.48,355.9,81.7,351.61z"/>
</g>
<g>
	<path fill="#FFFFFF" d="M103.26,73.96c1.38,0.1,2.69,0.55,3.96,1.09c-12.55,13.17-25.74,25.72-38.45,38.73
		c-12.29,12.1-24.29,24.51-36.69,36.51c-2.45-3.51-2.49-8.34-1.47-12.41c0.08,2.7,0.23,5.42,0.86,8.05
		C55.41,121.96,79.6,98.21,103.26,73.96z"/>
	<path fill="#FFFFFF" d="M117.22,80.17c0.96,0.75,1.87,1.58,2.71,2.46c-26.48,26.41-52.92,52.86-79.32,79.35
		c-1.2-0.73-2.35-1.56-3.37-2.53c2.67-1.69,4.87-3.97,7.02-6.26C68.61,128.89,92.97,104.58,117.22,80.17z"/>
	<path fill="#FFFFFF" d="M126.39,90.91c0.68,1.17,1.27,2.43,1.62,3.75c-21.05,20.73-41.81,41.76-62.76,62.61
		c-3.05,3.17-6.41,6.06-9.16,9.51c4.28,0.37,8.6,0.58,12.88,0.22c1.34,0.02,2.35-0.92,3.27-1.76
		c14.49-14.51,29.02-28.98,43.49-43.51c4.77-4.66,9.27-9.61,14.33-13.96c1.29,0.51,2.45,1.26,3.67,1.91c-1.42,0.88-2.8,1.86-4,3.03
		c-14.93,15.09-30.02,30.02-44.98,45.08c-2.93,2.97-6.11,5.73-8.69,9.04c4.84,0.19,9.81,0.78,14.59-0.21
		c13.56-13.05,26.67-26.62,40.09-39.84c3.6-3.79,7.67-7.17,10.76-11.42l0.19-0.23c1.03,1.07,2.05,2.15,3.02,3.27l-0.11,0.09
		c-1.89,1.48-3.68,3.07-5.37,4.78c-12.29,12.33-24.61,24.61-36.91,36.94c-2.17,2.12-4.38,4.23-6.26,6.63
		c4.31,0.28,8.66,0.51,12.97,0.13c1.8-0.08,3.03-1.56,4.27-2.67c9.53-9.78,19.29-19.33,28.9-29.03c2.54-2.55,5.31-4.92,7.25-8
		l0.23-0.33c0.32,1.85,0.8,3.67,1.1,5.52c-5.05,3.67-9.04,8.54-13.53,12.83c-6.97,7.2-14.45,13.93-21.09,21.43
		c1.98,0.28,3.97,0.48,5.97,0.64c-0.51,0.1-1.53,0.29-2.04,0.38c-19.99,0.34-40.01-0.01-60.02,0.19c-3.7,0.01-7.34-0.74-10.96-1.39
		c2.3-0.56,4.12-2.09,5.68-3.8C78.58,138.72,102.71,115.03,126.39,90.91z"/>
	<path fill="#FFFFFF" d="M398.94,95.02c3.05,0.12,6.02,0.91,8.99,1.56c-3.13,0.48-5.06,3.11-7.17,5.18
		c-16.28,16.37-32.67,32.64-48.98,48.99c-1.18,1.11-1.79,2.63-2.28,4.14c-0.48-2.4-0.82-4.82-1.09-7.25l0.26-0.09
		c1.44-0.3,2.65-1.14,3.62-2.23c13.53-13.85,27.35-27.41,40.98-41.17c2.49-2.57,5.27-4.88,7.47-7.73
		C400.29,96.07,399.39,95.37,398.94,95.02z"/>
	<path fill="#FFFFFF" d="M354.9,162.51c20.5-20.22,40.59-40.85,61.23-60.92c1.12,0.46,1.99,1.32,2.75,2.25
		c-20.55,20.09-40.71,40.6-61.06,60.91C356.79,164.07,355.84,163.29,354.9,162.51z"/>
	<path fill="#FFFFFF" d="M379.75,157.74c14.83-14.65,29.28-29.71,44.38-44.08c0.8,1.22,0.96,2.72,0.8,4.15
		c-16.9,16.5-33.51,33.32-50.17,50.08c-1.63,0.17-3.27,0.07-4.89-0.02C373.04,164.37,376.39,161.05,379.75,157.74z"/>
	<path fill="#FFFFFF" d="M431.35,125.48c1.23,0.87,2.4,1.83,3.56,2.81l-0.17,0.15c-4.32,3.05-7.65,7.2-11.48,10.81
		c-9.44,9.6-19.15,18.94-28.48,28.64c-1.65,0.17-3.31,0.07-4.94-0.02c9.66-10.32,20.01-19.98,29.88-30.1
		C423.59,133.67,428.04,130.09,431.35,125.48z"/>
	<path fill="#FFFFFF" d="M440.41,136.99c1.3,3.87,2.28,8.11,0.86,12.09c-0.1-2.34-0.22-4.68-0.47-7c-2.41,1.82-4.44,4.06-6.54,6.21
		c-6.49,6.57-13.17,12.94-19.52,19.63c-1.63,0.14-3.26,0.05-4.88-0.06C419.82,157.35,430.3,147.35,440.41,136.99z"/>
</g>
<g opacity="0.3">
	<g>
		<path fill="#707A8B" d="M269.69,78.87c0.69,0.06,1.38,0.128,2.08,0.227c-0.36,0.247-1.07,0.75-1.42,1.008
			c2.13,0.761,4.79,0.988,6.72-0.415c0.97,0.109,1.94,0.267,2.9,0.494c-0.48,0.208-1.45,0.603-1.93,0.8
			c28.22,3.546,55.1,16.249,76.14,35.097c-6.15,4.455-9.71,12.397-7.6,19.845c-2.32,4.544-4.35,9.454-3.97,14.669
			c0.67,11.004,9.81,20.211,20.35,22.878c5.25,1.363,10.7,0.75,16.06,0.879c9.01-0.119,18.03,0.108,27.04-0.059
			c6.52-0.04,13.26,0.651,19.56-1.462c10.06-3.072,18.68-11.113,21.3-21.327c1.42-4.712,0.73-9.671-0.26-14.383l0.84-0.306
			c26.61,24.053,43.67,58.222,46.17,93.823c1.22,13.908,0.02,28.36-6.11,41.123c-7.91,17.623-21.61,31.719-34.61,45.766
			c-13.96,15.212-28.39,30.889-35.92,50.349c-3.85,29.487-17.25,57.956-38.33,79.224c-0.47-5.937-0.09-11.903-0.23-17.86
			c0.06-29.763-0.07-59.526,0.06-89.289c4.15-0.385,8.32,0.04,12.48-0.228c2.07,0.03,3.28-2.558,2.3-4.247
			c-4.56-12.783-9.72-25.368-13.99-38.229c16.72-10.53,33.44-21.06,50.17-31.59c1.72-0.84,2.96-2.875,1.68-4.623
			c-9.91-18.156-20.04-36.244-29.94-54.38c-1.16-1.59-3.38-1.472-4.83-0.375c-14.84,8.199-29.51,16.685-44.42,24.745
			c-5.6-5.473-9.73-12.407-15.37-17.731c-20.84-0.613-41.78,0.02-62.65-0.307c-0.05-20.358-0.2-40.738,0.07-61.097
			c16.32-0.128,32.65,0.089,48.97-0.099c2.61,0.198,3.92-3.546,1.87-5.078c-22.43-22.305-45.01-44.471-67.49-66.737
			C261.45,79.038,265.78,80.529,269.69,78.87z M333.15,175.341c-2.07,2.578-3.53,5.739-6.43,7.586
			c-1.45,1.116-4.32,2.272-3.21,4.544c1.86,1.837,4.38,2.973,5.87,5.196c1.88,2.252,2.29,5.226,3.79,7.686
			c2.19-0.188,2.1-2.736,2.91-4.229c1.28-3.645,4.42-6.065,7.43-8.268c1.8-1.669-0.51-3.527-1.96-4.327
			c-3.1-1.768-5.03-4.801-6.81-7.754C334.34,175.667,333.55,175.449,333.15,175.341z M464.32,212.235
			c-1.69,0.583-2.24,2.42-3.08,3.794c-2.51,4.642-6.73,8.08-11.21,10.787c-2.26,1.225-2.4,4.574-0.33,6.055
			c4.43,2.806,8.63,6.362,10.78,11.222c1.18,2.252,1.58,4.821,2.92,6.994c0.46,0.998,1.24,1.304,2.31,0.939
			c1.36-1.501,1.94-3.497,2.59-5.354c1.78-5.176,5.44-9.681,10.13-12.585c1.32-0.869,2.89-1.808,3.21-3.497
			c0.47-2.094-1.38-3.704-3.03-4.633c-4.5-2.618-8.22-6.52-10.63-11.093C467.25,213.56,466.1,211.752,464.32,212.235z"/>
	</g>
	<g>
		<path fill="#707A8B" d="M167.43,113.454c19.93-16.961,44.8-28.271,70.82-32.153c-21.99,21.919-44.21,43.612-66.21,65.522
			c-1.98,1.64-0.47,5.215,2.11,4.988c15.61,0.178,31.24-0.099,46.85,0.139c-0.06,20.349,0.06,40.698-0.06,61.047
			c-23,0.158-46-0.01-69,0.079c-1.56-0.138-3.01,0.662-3.62,2.104c-3,5.423-5.86,10.916-8.79,16.378
			c-1.36-0.307-2.56-1.027-3.79-1.65c-13.9-7.369-28.01-14.363-41.84-21.851c-1.72-1.541-4.65-1.324-5.75,0.81
			c-11.14,15.449-22.13,30.998-33.21,46.497c-1.42,1.531-0.56,3.813,1.15,4.722c17.65,11.894,35.28,23.807,52.96,35.651
			c0.99,0.731,2.91,1.601,1.89,3.161c-3.72,12.141-7.42,24.301-11.11,36.461c-0.81,1.57-0.2,3.733,1.61,4.257
			c3.46,0.455,6.99-0.03,10.47,0.267c-0.01,31.946,0.01,63.902-0.01,95.858c-43.15-11.024-79.93-43.316-96.34-84.202
			c-5.13-12.407-8.29-25.584-9.68-38.9c-0.72-8.802-1.36-17.791,0.68-26.473c1.52-7.251,4.72-14.008,8.19-20.517
			c5.11,3.398,6.94,9.285,9.36,14.511c0.43-0.059,1.29-0.158,1.72-0.207c1.85-2.964,2.27-6.619,4.48-9.395
			c1.84-2.815,4.59-4.801,7.35-6.648c1.87-1.057,1.8-4.168-0.03-5.226c-4.1-2.549-7.92-5.779-10.12-10.125
			c14.7-18.195,33.99-32.914,45.4-53.619c1.49,2.766,3.74,5.482,7.09,5.927c4.73,1.096,9.79-2.361,10.49-7.093
			c1.19-6.599,2.34-13.227,4.28-19.678c12.39-0.642,25.31,1.758,37.19-2.746c12.09-4.495,22.18-14.976,24.55-27.718
			c1.31-6.036,0.51-12.348-1.69-18.087C159.01,121.504,162.95,117.197,167.43,113.454z M81.7,349.81
			c-2.22,4.238-5.67,7.804-9.76,10.323c-1.48,0.988-3.41,1.985-3.55,3.981c-0.24,1.995,1.65,3.23,3.1,4.198
			c4.87,3.083,8.77,7.834,10.34,13.375c0.72,1.669,1.06,3.981,3.07,4.623c1.75-0.78,2.15-2.855,2.81-4.445
			c1.71-5.917,5.9-10.955,11.23-14.067c2.47-1.146,3.11-4.731,0.73-6.312c-4.68-2.766-8.96-6.451-11.56-11.251
			c-0.76-1.294-1.37-2.993-3.06-3.339C83.3,346.836,82.39,348.496,81.7,349.81z"/>
	</g>
</g>
<g>
	<path fill="#C1EDC5" d="M189.32,137.35c19.65-19.85,39.39-39.64,59.27-59.26c19.68,19.76,39.5,39.39,59.11,59.23
		c-7.54,0.79-15.2,0.98-22.75,0.29c0.75-1.4,1.73-2.66,2.53-4.02c-0.15-0.38-0.45-1.14-0.6-1.52c-2.29,1.58-4.04,3.88-6.5,5.21
		c-3.37,0.98-7.5,0.14-10.15,2.93c-1.69,1.4-1.85,3.69-1.9,5.72l-0.11,0.91c-0.84,2.4-1.91,4.81-3.87,6.51
		c-12.59,12.18-24.56,24.99-37.33,36.96c-0.02-14.45-0.03-28.91,0.04-43.37c0.79-3.91-1.73-7.38-5.06-9.13
		c-5.32-0.19-10.65,0.25-15.97-0.01C200.46,137.41,194.79,138.87,189.32,137.35z"/>
	<path fill="#C1EDC5" d="M258.71,163.68c2.74-2.59,5.06-5.68,8.29-7.72c0.5,4.31,0.48,8.67,0.22,13c-0.06,1.87-1.72,3.09-2.85,4.38
		c-12.56,12.22-24.65,24.93-37.36,36.99c-0.03-5.05-0.08-10.11,0.03-15.16C237.79,184.88,248.07,174.11,258.71,163.68z"/>
	<path fill="#C1EDC5" d="M260.19,182.16c2.15-2.16,4.18-4.5,6.76-6.17c0.51,4.62,0.69,9.34,0.15,13.97
		c-1.92,3.05-4.84,5.27-7.29,7.87c-10.99,10.77-21.55,21.97-32.79,32.47c-0.05-5.04-0.08-10.08,0.01-15.11
		C238.23,204.33,249.13,193.16,260.19,182.16z"/>
	<path fill="#C1EDC5" d="M242.23,220.16c8.33-8.01,16.05-16.7,24.75-24.3c0.52,4.38,0.51,8.81,0.2,13.21
		c-0.08,1.82-1.72,2.99-2.82,4.26c-12.52,12.27-24.7,24.89-37.34,37.05c-0.05-5.08-0.08-10.17,0.02-15.24
		C232.3,230.35,237.05,225.03,242.23,220.16z"/>
	<path fill="#C1EDC5" d="M257.73,224.69c3.06-2.93,5.72-6.3,9.18-8.78c0.58,4.34,0.59,8.75,0.33,13.12c0.06,1.36-1.13,2.28-1.9,3.25
		c-6.52,6.52-13.03,13.06-19.59,19.55c-2.35,2.28-4.39,4.93-7.1,6.81c-3.81,0.89-7.77,0.33-11.63,0.34
		c-0.07-1.28-0.07-2.55,0.01-3.83C237.42,245.15,247.46,234.81,257.73,224.69z"/>
	<path fill="#C1EDC5" d="M264.22,238.11c0.82-0.84,1.75-1.57,2.78-2.13c0.53,4.61,0.47,9.31,0.13,13.93
		c-1.08,2.17-3.19,3.59-4.77,5.39c-1.65,1.43-2.97,3.84-5.45,3.71c-4.28,0.16-8.57,0.19-12.83-0.19c1.25-2.23,3.28-3.84,5.04-5.63
		C254.16,248.17,259.27,243.22,264.22,238.11z"/>
</g>
<g>
	<path fill="#C1EDC5" d="M280.38,137.28c2.46-1.33,4.21-3.63,6.5-5.21c0.15,0.38,0.45,1.14,0.6,1.52c-0.8,1.36-1.78,2.62-2.53,4.02
		c7.55,0.69,15.21,0.5,22.75-0.29l0.12-0.01c2.42,2.63,5.18,4.94,7.37,7.78c-14.4,0.26-28.81,0.06-43.21,0.09
		c-1.28-0.09-2.45,0.45-3.65,0.75c0.05-2.03,0.21-4.32,1.9-5.72C272.88,137.42,277.01,138.26,280.38,137.28z"/>
	<path fill="#C1EDC5" d="M189.2,137.32l0.12,0.03c5.47,1.52,11.14,0.06,16.71,0.45c5.32,0.26,10.65-0.18,15.97,0.01
		c3.33,1.75,5.85,5.22,5.06,9.13c-1-0.57-1.76-1.87-3.06-1.7c-14.11-0.16-28.22,0.11-42.33-0.05
		C183.86,142.31,186.79,140.04,189.2,137.32z"/>
	<g>
		<path fill="#C1EDC5" d="M264.35,153.35c1.96-1.7,3.03-4.11,3.87-6.51c-0.47,3.38-0.15,6.81-0.22,10.21
			c-0.07,37.61,0.12,75.22-0.11,112.83c-13.62,0.07-27.25,0.02-40.87,0c-0.07-3.63-0.06-7.27,0-10.9c3.86-0.01,7.82,0.55,11.63-0.34
			c2.71-1.88,4.75-4.53,7.1-6.81c6.56-6.49,13.07-13.03,19.59-19.55c0.77-0.97,1.96-1.89,1.9-3.25c0.26-4.37,0.25-8.78-0.33-13.12
			c-3.46,2.48-6.12,5.85-9.18,8.78c-10.27,10.12-20.31,20.46-30.7,30.46c-0.04-1.59-0.08-3.18-0.01-4.77
			c12.64-12.16,24.82-24.78,37.34-37.05c1.1-1.27,2.74-2.44,2.82-4.26c0.31-4.4,0.32-8.83-0.2-13.21
			c-8.7,7.6-16.42,16.29-24.75,24.3c-5.18,4.87-9.93,10.19-15.19,14.98c-0.06-1.62-0.08-3.23-0.02-4.84
			c11.24-10.5,21.8-21.7,32.79-32.47c2.45-2.6,5.37-4.82,7.29-7.87c0.54-4.63,0.36-9.35-0.15-13.97c-2.58,1.67-4.61,4.01-6.76,6.17
			c-11.06,11-21.96,22.17-33.16,33.03c-0.06-1.62-0.07-3.24-0.02-4.86c12.71-12.06,24.8-24.77,37.36-36.99
			c1.13-1.29,2.79-2.51,2.85-4.38c0.26-4.33,0.28-8.69-0.22-13c-3.23,2.04-5.55,5.13-8.29,7.72c-10.64,10.43-20.92,21.2-31.67,31.49
			c-0.06-1.62-0.08-3.24-0.02-4.86C239.79,178.34,251.76,165.53,264.35,153.35z M264.22,238.11c-4.95,5.11-10.06,10.06-15.1,15.08
			c-1.76,1.79-3.79,3.4-5.04,5.63c4.26,0.38,8.55,0.35,12.83,0.19c2.48,0.13,3.8-2.28,5.45-3.71c1.58-1.8,3.69-3.22,4.77-5.39
			c0.34-4.62,0.4-9.32-0.13-13.93C265.97,236.54,265.04,237.27,264.22,238.11z"/>
	</g>
</g>
<g>
	<path fill="#6C6C33" d="M76.3,173.72c0.45,0,1.35,0.01,1.8,0.01c0.16,7.13-1.73,14.18-4.98,20.49
		C72.7,187.27,74.77,180.44,76.3,173.72z"/>
</g>
<g>
	<path fill="#AEB480" d="M78.1,173.73c5.56-0.06,11.11-0.07,16.67,0c-1.94,6.53-3.09,13.24-4.28,19.92
		c-0.7,4.79-5.76,8.29-10.49,7.18c-3.35-0.45-5.6-3.2-7.09-6l0.21-0.61C76.37,187.91,78.26,180.86,78.1,173.73z"/>
</g>
<g>
	<path fill="#7FE5FF" d="M464.32,212.34c1.78-0.49,2.93,1.34,3.66,2.66c2.41,4.63,6.13,8.58,10.63,11.23
		c1.65,0.94,3.5,2.57,3.03,4.69c-0.32,1.71-1.89,2.66-3.21,3.54c-4.69,2.94-8.35,7.5-10.13,12.74c-0.65,1.88-1.23,3.9-2.59,5.42
		c-1.07,0.37-1.85,0.06-2.31-0.95c-1.34-2.2-1.74-4.8-2.92-7.08c-2.15-4.92-6.35-8.52-10.78-11.36c-2.07-1.5-1.93-4.89,0.33-6.13
		c4.48-2.74,8.7-6.22,11.21-10.92C462.08,214.79,462.63,212.93,464.32,212.34z"/>
</g>
<g>
	<path fill="#FFEBC5" d="M394.32,214.37c1.12-0.49,2.11-1.58,3.44-1.38c0.9,1.46,1.72,2.98,2.48,4.53
		c-10.86,10.51-21.17,21.6-32.26,31.86c-3.48-4.79-4.57-10.77-7.27-15.97C371.95,227.12,383.13,220.73,394.32,214.37z"/>
	<path fill="#FFEBC5" d="M61.71,256.95c9.88-14.42,20.11-28.61,30.19-42.89c12.89,6.57,25.65,13.45,38.51,20.1
		c-2.64,7.4-6.87,14.1-10,21.29c-2.19,5.43-7.31,8.65-11.07,12.87c-4.37,4.18-8.17,9.03-13.21,12.46
		c-10.34-6.92-20.55-14.04-30.88-20.99C64.07,258.86,62.62,258.19,61.71,256.95z"/>
	<path fill="#FFEBC5" d="M153.26,219.16c22.55,0.06,45.09-0.04,67.64,0.05c0.06,2.97,0.17,5.96,0.06,8.94
		c-8.96-1.03-17.95,0.42-26.92-0.4c-7.34,0.15-14.69,0.46-22.03-0.04c-7.82,0.58-15.65,0.06-23.48-0.03
		C150.09,224.83,151.39,221.82,153.26,219.16z"/>
	<path fill="#FFEBC5" d="M273.92,219.17c19.91,0.01,39.81,0.01,59.72,0c2.6,2.51,4.69,5.51,7.04,8.25
		c-3.86,0.85-7.81,0.12-11.71,0.42c-4.32,0.24-8.65,0.27-12.97-0.02c-5.66-0.44-11.32,0.49-16.98,0.13
		c-8.31-0.63-16.63,0.47-24.94-0.01C273.78,225.03,273.91,222.09,273.92,219.17z"/>
	<path fill="#FFEBC5" d="M374.65,247.66c9.21-8.9,17.87-18.36,27.3-27.03c1.79,3.28,3.68,6.53,5.34,9.88
		c-7.61,7.33-14.93,14.97-22.49,22.35c-3.63,3.47-6.83,7.4-10.79,10.52c-2.06-3.14-4.03-6.64-4.31-10.44
		C371.09,250.96,372.92,249.35,374.65,247.66z"/>
	<path fill="#FFEBC5" d="M379.58,262.67c9.9-9.6,19.31-19.71,29.44-29.06c1.83,3.28,3.67,6.56,5.37,9.91
		c-11.46,10.88-22.29,22.41-33.7,33.33c-3.28-1.95-4.08-6.38-4.99-9.83C376.75,265.37,378.18,264.02,379.58,262.67z"/>
	<path fill="#FFEBC5" d="M388.13,274.15c9.33-9.19,18.38-18.66,27.9-27.66c2.97,5.15,5.6,10.48,8.56,15.63
		c-5.94,4.61-12.78,8.18-19.06,12.4c-6.93,4.39-13.75,8.94-20.75,13.23c-1.34-2.08-2.91-4.21-3.04-6.77
		C383.49,278.38,385.94,276.36,388.13,274.15z"/>
	<path fill="#FFEBC5" d="M99.46,283.07c4.08-4.2,7.9-8.75,12.63-12.26c-0.35,3.2-2.09,5.94-3.44,8.78c-1.22,2.41-2.14,5.1-4.24,6.91
		C102.76,285.35,101.06,284.28,99.46,283.07z"/>
	<path fill="#FFEBC5" d="M117.04,300.6c9.89-0.78,19.99-0.06,29.96-0.33c75.35,0.05,150.7-0.03,226.05,0.03
		c1.05,0.96,1.13,2.48,1.68,3.72c3.81,10.45,7.95,20.79,11.36,31.38c-93.06,0.17-186.12,0.09-279.18,0.04
		C109.62,323.66,113.77,312.24,117.04,300.6z"/>
</g>
<g>
	<path fill="#FFEBC5" d="M367.98,249.38c11.09-10.26,21.4-21.35,32.26-31.86c0.65,0.98,1.22,2.02,1.71,3.11
		c-9.43,8.67-18.09,18.13-27.3,27.03c-1.73,1.69-3.56,3.3-4.95,5.28c0.28,3.8,2.25,7.3,4.31,10.44c3.96-3.12,7.16-7.05,10.79-10.52
		c7.56-7.38,14.88-15.02,22.49-22.35c0.67,0.96,1.27,2.01,1.73,3.1c-10.13,9.35-19.54,19.46-29.44,29.06
		c-1.4,1.35-2.83,2.7-3.88,4.35c0.91,3.45,1.71,7.88,4.99,9.83c11.41-10.92,22.24-22.45,33.7-33.33c0.65,0.92,1.21,1.92,1.64,2.97
		c-9.52,9-18.57,18.47-27.9,27.66c-2.19,2.21-4.64,4.23-6.39,6.83c0.13,2.56,1.7,4.69,3.04,6.77l0.06,0.08
		c-2.7,1.58-5.28,3.35-7.95,4.96c-7.67-18.23-15.52-36.4-22.95-54.72c1.52-2.41,4.48-3.19,6.77-4.66
		C363.41,238.61,364.5,244.59,367.98,249.38z"/>
</g>
<g>
	<path fill="#EAD9BE" d="M340.68,227.42l0.08-0.01c1.45,1.91,3.07,3.68,4.43,5.66c-23.75,0.19-47.51,0.06-71.26,0.07
		c-0.03-1.74-0.19-3.5,0.15-5.2c8.31,0.48,16.63-0.62,24.94,0.01c5.66,0.36,11.32-0.57,16.98-0.13c4.32,0.29,8.65,0.26,12.97,0.02
		C332.87,227.54,336.82,228.27,340.68,227.42z"/>
	<path fill="#EAD9BE" d="M145.87,233.08c0.77-1.86,1.69-3.65,2.66-5.4c7.83,0.09,15.66,0.61,23.48,0.03
		c7.34,0.5,14.69,0.19,22.03,0.04c8.97,0.82,17.96-0.63,26.92,0.4c0.07,1.66,0.07,3.32,0.01,4.99
		C195.94,233.13,170.91,233.25,145.87,233.08z"/>
	<path fill="#EAD9BE" d="M130.41,234.16c2.1,1.2,4.46,2.05,6.33,3.58c-7.69,18.07-15.22,36.21-22.91,54.27l-0.5,0.63
		c-2.86-2.21-5.96-4.07-8.92-6.14c2.1-1.81,3.02-4.5,4.24-6.91c1.35-2.84,3.09-5.58,3.44-8.78c-4.73,3.51-8.55,8.06-12.63,12.26
		c-1.19-0.66-2.29-1.47-3.41-2.21l0.08-0.08c5.04-3.43,8.84-8.28,13.21-12.46c3.76-4.22,8.88-7.44,11.07-12.87
		C123.54,248.26,127.77,241.56,130.41,234.16z"/>
</g>
<g>
	<path fill="#C1AEA9" d="M143.22,239.3c25.87-0.02,51.75-0.08,77.62,0.02c0.19,3.52,0.23,7.05,0.11,10.58
		c-8.64,0.66-17.29-0.07-25.93,0.18c-6.68,0.47-13.36-0.43-20.04,0.01c-6.97,0.48-13.95-0.43-20.93,0.02
		c-5.25,0.34-10.5-0.2-15.76-0.11C139.93,246.46,140.86,242.39,143.22,239.3z"/>
	<path fill="#C1AEA9" d="M274.06,239.25c24.51,0.08,49.03-0.04,73.54,0.06c1.59,3.58,3.16,7.17,4.43,10.88
		c-14.69-0.17-29.37-0.19-44.06,0.02c-5.02-0.11-10.05-0.45-15.06-0.04c-1.81-0.03-2.98,1.49-4.19,2.59
		c-4.82,4.89-9.66,9.77-14.64,14.51c-0.02-0.74-0.06-2.23-0.08-2.97c4.74-4.48,9.38-9.08,13.88-13.81
		c-4.58-0.99-9.29-0.42-13.93-0.47C274.35,246.43,273.66,242.83,274.06,239.25z"/>
</g>
<g>
	<path fill="#9ADFC0" d="M19.37,253.43c1.93-1.87,2.66-4.64,4.6-6.47c1.63-1.17,2.89,0.96,3.54,2.15c2.2,4.4,6.02,7.67,10.12,10.25
		c1.83,1.07,1.9,4.22,0.03,5.29c-2.76,1.87-5.51,3.88-7.35,6.73c-2.21,2.81-2.63,6.51-4.48,9.51c-0.43,0.05-1.29,0.15-1.72,0.21
		c-2.42-5.29-4.25-11.25-9.36-14.69c-2.17-1.05-5.47-3.41-3.51-6.13C13.8,257.85,17.23,256.37,19.37,253.43z"/>
</g>
<g>
	<path fill="#CFB9AC" d="M138.29,250c5.26-0.09,10.51,0.45,15.76,0.11c6.98-0.45,13.96,0.46,20.93-0.02
		c6.68-0.44,13.36,0.46,20.04-0.01c8.64-0.25,17.29,0.48,25.93-0.18c0.05,7.75-0.03,15.5,0.08,23.25c0.07,2.44,2.91,3.33,4.94,2.87
		c13.66-0.27,27.35-0.06,41.01-0.05c2.31-0.29,5.63,0.74,6.78-2.01c0.28-2.23-0.02-4.48,0.32-6.69c4.98-4.74,9.82-9.62,14.64-14.51
		c1.21-1.1,2.38-2.62,4.19-2.59c5.01-0.41,10.04-0.07,15.06,0.04c14.69-0.21,29.37-0.19,44.06-0.02
		c6.45,14.43,12.47,29.17,18.52,43.81c-83.58-0.02-167.16-0.02-250.75-0.01C125.84,279.28,132.1,264.65,138.29,250z"/>
	<path fill="#CFB9AC" d="M273.95,250.02c4.64,0.05,9.35-0.52,13.93,0.47c-4.5,4.73-9.14,9.33-13.88,13.81
		C273.81,259.54,273.87,254.78,273.95,250.02z"/>
</g>
<g>
	<path fill="#E1C9B8" d="M118.02,341.58c84.81-0.22,169.64-0.05,254.46-0.08c0.02,2.88-0.07,5.76-0.02,8.64
		c-7.39-1.47-14.93-1.01-22.38-0.49c-6.41-0.69-12.87-0.68-19.28,0.06c-5.56-0.31-11.14-0.99-16.7-0.28
		c-4.7,0.7-9.39-0.52-14.1-0.31c-4.35-0.12-8.67,1.07-13,0.34c-5.64-0.78-11.32-0.05-16.96,0.23c-5.01-0.42-10.04-0.9-15.06-0.33
		c-5.99,0.9-11.98-0.82-18-0.2c-8.18,1.24-16.4-0.96-24.59,0.42c-7.18-0.13-14.38-0.95-21.55,0.12c-6.92-0.83-13.87-0.61-20.79,0
		c-6.36-0.79-12.75-0.72-19.11,0c-6.67-0.63-13.42-0.97-20.06,0.2c-4.31-0.22-8.6-1.14-12.96-0.85
		C117.86,346.56,117.87,344.06,118.02,341.58z"/>
	<path fill="#E1C9B8" d="M346.84,470.82c8.6-8.29,16.61-17.21,25.59-25.08c0.09,1.59,0.17,3.21,0.05,4.81
		c-4.79,3.47-8.54,8.08-12.8,12.13c-5.19,5.43-11.02,10.28-15.67,16.19c5.32,0.66,10.69,0.23,16.03-0.06
		c4.13,0.23,8.23,1.03,12.39,1.08c0.15,4.06-0.05,8.12,0.02,12.19c-84.83,0.1-169.68,0.06-254.52,0.02c-0.1-4.44,0.04-8.89,0-13.33
		c4.73,0.12,9.4,1.21,14.15,0.88c3.6,0.14,7.14-1.17,10.73-0.51c5.72,0.86,11.55,0.6,17.26-0.22c3.66,0.12,7.29,0.95,10.98,0.74
		c4.39,0.19,8.76-1.26,13.13-0.35c5.6,0.8,11.23,0.17,16.81-0.4c6.33,1.06,12.78,0.98,19.12,0.07c5.75,0.51,11.56,1.1,17.32,0.26
		c3.87-0.8,7.72,0.51,11.6,0.41c4.01,0.22,7.98-0.49,11.96-0.76c6.01,0.97,12.15,1.04,18.18,0.14c2.63-0.4,5.22,0.52,7.86,0.57
		c4.66,0.36,9.31-0.32,13.95-0.65c6.32,0.91,12.74,0.97,19.06-0.04c5.79,0.61,11.66,1.13,17.48,0.5
		C341.18,477.25,343.7,473.64,346.84,470.82z"/>
</g>
<g>
	<path fill="#F5D8BD" d="M117.92,349.05c4.36-0.29,8.65,0.63,12.96,0.85c6.64-1.17,13.39-0.83,20.06-0.2
		c6.36-0.72,12.75-0.79,19.11,0c6.92-0.61,13.87-0.83,20.79,0c7.17-1.07,14.37-0.25,21.55-0.12c8.19-1.38,16.41,0.82,24.59-0.42
		c6.02-0.62,12.01,1.1,18,0.2c5.02-0.57,10.05-0.09,15.06,0.33c5.64-0.28,11.32-1.01,16.96-0.23c4.33,0.73,8.65-0.46,13-0.34
		c4.71-0.21,9.4,1.01,14.1,0.31c5.56-0.71,11.14-0.03,16.7,0.28c6.41-0.74,12.87-0.75,19.28-0.06c7.45-0.52,14.99-0.98,22.38,0.49
		c0.02,31.87,0.08,63.73-0.03,95.6c-8.98,7.87-16.99,16.79-25.59,25.08c-3.14,2.82-5.66,6.43-9.32,8.59
		c-5.82,0.63-11.69,0.11-17.48-0.5c-6.32,1.01-12.74,0.95-19.06,0.04c-4.64,0.33-9.29,1.01-13.95,0.65
		c-2.64-0.05-5.23-0.97-7.86-0.57c-6.03,0.9-12.17,0.83-18.18-0.14c-3.98,0.27-7.95,0.98-11.96,0.76c-3.88,0.1-7.73-1.21-11.6-0.41
		c-5.76,0.84-11.57,0.25-17.32-0.26c-6.34,0.91-12.79,0.99-19.12-0.07c-5.58,0.57-11.21,1.2-16.81,0.4
		c-4.37-0.91-8.74,0.54-13.13,0.35c-3.69,0.21-7.32-0.62-10.98-0.74c-5.71,0.82-11.54,1.08-17.26,0.22
		c-3.59-0.66-7.13,0.65-10.73,0.51c-4.75,0.33-9.42-0.76-14.15-0.88C117.9,435.55,117.9,392.27,117.92,349.05z"/>
	<path fill="#F5D8BD" d="M359.68,462.68c4.26-4.05,8.01-8.66,12.8-12.13c0,9.78,0.05,19.56-0.05,29.34
		c-4.16-0.05-8.26-0.85-12.39-1.08c-5.34,0.29-10.71,0.72-16.03,0.06C348.66,472.96,354.49,468.11,359.68,462.68z"/>
</g>
<g>
	<path fill="#FFE870" d="M425.31,427.27c1.61-1.46,2.63,1.06,3.32,2.13c1.69,3.27,4.87,5.21,7.64,7.43c1.56,2.15-1.3,3.62-2.74,4.7
		c-3.73,2.47-4.9,6.88-6.69,10.68c-0.38-0.15-1.13-0.45-1.51-0.6c-1.19-2.96-2.08-6.18-4.46-8.45c-1.38-1.64-3.43-2.48-4.81-4.09
		c-1.02-2.11,1.52-3.24,2.86-4.24C421.79,433.01,423.57,430.08,425.31,427.27z"/>
</g>
</svg>
